<?xml version="1.0" encoding="UTF-8"?>
<svg id="Camada_1" data-name="Camada 1" xmlns="http://www.w3.org/2000/svg" viewBox="0 0 480 480">
  <defs>
    <style>
      .cls-1 {
        fill: #fff;
      }
    </style>
  </defs>
  <path class="cls-1" d="M480,480H0C0,320,0,160,0,0,160,0,320,0,480,0V480Zm-110.21-95.16c.15-.8,.27-1.45,.4-2.1,.32-1.54,1.05-3.06,.18-4.63-.28-.5-.84-.94-.89-1.44-.1-.99-.61-2.05,.3-3.01,.3-.31,.38-.99,.3-1.46-.13-.78-.26-1.95-.75-2.19-.88-.41-.6-.8-.47-1.37,.52-2.31,1.1-4.59-.58-6.77-.38-.49-.51-1.77-.17-2.12,1.1-1.15-.11-2.48,.49-3.62,.06-.11-.7-.66-1.19-1.11,.13-1.1,.33-2.49,.45-3.89,.04-.44-.28-.96-.15-1.35,.44-1.37-.29-2.5-.76-3.6-.23-.53-.58-.77,0-1.21,.15-.12,.3-.38,.28-.56-.1-1.03-.23-2.06-.39-3.08-.1-.63-.35-1.25-.4-1.88-.15-2.01,.44-4.07-.39-6.04-.18-.42-.37-.85-.44-1.29-.09-.5-.17-1.05-.05-1.52,.27-1.11,.69-2.15,.2-3.35-.36-.88-.5-1.88-.57-2.84-.1-1.34,.03-2.69-.06-4.03-.07-1.14-.4-2.26-.46-3.4-.09-1.64-.02-3.3-.07-4.94-.04-1.31-.13-2.62-.25-3.93-.11-1.17-.35-2.32-.43-3.49-.04-.61,.26-1.25,.2-1.86-.19-2.07-.48-4.12-.72-6.18-.09-.78-.24-1.57-.2-2.35,.12-2.25,.44-4.51-.28-6.69-.35-1.05-.17-2.05-.23-3.07-.07-1.27-.29-2.53-.46-3.79-.24-1.83-.61-3.65-.71-5.49-.12-2.24-.08-4.49,0-6.73,.05-1.32,.31-2.62,.46-3.94,.03-.24-.01-.48,0-.72,.24-3.11,.49-6.21,.71-9.32,.06-.84,0-1.69,0-2.54,0-3.72-.03-7.44,0-11.15,0-.8,.12-1.6,.29-2.38,.34-1.53,.82-3.03,1.13-4.56,.35-1.72,.56-3.48,.85-5.21,.17-1,.38-2,.59-2.99,.05-.23,.18-.43,.24-.66,.4-1.52,.79-3.05,1.17-4.57,.35-1.41,.66-2.82,1.03-4.22,.2-.76,.46-1.51,.73-2.25,.36-.97,.77-1.92,1.16-2.88,.62-1.52,1.22-3.04,1.86-4.54,.2-.47,.39-.98,.73-1.34,1.05-1.15,2.53-1.06,3.79-1.37,.43,.66,.77,1.2,1.11,1.73,1.11,1.71,2.24,3.41,3.32,5.14,.86,1.38,1.61,2.84,2.5,4.21,.58,.9,1.37,1.67,1.97,2.56,.89,1.32,1.82,2.65,2.5,4.08,.93,1.95,1.67,4,2.45,6.02,.58,1.52,1.05,3.08,1.65,4.59,.24,.59,.57,1.16,1.48,1.08,1.88-.17,3.77,.09,5.65-.46,1.48-.43,3.06-.51,4.59-.76,.65-.1,1.36-.47,1.92-.31,1.93,.56,3.52-.73,5.35-.8,1.7-.07,3.38-.83,5.07-1.28,1.4-.37,2.8-.71,4.2-1.09,1.21-.34,2.42-.71,3.62-1.09,.59-.18,1.16-.42,1.73-.63-.03-.11-.05-.22-.08-.33,.3,.08,.66,.3,.88,.2,1.13-.48,2.28-.96,3.32-1.61,.73-.46,1.34-.9,2.24-.51,.23,.1,.58,.07,.82-.04,1.53-.66,3.05-1.33,4.55-2.04,1.67-.8,3.35-1.6,4.97-2.49,1.95-1.06,3.89-2.15,5.75-3.36,.64-.41,1.96-.24,1.73-1.27,5.97-2.93,10.66-7.36,15.87-11.31,0-.9,.01-1.94,0-2.97-.03-2.04-.44-3.94-1.75-5.61-.65-.83-1.14-1.8-1.6-2.75-.58-1.2-1.02-2.46-1.58-3.68-.24-.52-.87-1-.86-1.48,.05-1.69-1.26-2.82-1.57-4.35-.17-.81-.8-1.52-1.12-2.32-.54-1.36-.93-2.79-1.51-4.13-.52-1.2-1.27-2.29-1.81-3.48-.42-.91-.59-1.94-1.01-2.85-.36-.78-1.01-1.43-1.36-2.21-1.11-2.48-2.03-5.04-3.22-7.48-.67-1.37-1.42-2.61-1.76-4.17-.38-1.7-1.48-3.23-2.22-4.86-.74-1.64-1.42-3.32-2.13-4.98-.26-.61-.55-1.21-.79-1.83-.52-1.37-.94-2.79-1.52-4.13-.53-1.23-1.28-2.36-1.83-3.57-.43-.95-.64-2-1.06-2.96-.38-.86-.97-1.62-1.34-2.47-.55-1.26-.91-2.59-1.48-3.84-.68-1.47-1.54-2.86-2.22-4.33-.34-.73-.37-1.61-.72-2.33-.85-1.77-1.85-3.47-2.69-5.24-.62-1.32-1.02-2.75-1.63-4.09-.86-1.88-1.88-3.7-2.73-5.58-1.2-2.68-2.32-5.39-3.45-8.1-.36-.86-.55-1.79-.94-2.63-.38-.81-1.04-1.5-1.37-2.33-1-2.49-2.04-4.95-3.61-7.16-.39-.56-.53-1.3-.82-2.06,.45,.14,.71,.22,1.09,.34-.31-.62-.55-1.09-.86-1.7-.13,.46-.21,.76-.34,1.25-.48-.69-.85-1.2-1.2-1.72-1.07-1.61-2.06-3.28-3.21-4.83-1.02-1.37-2.17-2.65-3.37-3.87-2.06-2.08-4.17-4.11-6.33-6.08-1.11-1-2.36-1.85-3.61-2.69-1.39-.94-2.82-1.81-4.26-2.66-.52-.31-1.16-.42-1.68-.73-.64-.39-1.15-1.03-1.82-1.32-1.67-.7-3.36-1.37-5.01-2.13-1.52-.7-3.21-1.02-4.82-1.52-.89-.28-1.79-.53-2.66-.88-1.57-.63-3.11-1.36-4.69-1.99-.98-.39-2.01-.67-3.02-.99-.53-.17-1.05-.34-1.58-.51-.27-.03-.4-.46-.66-.57-.79-.33-1.63-.54-2.45-.81-1.04-.34-2.09-.65-3.1-1.05-.8-.31-1.54-.8-2.35-1.09-1.68-.6-3.39-1.12-5.08-1.68-.71-.23-1.42-.46-2.12-.72-1.11-.4-2.21-.83-3.32-1.22-1.05-.37-2.13-.68-3.17-1.07-.86-.32-1.66-.78-2.52-1.07-1.11-.38-2.27-.61-3.38-.98-1.35-.44-2.67-.98-4.01-1.43-.7-.24-1.47-.32-2.15-.6-1.56-.64-3.11-1.31-4.63-2.04-1.86-.89-3.67-1.87-5.53-2.76-.74-.35-1.55-.55-2.17-.76-.77-.56-1.39-1.11-2.09-1.52-2.15-1.27-4.33-2.48-6.48-3.75-1.64-.96-3.24-2-4.88-2.96-1.5-.88-2.98-1.83-4.57-2.51-1.28-.54-2.54-1.59-4.11-.88-.67,.3-1.08,.04-1.53-.5-.42-.51-.85-1.31-1.8-.71-.14,.09-.72-.17-.76-.35-.31-1.29-1.51-1.56-2.43-2.03-.52-.27-1.32-.03-1.98,.06-.16,.02-.3,.57-.4,.55-1.77-.31-2.55,1.79-4.38,1.7-1.09-.06-2.23,.85-3.34,1.32-.72,.3-1.43,.62-2.16,.89-1.15,.43-2.3,.88-3.48,1.23-1.09,.32-2.22,.48-3.31,.79-1.21,.34-2.39,.83-3.61,1.13-.83,.2-1.73,.12-2.58,.3-1.57,.33-3.11,.86-4.69,1.14-1.96,.34-3.94,.56-5.92,.73-3.29,.29-6.58,.67-9.88,.69-4.08,.03-8.16-.26-12.24-.44-2.28-.11-4.53,.03-6.85-.58-2.11-.56-4.45-.21-6.68-.8-1.88-.5-3.89-.52-5.81-.91-1.59-.32-3.14-.87-4.71-1.29-1.34-.36-2.69-.68-4.03-1.04-.64-.17-1.28-.38-1.9-.61-1.11-.41-2.23-.81-3.32-1.27-.79-.33-1.55-.75-2.33-1.13-1.16-.57-2.32-1.15-3.49-1.71-1.61-.77-2.67,.7-4.01,.97-1.18,.24-2.15,1.87-3.78,.34,.09,.67,.14,1.03,.19,1.36-.68,.14-1.33,.17-1.87,.42-1.82,.83-3.58,1.79-5.41,2.59-1.43,.63-2.97,1.03-4.41,1.64-2.64,1.12-5.25,2.3-7.86,3.49-.9,.41-1.75,.95-2.62,1.43-.31,.18-.76,.07-1.11,.2-.94,.35-1.83,.84-2.76,1.23-1.27,.53-2.56,1.01-3.83,1.55-1.61,.67-3.2,1.38-4.8,2.07-.65,.28-1.31,.56-1.96,.84-1.56,.68-3.2,1.21-4.63,2.09-.75,.46-1.92,.29-2.28,1.39-.03,.08-.4,.04-.6,.08-.33,.08-.68,.15-.99,.29-1.31,.58-2.59,1.2-3.9,1.77-.86,.37-1.77,.61-2.62,.99-1.3,.58-2.54,1.29-3.86,1.83-1.97,.81-4.02,1.42-5.95,2.31-2.19,1.01-4.31,2.14-6.64,2.91-1.64,.54-3.13,1.58-4.85,2.14-2.2,.72-4.27,1.82-6.38,2.8-.86,.4-1.67,.94-2.5,1.41-.3,.16-.76,.03-1.1,.18-1.37,.6-2.68,1.38-4.07,1.93-1.53,.61-3.2,.89-4.69,1.57-1.98,.91-4.17,1.32-5.96,2.71-1.5,1.16-3.2,2.06-4.72,3.2-1.33,.99-2.62,2.06-3.78,3.23-2.09,2.1-4.06,4.32-6.12,6.47-.63,.65-1.35,1.21-2.07,1.84,.05,1.27-1.21,2.07-1.87,3.17-.64,1.06-1.14,2.22-2.09,3.35-.16-.63-.22-.91-.34-1.38-.32,.7-.54,1.2-.81,1.78,.38-.14,.63-.24,1.1-.42-1.52,3.42-3.78,6.34-4.32,10.03-.27-.01-.54-.02-.64-.03-.26,.72-.43,1.31-.69,1.87-.53,1.17-1.15,2.29-1.64,3.47-.99,2.36-1.89,4.77-2.91,7.12-.64,1.47-1.49,2.86-2.15,4.32-.7,1.54-1.28,3.13-1.92,4.7-.35,.85-.72,1.69-1.19,2.78-.07,.12-.32,.47-.5,.85-.15,.31-.17,.68-.31,1-.89,2.03-1.8,4.06-2.7,6.09-1.11,2.49-2.19,4.99-3.35,7.45-.69,1.47-1.55,2.86-2.24,4.33-.56,1.21-.97,2.49-1.44,3.74-.12,.32-.23,.64-.37,.95-.36,.83-.74,1.64-1.11,2.47-.77,1.76-1.52,3.53-2.33,5.27-.05,.11-.47,.05-.71,.09-.28,.05-.55,.12-.82,.18,.01,.07,.02,.14,.03,.22,.41,.08,.82,.16,1.25,.25-1.02,2.24-1.99,4.32-2.91,6.43-.94,2.15-1.82,4.33-2.73,6.49-.62,1.47-1.21,2.96-1.88,4.41-.66,1.42-1.46,2.78-2.11,4.21-.52,1.13-.85,2.35-1.38,3.47-.68,1.46-1.67,2.81-2.17,4.33-.57,1.74-.8,3.59-2.2,4.96-.04,.04,0,.16-.03,.23-.2,.67-.39,1.34-.63,2-.28,.77-.6,1.52-.9,2.28-.06,.29-.44,.45-.59,.74-.51,1.01-.97,2.05-1.4,3.1-.47,1.13-.98,2.25-1.3,3.42-.35,1.29-.25,2.75-.81,3.92-.58,1.22,.13,1.41,.81,1.83,.13,.08,.26,.17,.38,.27,1.93,1.6,3.78,3.31,5.79,4.8,2.8,2.07,5.49,4.29,8.66,5.84,1.64,.8,3.1,1.95,4.66,2.91,.53,.32,1.15,.49,1.7,.8,1.1,.62,2.13,1.37,3.27,1.91,1.81,.85,3.7,1.54,5.54,2.32,1.74,.74,3.45,1.57,5.22,2.22,2.02,.75,4.07,1.39,6.14,2,2.91,.86,5.84,1.66,8.76,2.47,.56,.16,1.14,.24,1.71,.35,.49,.1,.99,.16,1.47,.29,.41,.11,.8,.35,1.21,.44,.57,.13,1.16,.16,1.74,.26,.83,.14,1.66,.36,2.49,.47,2.14,.29,4.29,.54,6.44,.81,.04,0,.07,.04,.11,.05,1.94,.64,3.95,.73,5.94,.53,.59-.06,1.36-.61,1.64-1.15,.49-.97,.57-2.12,.98-3.14,.84-2.1,1.93-4.11,2.63-6.25,.63-1.93,2.6-3.12,2.74-5.27,0-.06,.09-.15,.15-.16,1.31-.23,1.31-1.65,2.12-2.38,.9-.81,1.36-2.11,2.01-3.2,.14-.24,.26-.49,.41-.72,.67-1.07,1.33-2.14,2.01-3.2,.57-.88,1.18-1.75,1.91-2.84,.16,.62,.24,.91,.35,1.33,.32-.63,.56-1.1,.85-1.67-.39,.12-.67,.21-1.29,.41,.75-1.24,1.36-2.25,1.97-3.25,.13,0,.26,0,.4,0,.14,.68,.17,1.41,.45,2.02,.58,1.28,1.35,2.48,1.94,3.76,.57,1.23,.98,2.53,1.54,3.77,.44,.97,1.03,1.88,1.48,2.85,.37,.82,.64,1.7,.94,2.56,.13,.37,.2,.76,.34,1.13,.08,.2,.31,.35,.36,.56,.38,1.4,.12,3.01,1.4,4.11,.09,.08,.07,.31,.06,.46-.12,1.15,1.18,2.08,.49,3.32-.03,.06,.1,.2,.14,.31,.42,1.24,.92,2.46,1.24,3.73,.34,1.37,.47,2.78,.77,4.16,.43,1.93,1.02,3.83,1.37,5.77,.2,1.11-.18,2.34,.89,3.21,.09,.07,.1,.3,.07,.45-.24,1.42-.23,2.75,.19,4.21,.56,1.94,.66,4.04,.78,6.08,.17,2.82,.18,5.65,.26,8.47,.07,2.34,.21,4.69,.22,7.03,0,1.78-.1,3.57-.23,5.35-.2,2.64-.48,5.26-.73,7.9-.03,.31-.17,.6-.23,.91-.17,.91-.34,1.82-.46,2.73-.09,.66-.1,1.33-.18,2-.18,1.61-.56,3.22-.51,4.82,.12,3.92-.19,7.82,.32,11.77,.42,3.21-.19,6.56-.37,9.85-.04,.78-.15,1.57-.24,2.35-.15,1.35-.32,2.7-.47,4.05-.09,.78-.15,1.57-.25,2.35-.14,1.09-.32,2.18-.47,3.27-.09,.66-.15,1.32-.26,1.98-.13,.8-.35,1.58-.45,2.38-.13,1.02-.13,2.05-.26,3.07-.1,.78-.36,1.53-.46,2.31-.3,2.26-.55,4.53-.82,6.8,0,.04-.05,.07-.05,.11-.19,1.44-.38,2.89-.57,4.33-.08,.58-.15,1.17-.25,1.75-.15,.91-.35,1.82-.47,2.73-.29,2.31-.45,4.63-.84,6.92-.29,1.7-1.01,3.34-.39,5.11,.05,.15-.08,.37-.15,.55-.25,.66-.66,1.29-.75,1.97-.31,2.38-.52,4.77-.75,7.17-.11,1.2-.13,2.4-.26,3.59-.1,.93-.32,1.85-.46,2.79-.09,.66-.1,1.34-.19,2-.19,1.43-.97,2.8-.32,4.3,.07,.15,0,.41-.08,.58-.6,1.23-.96,2.51-.88,3.91,.04,.65-.15,1.32-.25,1.98-.14,.91-.31,1.82-.43,2.74-.11,.83-.14,1.66-.25,2.49-.13,.93-.32,1.85-.48,2.78-.1,.62-.17,1.24-.29,1.86-.13,.68-.34,1.34-.43,2.02-.3,2.25-.55,4.5-.83,6.75,0,.04-.05,.07-.06,.1-.19,1.23-.39,2.45-.56,3.68-.27,2.07-.52,4.14-.79,6.2-.02,.19-.15,.36-.18,.55-.17,.88-.34,1.76-.47,2.64-.11,.78-.14,1.57-.24,2.36-.07,.56-.21,1.1-.29,1.66-.14,.96-.28,1.93-.39,2.89-.18,1.49-.56,2.99-.47,4.46,.13,2.14,1.05,4.04,2.69,5.51,.34,.3,.73,.55,1.1,.81,.94,.67,1.81,1.5,2.84,1.97,1.59,.72,3.29,1.2,4.94,1.78,.24,.09,.47,.21,.72,.27,1.13,.29,2.3,.45,3.38,.86,1.12,.42,2.1,1.29,3.44,.93,.07-.02,.17,.06,.25,.1,.49,.22,.95,.53,1.46,.65,1.07,.24,2.22,.24,3.25,.6,1.69,.6,3.31,1.35,5.11,1.59,.58,.08,1.13,.36,1.72,.46,1.67,.29,3.49,.06,4.84,1.27,.49-.24,.97-.36,1.41-.28,.4,.08,.74,.47,1.15,.54,.56,.1,1.15,.03,1.72,.03,.38,0,.75,0,1.19,0,.71,1.09,2.19,1.22,2.99,.09,1.16,2.27,3.14,1.12,4.74,1.2,.1,.28,.14,.68,.27,.72,1.05,.28,2.1,.6,3.16-.13,.27-.19,.9-.05,1.28,.13,.43,.2,.76,.9,1.12,.88,1.44-.07,2.86-.33,4.3-.51,.07,0,.15,.02,.24,.03-.1,.32-.21,.63-.31,.96,1.32,.56,2.52,.37,3.78-.12,.37-.14,1.12,.18,1.43,.53,.39,.45,.62,.82,1.29,.53,.29-.13,.65-.09,.98-.11,1.36-.06,2.73-.11,4.2-.16,0,.02,.1,.28,.26,.49,.36,.47,3.11,.84,3.58,.51,.96-.67,2.66-.81,3.44-.14,1.33,1.16,2.87,.96,4.39,.79,1.44-.16,2.87-.42,4.3-.63-.07,.15-.14,.29-.22,.44,.31,.35,.56,.88,.94,1,.44,.14,1-.09,1.51-.13,1.12-.1,2.18-.12,3.33-.51,1.28-.44,2.87,.03,4.32,.12,.09,0,.2,.15,.24,.25,.38,1.03,1.3,.78,2.06,.83,.38,.02,.76-.19,1.15-.2,2.2-.07,4.39-.09,6.59-.18,2.47-.1,4.94-.25,7.37-.38v1.53c2.38,.23,4.68,.61,7,.66,5,.1,10,.14,14.99,0,5.92-.16,11.85,.57,17.76-.43,1.51-.26,3.08-.17,4.63-.27,4.07-.25,8.16,.48,12.22-.44,1.52-.35,3.14-.34,4.72-.36,2.66-.04,5.33,.38,7.98-.38,2.59-.74,5.33,.12,7.98-.68,1.44-.43,3.07-.19,4.61-.32,1.28-.1,2.57-.18,3.81-.49,2.12-.53,4.29-.03,6.46-.72,1.91-.61,4.08-.08,6.14-.64,1.82-.5,3.77-.56,5.67-.76,1.3-.14,2.62-.08,3.9-.29,1.7-.29,3.36-.81,5.05-1.14,1.11-.22,2.28-.17,3.39-.4,3.11-.63,6.2-1.34,9.3-2.01,1.13-.25,2.26-.49,3.39-.74,.04,0,.1-.02,.11-.04,.5-1.04,1.55-.38,2.33-.7,1.24-.52,2.76-.34,4.08-.74,1.81-.54,3.5-1.49,5.47-1.38,.12,0,.24,0,.35-.05,1.74-.69,3.45-1.48,5.23-2.07,2.46-.81,4.94-1.54,7.23-2.81,1.82-1.01,3.47-2.18,4.71-3.89,.2-.27,.54-.44,.87-.71-.17-.52-.5-1.28,.58-1.22,0-1.21,0-2.41,0-3.6,0-1.22,.32-2.56-.09-3.62-.58-1.51-.59-2.99-.62-4.51,0-.28,0-.56-.04-.83-.21-1.11-.5-2.22-.66-3.34-.1-.71,.05-1.45-.05-2.15-.35-2.34-.63-4.71-1.21-6.99-.45-1.79-.03-3.58-.56-5.42-.74-2.52-.74-5.25-1.07-7.88-.22-1.78-.45-3.57-.68-5.35-.14-.01-.28-.03-.41-.04-.29,.8-.58,1.61-.88,2.41-.14-.03-.28-.06-.42-.1,.17-1.09,.37-2.17,.49-3.26,.12-1.1,.22-2.2,.17-3.3-.03-.63-.4-1.14-1.27-.47,.17-1.04,.4-2.04,.78-2.98,.46-1.14-.11-2.11-1.48-2.03Z"/>
  <path d="M369.79,384.84c1.37-.09,1.94,.89,1.48,2.03-.38,.94-.61,1.94-.78,2.98,.87-.67,1.24-.16,1.27,.47,.05,1.1-.06,2.21-.17,3.3-.12,1.09-.32,2.17-.49,3.26,.14,.03,.28,.06,.42,.1,.29-.8,.58-1.61,.88-2.41,.14,.01,.28,.03,.41,.04,.23,1.78,.46,3.57,.68,5.35,.33,2.64,.33,5.37,1.07,7.88,.54,1.84,.11,3.63,.56,5.42,.58,2.29,.85,4.65,1.21,6.99,.11,.7-.05,1.45,.05,2.15,.16,1.12,.45,2.22,.66,3.34,.05,.27,.04,.56,.04,.83,.04,1.52,.04,3,.62,4.51,.41,1.06,.09,2.4,.09,3.62,0,1.19,0,2.39,0,3.6-1.09-.07-.76,.7-.58,1.22-.33,.27-.67,.44-.87,.71-1.24,1.7-2.89,2.87-4.71,3.89-2.29,1.27-4.77,2-7.23,2.81-1.78,.58-3.49,1.37-5.23,2.07-.11,.04-.23,.06-.35,.05-1.97-.1-3.67,.84-5.47,1.38-1.32,.4-2.83,.22-4.08,.74-.78,.32-1.83-.34-2.33,.7-.01,.03-.07,.03-.11,.04-1.13,.25-2.26,.49-3.39,.74-3.1,.68-6.19,1.38-9.3,2.01-1.11,.23-2.28,.18-3.39,.4-1.7,.33-3.35,.85-5.05,1.14-1.28,.22-2.61,.16-3.9,.29-1.9,.2-3.84,.27-5.67,.76-2.06,.56-4.23,.03-6.14,.64-2.17,.69-4.34,.2-6.46,.72-1.23,.31-2.53,.38-3.81,.49-1.54,.13-3.17-.12-4.61,.32-2.65,.8-5.39-.06-7.98,.68-2.65,.76-5.31,.34-7.98,.38-1.58,.02-3.2,.01-4.72,.36-4.06,.92-8.15,.19-12.22,.44-1.54,.1-3.11,.01-4.63,.27-5.9,1-11.84,.26-17.76,.43-4.99,.14-10,.1-14.99,0-2.31-.05-4.62-.42-7-.66v-1.53c-2.43,.13-4.9,.28-7.37,.38-2.2,.09-4.39,.11-6.59,.18-.39,.01-.77,.22-1.15,.2-.76-.05-1.68,.2-2.06-.83-.04-.1-.15-.24-.24-.25-1.45-.09-3.04-.56-4.32-.12-1.15,.39-2.21,.42-3.33,.51-.51,.04-1.07,.27-1.51,.13-.38-.12-.63-.65-.94-1,.07-.15,.14-.29,.22-.44-1.43,.22-2.86,.48-4.3,.63-1.53,.17-3.06,.37-4.39-.79-.78-.67-2.48-.54-3.44,.14-.47,.33-3.22-.04-3.58-.51-.16-.21-.25-.47-.26-.49-1.47,.06-2.84,.1-4.2,.16-.33,.01-.7-.02-.98,.11-.67,.3-.9-.08-1.29-.53-.3-.35-1.06-.67-1.43-.53-1.26,.49-2.47,.68-3.78,.12,.11-.33,.21-.64,.31-.96-.09-.01-.17-.04-.24-.03-1.43,.19-2.86,.45-4.3,.51-.35,.02-.69-.68-1.12-.88-.38-.18-1-.32-1.28-.13-1.06,.74-2.11,.41-3.16,.13-.14-.04-.17-.44-.27-.72-1.59-.08-3.58,1.07-4.74-1.2-.81,1.13-2.29,1-2.99-.09-.44,0-.81,0-1.19,0-.58,0-1.16,.07-1.72-.03-.4-.07-.74-.47-1.15-.54-.44-.08-.93,.03-1.41,.28-1.35-1.21-3.17-.98-4.84-1.27-.58-.1-1.13-.39-1.72-.46-1.8-.24-3.43-.99-5.11-1.59-1.02-.36-2.17-.36-3.25-.6-.51-.12-.97-.43-1.46-.65-.08-.04-.18-.12-.25-.1-1.33,.36-2.31-.5-3.44-.93-1.08-.41-2.25-.58-3.38-.86-.25-.06-.48-.18-.72-.27-1.65-.58-3.35-1.05-4.94-1.78-1.03-.47-1.9-1.3-2.84-1.97-.37-.27-.77-.51-1.1-.81-1.63-1.47-2.55-3.37-2.69-5.51-.09-1.47,.29-2.97,.47-4.46,.12-.97,.25-1.93,.39-2.89,.08-.55,.22-1.1,.29-1.66,.1-.78,.13-1.58,.24-2.36,.13-.88,.3-1.76,.47-2.64,.04-.19,.16-.36,.18-.55,.27-2.07,.51-4.14,.79-6.2,.16-1.23,.37-2.45,.56-3.68,0-.04,.06-.07,.06-.1,.28-2.25,.53-4.5,.83-6.75,.09-.68,.3-1.34,.43-2.02,.11-.62,.18-1.24,.29-1.86,.16-.93,.35-1.85,.48-2.78,.11-.82,.14-1.66,.25-2.49,.12-.92,.29-1.82,.43-2.74,.1-.66,.29-1.33,.25-1.98-.08-1.4,.28-2.67,.88-3.91,.08-.17,.15-.42,.08-.58-.65-1.5,.13-2.87,.32-4.3,.09-.66,.09-1.34,.19-2,.13-.93,.36-1.85,.46-2.79,.13-1.19,.15-2.4,.26-3.59,.22-2.39,.44-4.79,.75-7.17,.09-.68,.49-1.31,.75-1.97,.07-.18,.2-.4,.15-.55-.62-1.77,.1-3.41,.39-5.11,.39-2.29,.55-4.61,.84-6.92,.11-.92,.32-1.82,.47-2.73,.09-.58,.17-1.16,.25-1.75,.19-1.44,.38-2.89,.57-4.33,0-.04,.05-.07,.05-.11,.27-2.27,.53-4.53,.82-6.8,.1-.78,.36-1.53,.46-2.31,.13-1.02,.14-2.05,.26-3.07,.1-.8,.31-1.58,.45-2.38,.11-.66,.17-1.32,.26-1.98,.15-1.09,.33-2.18,.47-3.27,.1-.78,.16-1.57,.25-2.35,.15-1.35,.31-2.7,.47-4.05,.09-.78,.2-1.56,.24-2.35,.17-3.29,.78-6.64,.37-9.85-.51-3.95-.2-7.85-.32-11.77-.05-1.6,.34-3.21,.51-4.82,.07-.67,.09-1.34,.18-2,.13-.91,.3-1.82,.46-2.73,.06-.31,.2-.6,.23-.91,.26-2.63,.53-5.26,.73-7.9,.14-1.78,.24-3.57,.23-5.35,0-2.34-.15-4.69-.22-7.03-.09-2.82-.09-5.65-.26-8.47-.12-2.04-.22-4.14-.78-6.08-.42-1.47-.43-2.79-.19-4.21,.02-.15,.02-.38-.07-.45-1.07-.87-.69-2.1-.89-3.21-.35-1.94-.94-3.84-1.37-5.77-.3-1.38-.43-2.8-.77-4.16-.32-1.27-.82-2.49-1.24-3.73-.04-.11-.17-.25-.14-.31,.68-1.24-.61-2.17-.49-3.32,.02-.16,.03-.39-.06-.46-1.28-1.1-1.02-2.71-1.4-4.11-.06-.2-.28-.36-.36-.56-.14-.37-.21-.76-.34-1.13-.3-.86-.56-1.73-.94-2.56-.44-.97-1.04-1.88-1.48-2.85-.56-1.24-.97-2.54-1.54-3.77-.59-1.28-1.36-2.47-1.94-3.76-.28-.62-.31-1.35-.45-2.02-.13,0-.26,0-.4,0-.61,1-1.22,2.01-1.97,3.25,.62-.2,.9-.29,1.29-.41-.29,.57-.53,1.04-.85,1.67-.11-.41-.19-.71-.35-1.33-.74,1.09-1.34,1.96-1.91,2.84-.68,1.06-1.35,2.13-2.01,3.2-.15,.23-.27,.48-.41,.72-.65,1.09-1.11,2.39-2.01,3.2-.82,.73-.81,2.15-2.12,2.38-.06,.01-.15,.1-.15,.16-.13,2.15-2.1,3.34-2.74,5.27-.7,2.14-1.79,4.15-2.63,6.25-.41,1.02-.49,2.18-.98,3.14-.27,.54-1.04,1.09-1.64,1.15-1.99,.2-4,.11-5.94-.53-.04-.01-.07-.05-.11-.05-2.15-.27-4.3-.52-6.44-.81-.84-.11-1.66-.32-2.49-.47-.58-.1-1.17-.13-1.74-.26-.42-.09-.8-.33-1.21-.44-.48-.13-.98-.2-1.47-.29-.57-.11-1.15-.19-1.71-.35-2.93-.81-5.85-1.61-8.76-2.47-2.06-.61-4.12-1.25-6.14-2-1.77-.66-3.48-1.49-5.22-2.22-1.85-.78-3.73-1.48-5.54-2.32-1.14-.53-2.17-1.29-3.27-1.91-.54-.31-1.17-.48-1.7-.8-1.56-.95-3.02-2.11-4.66-2.91-3.17-1.55-5.86-3.77-8.66-5.84-2.01-1.49-3.87-3.19-5.79-4.8-.12-.1-.25-.19-.38-.27-.68-.42-1.39-.61-.81-1.83,.56-1.17,.46-2.63,.81-3.92,.32-1.17,.83-2.3,1.3-3.42,.43-1.05,.89-2.09,1.4-3.1,.15-.29,.53-.45,.59-.74,.3-.76,.62-1.51,.9-2.28,.24-.66,.42-1.33,.63-2,.02-.07-.02-.19,.03-.23,1.4-1.36,1.63-3.22,2.2-4.96,.5-1.52,1.48-2.87,2.17-4.33,.53-1.13,.86-2.34,1.38-3.47,.65-1.42,1.45-2.78,2.11-4.21,.67-1.45,1.26-2.94,1.88-4.41,.91-2.16,1.79-4.34,2.73-6.49,.92-2.11,1.9-4.2,2.91-6.43-.43-.08-.84-.17-1.25-.25-.01-.07-.02-.14-.03-.22,.27-.06,.55-.13,.82-.18,.24-.04,.65,.02,.71-.09,.8-1.74,1.56-3.51,2.33-5.27,.36-.83,.74-1.64,1.11-2.47,.14-.31,.25-.64,.37-.95,.48-1.25,.88-2.53,1.44-3.74,.68-1.47,1.55-2.86,2.24-4.33,1.16-2.47,2.24-4.97,3.35-7.45,.91-2.03,1.81-4.06,2.7-6.09,.14-.32,.16-.69,.31-1,.18-.38,.43-.73,.5-.85,.47-1.1,.84-1.94,1.19-2.78,.64-1.57,1.22-3.16,1.92-4.7,.66-1.47,1.51-2.85,2.15-4.32,1.02-2.35,1.91-4.76,2.91-7.12,.5-1.18,1.11-2.31,1.64-3.47,.25-.56,.43-1.15,.69-1.87,.09,0,.37,.02,.64,.03,.54-3.69,2.8-6.61,4.32-10.03-.47,.18-.73,.28-1.1,.42,.26-.58,.49-1.08,.81-1.78,.12,.47,.18,.75,.34,1.38,.95-1.13,1.45-2.28,2.09-3.35,.66-1.1,1.92-1.9,1.87-3.17,.71-.63,1.44-1.19,2.07-1.84,2.05-2.14,4.03-4.36,6.12-6.47,1.17-1.17,2.45-2.24,3.78-3.23,1.53-1.13,3.22-2.04,4.72-3.2,1.79-1.38,3.98-1.8,5.96-2.71,1.49-.68,3.16-.97,4.69-1.57,1.39-.55,2.69-1.33,4.07-1.93,.34-.15,.8-.02,1.1-.18,.83-.48,1.64-1.01,2.5-1.41,2.11-.98,4.18-2.07,6.38-2.8,1.72-.57,3.2-1.6,4.85-2.14,2.33-.77,4.44-1.89,6.64-2.91,1.93-.89,3.98-1.5,5.95-2.31,1.31-.54,2.56-1.25,3.86-1.83,.85-.38,1.76-.62,2.62-.99,1.31-.56,2.6-1.19,3.9-1.77,.31-.14,.66-.21,.99-.29,.2-.05,.57,0,.6-.08,.37-1.1,1.54-.93,2.28-1.39,1.43-.88,3.08-1.42,4.63-2.09,.65-.28,1.31-.56,1.96-.84,1.6-.69,3.19-1.4,4.8-2.07,1.27-.53,2.56-1.01,3.83-1.55,.93-.39,1.82-.87,2.76-1.23,.36-.13,.81-.02,1.11-.2,.87-.48,1.72-1.01,2.62-1.43,2.61-1.19,5.22-2.37,7.86-3.49,1.44-.61,2.97-1.01,4.41-1.64,1.83-.8,3.59-1.76,5.41-2.59,.55-.25,1.2-.27,1.87-.42-.05-.33-.1-.69-.19-1.36,1.63,1.53,2.6-.1,3.78-.34,1.34-.27,2.4-1.74,4.01-.97,1.17,.56,2.32,1.14,3.49,1.71,.77,.38,1.53,.8,2.33,1.13,1.09,.46,2.21,.86,3.32,1.27,.62,.23,1.26,.43,1.9,.61,1.34,.36,2.69,.68,4.03,1.04,1.57,.43,3.12,.97,4.71,1.29,1.92,.38,3.93,.41,5.81,.91,2.23,.59,4.57,.24,6.68,.8,2.32,.62,4.57,.48,6.85,.58,4.08,.19,8.16,.47,12.24,.44,3.29-.02,6.59-.4,9.88-.69,1.98-.17,3.96-.39,5.92-.73,1.58-.27,3.12-.8,4.69-1.14,.84-.18,1.74-.09,2.58-.3,1.22-.3,2.4-.79,3.61-1.13,1.09-.31,2.22-.46,3.31-.79,1.18-.35,2.33-.8,3.48-1.23,.73-.27,1.44-.59,2.16-.89,1.12-.47,2.26-1.38,3.34-1.32,1.83,.1,2.6-2,4.38-1.7,.1,.02,.24-.53,.4-.55,.66-.09,1.46-.32,1.98-.06,.92,.47,2.11,.74,2.43,2.03,.04,.18,.62,.44,.76,.35,.96-.6,1.38,.2,1.8,.71,.45,.54,.87,.81,1.53,.5,1.58-.72,2.84,.33,4.11,.88,1.59,.68,3.07,1.63,4.57,2.51,1.64,.96,3.24,2,4.88,2.96,2.15,1.27,4.34,2.47,6.48,3.75,.7,.42,1.33,.96,2.09,1.52,.61,.21,1.43,.41,2.17,.76,1.86,.89,3.67,1.87,5.53,2.76,1.52,.73,3.07,1.4,4.63,2.04,.69,.28,1.45,.36,2.15,.6,1.34,.46,2.66,.99,4.01,1.43,1.11,.37,2.27,.6,3.38,.98,.86,.29,1.67,.75,2.52,1.07,1.04,.39,2.12,.7,3.17,1.07,1.11,.39,2.21,.82,3.32,1.22,.7,.25,1.41,.48,2.12,.72,1.69,.56,3.4,1.08,5.08,1.68,.81,.29,1.55,.78,2.35,1.09,1.02,.39,2.07,.71,3.1,1.05,.82,.27,1.66,.47,2.45,.81,.26,.11,.39,.54,.66,.57,.53,.17,1.05,.34,1.58,.51,1.01,.33,2.03,.6,3.02,.99,1.58,.63,3.11,1.35,4.69,1.99,.86,.35,1.77,.6,2.66,.88,1.61,.5,3.31,.81,4.82,1.52,1.65,.76,3.33,1.43,5.01,2.13,.67,.28,1.18,.93,1.82,1.32,.52,.31,1.16,.43,1.68,.73,1.44,.85,2.88,1.72,4.26,2.66,1.24,.84,2.5,1.69,3.61,2.69,2.17,1.96,4.27,4,6.33,6.08,1.2,1.21,2.35,2.5,3.37,3.87,1.16,1.54,2.15,3.21,3.21,4.83,.35,.52,.72,1.03,1.2,1.72,.13-.49,.22-.79,.34-1.25,.31,.61,.55,1.08,.86,1.7-.38-.12-.64-.2-1.09-.34,.29,.77,.43,1.51,.82,2.06,1.56,2.21,2.61,4.66,3.61,7.16,.33,.83,.99,1.52,1.37,2.33,.39,.84,.58,1.77,.94,2.63,1.13,2.71,2.25,5.43,3.45,8.1,.85,1.89,1.87,3.7,2.73,5.58,.61,1.33,1.01,2.76,1.63,4.09,.84,1.78,1.84,3.47,2.69,5.24,.35,.73,.38,1.6,.72,2.33,.69,1.47,1.55,2.86,2.22,4.33,.57,1.24,.93,2.58,1.48,3.84,.37,.86,.97,1.62,1.34,2.47,.42,.96,.63,2.01,1.06,2.96,.55,1.22,1.3,2.35,1.83,3.57,.58,1.34,1,2.76,1.52,4.13,.23,.62,.53,1.22,.79,1.83,.71,1.66,1.39,3.33,2.13,4.98,.74,1.63,1.84,3.16,2.22,4.86,.35,1.56,1.1,2.8,1.76,4.17,1.19,2.44,2.12,5,3.22,7.48,.35,.78,1,1.43,1.36,2.21,.42,.91,.6,1.94,1.01,2.85,.54,1.19,1.29,2.28,1.81,3.48,.58,1.34,.97,2.77,1.51,4.13,.32,.8,.95,1.5,1.12,2.32,.32,1.53,1.63,2.66,1.57,4.35-.02,.48,.62,.96,.86,1.48,.55,1.21,1,2.48,1.58,3.68,.46,.95,.95,1.92,1.6,2.75,1.31,1.67,1.72,3.57,1.75,5.61,.02,1.04,0,2.08,0,2.97-5.2,3.96-9.9,8.39-15.87,11.31,.23,1.03-1.09,.86-1.73,1.27-1.86,1.21-3.8,2.3-5.75,3.36-1.63,.89-3.3,1.69-4.97,2.49-1.5,.72-3.02,1.38-4.55,2.04-.24,.1-.59,.13-.82,.04-.9-.38-1.51,.06-2.24,.51-1.04,.65-2.19,1.13-3.32,1.61-.23,.1-.59-.13-.88-.2,.03,.11,.05,.22,.08,.33-.58,.21-1.15,.45-1.73,.63-1.2,.38-2.41,.75-3.62,1.09-1.39,.39-2.8,.72-4.2,1.09-1.69,.45-3.37,1.21-5.07,1.28-1.83,.07-3.42,1.37-5.35,.8-.56-.16-1.28,.2-1.92,.31-1.53,.25-3.12,.33-4.59,.76-1.88,.55-3.77,.29-5.65,.46-.92,.08-1.25-.49-1.48-1.08-.61-1.51-1.07-3.07-1.65-4.59-.78-2.02-1.52-4.07-2.45-6.02-.68-1.43-1.61-2.75-2.5-4.08-.6-.89-1.38-1.66-1.97-2.56-.88-1.37-1.64-2.82-2.5-4.21-1.08-1.73-2.21-3.43-3.32-5.14-.34-.53-.69-1.07-1.11-1.73-1.25,.31-2.74,.22-3.79,1.37-.33,.37-.53,.87-.73,1.34-.63,1.51-1.24,3.03-1.86,4.54-.39,.96-.79,1.91-1.16,2.88-.28,.74-.53,1.49-.73,2.25-.37,1.4-.68,2.82-1.03,4.22-.38,1.53-.77,3.05-1.17,4.57-.06,.23-.19,.43-.24,.66-.21,.99-.42,1.99-.59,2.99-.29,1.74-.5,3.49-.85,5.21-.31,1.53-.79,3.03-1.13,4.56-.17,.78-.29,1.59-.29,2.38-.02,3.72,0,7.44,0,11.15,0,.85,.05,1.7,0,2.54-.22,3.11-.47,6.22-.71,9.32-.02,.24,.02,.48,0,.72-.15,1.31-.41,2.62-.46,3.94-.08,2.24-.12,4.49,0,6.73,.1,1.84,.47,3.66,.71,5.49,.17,1.26,.39,2.52,.46,3.79,.06,1.03-.12,2.03,.23,3.07,.73,2.18,.4,4.45,.28,6.69-.04,.78,.11,1.57,.2,2.35,.24,2.06,.53,4.12,.72,6.18,.06,.61-.24,1.25-.2,1.86,.08,1.17,.32,2.32,.43,3.49,.12,1.31,.21,2.62,.25,3.93,.05,1.65-.03,3.3,.07,4.94,.06,1.14,.39,2.26,.46,3.4,.09,1.34-.04,2.69,.06,4.03,.07,.96,.21,1.96,.57,2.84,.49,1.2,.08,2.24-.2,3.35-.12,.48-.04,1.02,.05,1.52,.08,.44,.27,.87,.44,1.29,.83,1.97,.24,4.03,.39,6.04,.05,.63,.3,1.25,.4,1.88,.16,1.02,.29,2.05,.39,3.08,.02,.18-.13,.45-.28,.56-.58,.45-.23,.68,0,1.21,.47,1.11,1.2,2.24,.76,3.6-.13,.39,.19,.9,.15,1.35-.12,1.4-.32,2.8-.45,3.89,.49,.45,1.25,.99,1.19,1.11-.6,1.14,.61,2.47-.49,3.62-.34,.35-.21,1.63,.17,2.12,1.68,2.18,1.09,4.46,.58,6.77-.13,.57-.41,.96,.47,1.37,.49,.23,.63,1.41,.75,2.19,.08,.47,0,1.15-.3,1.46-.92,.96-.41,2.02-.3,3.01,.05,.51,.61,.94,.89,1.44,.88,1.57,.14,3.1-.18,4.63-.13,.65-.25,1.3-.4,2.1ZM213.05,180.18c.41,.67,.67,1.1,.95,1.52,5.74,8.98,11.48,17.97,17.25,26.93,.44,.69,.5,1.17,.03,1.91-4.44,6.92-8.83,13.88-13.23,20.82-1.66,2.62-3.31,5.23-5.05,7.97,.31,.03,.46,.06,.61,.06,4.04,0,8.07,.03,12.11-.04,.46,0,1.06-.47,1.33-.89,3.91-6.03,7.78-12.09,11.66-18.13,.82-1.27,1.04-1.27,1.87,.03,3.8,6,7.62,12,11.39,18.03,.49,.79,1.01,1.08,1.91,1.03,1.39-.08,2.8-.02,4.2-.02h8.77c-.31-.52-.52-.89-.75-1.25-5.86-9.05-11.71-18.11-17.62-27.12-.63-.97-.57-1.59,.04-2.51,5.95-8.94,11.85-17.92,17.76-26.89,.27-.42,.52-.85,.89-1.46-.63,0-1.02,0-1.4,0-3.8,0-7.59,.03-11.39-.02-.88-.01-1.34,.28-1.78,1.02-3.72,6.24-7.48,12.46-11.23,18.68-.84,1.39-1.05,1.4-1.88,.01-3.74-6.27-7.47-12.56-11.24-18.82-.23-.38-.73-.83-1.11-.84-4.59-.06-9.18-.04-14.07-.04Zm-17.35-70.62c.09-.04,.17-.08,.26-.11,.22,.26,.45,.51,.65,.79,3.49,4.72,6.97,9.45,10.46,14.16,.23,.31,.53,.76,.82,.77,1.41,.08,2.83,.04,4.24,.04v-25.3h-5.15v15.86c-.41-.51-.66-.8-.89-1.1-3.47-4.69-6.93-9.38-10.41-14.06-.22-.3-.55-.72-.84-.74-1.38-.08-2.76-.03-4.15-.03v25.33h5v-15.6Zm49.53,15.63c0-.54,0-.97,0-1.41,0-3.44-.03-6.87,.01-10.31,.03-2.16,1.54-3.67,3.5-3.6,1.93,.07,2.95,1.28,2.95,3.56,0,3.2,0,6.39,0,9.59v2.1h5.05c0-.54,0-.98,0-1.41,0-3.32,0-6.63,0-9.95,0-1.19,.18-2.33,1.19-3.12,1.1-.85,2.33-.99,3.62-.5,1.21,.47,1.65,1.48,1.67,2.67,.05,3.31,.05,6.63,.07,9.94,0,.79,0,1.57,0,2.39h5.14c0-4.74,.14-9.42-.04-14.07-.16-3.96-3.39-6.3-7.3-5.65-2.18,.36-3.81,1.49-4.93,3.65-1.02-2.58-2.88-3.68-5.37-3.72-2.52-.04-4.39,1.11-5.76,3.31v-2.78h-5v19.31h5.19Zm45.74-5.48c-1.35,0-2.58,0-3.81,0-.2,0-.42-.05-.6,.01-.24,.08-.5,.19-.67,.37-1.43,1.51-3.58,2.01-5.47,1.24-1.67-.68-2.59-2.3-2.51-4.55h13.23c0-.79,.02-1.46,0-2.13-.14-5.26-2.89-8.53-7.75-9.22-4.93-.7-9.07,1.89-10.31,6.51-.64,2.39-.66,4.83-.04,7.22,.83,3.18,2.8,5.34,6.04,6.18,2.29,.59,4.61,.52,6.85-.23,2.58-.87,4.35-2.56,5.03-5.41Zm-74.03-4c.03,.37,.08,.93,.14,1.48,.36,3.5,1.79,6.37,5.2,7.7,3.65,1.42,7.35,1.35,10.55-1.19,3.02-2.39,3.57-5.83,3.26-9.42-.65-7.44-7.92-11.31-14.5-7.74-3.55,1.93-4.52,5.26-4.64,9.17Zm107.75,263.27v-1.74h-3.96c-.06-.1-.12-.2-.17-.31,1.03-.97,2.1-1.9,3.08-2.92,.91-.96,1.32-2.13,.69-3.4-.78-1.57-2.24-1.78-3.79-1.66-1.35,.1-2.34,.75-2.84,2.03-.13,.34-.12,.74-.19,1.18h1.81c-.06-.1-.12-.21-.18-.31,.62-.42,1.2-.99,1.89-1.19,.36-.1,1.1,.34,1.33,.73,.51,.89-.14,1.59-.73,2.19-1.07,1.08-2.13,2.16-3.25,3.18-.7,.63-.95,1.3-.61,2.21h6.93Zm-140.8-4.9c-1.28,.21-2.35,.31-3.38,.57-1,.26-1.52,1.02-1.47,2.06,.05,1.06,.59,1.94,1.66,2.04,.96,.1,1.95-.18,2.86-.28,.7,.12,1.42,.24,2.22,.38,0-1.97,.08-3.69-.02-5.39-.09-1.48-1.01-2.24-2.52-2.35-2.14-.16-3.37,.45-3.8,1.89-.03,.09,.04,.22,.12,.61,.72-.25,1.38-.54,2.06-.68,.56-.11,1.19-.17,1.71,0,.28,.09,.38,.72,.58,1.15Zm121.9-.61c.08,.12,.15,.25,.23,.37,.67-.23,1.32-.54,2-.67,.55-.11,1.19-.15,1.71,.02,.27,.09,.37,.72,.57,1.18-1.19,.15-2.14,.2-3.07,.41-1.2,.26-1.85,1.13-1.8,2.2,.05,1.15,.8,2.06,2.04,2.11,.86,.04,1.73-.29,2.23-.39,.96,.17,1.66,.29,2.51,.44,0-1.88,.06-3.55-.02-5.21-.06-1.47-.79-2.26-2.1-2.53-1.79-.37-3.54,.22-4.14,1.41-.1,.2-.12,.44-.17,.66Zm-133.86,.13c-.55-2.35-2.92-3.18-4.98-2.16-.86,.43-1.36,1.1-1.35,2.09,.01,1.01,.58,1.64,1.51,1.93,.72,.23,1.48,.34,2.19,.59,.29,.1,.51,.42,.76,.64-.28,.24-.53,.63-.84,.68-.44,.08-.94-.04-1.38-.17-.74-.21-1.45-.49-2.18-.73-.11,.17-.22,.33-.33,.5,.39,.5,.68,1.17,1.18,1.45,1.49,.84,3.06,.83,4.55-.07,.8-.48,1.09-1.23,1-2.15-.09-.94-.72-1.39-1.53-1.64-.72-.22-1.49-.32-2.2-.56-.28-.09-.48-.44-.71-.67,.24-.23,.45-.63,.71-.67,.44-.06,.92,.08,1.36,.21,.67,.19,1.32,.44,2.23,.74Zm120.15,3.09c-.12,.17-.24,.33-.36,.5,.42,.51,.74,1.21,1.27,1.51,1.45,.8,2.99,.77,4.45-.1,.8-.48,1.11-1.22,1.03-2.14-.08-.94-.7-1.41-1.5-1.66-.72-.23-1.48-.32-2.2-.56-.29-.1-.5-.42-.74-.65,.27-.25,.5-.66,.81-.72,.39-.08,.84,.09,1.25,.21,.69,.2,1.36,.44,2.22,.71-.45-2.23-2.55-3.06-4.69-2.21-.98,.39-1.59,1.07-1.6,2.16,0,1.14,.7,1.74,1.7,2.04,.69,.21,1.41,.3,2.08,.55,.27,.1,.45,.46,.67,.7-.27,.21-.52,.55-.81,.59-.45,.06-.94-.03-1.39-.15-.74-.21-1.46-.51-2.19-.76Zm-138.5-7.69v9.71h6.3v-1.82h-4.33v-7.88h-1.96Zm128.42,.24h-1.99v9.7h6.34v-1.79h-4.34v-7.91Zm-88.4,1.72v7.75h2.04v-9.68c-3.06-.29-4.99,1.22-4.41,3.45,.73-.47,1.45-.93,2.37-1.51Zm-15.82,.46c-.51-.06-.97-.11-1.44-.16-.04-.61-.08-1.15-.12-1.72h-1.93c-.05,.63-.09,1.18-.13,1.7-.41,.08-.75,.15-1.04,.21-.3,1.03-.06,1.63,1,1.59,.05,.18,.09,.26,.09,.34,0,1,.01,2,.02,3,.02,1.84,.6,2.41,2.47,2.4,.35,0,.7-.04,1.08-.06v-1.37c-.09,.06-.17,.13-.26,.19-.41-.42-1.09-.79-1.17-1.27-.18-1.04-.06-2.13-.06-3.21,.56-.09,1.01-.15,1.49-.23v-1.4Zm122.87,1.9c0,1.18-.02,2.33,0,3.49,.03,1.57,.63,2.18,2.17,2.22,.43,0,.86,0,1.35,0v-1.48c-.09,.06-.18,.12-.27,.18-.4-.39-1.07-.73-1.14-1.17-.17-1.08-.05-2.2-.05-3.28,.58-.08,1.01-.13,1.46-.19v-1.46c-.51-.03-.93-.05-1.41-.08-.04-.64-.08-1.22-.11-1.78h-1.94c-.04,.61-.07,1.16-.11,1.75-.38,.05-.72,.1-1.09,.15v1.39c.38,.09,.71,.16,1.14,.26Zm-138.88,5.39h1.93v-7.36h-1.93v7.36Zm128.34-7.12h-1.93v7.36h1.93v-7.36Zm-127.42-.85c.57-.74,1.11-1.13,1.13-1.56,.02-.29-.62-.79-1.04-.92-.65-.19-1.27,.19-1.2,.89,.04,.44,.56,.84,1.11,1.58Zm126.39,.24c.59-.73,1.13-1.11,1.17-1.54,.03-.29-.6-.8-1.02-.93-.64-.2-1.27,.17-1.22,.87,.03,.44,.54,.84,1.08,1.6Z"/>
  <path class="cls-1" d="M213.05,180.18c4.89,0,9.48-.02,14.07,.04,.38,0,.88,.46,1.11,.84,3.77,6.26,7.5,12.54,11.24,18.82,.83,1.38,1.04,1.38,1.88-.01,3.75-6.22,7.51-12.44,11.23-18.68,.44-.74,.9-1.03,1.78-1.02,3.8,.05,7.59,.02,11.39,.02,.39,0,.77,0,1.4,0-.37,.61-.62,1.05-.89,1.46-5.91,8.97-11.81,17.94-17.76,26.89-.61,.92-.67,1.54-.04,2.51,5.91,9.02,11.75,18.08,17.62,27.12,.23,.35,.44,.72,.75,1.25h-8.77c-1.4,0-2.8-.06-4.2,.02-.9,.05-1.42-.24-1.91-1.03-3.76-6.03-7.58-12.02-11.39-18.03-.82-1.3-1.05-1.31-1.87-.03-3.88,6.05-7.75,12.11-11.66,18.13-.27,.42-.88,.89-1.33,.89-4.04,.07-8.07,.04-12.11,.04-.15,0-.29-.03-.61-.06,1.73-2.74,3.39-5.35,5.05-7.97,4.4-6.95,8.8-13.9,13.23-20.82,.47-.73,.42-1.22-.03-1.91-5.77-8.97-11.5-17.95-17.25-26.93-.27-.43-.53-.86-.95-1.52Z"/>
  <path class="cls-1" d="M195.7,109.55v15.6h-5v-25.33c1.39,0,2.77-.04,4.15,.03,.3,.02,.62,.44,.84,.74,3.48,4.68,6.94,9.37,10.41,14.06,.23,.31,.48,.59,.89,1.1v-15.86h5.15v25.3c-1.41,0-2.83,.04-4.24-.04-.29-.02-.6-.47-.82-.77-3.49-4.72-6.98-9.44-10.46-14.16-.2-.27-.43-.52-.65-.79-.09,.04-.17,.08-.26,.11Z"/>
  <path class="cls-1" d="M245.24,125.18h-5.19v-19.31h5v2.78c1.37-2.19,3.25-3.35,5.76-3.31,2.49,.04,4.34,1.14,5.37,3.72,1.12-2.16,2.75-3.29,4.93-3.65,3.91-.65,7.14,1.69,7.3,5.65,.19,4.66,.04,9.33,.04,14.07h-5.14c0-.82,0-1.61,0-2.39-.02-3.31-.02-6.63-.07-9.94-.02-1.19-.46-2.2-1.67-2.67-1.29-.5-2.52-.35-3.62,.5-1.02,.79-1.19,1.93-1.19,3.12,0,3.32,0,6.63,0,9.95,0,.44,0,.88,0,1.41h-5.05v-2.1c0-3.2,0-6.39,0-9.59,0-2.29-1.02-3.5-2.95-3.56-1.95-.07-3.47,1.44-3.5,3.6-.04,3.44-.01,6.87-.01,10.31,0,.43,0,.86,0,1.41Z"/>
  <path class="cls-1" d="M290.97,119.7c-.68,2.85-2.45,4.54-5.03,5.41-2.24,.75-4.56,.82-6.85,.23-3.24-.84-5.21-2.99-6.04-6.18-.63-2.39-.61-4.83,.04-7.22,1.24-4.62,5.38-7.21,10.31-6.51,4.86,.69,7.61,3.96,7.75,9.22,.02,.67,0,1.34,0,2.13h-13.23c-.08,2.24,.84,3.87,2.51,4.55,1.89,.77,4.04,.27,5.47-1.24,.17-.18,.43-.29,.67-.37,.18-.06,.4-.01,.6-.01,1.23,0,2.47,0,3.81,0Zm-5.09-6.29c.03-2.42-1.59-4.06-3.93-4.02-2.3,.03-4.01,1.77-3.93,4.02h7.87Z"/>
  <path class="cls-1" d="M216.95,115.7c.12-3.92,1.09-7.25,4.64-9.17,6.59-3.57,13.86,.3,14.5,7.74,.31,3.59-.24,7.03-3.26,9.42-3.2,2.54-6.9,2.61-10.55,1.19-3.41-1.32-4.84-4.2-5.2-7.7-.06-.55-.1-1.11-.14-1.48Zm5.16-.23c.35,1.34,.55,2.65,1.04,3.84,.58,1.41,1.82,2.06,3.35,2.09,1.53,.02,2.78-.59,3.44-1.96,1.24-2.59,1.25-5.25-.04-7.83-.66-1.33-1.87-1.96-3.33-1.96-1.5,0-2.78,.64-3.38,2.05-.5,1.19-.73,2.49-1.09,3.77Z"/>
  <path class="cls-1" d="M324.69,378.97h-6.93c-.34-.91-.09-1.58,.61-2.21,1.12-1.02,2.19-2.1,3.25-3.18,.6-.6,1.24-1.3,.73-2.19-.23-.39-.97-.83-1.33-.73-.69,.2-1.26,.77-1.89,1.19,.06,.1,.12,.21,.18,.31h-1.81c.07-.45,.05-.84,.19-1.18,.5-1.28,1.49-1.94,2.84-2.03,1.55-.11,3.01,.1,3.79,1.66,.63,1.27,.22,2.44-.69,3.4-.97,1.02-2.05,1.95-3.08,2.92,.06,.1,.12,.2,.17,.31h3.96v1.74Z"/>
  <path class="cls-1" d="M183.9,374.07c-.2-.43-.3-1.05-.58-1.15-.52-.17-1.15-.12-1.71,0-.69,.14-1.34,.43-2.06,.68-.08-.39-.14-.51-.12-.61,.44-1.44,1.67-2.05,3.8-1.89,1.52,.11,2.43,.87,2.52,2.35,.1,1.7,.02,3.42,.02,5.39-.79-.14-1.51-.26-2.22-.38-.9,.1-1.9,.38-2.86,.28-1.07-.11-1.61-.98-1.66-2.04-.05-1.04,.48-1.8,1.47-2.06,1.03-.27,2.1-.37,3.38-.57Zm.24,1.55c-.89,0-1.34-.08-1.74,.02-.45,.12-.9,.36-1.27,.65-.08,.06,.1,.74,.25,.78,.5,.13,1.13,.28,1.54,.08,.44-.22,.7-.83,1.22-1.52Z"/>
  <path class="cls-1" d="M305.8,373.46c.06-.22,.07-.46,.17-.66,.6-1.19,2.34-1.78,4.14-1.41,1.31,.27,2.04,1.06,2.1,2.53,.07,1.66,.02,3.33,.02,5.21-.85-.15-1.55-.27-2.51-.44-.5,.1-1.37,.43-2.23,.39-1.24-.06-1.99-.97-2.04-2.11-.05-1.08,.6-1.94,1.8-2.2,.92-.2,1.88-.26,3.07-.41-.21-.46-.3-1.09-.57-1.18-.52-.18-1.15-.14-1.71-.02-.69,.14-1.34,.44-2,.67-.08-.12-.15-.25-.23-.37Zm4.33,2.32c-.72,.06-1.37,.03-1.96,.19-.28,.08-.66,.55-.63,.81,.02,.28,.42,.67,.73,.76,1.03,.31,1.83-.41,1.87-1.77Z"/>
  <path class="cls-1" d="M171.93,373.59c-.91-.31-1.56-.55-2.23-.74-.44-.12-.92-.26-1.36-.21-.26,.03-.48,.43-.71,.67,.23,.23,.43,.57,.71,.67,.71,.24,1.48,.34,2.2,.56,.8,.25,1.44,.7,1.53,1.64,.09,.92-.21,1.67-1,2.15-1.5,.9-3.06,.91-4.55,.07-.51-.29-.79-.96-1.18-1.45,.11-.17,.22-.33,.33-.5,.73,.25,1.44,.53,2.18,.73,.45,.13,.94,.25,1.38,.17,.31-.05,.56-.44,.84-.68-.25-.22-.46-.54-.76-.64-.71-.25-1.47-.36-2.19-.59-.93-.29-1.49-.92-1.51-1.93-.01-.98,.5-1.66,1.35-2.09,2.06-1.02,4.43-.19,4.98,2.16Z"/>
  <path class="cls-1" d="M292.09,376.67c.73,.26,1.45,.55,2.19,.76,.45,.13,.94,.22,1.39,.15,.29-.04,.54-.38,.81-.59-.22-.24-.4-.6-.67-.7-.67-.24-1.39-.34-2.08-.55-1-.3-1.71-.9-1.7-2.04,0-1.09,.62-1.77,1.6-2.16,2.14-.85,4.25-.02,4.69,2.21-.85-.28-1.53-.52-2.22-.71-.41-.12-.86-.29-1.25-.21-.3,.06-.54,.47-.81,.72,.24,.22,.45,.55,.74,.65,.72,.24,1.48,.33,2.2,.56,.8,.25,1.43,.72,1.5,1.66,.07,.92-.23,1.66-1.03,2.14-1.46,.87-2.99,.89-4.45,.1-.54-.29-.86-.99-1.27-1.51,.12-.17,.24-.33,.36-.5Z"/>
  <path class="cls-1" d="M153.58,368.98h1.96v7.88h4.33v1.82h-6.3v-9.71Z"/>
  <path class="cls-1" d="M282,369.22v7.91h4.34v1.79h-6.34v-9.7h1.99Z"/>
  <path class="cls-1" d="M193.6,370.95c-.92,.59-1.64,1.05-2.37,1.51-.59-2.22,1.35-3.74,4.41-3.45v9.68h-2.04v-7.75Z"/>
  <path class="cls-1" d="M177.78,371.41v1.4c-.47,.07-.93,.14-1.49,.23,0,1.08-.12,2.17,.06,3.21,.08,.48,.76,.85,1.17,1.27,.09-.06,.17-.13,.26-.19v1.37c-.38,.02-.73,.06-1.08,.06-1.87,0-2.45-.56-2.47-2.4,0-1-.01-2-.02-3,0-.08-.04-.15-.09-.34-1.06,.05-1.3-.56-1-1.59,.29-.06,.63-.13,1.04-.21,.04-.53,.08-1.07,.13-1.7h1.93c.04,.56,.08,1.11,.12,1.72,.47,.05,.93,.1,1.44,.16Z"/>
  <path class="cls-1" d="M300.65,373.31c-.43-.1-.76-.17-1.14-.26v-1.39c.37-.05,.71-.1,1.09-.15,.04-.59,.07-1.14,.11-1.75h1.94c.04,.56,.07,1.14,.11,1.78,.48,.03,.91,.05,1.41,.08v1.46c-.45,.06-.88,.12-1.46,.19,0,1.08-.11,2.2,.05,3.28,.07,.44,.74,.78,1.14,1.17,.09-.06,.18-.12,.27-.18v1.48c-.49,0-.92,0-1.35,0-1.54-.04-2.15-.64-2.17-2.22-.02-1.15,0-2.31,0-3.49Z"/>
  <path class="cls-1" d="M161.77,378.7v-7.36h1.93v7.36h-1.93Z"/>
  <path class="cls-1" d="M290.11,371.58v7.36h-1.93v-7.36h1.93Z"/>
  <path class="cls-1" d="M162.69,370.73c-.55-.75-1.07-1.14-1.11-1.58-.07-.7,.55-1.09,1.2-.89,.43,.13,1.06,.62,1.04,.92-.03,.43-.56,.82-1.13,1.56Z"/>
  <path class="cls-1" d="M289.08,370.97c-.53-.76-1.04-1.16-1.08-1.6-.05-.71,.58-1.07,1.22-.87,.42,.13,1.05,.64,1.02,.93-.04,.43-.58,.81-1.17,1.54Z"/>
  <path d="M285.89,113.41h-7.87c-.08-2.25,1.63-3.99,3.93-4.02,2.35-.03,3.96,1.6,3.93,4.02Z"/>
  <path d="M222.11,115.47c.36-1.28,.59-2.58,1.09-3.77,.6-1.42,1.88-2.05,3.38-2.05,1.45,0,2.66,.63,3.33,1.96,1.29,2.59,1.27,5.25,.04,7.83-.66,1.37-1.91,1.98-3.44,1.96-1.53-.02-2.77-.68-3.35-2.09-.49-1.19-.69-2.5-1.04-3.84Z"/>
  <path d="M184.14,375.62c-.53,.69-.78,1.3-1.22,1.52-.41,.2-1.04,.05-1.54-.08-.15-.04-.33-.72-.25-.78,.37-.28,.82-.53,1.27-.65,.4-.1,.85-.02,1.74-.02Z"/>
  <path d="M310.13,375.78c-.04,1.35-.84,2.08-1.87,1.77-.31-.09-.71-.48-.73-.76-.02-.26,.35-.73,.63-.81,.59-.17,1.24-.14,1.96-.19Z"/>
</svg>