<?xml version="1.0" encoding="UTF-8"?>
<svg id="Camada_1" data-name="Camada 1" xmlns="http://www.w3.org/2000/svg" viewBox="0 0 480 480">
  <defs>
    <style>
      .cls-1 {
        fill: #fff;
      }
    </style>
  </defs>
  <path class="cls-1" d="M480,480H0C0,320,0,160,0,0,160,0,320,0,480,0V480Zm-120.89-231.14c.28-.08,.55-.11,.56-.17,.13-1.13,.29-2.27,.32-3.41,.03-.92-.11-1.85-.15-2.78-.06-1.35,.15-2.78-.22-4.04-.3-1.04-.15-1.56,.58-2.23,.31-.29,.37-.93,.39-1.42,.02-.37-.2-.74-.34-1.19,1.09-.11,1.49-.58,1.05-1.6-.11-.26-.12-.63-.02-.89,.42-1.11,1.2-2.15,.6-3.45-.07-.14,.11-.44,.24-.62,1.01-1.39,1.07-2.06,.46-3.09,.42-.97,1.18-1.88,.99-2.5-.35-1.11-.15-1.68,.79-2.06-.18-.61-.34-1.13-.49-1.65l.25-.07c.25,.2,.51,.4,.6,.48,.44-1.1,.86-2.16,1.3-3.27,.31,.49,.51,.81,.72,1.13,.1-.05,.2-.11,.3-.16-.32-.85-.91-1.71-.89-2.55,.02-.94,.59-1.87,.93-2.8,.17,.15,.41,.36,.54,.48,.56-1.51,1.11-2.99,1.66-4.48,.19,.08,.44,.17,.75,.29-.02-.29-.14-.59-.04-.71,.93-1.11,1.95-2.13,3.43-2.45,.29-.06,.82,.17,.98,.43,.59,.97,.98,2.08,1.6,3.02,1.47,2.21,3.08,4.33,4.54,6.55,1.18,1.79,2.21,3.68,3.31,5.53,.07,.12,.24,.17,.31,.29,.58,1.07,1.46,2.1,1.63,3.23,.23,1.56,.61,2.91,1.6,4.16,.65,.82,1.72,1.55,1.29,2.91-.03,.1,.15,.25,.21,.39,.24,.53,.52,1.05,.69,1.6,.21,.7,.35,1.49,1.3,1.37,1.82-.22,3.63,.28,5.51-.39,1.68-.6,3.66-.36,5.4-.86,1.63-.47,3.56,.55,4.92-1.04,.04-.05,.15-.04,.22-.05,.89-.1,1.79-.17,2.68-.29,2.15-.29,4.26-.76,6.33-1.43,1.67-.55,3.36-1.02,5.04-1.53,.93-.28,1.86-.58,2.8-.86,1.01-.3,2.05-.52,3.03-.9,1.57-.61,3.1-1.32,4.65-1.97,.85-.36,1.73-.64,2.54-1.05,1.79-.92,3.83-1.38,5.3-2.91,.37-.38,.89-.61,1.42-.96,.54-.13,1.3-.16,1.9-.48,1.8-.98,3.54-2.07,5.3-3.14,1.8-1.09,3.63-2.14,5.36-3.32,2.39-1.63,4.2-3.9,6.25-5.9,2.82-2.77,3.57-6.02,2.26-9.76-.2-.58-.27-1.2-.4-1.81-.18-.09-.55-.16-.65-.36-.73-1.48-1.44-2.97-2.06-4.5-.14-.35,0-.92,.21-1.29,.38-.69,.47-1.23-.37-1.77-.07,.57-.12,1.02-.18,1.47-.73-1.75-2.75-3.03-1.55-5.38l-.37,.05c-.1,.27-.21,.55-.39,1.01-1-2.44-1.92-4.68-2.74-6.67-.37-.42-.82-.7-.82-.97,0-2.2-1.93-3.68-2.09-5.86-.06-.83-.89-1.58-1.25-2.41-.57-1.32-.76-2.92-1.63-3.98-.98-1.19-.81-2.81-1.91-3.87-.15-.14,.06-.7,.18-1.05,.12-.35,.33-.68,.51-1.01l-.32-.19c-.27,.29-.54,.59-.87,.96-4.54-10.32-9.05-20.55-13.43-30.49-.38-.5-.68-.75-.81-1.07-.31-.77-.44-1.63-.83-2.35-.71-1.31-.6-3.04-2.04-3.96,.66-.89-.48-1.31-.55-2.05-.07-.72-.37-1.44-.68-2.1-.42-.9-.97-1.74-1.43-2.62-.37-.73-.66-1.49-1.02-2.23-.43-.87-1.24-1.72-1.26-2.59-.03-1.06-.83-1.65-.97-2.53-.17-1.12-1.71-1.95-.83-3.06-.36-.28-.8-.45-.93-.75-.34-.77-.46-1.64-.81-2.4-.88-1.89-1.95-3.71-2.75-5.63-.66-1.58-1.24-3.18-2.12-4.66-1.03-1.74-1.96-3.54-2.91-5.32-.1-.19-.13-.51-.03-.68,.82-1.54,.83-1.54-.66-2.56-.04,.4-.09,.79-.17,1.53-1.24-1.83-2.22-3.4-3.32-4.87-1.52-2.03-2.99-4.13-4.74-5.95-1.85-1.91-4.04-3.47-6.02-5.25-3.14-2.83-6.74-4.88-10.58-6.57-1.19-.52-2.42-.96-3.61-1.48-1.42-.61-2.79-1.34-4.24-1.87-1.67-.61-3.41-1.05-5.11-1.6-.71-.23-1.39-.53-2.07-.82-.91-.39-1.8-.84-2.72-1.19-.99-.37-2.04-.58-3.01-.99-2.45-1.05-4.91-2.06-7.53-2.64-.22-.05-.42-.2-.63-.31-.72-.37-1.41-.82-2.17-1.08-1.8-.62-3.65-1.08-5.43-1.72-1.53-.55-3.01-1.26-4.51-1.88-.62-.26-1.24-.51-1.87-.71-1.12-.35-2.25-.67-3.38-.99-.9-.26-1.83-.46-2.71-.77-1.63-.59-3.24-1.24-4.87-1.86-.64-.25-1.29-.5-1.94-.71-1-.32-2.03-.58-3.03-.91-.74-.24-1.47-.55-2.2-.83-.41-.16-.82-.33-.92-.37-.9-.44-1.49-.71-2.07-1.01-1.27-.66-2.54-1.33-3.8-2-.56-.3-1.12-.6-1.65-.94-.96-.6-1.89-1.27-2.86-1.84-1.13-.66-2.31-1.24-3.44-1.88-1.42-.81-2.81-1.66-4.21-2.49-1.48-.87-2.96-1.74-4.45-2.6-.97-.56-1.92-1.21-2.95-1.63-1.32-.53-2.72-.82-3.88-1.72-.37-.29-.88-.39-1.31-.61-1.37-.67-2.74-1.32-4.09-2.04-.73-.39-1.93-.32-2.13,.22-.5,1.31-.88,2.68-1.51,3.92-1.11,2.18-2.37,4.29-3.55,6.43-.18,.33-.3,.69-.44,1.04-.08,.2-.11,.47-.25,.61-.47,.47-1.05,.84-1.48,1.34-1.42,1.64-2.72,3.38-4.21,4.95-1.88,2-3.79,3.97-6.23,5.35-1.48,.84-2.88,1.82-4.27,2.79-.82,.57-1.56,1.24-2.41,1.93-1.17,.31-2.56,.61-3.9,1.06-1.05,.35-2.01,.96-3.07,1.28-1.19,.36-2.45,.47-3.66,.78-1.65,.42-3.26,1.1-4.93,1.36-2.49,.39-5.02,.62-7.54,.74-2.26,.11-4.51,0-6.76-.62-1.48-.4-3.1-.09-4.66-.73-1.36-.56-2.96-.51-4.44-.81-.99-.2-2-.45-2.93-.84-2.03-.85-4.05-1.76-6.03-2.73-1.94-.95-3.95-1.83-5.7-3.07-2.4-1.71-4.75-3.56-6.8-5.66-2.02-2.06-3.61-4.54-5.49-6.75-.43-.51-1.04-.74-.58-1.19-.62-.66-1.31-1.19-1.72-1.88-.54-.89-.84-1.92-1.3-2.86-.28-.58-.61-1.15-1.02-1.64-.38-.45-.55-.7-.07-1.27,.29-.34,.92-1.14-.22-1.62-.06,.52-.11,.97-.16,1.42-.1,.03-.19,.07-.29,.1-.44-1.01-.87-2.03-1.33-3.1-1.02-.11-4.25,1.13-5.28,1.85-.79,.55-1.78,.81-2.69,1.2-.2,.09-.43,.11-.63,.21-.8,.4-1.58,.85-2.39,1.21-1.48,.66-3,1.25-4.48,1.9-1.78,.78-3.53,1.65-5.32,2.4-1.38,.57-2.84,.95-4.2,1.55-1.93,.84-3.74,2.04-5.74,2.65-2.01,.62-3.67,1.94-5.76,2.42-1.42,.32-2.67,1.34-4.04,1.94-1.92,.83-3.89,1.54-5.83,2.33-.73,.3-1.42,.68-2.13,1.01-1.8,.84-3.58,1.7-5.4,2.49-1.54,.67-3.13,1.22-4.67,1.88-1.79,.77-3.53,1.64-5.31,2.4-1.38,.59-2.81,1.04-4.19,1.63-1.47,.63-2.9,1.35-4.35,2.04-.5,.24-.99,.51-1.51,.72-1.96,.78-3.95,1.49-5.89,2.32-1.4,.59-2.71,1.39-4.11,1.98-1.38,.59-2.84,.98-4.22,1.57-1.29,.54-2.5,1.29-3.79,1.83-2.07,.87-4.17,1.64-6.27,2.44-.71,.27-1.69,.29-2.1,.79-.85,1.04-1.42,.69-2.17,.03-.11-.1-.4,0-.61,.01,.12,.19,.21,.41,.37,.54,.12,.1,.34,.08,.93,.2-13.38,7.45-22.05,18.55-27.61,32.32-.37-.44-.61-.73-.89-1.06-.64,1.04,1.5,1.88-.02,2.85-.13-.29-.25-.56-.37-.82,.81,2.3-1.13,3.62-1.59,5.41-.1-.03-.2-.05-.3-.08-.05-.45-.11-.9-.18-1.47-.85,.52-.88,1.3-.38,1.69,.82,.65,.37,1.15,.11,1.74-.36,.84-.69,1.71-1.09,2.53-.34,.7-.77,1.37-1.13,2.01-.3-.32-.55-.58-.8-.84l-.29,.19c.15,.31,.33,.62,.45,.94,.12,.34,.37,.92,.24,1.03-.67,.6-.66,1.44-.96,2.18-.33,.84-.73,1.65-1.13,2.46-.1,.21-.31,.37-.59,.71-.08-.67-.13-1.12-.21-1.75-.79,.57-.89,1.35-.39,1.74,.76,.59,.44,1.06,.2,1.64-.39,.94-.73,1.89-1.17,2.8-.31,.65-.76,1.24-1.15,1.87-.27-.32-.52-.61-.76-.9-.09,.05-.19,.1-.28,.15,.12,.33,.16,.74,.39,.97,.67,.66,.41,1.17-.14,1.68-.09,.09-.31,.11-.34,.19-.38,1.28-.7,2.57-1.11,3.84-.08,.25-.47,.4-.84,.68-.07-.7-.12-1.12-.17-1.64-.89,.46-.88,1.3-.41,1.65,.84,.64,.41,1.14,.15,1.74-.35,.79-.72,1.57-1.09,2.35-.36,.76-.72,1.51-1.1,2.3-.33-.39-.57-.67-.82-.96-.11,.06-.21,.13-.32,.19,.17,.34,.37,.66,.49,1.02,.12,.34,.34,.87,.19,1.05-.53,.62-.64,1.36-.89,2.08-.32,.92-.78,1.79-1.21,2.67-.08,.17-.33,.25-.56,.42-.07-.56-.13-1.01-.21-1.62-.78,.68-.89,1.42-.3,1.9,.66,.53,.36,.93,.16,1.41-.39,.94-.76,1.88-1.21,2.79-.36,.73-.81,1.42-1.18,2.06-.25-.35-.44-.62-.69-.98,.09,1,.41,1.87,.18,2.56-.56,1.67-1.38,3.25-2.07,4.87-.87,2.05-2.2,3.9-2.6,6.16-.08,.43-.58,.77-.79,1.19-.42,.86-.77,1.75-1.15,2.63-.07-.01-.14-.03-.21-.04-.07-.46-.13-.92-.21-1.46-.71,.69-.58,.63-.24,1.38,.22,.5,.15,1.26-.05,1.8-.5,1.35-1.17,2.64-1.75,3.98-.39,.9-.72,1.83-1.19,3.03-.21-.58-.3-.86-.4-1.14h-.32c.21,.97,.39,1.78-.14,2.81-1.19,2.31-1,2.41-1.47,2.5-.06-.44-.12-.89-.21-1.51-.72,.71-.78,1.22-.27,1.9,.22,.29,.26,.84,.17,1.22-.12,.52-.47,.97-.68,1.47-.46,1.12-.86,2.27-1.34,3.39-.58,1.34-1.29,2.64-1.8,4-.24,.65-.18,1.21-.86,1.85-.86,.81-1.07,2.31-1.59,3.5-.56,1.28-1.17,2.53-1.7,3.68-.48-.21-.74-.33-1-.45,.01,.27-.06,.73,.06,.79,.75,.37,.48,.87,.3,1.41-.69,2.13-1.45,4.26-.93,6.42,.45,.34,.87,.61,1.22,.94,1.5,1.43,2.86,3.04,4.5,4.29,1.82,1.39,3.89,2.47,5.86,3.67,1.31,.8,2.65,1.56,3.98,2.34,2.32,1.37,4.63,2.77,6.97,4.12,1.01,.58,2.16,.99,3.14,1.53,.95,.52,1.99,.98,2.96,1.49,1.7,.88,3.57,1.41,5.35,2.14,1.22,.5,2.24,1.54,3.73,1.22,.13-.03,.3,.25,.47,.32,1,.42,1.99,.83,3,1.21,.61,.23,1.25,.37,1.88,.56,.94,.29,1.86,.63,2.8,.88,1.38,.35,2.77,.66,4.17,.95,1.73,.35,3.46,.74,5.2,.95,.91,.11,1.83-.05,2.22,1.02,.21-.06,.34-.07,.43-.13,1.81-1.34,1.83-1.33,3.51,.03,.4,.32,.88,.73,1.34,.75,1.79,.07,3.52,.2,5.29,.68,1.31,.35,2.83,0,4.24-.19,.7-.09,1.45-.38,1.34-1.43-.04-.35,.21-.74,.35-1.1,.65-1.61,1.63-3.17,1.89-4.84,.38-2.47,2.06-4.06,3.06-6.06,.42,.31,.68,.51,.93,.7,.02-.29,.13-.79,.05-.83-1.12-.49-.38-1.07-.05-1.54,.18-.27,.83-.39,.84-.59,0-1.15,.97-1.65,1.49-2.44,1.17-1.81,2.26-3.67,3.38-5.51,.65-1.06,1.29-2.12,1.96-3.16,.51-.79,1.07-1.56,1.64-2.37,.2,.36,.35,.64,.6,1.07,.2-.33,.27-.54,.41-.68,.15-.15,.36-.31,.56-.34,.09-.01,.3,.26,.33,.43,.17,.87,1.24,1.73,.07,2.65-.06,.04,.05,.29,.12,.69,.37-.43,.61-.7,1.03-1.18,.12,.59,.1,1.08,.31,1.42,.96,1.55,1.84,3.1,2.14,4.94,.11,.65,.21,1.61,.64,1.85,1.28,.7,.52,2.19,1.44,3.03,.47,.43,.58,1.3,.76,1.99,.29,1.1,.44,2.23,.78,3.31,.65,2.08,1.47,4.12,2.07,6.22,.52,1.8,.85,3.66,1.25,5.5,.26,1.19,.53,2.37,.71,3.57,.35,2.27,.64,4.55,.96,6.83,.05,.37,.13,.73,.22,1.1,.16,.64,.42,1.27,.48,1.92,.09,.95-.19,1.99,.09,2.86,.47,1.42,.63,2.81,.68,4.28,.07,2.19-.28,4.38,.37,6.59,.46,1.56,.31,3.32,.3,4.99-.02,2.7,.08,5.44-.31,8.1-.23,1.63-.51,3.17-.17,4.79,.04,.17-.04,.4-.13,.56-.6,1.04-.91,2.12-.83,3.34,.03,.57-.14,1.16-.25,1.74-.14,.75-.39,1.5-.43,2.26-.05,.97,.25,1.99,.08,2.92-.3,1.63-.92,3.18-.62,4.91,.22,1.25,.19,2.54,.27,3.82,.08,1.26,.18,2.52,.22,3.79,.04,1.16-.27,2.44,.11,3.46,.5,1.35,.38,2.59,.23,3.91-.13,1.18-.26,2.36-.35,3.55-.07,1,.24,2.21-.21,2.97-.64,1.06-.74,2.08-.69,3.17,.05,1.1,.31,2.19,.5,3.47-.43-.17-.63-.25-.99-.4v6.29c-1.31,.45-1.22,1.9-.73,2.99,.37,.82,.23,1.34-.21,2.04-.58,.93-1.21,1.9-.64,3.15,.22,.48,.26,1.22,.05,1.69-.61,1.33-.98,2.6-.35,4.03,.15,.34-.02,.83-.04,1.25,.08-.13,.17-.26,.25-.4-.26-.07-.52-.19-.78-.19-.14,0-.37,.18-.4,.32-.12,.53-.28,1.09-.23,1.62,.12,1.29,.37,2.56,.51,3.84,.03,.26-.14,.59-.31,.82-.71,.89-1.05,1.8-.46,2.9,.13,.25,.17,.59,.16,.88-.04,.69-.05,1.21-.86,1.77-.64,.43-.63,1.88-.21,2.93,.21,.53,.31,1.1,.55,1.98-.53-.5-.79-.75-1.14-1.07-.57,1.43-.35,2.66,.13,3.94,.23,.61,.18,1.33,.25,1.99-.09,0-.19-.01-.28-.02-.23-.35-.47-.71-.7-1.06-.16,.06-.33,.11-.49,.17,.13,1.74,.27,3.48,.4,5.22,.02,.25,.04,.57-.09,.75-.93,1.27-1.09,2.57-.45,4.05,.3,.69,.62,1.49-.44,2.14-.52,.32-.87,1.32-.85,1.99,.05,1.18,.48,2.35,.68,3.53,.09,.52,.02,1.08,.02,1.75-1.55-.6-1.81,.62-1.9,1.42-.19,1.68-.2,3.34-.69,5.03-.43,1.49-.27,3.12-.71,4.72-.47,1.7-.07,3.57-.74,5.38-.47,1.27-.19,2.75-.69,4.18-.66,1.91-.56,4.08-.84,6.13-.18,1.28-.59,2.54-.66,3.82-.11,1.86-.27,3.67-.69,5.51-.56,2.42-.54,4.97-.85,7.45-.23,1.83-.59,3.64-.9,5.46-.04,.23-.16,.44-.17,.67-.05,.92-.12,1.85-.08,2.77,.02,.36,.45,.72,.43,1.06-.11,1.35,.87,2.32,1.5,3.13,1.71,2.21,4.1,3.65,6.87,4.37,.87,.22,1.7,.58,2.55,.88,1.22,.42,2.44,.86,3.67,1.27,.91,.3,1.85,.55,2.76,.85,1.27,.42,2.51,.92,3.79,1.28,1.28,.36,2.61,.54,3.89,.88,1.38,.37,2.71,.92,4.1,1.26,1.36,.34,2.77,.48,4.15,.76,.83,.17,1.61,.53,2.44,.69,1.97,.37,3.95,.66,5.92,.98,.15,.03,.29,.13,.44,.15,.47,.08,.95,.14,1.42,.19,.34,.04,.69,0,1.02,.07,2.26,.49,4.49,1.12,6.77,1.48,2.27,.36,4.58,.46,6.88,.67,.04,0,.08,.05,.11,.04,1.52-.26,2.83,.7,4.42,.63,2.28-.1,4.59,.51,6.89,.83,1.71,.24,3.41,.53,5.13,.73,2.51,.28,5.02,.52,7.54,.72,.96,.08,1.94-.1,2.9,0,1.38,.16,2.74,.55,4.13,.7,1.15,.12,2.33,0,3.49,.03,3.18,.06,6.36,.14,9.54,.2,2.44,.04,4.88,.17,7.3,.02,1.13-.07,2.11,.03,3.1,.5,.21,.1,.44,.2,.66,.19,1.19-.04,2.38-.19,3.56-.17,2.64,.03,5.28,.24,7.92,.2,3.05-.05,6.09-.32,9.14-.45,2.7-.11,5.43-.45,8.09-.16,2.3,.25,4.56,.5,6.88,.43,2.54-.08,5.09,.14,7.64,.18,.34,0,.83-.16,.98-.41,.12-.19-.19-.64-.36-1.14,3.04,.21,6.13,.45,9.22,.63,1.23,.07,2.46,0,3.69,0,.61,0,1.21-.04,1.82,0,.47,.03,.93,.23,1.39,.2,.29-.01,.57-.29,.86-.44-.14-.25-.28-.5-.45-.81,1.3-.12,2.62-.29,3.95-.34,.64-.03,1.36,.03,1.93,.29,1.26,.57,2.49,.43,3.74,.14,.14-.03,.37-.21,.37-.31-.07-1.05,.67-.93,1.3-.89,2.13,.14,4.27,.22,6.37,.53,.92,.14,1.51,.26,1.81-.81,.06-.21,.59-.42,.9-.41,1.16,.03,2.36-.34,3.46,.43,.34,.24,.9,.24,1.36,.23,1.1-.01,1.3-.37,.82-1.51,2.27,.23,4.49,.46,6.76,.7,.06-.59,.1-.92,.15-1.44,1.93,.23,3.76,.45,5.81,.69-.18-.59-.27-.91-.39-1.29,.67,0,1.44-.08,2.19,.02,.91,.12,1.79,.4,2.68,.61,.33-1.25,2.27-1.91,3.18-1.4,.57,.32,1.24,.46,1.94,.71,.12-1.79,.52-1.97,2.04-1.29,.49,.22,1.05,.32,1.58,.34,.26,0,.68-.26,.77-.5,.33-.85,1.69-1.25,2.49-.74,.51,.33,1.13,.49,1.7,.73,.07-.11,.14-.23,.2-.34-.08-.38-.17-.75-.32-1.44,.81,.25,1.44,.48,2.08,.64,.48,.12,1,.23,1.46,.15,.19-.03,.28-.61,.44-1.01,1.11-.82,2.27-.17,3.47,.52v-1.69c.64,.16,1.15,.26,1.66,.41,.31,.09,.75,.43,.87,.33,.25-.2,.32-.61,.5-1.04,1.25-.23,1.25-.22,2.78,.34,.14,.05,.53-.25,.6-.46,.08-.22-.08-.52-.18-1,1.04,.22,1.94,.41,2.92,.62-.05-.51-.09-.83-.12-1.12,1.7-.3,3.32-.55,4.92-.87,.86-.17,1.69-.46,2.53-.71,.13-.04,.26-.14,.34-.25,.47-.69,1-.63,1.63-.2,.25,.17,.61,.18,1.09,.31-.29-.88-.09-1.8-1.25-1.79-.08,0-.26-.4-.23-.42,.43-.35,.86-.9,1.33-.93,.78-.05,1.55-.09,1.92-.8,.43-.8,1.07-.67,1.74-.7,.24-.01,.58-.09,.69-.25,.54-.85,1.21-1.34,2.27-1.19,.2,.03,.49-.15,.63-.32,.59-.68,1.15-1.33,2.2-1.13,.2,.04,.49-.21,.69-.38,.61-.54,1.03-1.46,2.32-.81-.89,.91-1.6,2.06-2.63,2.56-.88,.43-.61,.74-.47,1.71,1.05-.71,2.01-1.16,2.67-1.88,.83-.89,1.76-1.92,2.03-3.04,.36-1.5,.12-3.15,.17-4.74,.03-.79,.07-1.58,.22-2.35,.14-.74,.43-1.45,.65-2.18-.13-.07-.25-.13-.38-.2-.3,.14-.6,.28-.91,.42q-.45-.94,.25-3.19c.56-1.78,.16-3.18-1.04-3.63,0-.71-.08-1.43,.02-2.13,.15-1.06,.42-2.09,.63-3.14-.13-.07-.26-.14-.38-.22-.33,.19-.67,.38-1.09,.62,0-2.82,1.6-5.48,.64-8.29-.11-.02-.22-.04-.33-.07-.12,.66-.24,1.31-.35,1.97-.12,0-.24,0-.36,0,.08-.84,.03-1.72,.27-2.52,.3-1.03,.77-1.99,.21-3.06-.05-.09-.15-.15-.25-.24-.27,.19-.52,.36-1.1,.76,.28-1.08,.5-1.81,.65-2.56,.3-1.5,.32-2.91-.84-4.17-.3-.33-.32-1.18-.14-1.65,.48-1.23,.76-2.48-.04-3.55-.42-.56-.46-.98-.38-1.53,.29-1.81,.45-3.58-.92-5.1-.12-.13-.12-.52-.02-.69,.79-1.28,.36-2.6,.17-3.9-.16-1.08-.46-2.12-.01-3.21,.12-.3,.05-.72-.03-1.06-.27-1.11-.75-2.18-.86-3.3-.2-2,.1-4.09-.36-6.02-.53-2.23,.34-4.51-.67-6.73-.48-1.06-.3-2.49-.18-3.74,.2-2.25-1.05-4.25-.82-6.54,.17-1.67-.25-3.4-.41-5.11-.14-1.53-.55-3.09-.36-4.58,.17-1.38-.53-2.46-.6-3.72-.22-3.83-.47-7.66-.72-11.49-.02-.32-.03-.64-.08-.95-.2-1.23-.48-2.45-.62-3.68-.1-.87,.03-1.76-.05-2.63-.19-2.05-.49-4.09-.68-6.14-.25-2.7,.18-5.4-.4-8.15-.51-2.41-.25-4.99-.33-7.49,0-.28,.02-.56-.02-.84-.23-1.64-.55-3.26-.71-4.91-.24-2.5,.34-5.03-.43-7.54-.49-1.6-.58-3.33-.75-5.01-.29-2.78-.54-5.56-.7-8.35-.05-.79,.42-1.6,.42-2.4,0-2.99-.05-5.98-.14-8.97-.11-3.9-.28-7.8-.41-11.7-.01-.31,.08-.62,.12-.93l.25,.03c.06,.45,.12,.91,.21,1.5Z"/>
  <path d="M359.11,248.86c-.08-.59-.14-1.05-.21-1.5l-.25-.03c-.04,.31-.13,.62-.12,.93,.13,3.9,.3,7.8,.41,11.7,.09,2.99,.14,5.98,.14,8.97,0,.8-.47,1.61-.42,2.4,.16,2.79,.42,5.57,.7,8.35,.17,1.68,.26,3.41,.75,5.01,.77,2.52,.19,5.04,.43,7.54,.16,1.64,.47,3.27,.71,4.91,.04,.27,0,.56,.02,.84,.08,2.5-.18,5.08,.33,7.49,.58,2.75,.15,5.45,.4,8.15,.19,2.05,.49,4.09,.68,6.14,.08,.87-.05,1.77,.05,2.63,.14,1.23,.42,2.45,.62,3.68,.05,.31,.06,.63,.08,.95,.24,3.83,.49,7.66,.72,11.49,.07,1.25,.77,2.34,.6,3.72-.18,1.49,.22,3.05,.36,4.58,.16,1.7,.57,3.44,.41,5.11-.23,2.28,1.03,4.29,.82,6.54-.11,1.24-.3,2.68,.18,3.74,1.01,2.22,.14,4.5,.67,6.73,.46,1.92,.15,4.02,.36,6.02,.11,1.12,.59,2.19,.86,3.3,.08,.34,.16,.76,.03,1.06-.44,1.09-.15,2.14,.01,3.21,.19,1.3,.62,2.62-.17,3.9-.11,.17-.1,.56,.02,.69,1.37,1.52,1.22,3.29,.92,5.1-.09,.55-.04,.98,.38,1.53,.8,1.06,.52,2.32,.04,3.55-.19,.48-.17,1.32,.14,1.65,1.16,1.26,1.14,2.68,.84,4.17-.15,.75-.37,1.48-.65,2.56,.58-.4,.83-.57,1.1-.76,.1,.09,.2,.15,.25,.24,.56,1.07,.09,2.03-.21,3.06-.23,.8-.19,1.68-.27,2.52,.12,0,.24,0,.36,0,.12-.66,.24-1.31,.35-1.97,.11,.02,.22,.04,.33,.07,.95,2.81-.65,5.47-.64,8.29,.42-.24,.76-.43,1.09-.62,.13,.07,.26,.14,.38,.22-.22,1.05-.49,2.08-.63,3.14-.1,.7-.02,1.43-.02,2.13,1.2,.45,1.59,1.84,1.04,3.63q-.7,2.25-.25,3.19c.3-.14,.6-.28,.91-.42,.13,.07,.25,.13,.38,.2-.22,.72-.51,1.44-.65,2.18-.15,.77-.19,1.57-.22,2.35-.05,1.58,.19,3.23-.17,4.74-.27,1.12-1.2,2.15-2.03,3.04-.67,.72-1.63,1.16-2.67,1.88-.14-.97-.41-1.28,.47-1.71,1.03-.5,1.74-1.65,2.63-2.56-1.28-.65-1.71,.28-2.32,.81-.2,.17-.49,.42-.69,.38-1.06-.2-1.61,.45-2.2,1.13-.15,.17-.44,.34-.63,.32-1.06-.15-1.73,.34-2.27,1.19-.11,.17-.45,.24-.69,.25-.67,.03-1.32-.1-1.74,.7-.38,.71-1.14,.75-1.92,.8-.47,.03-.9,.59-1.33,.93-.02,.02,.15,.42,.23,.42,1.15,0,.95,.91,1.25,1.79-.48-.13-.84-.14-1.09-.31-.63-.43-1.15-.49-1.63,.2-.08,.11-.21,.21-.34,.25-.84,.25-1.67,.54-2.53,.71-1.6,.32-3.22,.58-4.92,.87,.03,.28,.07,.61,.12,1.12-.98-.21-1.88-.4-2.92-.62,.1,.48,.26,.78,.18,1-.07,.21-.46,.51-.6,.46-1.54-.55-1.53-.57-2.78-.34-.19,.42-.26,.84-.5,1.04-.12,.1-.56-.24-.87-.33-.5-.15-1.02-.26-1.66-.41v1.69c-1.2-.69-2.36-1.34-3.47-.52-.16,.4-.25,.97-.44,1.01-.46,.09-.98-.03-1.46-.15-.64-.15-1.27-.38-2.08-.64,.15,.69,.24,1.07,.32,1.44-.07,.11-.14,.23-.2,.34-.57-.24-1.18-.4-1.7-.73-.8-.51-2.17-.11-2.49,.74-.09,.24-.51,.5-.77,.5-.53-.01-1.1-.12-1.58-.34-1.52-.68-1.92-.51-2.04,1.29-.69-.25-1.37-.39-1.94-.71-.92-.52-2.85,.15-3.18,1.4-.89-.21-1.77-.49-2.68-.61-.74-.1-1.51-.02-2.19-.02,.11,.38,.21,.7,.39,1.29-2.05-.24-3.88-.46-5.81-.69-.05,.52-.09,.85-.15,1.44-2.27-.23-4.49-.46-6.76-.7,.48,1.14,.28,1.5-.82,1.51-.46,0-1.02,0-1.36-.23-1.1-.77-2.3-.41-3.46-.43-.31,0-.84,.2-.9,.41-.3,1.07-.89,.94-1.81,.81-2.1-.31-4.24-.39-6.37-.53-.63-.04-1.36-.16-1.3,.89,0,.1-.22,.28-.37,.31-1.26,.29-2.49,.43-3.74-.14-.57-.26-1.29-.31-1.93-.29-1.33,.05-2.65,.22-3.95,.34,.17,.31,.31,.56,.45,.81-.29,.16-.57,.43-.86,.44-.46,.02-.92-.18-1.39-.2-.6-.04-1.21,0-1.82,0-1.23,0-2.47,.07-3.69,0-3.09-.18-6.18-.42-9.22-.63,.18,.5,.48,.95,.36,1.14-.15,.25-.64,.42-.98,.41-2.55-.04-5.1-.26-7.64-.18-2.32,.07-4.58-.18-6.88-.43-2.66-.29-5.39,.04-8.09,.16-3.05,.13-6.09,.4-9.14,.45-2.64,.04-5.28-.16-7.92-.2-1.19-.02-2.37,.13-3.56,.17-.22,0-.46-.09-.66-.19-.99-.48-1.97-.57-3.1-.5-2.42,.16-4.87,.02-7.3-.02-3.18-.05-6.36-.14-9.54-.2-1.17-.02-2.34,.09-3.49-.03-1.38-.14-2.74-.54-4.13-.7-.95-.11-1.94,.07-2.9,0-2.52-.2-5.03-.44-7.54-.72-1.71-.19-3.42-.49-5.13-.73-2.3-.32-4.61-.92-6.89-.83-1.59,.07-2.9-.89-4.42-.63-.03,0-.07-.04-.11-.04-2.29-.21-4.61-.31-6.88-.67-2.28-.36-4.51-.98-6.77-1.48-.33-.07-.68-.03-1.02-.07-.48-.05-.95-.11-1.42-.19-.15-.02-.29-.13-.44-.15-1.97-.33-3.96-.62-5.92-.98-.83-.15-1.61-.51-2.44-.69-1.38-.29-2.78-.43-4.15-.76-1.38-.34-2.72-.89-4.1-1.26-1.28-.35-2.61-.53-3.89-.88-1.28-.36-2.52-.86-3.79-1.28-.91-.3-1.85-.55-2.76-.85-1.23-.41-2.45-.84-3.67-1.27-.85-.29-1.68-.65-2.55-.88-2.77-.71-5.16-2.16-6.87-4.37-.63-.81-1.61-1.78-1.5-3.13,.03-.34-.41-.7-.43-1.06-.04-.92,.03-1.84,.08-2.77,.01-.22,.13-.44,.17-.67,.31-1.82,.67-3.63,.9-5.46,.31-2.48,.29-5.03,.85-7.45,.42-1.84,.58-3.65,.69-5.51,.08-1.28,.49-2.54,.66-3.82,.28-2.05,.18-4.22,.84-6.13,.5-1.44,.22-2.91,.69-4.18,.67-1.81,.27-3.67,.74-5.38,.44-1.6,.29-3.23,.71-4.72,.48-1.69,.49-3.35,.69-5.03,.09-.79,.35-2.01,1.9-1.42,0-.68,.07-1.23-.02-1.75-.2-1.18-.64-2.35-.68-3.53-.03-.67,.33-1.67,.85-1.99,1.06-.66,.74-1.45,.44-2.14-.64-1.48-.47-2.77,.45-4.05,.13-.18,.11-.5,.09-.75-.12-1.74-.26-3.48-.4-5.22,.16-.06,.33-.11,.49-.17,.23,.35,.47,.71,.7,1.06,.09,0,.19,.01,.28,.02-.07-.67-.02-1.38-.25-1.99-.48-1.28-.7-2.51-.13-3.94,.34,.32,.61,.57,1.14,1.07-.24-.88-.34-1.46-.55-1.98-.42-1.05-.43-2.5,.21-2.93,.81-.55,.82-1.08,.86-1.77,.02-.29-.02-.63-.16-.88-.58-1.1-.25-2.01,.46-2.9,.18-.22,.34-.55,.31-.82-.14-1.28-.39-2.56-.51-3.84-.05-.53,.11-1.09,.23-1.62,.03-.14,.26-.32,.4-.32,.26,0,.52,.12,.78,.19-.08,.13-.17,.26-.25,.4,.02-.42,.19-.91,.04-1.25-.64-1.43-.26-2.7,.35-4.03,.21-.47,.17-1.21-.05-1.69-.58-1.25,.05-2.22,.64-3.15,.44-.71,.58-1.22,.21-2.04-.49-1.09-.58-2.54,.73-2.99v-6.29c.37,.15,.57,.23,.99,.4-.19-1.27-.44-2.37-.5-3.47-.05-1.09,.05-2.11,.69-3.17,.46-.76,.14-1.97,.21-2.97,.09-1.18,.21-2.37,.35-3.55,.15-1.32,.27-2.56-.23-3.91-.38-1.03-.06-2.3-.11-3.46-.05-1.26-.14-2.53-.22-3.79-.08-1.27-.05-2.57-.27-3.82-.3-1.73,.32-3.28,.62-4.91,.17-.94-.13-1.95-.08-2.92,.04-.76,.29-1.5,.43-2.26,.11-.58,.28-1.17,.25-1.74-.07-1.22,.23-2.31,.83-3.34,.09-.16,.17-.39,.13-.56-.34-1.62-.06-3.17,.17-4.79,.38-2.66,.29-5.39,.31-8.1,.01-1.67,.16-3.43-.3-4.99-.66-2.22-.3-4.4-.37-6.59-.05-1.47-.21-2.87-.68-4.28-.29-.87,0-1.91-.09-2.86-.06-.65-.32-1.28-.48-1.92-.09-.36-.17-.73-.22-1.1-.32-2.28-.61-4.56-.96-6.83-.18-1.2-.45-2.39-.71-3.57-.4-1.84-.73-3.7-1.25-5.5-.61-2.1-1.42-4.13-2.07-6.22-.34-1.08-.49-2.22-.78-3.31-.19-.69-.29-1.56-.76-1.99-.92-.84-.16-2.33-1.44-3.03-.43-.23-.53-1.19-.64-1.85-.3-1.84-1.18-3.39-2.14-4.94-.21-.34-.19-.83-.31-1.42-.42,.48-.65,.75-1.03,1.18-.07-.4-.18-.64-.12-.69,1.18-.92,.1-1.78-.07-2.65-.03-.17-.24-.44-.33-.43-.2,.03-.41,.18-.56,.34-.14,.14-.22,.35-.41,.68-.24-.43-.39-.71-.6-1.07-.57,.81-1.13,1.58-1.64,2.37-.67,1.04-1.31,2.11-1.96,3.16-1.13,1.84-2.21,3.7-3.38,5.51-.51,.8-1.48,1.29-1.49,2.44,0,.19-.65,.32-.84,.59-.32,.47-1.06,1.05,.05,1.54,.09,.04-.03,.54-.05,.83-.26-.2-.52-.39-.93-.7-1,2-2.68,3.59-3.06,6.06-.26,1.67-1.24,3.23-1.89,4.84-.14,.36-.39,.75-.35,1.1,.11,1.05-.64,1.33-1.34,1.43-1.41,.18-2.93,.54-4.24,.19-1.77-.47-3.5-.6-5.29-.68-.46-.02-.95-.43-1.34-.75-1.68-1.36-1.7-1.37-3.51-.03-.09,.06-.21,.07-.43,.13-.39-1.07-1.32-.91-2.22-1.02-1.75-.22-3.47-.6-5.2-.95-1.4-.28-2.79-.59-4.17-.95-.95-.24-1.87-.59-2.8-.88-.62-.19-1.26-.33-1.88-.56-1.01-.37-2.01-.79-3-1.21-.18-.07-.34-.35-.47-.32-1.49,.32-2.52-.73-3.73-1.22-1.78-.73-3.65-1.26-5.35-2.14-.97-.5-2.01-.97-2.96-1.49-.98-.53-2.12-.94-3.14-1.53-2.34-1.35-4.65-2.74-6.97-4.12-1.32-.78-2.66-1.54-3.98-2.34-1.97-1.2-4.03-2.28-5.86-3.67-1.64-1.25-3-2.86-4.5-4.29-.35-.33-.77-.6-1.22-.94-.53-2.16,.24-4.29,.93-6.42,.17-.54,.45-1.04-.3-1.41-.12-.06-.04-.52-.06-.79,.26,.12,.52,.23,1,.45,.53-1.14,1.14-2.4,1.7-3.68,.52-1.19,.73-2.68,1.59-3.5,.68-.64,.61-1.2,.86-1.85,.51-1.37,1.22-2.66,1.8-4,.48-1.11,.88-2.26,1.34-3.39,.2-.5,.56-.96,.68-1.47,.09-.38,.05-.92-.17-1.22-.52-.69-.45-1.2,.27-1.9,.08,.63,.15,1.07,.21,1.51,.47-.09,.28-.19,1.47-2.5,.53-1.03,.35-1.84,.14-2.81h.32c.1,.28,.2,.56,.4,1.14,.47-1.2,.8-2.13,1.19-3.03,.57-1.33,1.24-2.62,1.75-3.98,.2-.54,.27-1.3,.05-1.8-.34-.75-.47-.69,.24-1.38,.08,.54,.14,1,.21,1.46,.07,.01,.14,.03,.21,.04,.38-.88,.73-1.77,1.15-2.63,.21-.43,.71-.76,.79-1.19,.41-2.26,1.73-4.11,2.6-6.16,.69-1.63,1.52-3.2,2.07-4.87,.23-.69-.09-1.56-.18-2.56,.25,.36,.44,.62,.69,.98,.37-.64,.83-1.33,1.18-2.06,.44-.91,.82-1.86,1.21-2.79,.2-.48,.5-.88-.16-1.41-.59-.48-.49-1.22,.3-1.9,.08,.61,.14,1.06,.21,1.62,.23-.17,.48-.26,.56-.42,.43-.88,.89-1.75,1.21-2.67,.25-.72,.36-1.46,.89-2.08,.15-.17-.07-.7-.19-1.05-.12-.35-.32-.68-.49-1.02,.11-.06,.21-.13,.32-.19,.24,.29,.49,.57,.82,.96,.38-.79,.75-1.54,1.1-2.3,.37-.78,.73-1.56,1.09-2.35,.27-.59,.69-1.1-.15-1.74-.47-.35-.48-1.19,.41-1.65,.05,.52,.1,.94,.17,1.64,.37-.29,.76-.44,.84-.68,.41-1.27,.73-2.56,1.11-3.84,.03-.09,.24-.11,.34-.19,.54-.52,.8-1.03,.14-1.68-.23-.22-.26-.64-.39-.97,.09-.05,.19-.1,.28-.15,.24,.29,.49,.57,.76,.9,.39-.63,.83-1.22,1.15-1.87,.44-.91,.78-1.87,1.17-2.8,.24-.58,.55-1.05-.2-1.64-.5-.39-.4-1.17,.39-1.74,.07,.62,.13,1.07,.21,1.75,.28-.33,.49-.49,.59-.71,.4-.81,.79-1.62,1.13-2.46,.29-.73,.29-1.57,.96-2.18,.13-.12-.12-.69-.24-1.03-.12-.33-.3-.63-.45-.94l.29-.19c.25,.26,.49,.52,.8,.84,.36-.64,.79-1.3,1.13-2.01,.4-.83,.73-1.69,1.09-2.53,.26-.6,.71-1.09-.11-1.74-.5-.4-.47-1.17,.38-1.69,.07,.56,.12,1.01,.18,1.47,.1,.03,.2,.05,.3,.08,.47-1.8,2.4-3.11,1.59-5.41,.12,.27,.24,.54,.37,.82,1.52-.97-.62-1.81,.02-2.85,.28,.33,.52,.62,.89,1.06,5.56-13.77,14.22-24.87,27.61-32.32-.59-.12-.81-.1-.93-.2-.16-.13-.25-.36-.37-.54,.21,0,.5-.11,.61-.01,.74,.66,1.32,1.01,2.17-.03,.41-.5,1.39-.52,2.1-.79,2.1-.8,4.2-1.58,6.27-2.44,1.29-.54,2.5-1.28,3.79-1.83,1.38-.58,2.84-.98,4.22-1.57,1.4-.6,2.71-1.39,4.11-1.98,1.94-.83,3.93-1.54,5.89-2.32,.52-.21,1-.48,1.51-.72,1.45-.68,2.88-1.4,4.35-2.04,1.38-.59,2.81-1.04,4.19-1.63,1.79-.76,3.53-1.63,5.31-2.4,1.54-.66,3.13-1.21,4.67-1.88,1.82-.79,3.6-1.65,5.4-2.49,.71-.33,1.4-.72,2.13-1.01,1.94-.79,3.91-1.5,5.83-2.33,1.37-.59,2.62-1.61,4.04-1.94,2.09-.48,3.75-1.8,5.76-2.42,1.99-.62,3.8-1.81,5.74-2.65,1.37-.6,2.83-.97,4.2-1.55,1.79-.75,3.54-1.61,5.32-2.4,1.48-.65,3-1.24,4.48-1.9,.82-.36,1.59-.81,2.39-1.21,.2-.1,.42-.13,.63-.21,.91-.38,1.9-.65,2.69-1.2,1.03-.72,4.27-1.96,5.28-1.85,.46,1.07,.9,2.09,1.33,3.1,.1-.03,.19-.07,.29-.1,.05-.45,.1-.9,.16-1.42,1.14,.48,.51,1.28,.22,1.62-.48,.57-.3,.82,.07,1.27,.41,.49,.74,1.06,1.02,1.64,.46,.94,.76,1.97,1.3,2.86,.42,.69,1.1,1.22,1.72,1.88-.46,.45,.15,.68,.58,1.19,1.88,2.21,3.47,4.69,5.49,6.75,2.06,2.1,4.4,3.95,6.8,5.66,1.74,1.24,3.76,2.12,5.7,3.07,1.98,.97,3.99,1.88,6.03,2.73,.93,.39,1.93,.64,2.93,.84,1.48,.3,3.08,.26,4.44,.81,1.56,.64,3.18,.32,4.66,.73,2.25,.61,4.5,.73,6.76,.62,2.52-.12,5.05-.35,7.54-.74,1.67-.26,3.28-.94,4.93-1.36,1.21-.31,2.47-.42,3.66-.78,1.05-.32,2.02-.94,3.07-1.28,1.34-.44,2.73-.74,3.9-1.06,.86-.69,1.6-1.37,2.41-1.93,1.4-.97,2.8-1.95,4.27-2.79,2.43-1.38,4.35-3.36,6.23-5.35,1.48-1.57,2.79-3.32,4.21-4.95,.43-.5,1.01-.88,1.48-1.34,.14-.14,.17-.4,.25-.61,.14-.35,.26-.71,.44-1.04,1.18-2.14,2.45-4.25,3.55-6.43,.63-1.24,1.01-2.61,1.51-3.92,.2-.54,1.4-.61,2.13-.22,1.34,.71,2.72,1.37,4.09,2.04,.43,.21,.94,.32,1.31,.61,1.16,.9,2.57,1.19,3.88,1.72,1.03,.42,1.98,1.07,2.95,1.63,1.49,.86,2.97,1.73,4.45,2.6,1.41,.83,2.8,1.68,4.21,2.49,1.14,.65,2.32,1.22,3.44,1.88,.98,.57,1.9,1.24,2.86,1.84,.54,.34,1.09,.64,1.65,.94,1.26,.67,2.53,1.34,3.8,2,.58,.3,1.16,.57,2.07,1.01,.1,.04,.51,.21,.92,.37,.73,.28,1.45,.59,2.2,.83,1,.33,2.03,.59,3.03,.91,.66,.21,1.3,.47,1.94,.71,1.62,.62,3.23,1.28,4.87,1.86,.88,.32,1.81,.52,2.71,.77,1.13,.32,2.26,.64,3.38,.99,.64,.2,1.25,.45,1.87,.71,1.5,.63,2.98,1.34,4.51,1.88,1.79,.64,3.64,1.1,5.43,1.72,.76,.26,1.45,.72,2.17,1.08,.21,.11,.41,.26,.63,.31,2.61,.58,5.07,1.59,7.53,2.64,.97,.41,2.02,.62,3.01,.99,.93,.35,1.81,.8,2.72,1.19,.68,.29,1.37,.59,2.07,.82,1.7,.55,3.43,.98,5.11,1.6,1.45,.53,2.82,1.26,4.24,1.87,1.19,.51,2.42,.95,3.61,1.48,3.84,1.69,7.44,3.75,10.58,6.57,1.98,1.78,4.18,3.35,6.02,5.25,1.76,1.81,3.23,3.91,4.74,5.95,1.1,1.47,2.08,3.04,3.32,4.87,.08-.74,.12-1.13,.17-1.53,1.48,1.03,1.47,1.02,.66,2.56-.09,.18-.07,.5,.03,.68,.95,1.79,1.88,3.58,2.91,5.32,.88,1.49,1.46,3.08,2.12,4.66,.8,1.92,1.87,3.74,2.75,5.63,.35,.76,.47,1.63,.81,2.4,.13,.3,.57,.48,.93,.75-.87,1.11,.66,1.94,.83,3.06,.14,.88,.94,1.47,.97,2.53,.02,.87,.83,1.72,1.26,2.59,.36,.73,.65,1.5,1.02,2.23,.45,.89,1,1.72,1.43,2.62,.31,.67,.62,1.38,.68,2.1,.07,.74,1.21,1.16,.55,2.05,1.44,.92,1.33,2.66,2.04,3.96,.39,.72,.52,1.58,.83,2.35,.13,.32,.42,.57,.81,1.07,4.38,9.94,8.89,20.17,13.43,30.49,.34-.37,.6-.66,.87-.96l.32,.19c-.17,.34-.38,.66-.51,1.01-.12,.34-.33,.91-.18,1.05,1.09,1.06,.93,2.68,1.91,3.87,.87,1.06,1.06,2.66,1.63,3.98,.36,.84,1.19,1.58,1.25,2.41,.16,2.18,2.08,3.66,2.09,5.86,0,.28,.45,.55,.82,.97,.82,2,1.74,4.23,2.74,6.67,.18-.47,.28-.74,.39-1.01l.37-.05c-1.19,2.35,.83,3.63,1.55,5.38,.05-.45,.11-.9,.18-1.47,.84,.53,.75,1.07,.37,1.77-.2,.37-.35,.94-.21,1.29,.62,1.53,1.33,3.02,2.06,4.5,.1,.2,.48,.27,.65,.36,.13,.61,.2,1.23,.4,1.81,1.31,3.74,.56,6.99-2.26,9.76-2.05,2.01-3.86,4.28-6.25,5.9-1.74,1.18-3.57,2.23-5.36,3.32-1.75,1.06-3.5,2.16-5.3,3.14-.6,.33-1.36,.36-1.9,.48-.53,.35-1.06,.58-1.42,.96-1.47,1.53-3.51,1.99-5.3,2.91-.81,.42-1.7,.7-2.54,1.05-1.55,.66-3.08,1.37-4.65,1.97-.98,.38-2.02,.6-3.03,.9-.93,.28-1.86,.58-2.8,.86-1.68,.51-3.37,.99-5.04,1.53-2.07,.68-4.18,1.14-6.33,1.43-.89,.12-1.78,.2-2.68,.29-.08,0-.18,0-.22,.05-1.36,1.59-3.29,.57-4.92,1.04-1.74,.5-3.71,.26-5.4,.86-1.87,.67-3.68,.16-5.51,.39-.95,.12-1.08-.67-1.3-1.37-.17-.55-.45-1.07-.69-1.6-.06-.14-.24-.3-.21-.39,.43-1.35-.64-2.08-1.29-2.91-.99-1.25-1.37-2.6-1.6-4.16-.17-1.13-1.05-2.16-1.63-3.23-.06-.12-.24-.17-.31-.29-1.1-1.84-2.14-3.73-3.31-5.53-1.46-2.22-3.07-4.34-4.54-6.55-.63-.95-1.01-2.05-1.6-3.02-.16-.26-.69-.49-.98-.43-1.48,.32-2.5,1.34-3.43,2.45-.1,.12,.02,.41,.04,.71-.31-.12-.55-.21-.75-.29-.55,1.49-1.1,2.97-1.66,4.48-.13-.11-.37-.33-.54-.48-.33,.93-.91,1.86-.93,2.8-.02,.84,.57,1.7,.89,2.55-.1,.05-.2,.11-.3,.16-.2-.32-.41-.65-.72-1.13-.44,1.1-.86,2.17-1.3,3.27-.09-.07-.35-.28-.6-.48l-.25,.07c.15,.52,.31,1.04,.49,1.65-.94,.39-1.14,.95-.79,2.06,.19,.61-.58,1.53-.99,2.5,.61,1.03,.55,1.69-.46,3.09-.13,.18-.3,.48-.24,.62,.61,1.31-.18,2.34-.6,3.45-.1,.26-.09,.63,.02,.89,.44,1.02,.04,1.49-1.05,1.6,.14,.44,.36,.82,.34,1.19-.02,.49-.08,1.14-.39,1.42-.73,.67-.89,1.19-.58,2.23,.37,1.26,.16,2.69,.22,4.04,.04,.93,.18,1.86,.15,2.78-.03,1.14-.19,2.27-.32,3.41,0,.06-.28,.09-.56,.17Zm-196.08-37.95c.25-.08,.37-.09,.46-.15,.13-.09,.26-.19,.36-.31,1.35-1.75,3.04-3.03,5.14-3.73,2.83-.94,5.65-1.92,8.52-2.76,1.82-.53,3.7-.89,5.58-1.22,.99-.18,.7-.7,.59-1.31-.3-1.55-.76-3.11-.77-4.67-.07-11.31-.08-22.63,0-33.94,.01-1.46,.55-2.94,.98-4.37,.25-.83,.15-1.23-.75-1.28-3.45-.2-6.48-1.49-9.23-3.55-.3-.22-.99-.18-1.36,.01-.94,.51-1.76,1.25-2.7,1.76-4.95,2.66-10.33,3.89-15.83,4.73-1.02,.16-1.06,.39-.63,1.33,.54,1.17,1.21,2.43,1.24,3.66,.11,4.22,.04,8.45-.11,12.67-.05,1.44-.53,2.86-.84,4.41,.16,.04,.56,.1,.91,.26,1.11,.51,2.27,.95,3.28,1.62,1.8,1.2,3.1,2.85,3.91,4.87,.25,.63,.55,.79,1.16,.37,1.84-1.25,3.68-2.49,5.57-3.65,1.74-1.07,3.55-2.02,5.31-3.01,.12,.17,.17,.2,.17,.23-.02,6.54-.04,13.08-.1,19.61,0,.33-.38,.76-.7,.96-.38,.24-.89,.29-1.12,.36-1.73-1.51-3.27-3.03-4.98-4.31-2.21-1.65-4.72-2.64-7.57-2.34-2.45,.26-4.25,1.9-6.26,3.07-.58,.34-.45,.91,.17,1.2,.35,.17,.76,.22,1.13,.35,3.23,1.18,6.07,2.89,7.6,6.14,.43,.9,.56,1.94,.86,3Zm51.54,133.36c17.68,.12,30.88-13.93,30.97-30.43,.09-17.75-13.31-30.18-28.94-31.14-9.8-.6-18.18,2.83-24.84,10-5.21,5.61-7.87,12.46-8.01,20.12-.31,17.73,13.86,31.62,30.81,31.45Zm-53.66-34.54c13.32,.35,23.6-10.6,23.62-23.08,.02-13.5-10.17-23.29-22.47-23.77-14.38-.57-24.54,10.65-24.63,23.39-.09,12.88,10.37,23.76,23.48,23.46Zm70.6-142.65c-.46,14.55,11.9,25.41,23.87,26.1,8.33,.48,15.48-2.04,21.26-7.96,4.61-4.72,7.05-10.58,7.23-17.21,.41-15.79-11.82-26.88-25.72-27.2-14.77-.34-27.09,11.84-26.63,26.26Zm112.01,87.81c-.08-14.71-11.62-25.86-25.95-25.97-7.68-.06-14.31,2.93-19.51,8.68-4.42,4.9-6.66,10.8-6.6,17.34,.06,6.82,2.37,12.88,7.19,17.93,4.82,5.05,10.68,7.74,17.6,8.07,15.7,.74,27.52-11.9,27.27-26.04Zm-80.61,159.86c14.11,.37,24.98-11.2,24.94-24.65-.05-13.95-10.69-23.97-23.03-24.79-16.02-1.07-26.18,11.8-26.72,23.45-.69,14.96,11.82,26.62,24.82,25.99Zm5.1-212.36c-13.57-.4-23.77,10.6-23.76,23.4,0,12.94,9.89,22.74,21.88,23.5,15.19,.96,24.66-11.11,25.29-21.96,.84-14.51-11.18-25.48-23.41-24.94Zm-126.76,208.71c13.52-.05,23.12-10.64,23.43-22.69,.36-14.02-10.28-23.61-21.95-24.24-8.01-.44-14.66,2.43-19.83,8.58-3.61,4.3-5.29,9.39-5.29,14.91,0,6.44,2.31,12.15,6.91,16.66,4.58,4.5,10.22,6.83,16.73,6.78Zm166.25-203.26c12.22,.31,20.74-9.62,21.3-19.77,.76-13.68-10.02-22.73-21.08-22.79-12.16-.06-20.92,9.4-21.55,19.91-.78,13.06,9.82,23.16,21.32,22.64Zm-24.14,72.58c.01-7.61-2.45-12.79-7.08-16.96-3.89-3.5-8.63-5.15-13.73-5.17-5.52-.02-10.53,1.9-14.54,5.79-3.98,3.87-6.17,8.69-6.41,14.27-.26,6.09,1.86,11.4,6.08,15.72,4,4.1,9.14,6.14,14.77,6.1,5.65-.04,10.82-1.9,14.88-6.15,3.99-4.18,6.18-9.06,6.04-13.6Zm-76.97,109.09c12.05,.11,21.21-9.63,21.31-20.83,.11-12.53-9.31-21.69-21.26-21.73-11.93-.04-20.7,9.22-21.27,19.9-.72,13.41,9.75,22.74,21.23,22.66Zm13.21-152.88c-11.46-.29-20.13,9.07-20.32,19.63-.21,11.73,8.98,20.21,19.11,20.68,12.7,.58,21.32-9.38,21.43-19.97,.11-11.08-8.8-20.61-20.21-20.34Zm28.29,91.52c-.07,11.35,8.87,19.28,18.54,19.59,12.27,.39,20.49-8.71,20.58-19.38,.09-11.05-8.57-19.59-19.25-19.72-11.24-.14-19.87,8.52-19.87,19.52Zm-92.32,35.14c11.02-.14,19.16-8.47,19.14-19.08-.02-10.27-7.54-18.1-17.22-18.9-13.08-1.08-20.82,9.19-20.97,18.4-.18,11.06,8.55,19.56,19.05,19.58Zm33.33-208.62c-1.43-.04-3.79,2.18-3.83,3.61-.05,1.43,2.19,3.79,3.63,3.81,1.48,.03,4.13-2.38,4.17-3.79,.04-1.35-2.41-3.59-3.97-3.63Zm-1.93,20.89h3.28c.29-1.04,1.53-1.79,.48-2.96-.07-.08,.05-.39,.15-.54,.49-.75,.36-1.33-.18-1.64h-3.86c-.21,.35-.45,.75-.7,1.18,.38,.43,.71,.82,.82,.94h3.04c-.03,1.11-.75,1.02-1.43,1.01-.93-.01-1.98-.26-2.37,1.1,.3,.35,.64,.74,.78,.9Zm-.01,9.46h3.08c-.19,1.25-1.01,1-1.69,.99-.92,0-1.88-.14-2.14,1.16,.34,.38,.68,.76,1.01,1.14,.02-.1,.04-.2,.06-.31,.75-.04,1.49-.06,2.24-.11,.28-.02,.77-.03,.8-.15,.26-.81,1.46-1.47,.46-2.53-.11-.11,0-.55,.14-.75,.49-.74,.24-1.26-.22-1.56h-3.85c-.2,.33-.45,.74-.71,1.18,.37,.42,.7,.81,.82,.95Zm.2,4.02c-1.19,2.81-1.19,2.82,.74,4.81,.08,.09,.15,.21,.25,.25,.25,.1,.51,.25,.76,.23,1.44-.09,2.5-2.05,1.94-3.34-.5-1.14-1.01-2.04-2.5-1.69-.34,.08-.75-.15-1.19-.26Zm.06-12.36c-1.31,2.5-1.29,2.54,.5,4.59,.48,.55,1.03,1.12,1.68,.52,.72-.66,1.56-1.48,1.74-2.35,.13-.67-.59-1.61-1.12-2.28-.21-.27-.95-.09-1.44-.17-.46-.07-.91-.21-1.36-.32Zm-2.27-12.56c1.83,0,3.58-.06,5.32,.02,1.42,.07,2.2-.89,3.21-1.52-2.4,0-4.7,.07-7-.03-1.29-.05-1.67,.2-1.53,1.53Z"/>
  <path class="cls-1" d="M163.02,210.91c-.29-1.06-.43-2.1-.86-3-1.54-3.25-4.37-4.95-7.6-6.14-.37-.14-.78-.18-1.13-.35-.62-.3-.75-.86-.17-1.2,2.01-1.18,3.8-2.81,6.26-3.07,2.85-.3,5.36,.68,7.57,2.34,1.71,1.28,3.25,2.8,4.98,4.31,.23-.07,.74-.12,1.12-.36,.32-.2,.7-.63,.7-.96,.07-6.54,.08-13.08,.1-19.61,0-.03-.04-.06-.17-.23-1.76,.99-3.57,1.94-5.31,3.01-1.89,1.16-3.73,2.4-5.57,3.65-.62,.42-.91,.26-1.16-.37-.81-2.02-2.12-3.67-3.91-4.87-1.01-.67-2.17-1.11-3.28-1.62-.35-.16-.74-.21-.91-.26,.31-1.55,.79-2.97,.84-4.41,.15-4.22,.22-8.45,.11-12.67-.03-1.23-.7-2.49-1.24-3.66-.43-.94-.4-1.17,.63-1.33,5.5-.84,10.88-2.06,15.83-4.73,.94-.51,1.76-1.25,2.7-1.76,.36-.2,1.06-.23,1.36-.01,2.75,2.05,5.78,3.35,9.23,3.55,.9,.05,1,.45,.75,1.28-.43,1.43-.97,2.91-.98,4.37-.08,11.31-.07,22.63,0,33.94,0,1.56,.48,3.12,.77,4.67,.12,.61,.4,1.13-.59,1.31-1.87,.34-3.75,.69-5.58,1.22-2.86,.84-5.68,1.82-8.52,2.76-2.11,.7-3.79,1.98-5.14,3.73-.1,.12-.23,.23-.36,.31-.09,.06-.22,.08-.46,.15Zm11.02-38.32s.02,0,.03,0c0-2.16,.05-4.32-.03-6.47-.02-.62-.24-1.47-.68-1.79-2.05-1.51-3.77-3.29-5.22-5.37-.18-.26-.69-.53-.94-.45-.95,.28-1.85,.71-2.78,1.07-.74,.28-.99,.83-1,1.59-.02,5.28-.07,10.55-.08,15.83,0,.42,.21,.95,.5,1.25,1.44,1.49,2.98,2.89,4.41,4.39,.59,.62,1.04,.68,1.72,.22,.95-.65,1.93-1.29,2.94-1.84,.86-.46,1.14-1.13,1.12-2.06-.03-2.12,0-4.24,0-6.36Z"/>
  <path class="cls-1" d="M214.56,344.27c-16.96,.17-31.13-13.73-30.81-31.45,.13-7.66,2.79-14.51,8.01-20.12,6.66-7.16,15.03-10.6,24.84-10,15.63,.96,29.03,13.39,28.94,31.14-.08,16.5-13.29,30.55-30.97,30.43Zm10.68-3.36c15.39-6.33,22.99-23.28,16.55-38.72-5.25-12.58-19.39-21.56-35.63-16.85-13.01,3.77-23.42,17.41-20.41,33.7,.86,4.68,2.85,8.94,5.91,12.67,3.03,3.7,6.58,6.66,11.06,8.47-1.15-1.49-.82-2.93-.06-4.34,.69-1.3,1.44-2.57,2.19-3.9-.41-.26-.77-.51-1.14-.72-1.96-1.1-2.85-2.74-2.83-5.02,.03-3.4,.53-6.68,1.82-9.83,.11-.26,.16-.54,.22-.76-1.62,.78-3.16,1.67-4.79,2.26-.97,.35-2.11,.37-3.15,.28-.75-.06-1.16-.53-.48-1.41,3.09-3.97,6.13-7.97,9.12-12.02,.51-.69,.84-1.62,.97-2.49,.56-3.81,1.29-7.58,2.97-11.06,.85-1.77,1.96-3.49,3.26-4.96,1.47-1.66,3.25-1.52,4.8,.09,.63,.65,1.16,1.43,1.61,2.22,1.75,3.1,2.56,6.51,3.25,9.96,.42,2.1,0,4.51,2.18,6.04,.58,.41,.92,1.18,1.34,1.81,2.1,3.11,4.19,6.22,6.27,9.33,.14,.2,.18,.47,.33,.84-2.65,.34-4.77-.87-6.86-1.71,.72,2.03,1.66,3.96,2.09,6.01,.86,4.12,1.56,8.31-1.68,11.9,.57,1.32,1.11,2.65,1.71,3.95,.65,1.42,.7,2.76-.61,4.25Zm-30.11-23.83c.09,.16,.17,.32,.26,.48,.92-.17,1.87-.22,2.74-.53,2.33-.82,4.35-2.16,6.1-3.91,.19-.19,.52-.23,.79-.34-.02,.28-.01,.57-.07,.84-.03,.15-.16,.27-.24,.41-1.84,3.35-2.69,6.94-3.05,10.73-.34,3.51,1.26,5.45,4.26,6.75,4.49,1.95,9.18,2.39,13.96,1.84,3.3-.38,5.25-2.12,5.53-4.89,.19-1.97,.19-4.01-.1-5.96-.68-4.6-2.77-8.54-6.13-11.79-.2-.19-.21-.58-.31-.88,.3,.1,.68,.13,.89,.32,.7,.65,1.33,1.38,2.01,2.06,1.99,1.97,4.46,2.96,7.11,3.49-2.1-3.35-4.15-6.67-6.26-9.95-.4-.63-1.08-1.07-1.51-1.69-.41-.59-.87-1.26-.96-1.93-.51-3.93-1.18-7.82-2.82-11.46-.57-1.26-1.28-2.5-2.14-3.57-1.25-1.57-2.53-1.61-3.98-.21-.71,.68-1.32,1.5-1.81,2.36-2.13,3.73-3.18,7.81-3.85,12.01-.16,1.01-.13,2.17-.63,3-1.11,1.83-2.48,3.52-3.8,5.22-1.98,2.55-4,5.06-6,7.59Zm7.76,20.61c-.19,1.53,.76,2.06,1.81,2.38,2.13,.66,4.28,1.26,6.43,1.86,1.15,.31,1.92-.14,2.06-1.31,.25-2.08,.4-4.17,.58-6.12-2.68-.64-5.41-1.28-8.29-1.97-.57,.99-1.18,2.15-1.89,3.25-.5,.78-.3,1.27,.45,1.61,1.23,.54,2.49,1.03,3.73,1.56,.57,.24,1.13,.51,1.7,.76-.07,.15-.13,.3-.2,.45-2.27-.34-4.35-1.22-6.4-2.47Zm20.64-4.25c-2.54,.43-4.86,.81-7.02,1.18,.59,1.66,1.21,3.44,1.87,5.28,.57-.07,1.3-.15,2.02-.24l.14,.49c-.59,.19-1.2,.34-1.78,.57-.26,.11-.44,.39-.65,.6,.26,.1,.54,.33,.76,.28,1.64-.31,3.3-.59,4.9-1.05,.64-.19,1.16-.82,1.74-1.24-.07-.1-.14-.2-.2-.3-1.19,.64-2.38,1.28-3.82,.93,.29-.35,.64-.53,1-.67,.63-.24,1.29-.42,1.89-.72,.78-.39,1.07-.96,.62-1.85-.57-1.13-1.04-2.32-1.46-3.27Zm-5.87,9.33c-.13-.8-.33-1.57-.36-2.36-.09-2.26-.83-4.25-2.43-5.99-.36,1.59-.64,3.18-.76,4.79-.09,1.28-.06,2.55-1.41,3.56h4.96Z"/>
  <path class="cls-1" d="M160.9,309.73c-13.11,.3-23.57-10.57-23.48-23.46,.09-12.74,10.25-23.96,24.63-23.39,12.3,.49,22.49,10.27,22.47,23.77-.02,12.48-10.3,23.43-23.62,23.08Zm12.58-41.78c-.04,.38-.08,.61-.08,.84,0,7.28-.14,14.56,.07,21.83,.1,3.46-2.18,5.58-5.06,6.02-3.15,.48-6.34-1.51-6.82-4.29-.54-3.13,1.91-5.9,5.38-6.13,1.76-.12,3.32,.44,4.83,1.45v-17.6c-.15-.01-.24-.05-.3-.02-4.79,1.89-9.58,3.77-14.35,5.7-.28,.11-.56,.65-.57,.99-.02,6.6-.04,13.19,.03,19.79,.03,2.87-1.7,5.1-4.63,5.65-3.19,.59-6.28-1.01-7.11-3.7-.98-3.16,1.44-6.3,5.08-6.6,1.81-.15,3.46,.26,5.07,1.53,0-.67,0-1.1,0-1.53,0-5.32,.02-10.63-.02-15.95,0-.81,.24-1.2,1-1.49,4.65-1.81,9.28-3.66,13.92-5.51,1.01-.4,2.02-.82,3.11-1.26-9.16-6.18-24.16-5.09-31.7,8.09-4.91,8.58-3.64,21.38,6.87,28.86,9.74,6.94,23.94,5.03,31.3-5.83,6.64-9.8,4.69-23.34-6.03-30.83Zm-22.78,25.19c-1.03,.39-1.99,.6-2.78,1.09-2.25,1.39-2.25,4.14-.07,5.64,1.74,1.2,4.03,1.16,5.73-.09,1.92-1.41,1.99-4.02,.03-5.37-.85-.59-1.92-.86-2.9-1.27Zm16.45,1.97c2.59-.02,4.49-1.47,4.76-3.35,.23-1.62-1.27-3.42-3.28-3.86-1.85-.4-3.5,.04-4.77,1.5-.86,.99-1.06,2.15-.47,3.35,.84,1.69,2.36,2.27,3.76,2.36Z"/>
  <path class="cls-1" d="M231.5,167.08c-.46-14.43,11.87-26.61,26.63-26.26,13.9,.32,26.14,11.42,25.72,27.2-.17,6.63-2.61,12.49-7.23,17.21-5.78,5.91-12.93,8.44-21.26,7.96-11.97-.69-24.34-11.55-23.87-26.1Zm50.94-.03c.02-13.9-11.17-24.3-23.57-24.8-15.12-.61-26.25,11.46-26.13,24.73,.13,14.11,10.82,24.82,24.93,24.94,13.31,.11,24.84-10.89,24.77-24.87Z"/>
  <path class="cls-1" d="M343.51,254.89c.26,14.14-11.57,26.78-27.27,26.04-6.92-.33-12.77-3.02-17.6-8.07-4.82-5.05-7.14-11.11-7.19-17.93-.05-6.54,2.19-12.44,6.6-17.34,5.19-5.75,11.82-8.74,19.51-8.68,14.33,.11,25.87,11.26,25.95,25.97Zm-1.47,.09c.31-13.67-11.32-24.39-23.64-24.65-14.7-.32-25.38,11.12-25.54,24.23-.17,14.09,10.97,24.18,22.89,24.97,15.11,1,26.71-11.47,26.28-24.55Z"/>
  <path class="cls-1" d="M262.9,414.75c-13,.62-25.51-11.04-24.82-25.99,.54-11.65,10.7-24.52,26.72-23.45,12.35,.82,22.99,10.84,23.03,24.79,.04,13.45-10.83,25.02-24.94,24.65Zm23.55-24.62c.35-13.22-10.76-23.21-22.2-23.65-14.7-.56-24.76,10.83-24.94,23.09-.2,13.66,10.46,23.53,22.63,24.08,13.79,.63,24.91-10.93,24.51-23.52Z"/>
  <path class="cls-1" d="M268,202.39c12.23-.54,24.25,10.43,23.41,24.94-.63,10.84-10.1,22.91-25.29,21.96-11.99-.76-21.87-10.55-21.88-23.5,0-12.79,10.19-23.79,23.76-23.4Zm-22.39,23.36c-.09,12.63,10.15,22.11,21.68,22.34,13.08,.26,22.85-10.14,22.86-22.17,.02-12.56-9.72-21.96-21.55-22.36-13-.43-23.08,10.06-23,22.19Z"/>
  <path class="cls-1" d="M141.24,411.1c-6.51,.05-12.15-2.28-16.73-6.78-4.59-4.52-6.91-10.23-6.91-16.66,0-5.52,1.68-10.61,5.29-14.91,5.17-6.15,11.82-9.02,19.83-8.58,11.68,.64,22.31,10.23,21.95,24.24-.31,12.05-9.91,22.64-23.43,22.69Zm-22.29-23.55c-.52,12.34,10.39,22,21.01,22.37,13.79,.48,23.39-10.24,23.55-21.84,.18-12.96-9.82-22.07-21.16-22.78-13.02-.82-24.01,10.55-23.4,22.25Z"/>
  <path class="cls-1" d="M307.5,207.84c-11.51,.51-22.11-9.59-21.32-22.64,.63-10.52,9.39-19.97,21.55-19.91,11.05,.05,21.84,9.11,21.08,22.79-.57,10.16-9.08,20.08-21.3,19.77Zm-.05-1.13c11.29,.19,19.95-9.24,20.18-19.3,.28-12.32-9.17-20.9-20.09-20.9-11.12,0-19.66,8.4-20.17,19.25-.55,11.8,9.22,21.14,20.08,20.96Z"/>
  <path class="cls-1" d="M283.36,280.42c.14,4.53-2.05,9.42-6.04,13.6-4.06,4.25-9.23,6.11-14.88,6.15-5.64,.04-10.78-2-14.77-6.1-4.22-4.32-6.34-9.63-6.08-15.72,.24-5.58,2.43-10.4,6.41-14.27,4.01-3.89,9.03-5.82,14.54-5.79,5.11,.02,9.85,1.67,13.73,5.17,4.63,4.17,7.09,9.35,7.08,16.96Zm-20.76,18.41c10.96,.2,19.05-8.96,19.54-18.15,.7-13.17-9.62-21.33-19.6-21.19-11.74,.17-19.57,9.28-19.77,19.5-.2,10.63,8.82,20.18,19.83,19.83Z"/>
  <path class="cls-1" d="M206.39,389.5c-11.48,.08-21.95-9.25-21.23-22.66,.57-10.67,9.34-19.93,21.27-19.9,11.96,.04,21.38,9.2,21.26,21.73-.1,11.2-9.26,20.94-21.31,20.83Zm.05-1.16c11.21,.28,19.83-9.31,20.15-19.21,.39-12.18-9.31-20.82-19.63-21.08-11.56-.29-20.02,9.23-20.69,18.55-.92,12.79,9.89,22.21,20.17,21.74Z"/>
  <path class="cls-1" d="M219.6,236.62c11.41-.26,20.32,9.27,20.21,20.34-.1,10.59-8.72,20.55-21.43,19.97-10.13-.46-19.31-8.95-19.11-20.68,.19-10.57,8.86-19.92,20.32-19.63Zm.02,1.14c-10.89-.24-18.98,8.78-19.18,18.46-.23,11.17,8.6,19.15,18.16,19.56,11.58,.49,20.03-8.81,20.04-19.04,0-10.26-8.45-19.06-19.02-18.98Z"/>
  <path class="cls-1" d="M247.89,328.14c0-11,8.63-19.66,19.87-19.52,10.67,.14,19.34,8.68,19.25,19.72-.09,10.67-8.3,19.77-20.58,19.38-9.67-.31-18.61-8.24-18.54-19.59Zm19.44,18.47c10.58-.03,18.35-8.39,18.52-18.06,.18-10.49-8.24-18.55-17.94-18.78-10.76-.26-18.3,8.23-18.87,17.1-.75,11.63,8.85,19.86,18.29,19.74Z"/>
  <path class="cls-1" d="M155.57,363.28c-10.51-.03-19.23-8.53-19.05-19.58,.15-9.2,7.89-19.48,20.97-18.4,9.68,.8,17.2,8.63,17.22,18.9,.02,10.61-8.12,18.94-19.14,19.08Zm.04-1.13c10.01,.3,17.58-8.25,18.04-16.63,.62-11.31-8.4-19.11-17.43-19.36-10.51-.28-18,8.27-18.61,16.76-.78,10.97,8.68,19.68,18,19.23Z"/>
  <path class="cls-1" d="M188.9,154.66c1.56,.04,4.01,2.29,3.97,3.63-.04,1.41-2.69,3.82-4.17,3.79-1.43-.02-3.68-2.38-3.63-3.81,.05-1.43,2.4-3.66,3.83-3.61Zm1.16,5.47c.14-.2,.63-.58,.64-.97,.02-1.11-2.06-2.94-3.15-2.78-.38,.06-.95,.53-.97,.85-.08,1.01,2.08,2.93,3.49,2.9Z"/>
  <path class="cls-1" d="M186.97,175.55c-.14-.17-.48-.55-.78-.9,.4-1.36,1.44-1.12,2.37-1.1,.68,0,1.4,.11,1.43-1.01h-3.04c-.11-.12-.44-.51-.82-.94,.25-.43,.49-.83,.7-1.18h3.86c.53,.31,.67,.89,.18,1.64-.1,.15-.22,.46-.15,.54,1.05,1.17-.19,1.92-.48,2.96h-3.28Z"/>
  <path class="cls-1" d="M186.96,185.01c-.12-.14-.46-.53-.82-.95,.27-.44,.51-.84,.71-1.18h3.85c.47,.3,.71,.81,.22,1.56-.13,.2-.24,.64-.14,.75,1,1.06-.21,1.72-.46,2.53-.04,.12-.52,.13-.8,.15-.74,.05-1.49,.08-2.24,.11-.02,.1-.04,.2-.06,.31-.34-.38-.68-.76-1.01-1.14,.25-1.3,1.22-1.17,2.14-1.16,.68,0,1.5,.26,1.69-.99h-3.08Z"/>
  <path class="cls-1" d="M187.15,189.03c.44,.1,.86,.34,1.19,.26,1.49-.34,2.01,.55,2.5,1.69,.56,1.29-.51,3.24-1.94,3.34-.25,.02-.52-.13-.76-.23-.1-.04-.17-.16-.25-.25-1.93-1.98-1.93-1.99-.74-4.81Zm2.97,2.36l-.23-.37c-.54,0-1.17-.17-1.61,.05-.36,.18-.48,.82-.71,1.26,.38,.1,.86,.39,1.12,.26,.54-.28,.96-.79,1.43-1.2Z"/>
  <path class="cls-1" d="M187.21,176.68c.45,.11,.9,.25,1.36,.32,.49,.08,1.23-.1,1.44,.17,.53,.67,1.25,1.6,1.12,2.28-.17,.87-1.02,1.69-1.74,2.35-.65,.59-1.2,.03-1.68-.52-1.79-2.05-1.81-2.1-.5-4.59Zm2.9,2.35c-.06-.11-.13-.22-.19-.33-.54,0-1.09-.07-1.61,.03-.27,.05-.58,.37-.69,.64-.1,.25-.05,.75,.11,.86,.24,.15,.73,.18,.96,.03,.52-.33,.95-.81,1.42-1.23Z"/>
  <path class="cls-1" d="M184.94,164.12c-.14-1.33,.24-1.58,1.53-1.53,2.3,.09,4.6,.03,7,.03-1.01,.64-1.79,1.59-3.21,1.52-1.74-.08-3.5-.02-5.32-.02Z"/>
  <path d="M174.05,172.59c0,2.12-.02,4.24,0,6.36,.01,.92-.26,1.59-1.12,2.06-1.02,.55-1.99,1.18-2.94,1.84-.68,.46-1.14,.4-1.72-.22-1.43-1.5-2.97-2.9-4.41-4.39-.29-.3-.5-.83-.5-1.25,0-5.28,.05-10.55,.08-15.83,0-.76,.25-1.31,1-1.59,.93-.35,1.83-.79,2.78-1.07,.26-.08,.76,.2,.94,.45,1.44,2.09,3.16,3.87,5.22,5.37,.44,.32,.65,1.17,.68,1.79,.08,2.16,.03,4.32,.03,6.47,0,0-.02,0-.03,0Z"/>
  <path d="M225.24,340.91c1.31-1.49,1.25-2.83,.61-4.25-.6-1.31-1.14-2.64-1.71-3.95,3.24-3.6,2.54-7.79,1.68-11.9-.43-2.04-1.37-3.98-2.09-6.01,2.08,.84,4.2,2.05,6.86,1.71-.14-.38-.19-.64-.33-.84-2.08-3.12-4.17-6.23-6.27-9.33-.42-.62-.76-1.4-1.34-1.81-2.17-1.53-1.75-3.93-2.18-6.04-.69-3.46-1.5-6.87-3.25-9.96-.45-.79-.98-1.56-1.61-2.22-1.55-1.61-3.33-1.76-4.8-.09-1.3,1.47-2.4,3.19-3.26,4.96-1.68,3.48-2.41,7.25-2.97,11.06-.13,.86-.45,1.79-.97,2.49-2.99,4.05-6.03,8.05-9.12,12.02-.69,.89-.27,1.35,.48,1.41,1.04,.09,2.19,.07,3.15-.28,1.64-.59,3.17-1.47,4.79-2.26-.06,.21-.12,.5-.22,.76-1.29,3.15-1.79,6.43-1.82,9.83-.02,2.28,.86,3.92,2.83,5.02,.38,.21,.73,.46,1.14,.72-.75,1.33-1.5,2.59-2.19,3.9-.75,1.42-1.08,2.86,.06,4.34-4.48-1.81-8.03-4.77-11.06-8.47-3.05-3.73-5.04-7.99-5.91-12.67-3.01-16.28,7.4-29.92,20.41-33.7,16.24-4.71,30.37,4.27,35.63,16.85,6.45,15.44-1.15,32.39-16.55,38.72Z"/>
  <path d="M195.13,317.08c2-2.53,4.03-5.04,6-7.59,1.32-1.7,2.68-3.39,3.8-5.22,.5-.82,.46-1.98,.63-3,.67-4.2,1.72-8.29,3.85-12.01,.49-.86,1.1-1.68,1.81-2.36,1.45-1.4,2.73-1.36,3.98,.21,.86,1.08,1.57,2.31,2.14,3.57,1.64,3.64,2.31,7.53,2.82,11.46,.09,.68,.55,1.35,.96,1.93,.43,.61,1.11,1.06,1.51,1.69,2.11,3.29,4.16,6.6,6.26,9.95-2.65-.53-5.12-1.52-7.11-3.49-.68-.67-1.31-1.4-2.01-2.06-.21-.2-.59-.22-.89-.32,.1,.3,.11,.69,.31,.88,3.36,3.25,5.46,7.19,6.13,11.79,.29,1.95,.29,3.99,.1,5.96-.27,2.77-2.22,4.51-5.53,4.89-4.78,.55-9.47,.11-13.96-1.84-3-1.3-4.6-3.24-4.26-6.75,.36-3.8,1.21-7.39,3.05-10.73,.08-.14,.21-.26,.24-.41,.05-.27,.05-.56,.07-.84-.27,.11-.6,.15-.79,.34-1.75,1.75-3.78,3.09-6.1,3.91-.87,.31-1.82,.36-2.74,.53-.09-.16-.17-.32-.26-.48Zm21.7-16.6c0-1.39,.05-2.63-.02-3.85-.05-.95-.51-1.71-1.55-1.85-.98-.13-1.29,.63-1.55,1.36-.14,.41-.23,.85-.26,1.28-.04,.59-.01,1.19-.01,1.79-.36-1.12-.44-2.23-.68-3.31-.17-.75-.54-1.49-1.53-1.36-.99,.12-1.38,.85-1.55,1.73-.06,.31-.04,.64-.03,.96,.06,1.54,.42,3.15-1.04,4.33-.14,.11-.18,.35-.26,.53-.68,1.54-.58,1.8,.94,2.56,1.34,.67,1.46,.99,.8,2.29-2.2,4.32-3.88,8.83-4.91,13.57-.69,3.2,.45,6.99,2.82,8.34,2.68,1.53,5.57,2.53,8.75,2.23,3.36-.32,5.29-2.2,5.11-5.55-.15-2.69-.52-5.44-1.33-7.99-1.14-3.6-2.77-7.05-4.19-10.56-.52-1.29-.24-2.08,.96-2.75,1.15-.64,1.38-2.08,.45-3.03-.33-.34-.74-.58-.93-.72Z"/>
  <path d="M202.89,337.69c2.05,1.25,4.13,2.13,6.4,2.47,.07-.15,.13-.3,.2-.45-.57-.26-1.13-.52-1.7-.76-1.24-.52-2.5-1.01-3.73-1.56-.76-.33-.95-.83-.45-1.61,.71-1.1,1.32-2.26,1.89-3.25,2.88,.68,5.61,1.33,8.29,1.97-.18,1.95-.33,4.04-.58,6.12-.14,1.17-.91,1.63-2.06,1.31-2.15-.59-4.3-1.19-6.43-1.86-1.05-.33-2-.85-1.81-2.38Zm9.37,3.24c.06-.22,.13-.44,.19-.67-.74-.19-1.48-.38-2.23-.55-.08-.02-.28,.17-.3,.29-.02,.12,.08,.35,.17,.38,.71,.2,1.44,.37,2.16,.55Z"/>
  <path d="M223.53,333.44c.42,.95,.89,2.14,1.46,3.27,.45,.89,.16,1.46-.62,1.85-.6,.3-1.26,.47-1.89,.72-.36,.14-.71,.31-1,.67,1.44,.35,2.63-.29,3.82-.93,.07,.1,.14,.2,.2,.3-.57,.43-1.09,1.06-1.74,1.24-1.6,.46-3.26,.74-4.9,1.05-.23,.04-.51-.18-.76-.28,.21-.21,.4-.49,.65-.6,.57-.24,1.18-.39,1.78-.57l-.14-.49c-.72,.09-1.45,.17-2.02,.24-.65-1.85-1.28-3.62-1.87-5.28,2.16-.36,4.48-.75,7.02-1.18Z"/>
  <path d="M217.66,342.77h-4.96c1.35-1.01,1.32-2.28,1.41-3.56,.11-1.6,.4-3.2,.76-4.79,1.6,1.75,2.34,3.73,2.43,5.99,.03,.78,.23,1.56,.36,2.36Z"/>
  <path d="M173.48,267.95c10.72,7.49,12.67,21.04,6.03,30.83-7.36,10.86-21.56,12.77-31.3,5.83-10.51-7.49-11.78-20.29-6.87-28.86,7.54-13.19,22.54-14.27,31.7-8.09-1.09,.44-2.1,.86-3.11,1.26-4.64,1.84-9.27,3.7-13.92,5.51-.76,.3-1,.68-1,1.49,.04,5.32,.02,10.63,.02,15.95,0,.43,0,.86,0,1.53-1.61-1.26-3.27-1.67-5.07-1.53-3.63,.3-6.06,3.44-5.08,6.6,.84,2.69,3.92,4.29,7.11,3.7,2.92-.54,4.65-2.77,4.63-5.65-.07-6.6-.05-13.19-.03-19.79,0-.34,.28-.88,.57-.99,4.77-1.93,9.56-3.82,14.35-5.7,.06-.02,.15,0,.3,.02v17.6c-1.51-1.01-3.07-1.56-4.83-1.45-3.47,.23-5.92,3-5.38,6.13,.48,2.78,3.67,4.77,6.82,4.29,2.88-.44,5.16-2.56,5.06-6.02-.21-7.27-.07-14.55-.07-21.83,0-.23,.04-.46,.08-.84Z"/>
  <path d="M150.7,293.14c.98,.42,2.05,.69,2.9,1.27,1.96,1.34,1.9,3.95-.03,5.37-1.7,1.25-3.98,1.28-5.73,.09-2.18-1.5-2.18-4.24,.07-5.64,.79-.49,1.75-.7,2.78-1.09Z"/>
  <path d="M167.15,295.11c-1.4-.09-2.92-.67-3.76-2.36-.6-1.19-.39-2.36,.47-3.35,1.27-1.46,2.92-1.9,4.77-1.5,2.01,.43,3.5,2.24,3.28,3.86-.26,1.88-2.16,3.33-4.76,3.35Z"/>
  <path d="M282.43,167.05c.07,13.98-11.46,24.98-24.77,24.87-14.11-.12-24.81-10.83-24.93-24.94-.12-13.27,11.01-25.34,26.13-24.73,12.4,.5,23.59,10.9,23.57,24.8Z"/>
  <path d="M342.04,254.98c.43,13.08-11.17,25.55-26.28,24.55-11.92-.79-23.06-10.88-22.89-24.97,.16-13.12,10.84-24.55,25.54-24.23,12.32,.26,23.94,10.98,23.64,24.65Zm-17.32,12.44c.11-.09,.21-.18,.32-.26,0-2.3,.1-4.62-.04-6.91-.08-1.39,.45-2.05,1.62-2.67,3.7-1.96,7.34-4.04,11-6.08,.33-.19,.61-.47,1.14-.89-13.07-2.84-25.81-5.61-38.83-8.44,2.78,9.61,5.47,18.9,8.27,28.58,3.84-2.93,7.45-5.7,11.09-8.48,1.86,1.77,3.64,3.46,5.43,5.15Z"/>
  <path d="M286.46,390.13c.41,12.59-10.72,24.14-24.51,23.52-12.17-.55-22.83-10.42-22.63-24.08,.18-12.26,10.24-23.65,24.94-23.09,11.44,.43,22.56,10.43,22.2,23.65Zm-13.97-3.22c-.31,.2-.88,.58-.9,.56-.53-.72-1.36-1.46-1.39-2.23-.05-1.16,.46-2.35,.73-3.55,1.3,.31,2.47,.6,3.83,.93-.6-.9-1.08-1.62-1.57-2.34-.05,.03-.11,.07-.16,.1,.29,.47,.58,.95,.87,1.42-.07,.1-.13,.2-.2,.29-.62-.18-1.23-.44-1.86-.53-.4-.06-1.21,.12-1.21,.2-.04,1.72-1.73,3.47,0,5.18-1.03-.12-2.07-.26-3.1-.37-.22-.02-.61-.01-.64,.09-.08,.21-.04,.52,.05,.75,.08,.2,.29,.35,.57,.66-.55,.27-1.01,.68-1.48,.7-2.02,.07-4.04,.07-6.05-.02-.5-.02-.99-.47-1.47-.72,.42-.34,.83-.68,1.25-1.01-.43-.17-.85-.37-1.29-.49-.21-.06-.47,.02-.7,.06-1.04,.18-2.08,.36-2.93,.51,1.26,1.28,2.95-.88,4.91,.09-.51,.37-.86,.61-1.22,.86-.23,.18-.46,.36-.69,.54-.72,.31-1.44,.63-2.15,.94-.33-.33-.67-.66-1-.99-.92-.94-1.33-.94-2.33-.01,.45,.71,.9,1.42,1.39,2.19-.85,.28-1.58,.52-2.48,.82,.59,.47,1.12,.89,1.65,1.3-.45,.79-.86,1.53-1.28,2.26l.03-.05c-1.21,1.86-.26,6.3,2.39,7.71l-.04-.04c.61,.33,1.22,.67,1.84,1,1.98,.91,3.93,1.89,5.97,2.67,.73,.28,1.73,.31,2.46,.03,1.99-.74,3.9-1.71,5.83-2.59,2.2-.88,3.67-2.41,4.41-4.69,.78-2.41,.15-4.44-1.61-6.17,.66-.58,1.22-1.07,1.59-1.4-.82-.5-1.56-.9-2.25-1.39-.36-.26-.54-.77-.91-.99-.53-.31-1.15-.46-1.74-.68-.3,.02-.61,.03-.91,.05-.57-.5-1.15-1-1.72-1.51,.73-.08,1.3,.23,1.88,.24,.58,.01,1.17-.26,1.76-.41,.42,.32,.84,.63,1.26,.95,.22-.3,.44-.6,.66-.91,.95-.11,1.8-.39,2.46-1.47-.5,.33-.81,.53-1.32,.86,.3-.89,.52-1.54,.73-2.17-.64,.93-1.27,1.83-1.9,2.74Zm-.27-12.42c-.11-.19-.22-.38-.33-.58-.57,.12-1.14,.24-1.7,.36,.24,.6,.47,1.2,.71,1.79,.44-.53,.89-1.05,1.33-1.58Zm5.6,10.58c.06,0,.12,0,.19,0-.08-.54-.11-1.1-.27-1.62-.12-.39-.34-.94-.65-1.06-.62-.23-1.01,.21-1.15,.84-.09,.37-.2,.74-.3,1.1,.29-.27,.35-.62,.54-.9,.22-.32,.54-.58,.81-.86,.2,.33,.48,.63,.58,.99,.15,.48,.17,1.01,.24,1.52Zm-28.25,2.76c.26-1.39-2-2.31-.15-3.9-.64,.3-1.03,.49-1.46,.69,.57,1.13,1.06,2.11,1.61,3.21Zm-.43-8.74c-.08,.07-.15,.13-.23,.2,.21,.19,.48,.59,.63,.54,.69-.19,1.48-.36,1.98-.81,.24-.22-.08-1.05-.15-1.61-.11,.01-.22,.03-.33,.04,.14,.49,.27,.98,.4,1.44q-1.66,.75-2.3,.19Zm27.63,8.29l-.14-.27c-.57,.36-1.11,.91-1.73,1.02-.67,.13-1.41-.15-2.33-.29q1.63,.76,4.19-.47Z"/>
  <path d="M245.61,225.75c-.07-12.13,10-22.62,23-22.19,11.83,.39,21.56,9.8,21.55,22.36-.02,12.04-9.79,22.43-22.86,22.17-11.54-.23-21.78-9.71-21.68-22.34Z"/>
  <path d="M118.95,387.56c-.61-11.7,10.38-23.07,23.4-22.25,11.33,.71,21.33,9.83,21.16,22.78-.16,11.59-9.77,22.32-23.55,21.84-10.62-.37-21.53-10.03-21.01-22.37Zm21.37,13.86c1.1-.16,2.24-.2,3.3-.52,3.55-1.06,7.09-2.2,10.6-3.36,.31-.1,.47-.64,.7-.98-.38-.05-.81-.23-1.14-.13-2.82,.89-5.62,1.83-8.42,2.77-4.43,1.48-8.66,1.08-12.65-1.37-1.56-.96-3.05-2.04-4.61-3.01-.28-.17-.75-.06-1.13-.07,.15,.36,.21,.85,.48,1.05,1.04,.8,2.13,1.56,3.24,2.26,2.94,1.85,6.02,3.3,9.63,3.36Zm8.31-20.31c-.47-1.28-.87-2.53-1.39-3.74-.13-.3-.6-.45-.92-.67-.07,.38-.28,.81-.18,1.14,.34,1.14,.73,2.28,1.21,3.38,.3,.69,.21,1.16-.34,1.67-.9,.84-1.76,1.74-2.58,2.67-.22,.26-.2,.72-.3,1.09,.4-.09,.9-.05,1.18-.29,.99-.86,1.91-1.8,2.85-2.72,.57,.95,1.11,1.97,1.78,2.91,.2,.28,.75,.32,1.14,.48-.04-.38,.01-.81-.14-1.13-.44-.89-.96-1.74-1.46-2.6-.31-.53-.25-.93,.27-1.31,1.36-.98,2.71-1.97,4.02-3,.31-.24,.47-.68,.7-1.03-.45,0-1.01-.18-1.33,.03-1.5,.96-2.94,2.03-4.51,3.13Zm-13.82,.97c.56,.92,1.17,2,1.87,3,.16,.23,.66,.22,1.01,.32-.01-.35,.08-.74-.06-1.03-.39-.78-.86-1.53-1.33-2.27-.53-.84-.49-1.48,.4-2.07,1.36-.91,2.68-1.88,3.98-2.87,.22-.17,.28-.55,.42-.83-.34-.07-.7-.26-1.01-.19-.37,.08-.71,.35-1.04,.58-1.25,.9-2.48,1.82-3.78,2.77-.48-1.31-.89-2.56-1.41-3.76-.13-.31-.59-.47-.9-.7-.08,.38-.31,.81-.21,1.13,.37,1.22,.9,2.4,1.24,3.62,.11,.39-.04,1-.3,1.32-.82,.98-1.78,1.83-2.63,2.79-.23,.26-.22,.72-.32,1.09,.4-.08,.9-.03,1.18-.26,1.01-.84,1.94-1.77,2.89-2.65Z"/>
  <path d="M307.45,206.71c-10.85,.18-20.63-9.16-20.08-20.96,.51-10.85,9.05-19.25,20.17-19.25,10.91,0,20.36,8.58,20.09,20.9-.23,10.06-8.88,19.49-20.18,19.3Z"/>
  <path d="M262.6,298.83c-11.01,.36-20.03-9.2-19.83-19.83,.19-10.23,8.03-19.33,19.77-19.5,9.98-.14,20.3,8.02,19.6,21.19-.49,9.18-8.58,18.34-19.54,18.15Zm16.08-19.96c0-2.56,0-5.12,0-7.68,0-2.14-1.18-3.36-3.35-3.45-.56-.02-1.14-.09-1.68,0-2.78,.54-4.66-.44-5.59-3.15-.22-.65-.7-.74-1.32-.73-1.88,.03-3.78,.21-5.63-.03-2.73-.36-4.57,.42-5.53,3.1-.14,.38-.89,.73-1.38,.77-1.39,.1-2.8,.01-4.19,.04-2.46,.05-3.65,1.25-3.65,3.66,0,5.16,0,10.31,0,15.47,0,2,1.14,3.2,3.14,3.23,2.8,.05,5.59,.11,8.39,.11,5.83-.01,11.67-.07,17.5-.1,.12,0,.24,0,.36,0,1.79-.1,2.93-1.31,2.93-3.08,0-2.72,0-5.44,0-8.16Z"/>
  <path d="M206.44,388.34c-10.29,.48-21.09-8.95-20.17-21.74,.67-9.32,9.13-18.84,20.69-18.55,10.32,.26,20.02,8.89,19.63,21.08-.31,9.91-8.94,19.49-20.15,19.21Z"/>
  <path d="M219.62,237.76c10.57-.08,19.03,8.72,19.02,18.98,0,10.23-8.46,19.53-20.04,19.04-9.56-.41-18.39-8.39-18.16-19.56,.2-9.68,8.28-18.7,19.18-18.46Zm-1.1,24.92c.84,.03,1.51-.3,1.85,.68,.77,2.26,1.6,4.49,2.49,6.7,.16,.4,.67,.79,1.1,.93,.88,.28,1.62-.23,2.01-.94,.33-.6,.57-1.42,.45-2.06-.2-1.08-.82-2.07-1.09-3.15-.4-1.61-1.79-2.89-1.53-4.71,.02-.13-.3-.31-.46-.47-.24-.25-.59-.47-.7-.77-1.02-2.72-2.22-5.39-2.18-8.39,.02-1.83,0-3.65,0-5.47-1.58-.19-3.23,1.34-3.16,3.26,.13,3.36-.82,6.45-1.88,9.55-.3,.87-.55,1.61-1.55,2.07-.67,.31-1.1,1.26-1.48,2-.08,.15,.56,.67,.96,1.13,0,0-.05,.19-.11,.38-.3,.95-.65,1.88-.88,2.85-.07,.27,.12,.76,.34,.91,.21,.13,.7,.04,.95-.13,.85-.58,1.67-1.17,1.82-2.37,.09-.7,.52-1.37,.78-1.98,1.04,.03,1.32,.47,1.27,1.31-.07,1.2-.02,2.41-.02,3.62l.31,.02c.24-1.63,.47-3.25,.72-4.98Z"/>
  <path d="M267.33,346.6c-9.44,.11-19.04-8.12-18.29-19.74,.57-8.86,8.12-17.35,18.87-17.1,9.7,.23,18.12,8.29,17.94,18.78-.17,9.67-7.94,18.03-18.52,18.06Zm11.1-14.81c.25-1.14,.56-2.22,.7-3.31,.32-2.44-.2-4.81-1.13-7.03-.5-1.21-1.56-2.16-1.6-3.62-.01-.42-.4-.85-.68-1.23-.85-1.13-1.93-1.88-3.01-1.82-.43-.42-.62-.76-.8-.75-1.35,.04-2.7,.16-4.05,.22-.53,.02-1.06-.05-1.6-.08-1.14-.06-2.29-.13-3.43-.2-.01,.12-.02,.23-.04,.35,.31,.19,.62,.39,.93,.58-.44,.23-.84,.23-1.21,.14-2.63-.65-4.79,.83-5.16,3.5-.04,.31-.27,.63-.5,.88-.46,.51-.82,.97-.12,1.27-.22,1.73-2.59,1.92-2.21,4.21,.32,1.97-.25,4.08-.46,6.47,.72-.52,1.11-.81,1.61-1.17-.26,2.9,1.54,4.84,2.64,7.27,.45-.6,.75-1,1.03-1.38,.81,1.13,1.56,2.19,2.43,3.4,.5-.67,.87-1.16,1.31-1.76,2.02,1.92,4.2,2.62,6.6,.75,.89,1.36,1.35,.06,1.87-.25,.66-.4,1.2-1,1.77-1.48,.46,.37,.96,.79,1.54,1.26,.91-2.22,1.76-4.3,2.63-6.41,.25,.05,.58,.12,.92,.19Z"/>
  <path d="M155.61,362.15c-9.32,.45-18.78-8.26-18-19.23,.6-8.49,8.1-17.04,18.61-16.76,9.03,.24,18.05,8.05,17.43,19.36-.46,8.38-8.03,16.93-18.04,16.63Z"/>
  <path d="M190.07,160.13c-1.41,.03-3.57-1.89-3.49-2.9,.03-.32,.6-.8,.97-.85,1.09-.16,3.18,1.67,3.15,2.78,0,.39-.5,.77-.64,.97Z"/>
  <path d="M190.12,191.39c-.47,.41-.89,.92-1.43,1.2-.26,.13-.74-.16-1.12-.26,.23-.44,.35-1.08,.71-1.26,.43-.22,1.06-.05,1.61-.05l.23,.37Z"/>
  <path d="M190.11,179.02c-.47,.42-.9,.9-1.42,1.23-.23,.15-.72,.13-.96-.03-.17-.11-.21-.61-.11-.86,.11-.27,.42-.59,.69-.64,.52-.1,1.07-.03,1.61-.03,.06,.11,.13,.22,.19,.33Z"/>
  <path class="cls-1" d="M216.84,300.48c.19,.14,.6,.39,.93,.72,.93,.96,.7,2.39-.45,3.03-1.21,.67-1.48,1.47-.96,2.75,1.42,3.51,3.05,6.96,4.19,10.56,.81,2.55,1.18,5.3,1.33,7.99,.18,3.35-1.75,5.23-5.11,5.55-3.18,.3-6.07-.7-8.75-2.23-2.37-1.35-3.51-5.15-2.82-8.34,1.03-4.74,2.71-9.25,4.91-13.57,.66-1.3,.54-1.62-.8-2.29-1.52-.76-1.61-1.02-.94-2.56,.08-.18,.12-.42,.26-.53,1.47-1.18,1.11-2.79,1.04-4.33-.01-.32-.03-.65,.03-.96,.17-.88,.56-1.61,1.55-1.73,.99-.12,1.37,.62,1.53,1.36,.24,1.08,.32,2.19,.68,3.31,0-.6-.03-1.2,.01-1.79,.03-.43,.12-.87,.26-1.28,.25-.73,.56-1.5,1.55-1.36,1.04,.14,1.5,.9,1.55,1.85,.07,1.23,.02,2.46,.02,3.85Zm-5.44,5.74c-2.43,4.62-4.35,9.49-5.44,14.68-.79,3.75,1.02,7.12,4.66,8.29,2.37,.76,4.68,1.54,7.32,.51,1.92-.75,2.68-.98,3.06-3.06,.15-.85,.13-1.75,.05-2.61-.36-3.81-1.49-7.4-3.06-10.88-1.04-2.32-1.94-4.7-2.85-6.93h-3.73Zm-2.64-2.42c.89-.97,1.09-.38,1.39,.14,.73,1.23,1.92,1.62,3.27,1.56,1.32-.05,2.37-.53,2.94-1.86,.19-.45,.68-.77,1.23-1.36-.43-.34-.89-.96-1.48-1.12-1.21-.34-2.48-.54-3.74-.61-2.18-.12-3.02,.63-3.61,3.26Zm7.55-6.91c-.44-.5-.79-.9-1.14-1.3-.32,.46-.65,.92-1.02,1.44,.79-.05,1.31-.09,2.15-.14Zm-3.98-.39c-.44-.44-.77-.78-1.11-1.12-.3,.43-.59,.86-.98,1.42,.78-.11,1.26-.18,2.09-.3Z"/>
  <path class="cls-1" d="M212.26,340.93c-.72-.18-1.45-.34-2.16-.55-.09-.03-.19-.26-.17-.38,.02-.11,.21-.3,.3-.29,.75,.16,1.49,.36,2.23,.55-.06,.22-.13,.44-.19,.67Z"/>
  <path class="cls-1" d="M324.72,267.42c-1.78-1.69-3.56-3.38-5.43-5.15-3.64,2.78-7.25,5.54-11.09,8.48-2.8-9.68-5.49-18.97-8.27-28.58,13.02,2.83,25.75,5.6,38.83,8.44-.53,.42-.81,.71-1.14,.89-3.66,2.05-7.3,4.12-11,6.08-1.17,.62-1.7,1.28-1.62,2.67,.14,2.3,.04,4.61,.04,6.91-.11,.09-.21,.18-.32,.26Zm-4.07-7.23c-6.5-5.49-12.85-10.85-19.47-16.44,2.53,8.75,4.97,17.15,7.45,25.72,4.09-3.15,7.98-6.17,12.02-9.28Zm-18-16.77c.32,.3,.42,.43,.54,.51,6.95,4.47,13.91,8.92,20.84,13.41,.61,.4,1.04,.31,1.62-.01,3.34-1.88,6.69-3.73,10.04-5.59,.4-.22,.78-.46,1.42-.83-11.59-2.52-22.89-4.97-34.46-7.49Zm4.15,3.7c-.05,.06-.11,.12-.16,.18,3.9,3.29,7.74,6.65,11.71,9.85,2.28,1.84,4.25,3.83,5.26,6.63,.14,.37,.36,.72,.54,1.08,.17-1.99,.21-3.91,.14-5.83-.01-.38-.37-.86-.7-1.09-1.65-1.13-3.34-2.19-5.02-3.27-3.92-2.52-7.84-5.04-11.76-7.57Zm13.26,14.5c.94,.89,1.77,1.68,2.7,2.56-.57-1.13-1.09-2.17-1.65-3.3-.39,.28-.71,.5-1.05,.74Z"/>
  <path d="M270.09,403.85c-1.94,.88-3.85,1.84-5.83,2.59-.72,.27-1.73,.25-2.46-.03-2.03-.78-3.98-1.77-5.97-2.67,.09-.34,.06-.85,.27-1,1.19-.85,2.43-1.61,3.66-2.4-.28-1.12-.98-1.62-2.08-1.39-1.82,.38-3.62,.82-5.52,1.26-.92-1.52-.88-3.32-.51-5.15l-.03,.05c.61-.74,1.21-1.48,1.83-2.23-.55-.49-.94-.83-1.32-1.18,.07-.14,.14-.29,.21-.43,.63,.19,1.26,.37,2.05,.61,.28-.25,.72-.63,1.16-1.02,.26,.23,.5,.43,.71,.62,.9-.48,1.03-1.99,2.42-1.65,.38,.27,.76,.77,1.13,.76,.95-.02,1.4,.55,1.87,1.17,1.26-.07,2.57,.24,3.72-.53,1.77-1.19,3.53-1.24,5.29,.02,.52,.37,.96,.56,1.62,.16,.34-.2,.94,.05,1.43,.1v.34c-.4,.3-.79,.61-1.33,1.01,2.11,2.23,2.89,4.67,1.24,7.38-1.46-.42-2.85-.87-4.27-1.21-1.76-.43-2.66-.03-3.31,1.42,.27,.14,.55,.26,.81,.42,1,.64,2.02,1.25,2.96,1.96,.22,.17,.17,.69,.25,1.05Zm-8.84-9.96l.04,.04c-.59-1.07-1.79-1.2-2.1-.13-.31,1.08-.2,2.31-.09,3.46,.03,.32,.75,.82,1.12,.79,.39-.03,1.02-.56,1.06-.92,.12-1.07-.01-2.16-.04-3.24Zm-.03,5.4c-.58,1.14,.16,1.75,.98,2.26,.98,.61,1.71,.18,2.26-.7,.84-.39,.78-1.07,.37-1.66-.55-.81-2.91-.69-3.61,.11Zm3.96-5.91c-1.02,.7-1.24,3.11-.33,4.15,.26,.29,.78,.62,1.07,.53,.34-.1,.56-.62,.83-.96,.08-.58,.22-1.15,.22-1.73,0-1.54-.32-1.88-1.8-1.99Zm-2.38,12.75c1.04,.09,1.89-.16,2.08-1.2,.18-.99-.85-2.14-1.78-2.18-1.05-.04-1.87,.75-1.91,1.84-.04,1.21,.28,1.5,1.61,1.54Z"/>
  <path class="cls-1" d="M270.09,403.85c-.08-.36-.03-.89-.25-1.05-.94-.71-1.96-1.32-2.96-1.96-.26-.16-.54-.29-.81-.42,.65-1.44,1.55-1.85,3.31-1.42,1.42,.35,2.82,.8,4.27,1.21,1.65-2.71,.86-5.15-1.24-7.38,.53-.41,.93-.71,1.33-1.01v-.34c-.49-.05-1.09-.3-1.43-.1-.66,.4-1.1,.21-1.62-.16-1.75-1.25-3.52-1.21-5.29-.02-1.15,.77-2.46,.46-3.72,.54,.47-.09,.93-.17,1.4-.28,.75-.18,1.6-.21,2.23-.6,2.01-1.23,3.45-1.26,5.48,0,.33,.21,.87,.09,1.32,.12-.22-.48-.32-1.09-.68-1.41-.51-.46-1.21-.71-1.83-1.05,.58,.22,1.21,.37,1.74,.68,.37,.22,.56,.73,.91,.99,.68,.49,1.43,.89,2.25,1.39-.37,.33-.93,.82-1.59,1.4,1.76,1.73,2.38,3.76,1.61,6.17-.73,2.28-2.21,3.81-4.41,4.69Zm3.01-2.5c0-.22,.02-.43,.03-.65-1.62-.46-3.23-.92-4.85-1.37,1.28,.9,2.62,1.56,3.99,2.16,.22,.09,.55-.08,.83-.14Zm-1.1,.84c-1.29-.65-2.48-1.25-3.67-1.85,2.43,2.32,2.84,2.52,3.67,1.85Z"/>
  <path d="M269.59,388.53c.62,.34,1.32,.59,1.83,1.05,.36,.32,.47,.93,.68,1.41-.44-.03-.98,.09-1.32-.12-2.03-1.26-3.48-1.23-5.48,0-.63,.38-1.48,.42-2.23,.6-.46,.11-.93,.19-1.4,.28-.48-.62-.93-1.19-1.87-1.17-.37,0-.75-.49-1.13-.76-1.56-1.21-1.51,.97-2.51,1.11-.99-1.56-1.34,1.04-2.38,.42,.57-.57,1.1-1.1,1.63-1.63,.08-.06,.16-.13,.24-.19,.72-.31,1.44-.63,2.16-.94,.89,.21,1.79,.61,2.68,.58,1.39-.04,2.71,1.64,4.14,.19,.01-.01,.07,.03,.11,.03,.6-.09,1.3-.01,1.78-.31,.7-.43,1.32-.77,2.15-.51,.3-.02,.61-.03,.91-.05Z"/>
  <path class="cls-1" d="M251.65,395.05c-.38,1.83-.41,3.63,.51,5.15,1.91-.44,3.71-.88,5.52-1.26,1.11-.23,1.81,.27,2.08,1.39-1.23,.79-2.47,1.55-3.66,2.4-.22,.16-.19,.66-.27,1-.61-.33-1.22-.67-1.84-1,1.15-.59,2.31-1.18,3.46-1.78-.08-.14-.15-.29-.23-.43-.73,.36-1.5,.66-2.18,1.1-.41,.27-.68,.75-1.02,1.14-2.65-1.42-3.6-5.85-2.39-7.71Zm1.15,5.89c.07,.22,.14,.45,.21,.67,1.55-.31,2.78-1.47,4.34-1.75-.05-.13-.1-.27-.14-.4-1.47,.49-2.94,.99-4.4,1.48Z"/>
  <path class="cls-1" d="M268.68,388.58c-.82-.26-1.45,.08-2.15,.51-.47,.29-1.18,.22-1.78,.31-.04,0-.1-.04-.11-.03-1.44,1.44-2.75-.24-4.14-.19-.89,.03-1.79-.37-2.68-.58,.23-.18,.46-.36,.69-.54l-.03-.03c.49,.25,.98,.7,1.48,.72,2.02,.09,4.04,.09,6.05,.02,.47-.02,.94-.43,1.48-.7-.28-.31-.49-.46-.57-.66-.09-.23-.13-.53-.05-.75,.04-.1,.42-.11,.64-.09,1.04,.11,2.07,.24,3.1,.37,0,0-.03-.03-.03-.03-.59,.15-1.17,.42-1.76,.41-.58-.01-1.15-.31-1.88-.24,.57,.5,1.15,1,1.72,1.51Z"/>
  <path class="cls-1" d="M255.43,389.72c-.53,.53-1.06,1.06-1.63,1.63,1.03,.62,1.39-1.99,2.38-.42,1-.14,.94-2.33,2.51-1.11-1.39-.34-1.52,1.17-2.42,1.65-.22-.19-.45-.39-.71-.62-.44,.39-.88,.77-1.16,1.02-.8-.24-1.43-.42-2.05-.61-.07,.14-.14,.29-.21,.43,.39,.34,.77,.69,1.32,1.18-.62,.75-1.22,1.49-1.83,2.23,.42-.74,.83-1.47,1.28-2.26-.53-.41-1.06-.84-1.65-1.3,.9-.3,1.63-.54,2.48-.82-.49-.78-.94-1.49-1.39-2.19,.28,.25,.65,.44,.84,.75,.84,1.35,.96,1.39,2.25,.45Z"/>
  <path class="cls-1" d="M270.62,386.94c-1.72-1.71-.03-3.45,0-5.18,0-.08,.8-.26,1.21-.2,.63,.09,1.24,.34,1.86,.53,.07-.1,.13-.2,.2-.29-.29-.47-.58-.95-.87-1.42,.05-.03,.11-.07,.16-.1,.48,.72,.96,1.44,1.57,2.34-1.36-.33-2.53-.61-3.83-.93-.28,1.2-.78,2.39-.73,3.55,.04,.77,.87,1.51,1.39,2.23,.01,.02,.58-.36,.9-.56l.03,.04c-.22,.3-.44,.6-.66,.91-.42-.32-.84-.63-1.26-.95,0,0,.03,.03,.03,.03Z"/>
  <path d="M255.43,389.72c-1.29,.95-1.41,.91-2.25-.45-.19-.31-.56-.5-.84-.75,1-.93,1.41-.92,2.33,.01,.33,.34,.67,.66,1,.99-.08,.06-.16,.13-.24,.19Z"/>
  <path class="cls-1" d="M272.21,374.49c-.44,.53-.89,1.05-1.33,1.58-.24-.6-.47-1.2-.71-1.79,.57-.12,1.14-.24,1.7-.36,.11,.19,.22,.38,.33,.58Z"/>
  <path class="cls-1" d="M258.51,388.05c.35-.25,.7-.5,1.22-.86-1.96-.98-3.65,1.18-4.91-.09,.85-.15,1.89-.33,2.93-.51,.23-.04,.49-.12,.7-.06,.44,.12,.86,.32,1.29,.49-.42,.34-.83,.68-1.25,1.01,0,0,.02,.02,.02,.02Z"/>
  <path class="cls-1" d="M272.49,386.91c.63-.91,1.26-1.81,1.9-2.74-.21,.63-.43,1.27-.73,2.17,.51-.33,.82-.53,1.32-.86-.65,1.08-1.51,1.36-2.46,1.47,0,0-.03-.04-.03-.04Z"/>
  <path class="cls-1" d="M277.82,385.07c-.08-.51-.1-1.03-.24-1.52-.11-.36-.38-.66-.58-.99-.28,.29-.6,.54-.81,.86-.18,.28-.25,.63-.54,.9,.1-.37,.21-.73,.3-1.1,.14-.63,.53-1.07,1.15-.84,.31,.11,.52,.66,.65,1.06,.16,.52,.19,1.08,.27,1.62-.06,0-.12,0-.19,0Z"/>
  <path class="cls-1" d="M249.57,387.84c-.55-1.1-1.05-2.08-1.61-3.21,.43-.2,.82-.39,1.46-.69-1.85,1.59,.42,2.51,.15,3.9Z"/>
  <path class="cls-1" d="M249.13,379.1q.64,.55,2.3-.19c-.13-.47-.26-.95-.4-1.44,.11-.01,.22-.03,.33-.04,.07,.55,.39,1.39,.15,1.61-.5,.46-1.28,.63-1.98,.81-.15,.04-.42-.35-.63-.54,.08-.07,.15-.13,.23-.2Z"/>
  <path class="cls-1" d="M276.77,387.39q-2.56,1.23-4.19,.47c.92,.13,1.66,.41,2.33,.29,.62-.12,1.15-.66,1.73-1.02l.14,.27Z"/>
  <path class="cls-1" d="M140.32,401.42c-3.6-.06-6.69-1.51-9.63-3.36-1.11-.7-2.2-1.46-3.24-2.26-.27-.21-.33-.7-.48-1.05,.38,.02,.84-.1,1.13,.07,1.56,.97,3.05,2.05,4.61,3.01,3.99,2.45,8.22,2.85,12.65,1.37,2.8-.94,5.6-1.87,8.42-2.77,.33-.11,.76,.08,1.14,.13-.23,.34-.39,.88-.7,.98-3.52,1.17-7.05,2.31-10.6,3.36-1.06,.31-2.2,.35-3.3,.52Z"/>
  <path class="cls-1" d="M148.63,381.11c1.57-1.1,3.01-2.17,4.51-3.13,.32-.2,.88-.03,1.33-.03-.23,.35-.39,.79-.7,1.03-1.31,1.03-2.67,2.02-4.02,3-.52,.38-.58,.78-.27,1.31,.51,.86,1.03,1.71,1.46,2.6,.16,.32,.1,.75,.14,1.13-.39-.15-.94-.19-1.14-.48-.67-.93-1.21-1.95-1.78-2.91-.95,.91-1.86,1.86-2.85,2.72-.27,.24-.78,.2-1.18,.29,.09-.37,.07-.84,.3-1.09,.81-.93,1.67-1.83,2.58-2.67,.55-.52,.64-.98,.34-1.67-.47-1.1-.87-2.23-1.21-3.38-.1-.33,.11-.76,.18-1.14,.32,.22,.79,.37,.92,.67,.52,1.2,.92,2.45,1.39,3.74Z"/>
  <path class="cls-1" d="M134.81,382.08c-.95,.88-1.88,1.81-2.89,2.65-.27,.23-.78,.18-1.18,.26,.1-.37,.09-.83,.32-1.09,.84-.96,1.8-1.82,2.63-2.79,.26-.31,.41-.93,.3-1.32-.34-1.23-.87-2.4-1.24-3.62-.1-.33,.13-.75,.21-1.13,.31,.23,.76,.4,.9,.7,.52,1.2,.93,2.45,1.41,3.76,1.3-.96,2.53-1.88,3.78-2.77,.32-.23,.67-.5,1.04-.58,.31-.07,.67,.12,1.01,.19-.13,.28-.2,.66-.42,.83-1.3,.99-2.62,1.96-3.98,2.87-.89,.59-.94,1.24-.4,2.07,.47,.74,.94,1.48,1.33,2.27,.14,.28,.04,.68,.06,1.03-.34-.1-.85-.09-1.01-.32-.7-1.01-1.31-2.08-1.87-3Z"/>
  <path class="cls-1" d="M278.68,278.86c0,2.72,0,5.44,0,8.16,0,1.77-1.15,2.97-2.93,3.08-.12,0-.24,0-.36,0-5.83,.04-11.67,.09-17.5,.1-2.8,0-5.59-.05-8.39-.11-1.99-.04-3.14-1.23-3.14-3.23,0-5.16,0-10.31,0-15.47,0-2.41,1.19-3.61,3.65-3.66,1.4-.03,2.8,.06,4.19-.04,.49-.04,1.25-.38,1.38-.77,.97-2.69,2.81-3.46,5.53-3.1,1.85,.24,3.75,.07,5.63,.03,.62-.01,1.09,.08,1.32,.73,.92,2.71,2.81,3.69,5.59,3.15,.54-.1,1.12-.03,1.68,0,2.18,.1,3.35,1.32,3.35,3.45,0,2.56,0,5.12,0,7.68Zm-18.65,9.73c.88,0,1.76,.02,2.64,0,1.23-.03,2.61,.25,3.66-.22,3.83-1.69,7.06-4.21,9.17-7.92,1.35-2.38,1.69-5.03,1.91-7.72,.19-2.28-.69-3.38-2.98-3.4-1.48,0-2.96-.04-4.43,.01-.81,.03-1.45-.18-1.72-.97-.97-2.93-3.01-3.5-5.94-3.48-2.7,.02-4.49,.59-5.38,3.2-.35,1.03-1.13,1.39-2.17,1.24-.64-.09-1.03,.14-1.28,.77-.72,1.82-1.6,3.57-2.22,5.42-1.48,4.46-.7,8.59,2.12,12.32,.3,.39,.96,.69,1.47,.71,1.71,.09,3.43,.03,5.15,.03Zm-8.03-19.13c-2.68-.47-4.62,.18-4.48,3.68,.15,4.07,.16,8.15-.01,12.22-.09,2.31,1.78,3.81,4.12,3.03-4.11-6.33-2.9-12.6,.38-18.92Zm17.85,19.12c1.93,0,3.53,.04,5.12-.01,1.34-.05,2.38-.81,2.46-2.02,.13-1.95,.04-3.91,.04-5.87-1.6,3.41-4.55,5.49-7.62,7.9Z"/>
  <path class="cls-1" d="M218.52,262.69c-.25,1.72-.49,3.35-.72,4.98l-.31-.02c0-1.21-.05-2.41,.02-3.62,.05-.84-.23-1.28-1.27-1.31-.25,.61-.69,1.27-.78,1.98-.15,1.2-.97,1.79-1.82,2.37-.25,.17-.73,.26-.95,.13-.23-.14-.41-.63-.34-.91,.23-.96,.58-1.9,.88-2.85,.06-.19,.11-.38,.11-.38-.4-.46-1.04-.97-.96-1.13,.38-.74,.81-1.69,1.48-2,1.01-.46,1.26-1.2,1.55-2.07,1.06-3.1,2.01-6.19,1.88-9.55-.08-1.92,1.57-3.45,3.16-3.26,0,1.82,.02,3.65,0,5.47-.04,3,1.16,5.67,2.18,8.39,.11,.3,.46,.52,.7,.77,.16,.16,.48,.34,.46,.47-.26,1.82,1.13,3.1,1.53,4.71,.27,1.07,.89,2.07,1.09,3.15,.12,.65-.12,1.46-.45,2.06-.39,.72-1.12,1.22-2.01,.94-.43-.14-.94-.53-1.1-.93-.89-2.21-1.72-4.44-2.49-6.7-.33-.98-1.01-.65-1.85-.68Z"/>
  <path class="cls-1" d="M278.44,331.79c-.34-.07-.66-.13-.92-.19-.87,2.12-1.72,4.19-2.63,6.41-.58-.47-1.08-.89-1.54-1.26-.57,.49-1.11,1.09-1.77,1.48-.52,.31-.98,1.61-1.87,.25-2.4,1.87-4.58,1.17-6.6-.75-.45,.6-.81,1.09-1.31,1.76-.87-1.22-1.62-2.27-2.43-3.4-.28,.38-.58,.78-1.03,1.38-1.1-2.43-2.9-4.37-2.64-7.27-.5,.36-.89,.65-1.61,1.17,.21-2.39,.78-4.5,.46-6.47-.38-2.29,1.99-2.48,2.21-4.21-.7-.3-.34-.76,.12-1.27,.22-.25,.45-.57,.5-.88,.37-2.67,2.53-4.14,5.16-3.5,.37,.09,.77,.09,1.21-.14-.31-.19-.62-.39-.93-.58,.01-.12,.02-.23,.04-.35,1.14,.07,2.29,.13,3.43,.2,.53,.03,1.07,.1,1.6,.08,1.35-.06,2.7-.18,4.05-.22,.18,0,.37,.33,.8,.75,1.08-.06,2.16,.69,3.01,1.82,.28,.38,.67,.81,.68,1.23,.04,1.46,1.1,2.41,1.6,3.62,.93,2.23,1.45,4.59,1.13,7.03-.14,1.1-.45,2.17-.7,3.31Zm-4.19,.92c-.48,.03-.95,.07-1.42,.08-3.74,.04-7.49,.09-11.23,.11-1.04,0-2.36,.49-2.44-1.33,0-.18-.33-.33-.47-.53-1.06-1.55-1.28-3.22-.93-5.02,.91,.67,1.64,1.6,2.53,1.78,1.72,.35,3.59,.91,5.2-.52,.18-.15,.54-.09,.81-.14,1.13-.22,2.06,.64,3.03,.7,2.11,.12,4.41,.65,6.24-1.28-.37-.7-.79-1.49-1.27-2.38-.32,.47-.54,.8-.89,1.33-.83-2.58-2.27-4.42-4.41-5.81-.32,.61-.57,1.07-.95,1.79-.52-.96-.9-1.67-1.44-2.68-1.45,.82-3,1.54-4.36,2.52-1.44,1.03-2.18,2.61-2.45,4.42-.16-.02-.33-.05-.49-.07-.07-.81-.14-1.62-.22-2.43l-.29-.11c-.72,1.66-1.44,3.32-2.16,4.98-.12,0-.24,0-.36,0,0-.81-.07-1.62,.02-2.41,.09-.84,.32-1.66,.5-2.52-2.05,1.19-2.77,3.94-1.76,6.67,.23-.25,.46-.5,.69-.74,.11-.01,.22-.02,.33-.03-.33,2.86,.91,5.13,2.36,7.38,.91-1.32,.99-1.3,1.75-.04,.47,.78,1.06,1.48,1.61,2.23q1.13-1.44,2.69-.48c.24,.15,.54,.22,.72,.41,.77,.78,1.62,.73,2.52,.31,.89-.41,1.78-.83,2.7-1.27,.08,.2,.17,.4,.25,.61,.22,.21,.44,.42,.66,.63,.81-.87,1.62-1.74,2.43-2.6-.19-.1-.39-.2-.58-.3,.45,.47,.9,.94,1.45,1.52,.99-2.6,1.84-4.84,2.87-7.53,.17,.53,.28,.91,.4,1.29,.99-5.67,.71-8.23-.44-8.83,.16,1.09,.42,2.39,.5,3.71,.03,.44-.42,.91-.64,1.37-.1-.04-.21-.07-.31-.11-.06,.51-.08,1.04-.2,1.54-.07,.32-.21,.79-.44,.87-1.33,.48-1.69,1.62-2.15,2.92Zm-14.29-9.34c1.51-2.39,2.77-3.41,5.51-4.45,1.41-.53,1.63-.44,2.18,.89,.08,.2,.23,.36,.37,.58,.75-1.31,1.1-1.46,2.11-.48,1.27,1.23,2.37,2.64,3.6,4.04,.64-.65,1.09-.01,1.38,.69,.52,1.26,.96,2.56,1.43,3.84-.11-1.25-.48-2.43-.8-3.63-.06-.25,.1-.55,.16-.83,.26,.17,.63,.29,.75,.53,.29,.55,.45,1.16,.67,1.74,.17-.06,.34-.11,.51-.17-.31-1.12-.6-2.24-.95-3.35-.21-.65-.74-1.34,.49-1.48-1.02-1.93-2.62-3.23-4.55-4.16-.68-.33-1.24-.63-.42-1.35-.45-.66-2.33,.68-1.79-1.19h-6.27c.24,1.86-1.64,.66-2.23,1.36-.15,.45-.35,.88-.69,1.1-1.37,.86-2.78,1.65-4.48,2.65,1.24,.4,.91,.83,.48,1.31-.57,.64-1.1,1.31-1.87,2.26,.49-.23,.64-.33,.81-.38,.38-.12,.77-.21,1.15-.32-.09,.4-.16,.8-.26,1.19-.2,.76-.42,1.52-.63,2.29,.72-.98,1.29-1.97,1.92-2.92,.18-.26,.58-.55,.85-.53,.22,.02,.39,.5,.58,.76Zm-.08,8.99h13.95v-3.82h-13.95v3.82Zm-2.06-5.26c.4,1.39,.73,2.54,1.06,3.69l.46-.14c-.14-1.21,.71-2.7-1.53-3.56Zm17.62,.41c-1.34,.64-1.45,1.12-.84,3.27,.63-1,1.38-1.89,.84-3.27Zm-14.45-10.86c-.23-.18-.51-.54-.63-.49-.81,.34-1.61,.73-1.77,1.88,.83-.48,1.54-.89,2.41-1.39Zm11.69-.17c.82,.47,1.6,.92,2.49,1.43-.7-1.68-1.22-1.98-2.49-1.43Z"/>
  <path d="M211.4,306.22h3.73c.91,2.24,1.81,4.62,2.85,6.93,1.57,3.48,2.7,7.07,3.06,10.88,.08,.86,.11,1.76-.05,2.61-.38,2.08-1.14,2.31-3.06,3.06-2.64,1.03-4.95,.26-7.32-.51-3.64-1.18-5.44-4.54-4.66-8.29,1.09-5.19,3.01-10.06,5.44-14.68Z"/>
  <path d="M208.76,303.8c.59-2.63,1.43-3.38,3.61-3.26,1.26,.07,2.53,.27,3.74,.61,.59,.17,1.06,.78,1.48,1.12-.55,.59-1.04,.92-1.23,1.36-.57,1.32-1.62,1.81-2.94,1.86-1.35,.05-2.53-.33-3.27-1.56-.31-.52-.51-1.11-1.39-.14Z"/>
  <path d="M216.31,296.9c-.85,.06-1.37,.09-2.15,.14,.37-.52,.69-.98,1.02-1.44,.35,.4,.7,.79,1.14,1.3Z"/>
  <path d="M212.34,296.5c-.83,.12-1.31,.18-2.09,.3,.39-.56,.68-.99,.98-1.42,.34,.34,.67,.68,1.11,1.12Z"/>
  <path d="M320.65,260.19c-4.03,3.12-7.93,6.13-12.02,9.28-2.48-8.57-4.91-16.97-7.45-25.72,6.62,5.59,12.97,10.95,19.47,16.44Z"/>
  <path d="M302.66,243.43c11.56,2.51,22.86,4.97,34.46,7.49-.64,.37-1.03,.61-1.42,.83-3.35,1.86-6.7,3.71-10.04,5.59-.57,.32-1,.41-1.62,.01-6.93-4.49-13.89-8.94-20.84-13.41-.13-.08-.22-.21-.54-.51Z"/>
  <path d="M306.81,247.13c3.92,2.52,7.84,5.04,11.76,7.57,1.68,1.08,3.37,2.14,5.02,3.27,.34,.23,.69,.71,.7,1.09,.07,1.91,.03,3.83-.14,5.83-.18-.36-.4-.7-.54-1.08-1.02-2.8-2.98-4.79-5.26-6.63-3.97-3.2-7.81-6.56-11.71-9.85,.05-.06,.11-.12,.16-.18Z"/>
  <path d="M320.07,261.63c.34-.24,.66-.46,1.05-.74,.56,1.12,1.09,2.17,1.65,3.3-.93-.88-1.76-1.66-2.7-2.56Z"/>
  <path d="M265.18,393.39c1.47,.11,1.8,.45,1.8,1.99,0,.58-.14,1.15-.22,1.73-.38,.24-.91,.75-1.09,.65-.42-.24-.8-.74-.95-1.21-.34-1.09-.23-2.18,.47-3.16Z"/>
  <path d="M264.45,400.85c-.55,.88-1.28,1.31-2.26,.7-.81-.51-1.56-1.11-.98-2.26,.65-.09,1.3-.26,1.95-.27,1.69-.04,1.96,.35,1.29,1.83Z"/>
  <path class="cls-1" d="M262.8,406.14c-1.33-.04-1.65-.33-1.61-1.54,.04-1.09,.86-1.89,1.91-1.84,.93,.04,1.96,1.18,1.78,2.18-.19,1.05-1.04,1.29-2.08,1.2Zm.14-.8c1.13-.03,1.75-.59,1.46-1.32-.44-1.13-1.44-.1-2.08-.54-.09-.06-.54,.22-.67,.44-.47,.8,.14,1.45,1.29,1.43Z"/>
  <path class="cls-1" d="M261.25,393.9c.03,1.08,.16,2.18,.04,3.24-.04,.36-.67,.89-1.06,.92-.37,.03-1.09-.47-1.12-.79-.11-1.15-.22-2.38,.09-3.46,.31-1.07,1.5-.94,2.09,.13-1.16-.93-1.94-.69-2.21,.79-.12,.64-.09,1.37,.1,1.99,.14,.43,.68,.74,1.04,1.1,.33-.4,.87-.76,.95-1.2,.16-.88,.07-1.81,.08-2.72Z"/>
  <path class="cls-1" d="M265.18,393.39c-.7,.97-.81,2.06-.47,3.16,.15,.47,.53,.97,.95,1.21,.18,.1,.72-.41,1.09-.65-.27,.34-.49,.86-.83,.96-.29,.08-.82-.24-1.07-.53-.91-1.03-.69-3.44,.33-4.15Z"/>
  <path class="cls-1" d="M264.45,400.85c.67-1.47,.41-1.87-1.29-1.83-.65,.02-1.3,.18-1.95,.27,.7-.8,3.06-.92,3.61-.11,.41,.6,.47,1.27-.37,1.66Z"/>
  <path d="M273.1,401.35c-.28,.05-.61,.23-.83,.14-1.36-.6-2.7-1.26-3.99-2.16,1.62,.46,3.23,.92,4.85,1.37,0,.22-.02,.43-.03,.65Z"/>
  <path d="M271.99,402.19c-.83,.68-1.24,.47-3.67-1.85,1.19,.6,2.38,1.2,3.67,1.85Z"/>
  <path d="M252.8,400.94c1.47-.49,2.94-.99,4.4-1.48,.05,.13,.1,.27,.14,.4-1.56,.28-2.79,1.44-4.34,1.75-.07-.22-.14-.45-.21-.67Z"/>
  <path d="M254.04,402.77c.33-.39,.6-.87,1.02-1.14,.68-.44,1.45-.74,2.18-1.1,.08,.14,.15,.29,.23,.43-1.15,.59-2.31,1.18-3.46,1.78,0,0,.04,.04,.04,.04Z"/>
  <path d="M260.02,288.59c-1.72,0-3.44,.05-5.15-.03-.51-.03-1.17-.32-1.47-.71-2.82-3.73-3.6-7.87-2.12-12.32,.62-1.85,1.5-3.6,2.22-5.42,.25-.63,.64-.86,1.28-.77,1.04,.15,1.82-.21,2.17-1.24,.89-2.61,2.68-3.18,5.38-3.2,2.93-.02,4.97,.55,5.94,3.48,.26,.8,.9,1,1.72,.97,1.48-.05,2.96-.02,4.43-.01,2.3,.01,3.17,1.12,2.98,3.4-.22,2.69-.56,5.34-1.91,7.72-2.11,3.71-5.34,6.23-9.17,7.92-1.05,.46-2.43,.18-3.66,.22-.88,.02-1.76,0-2.64,0Zm10.82-9.65c0-4.84-3.46-8.33-8.26-8.34-4.88,0-8.38,3.47-8.41,8.35-.03,4.73,3.55,8.34,8.3,8.37,4.83,.03,8.37-3.51,8.37-8.38Zm.79-6.09c0,1.19,.83,2.01,2.03,2.01,1.21,0,2.01-.81,2-2.02,0-1.21-.83-2.03-2.01-2.02-1.2,0-2.01,.82-2.01,2.03Z"/>
  <path d="M251.99,269.46c-3.28,6.33-4.49,12.6-.38,18.92-2.34,.79-4.21-.72-4.12-3.03,.17-4.07,.17-8.15,.01-12.22-.13-3.5,1.8-4.14,4.48-3.68Z"/>
  <path d="M269.84,288.58c3.07-2.41,6.02-4.49,7.62-7.9,0,1.96,.1,3.92-.04,5.87-.08,1.21-1.13,1.97-2.46,2.02-1.59,.06-3.19,.01-5.12,.01Z"/>
  <path d="M274.25,332.71c.46-1.3,.83-2.44,2.15-2.92,.23-.08,.37-.55,.44-.87,.11-.5,.14-1.02,.2-1.54,.1,.04,.21,.07,.31,.11,.23-.46,.67-.93,.64-1.37-.08-1.31-.34-2.61-.5-3.71,1.14,.6,1.43,3.16,.44,8.83-.12-.38-.24-.75-.4-1.29-1.03,2.7-1.88,4.93-2.87,7.53-.56-.58-1.01-1.05-1.45-1.52,.19,.1,.39,.2,.58,.3-.81,.87-1.62,1.74-2.43,2.6-.22-.21-.44-.42-.66-.63-.09-.21-.17-.41-.25-.61-.92,.43-1.81,.85-2.7,1.27-.9,.42-1.75,.47-2.52-.31-.19-.19-.49-.27-.72-.41q-1.56-.96-2.69,.48c-.55-.75-1.15-1.45-1.61-2.23-.76-1.26-.84-1.28-1.75,.04-1.45-2.26-2.69-4.53-2.36-7.38-.11,.01-.22,.02-.33,.03-.23,.24-.46,.49-.69,.74-1.01-2.72-.29-5.48,1.76-6.67-.18,.86-.41,1.68-.5,2.52-.09,.8-.02,1.61-.02,2.41,.12,0,.24,0,.36,0,.72-1.66,1.44-3.32,2.16-4.98l.29,.11c.07,.81,.14,1.62,.22,2.43,.16,.02,.33,.05,.49,.07,.27-1.81,1.01-3.39,2.45-4.42,1.37-.98,2.92-1.7,4.36-2.52,.54,1.01,.92,1.72,1.44,2.68,.39-.73,.63-1.19,.95-1.79,2.14,1.39,3.58,3.23,4.41,5.81,.35-.53,.57-.86,.89-1.33,.48,.9,.9,1.68,1.27,2.38-1.83,1.93-4.13,1.39-6.24,1.28-.97-.05-1.9-.91-3.03-.7-.27,.05-.63-.01-.81,.14-1.61,1.42-3.48,.87-5.2,.52-.89-.18-1.62-1.11-2.53-1.78-.35,1.79-.13,3.47,.93,5.02,.13,.2,.46,.35,.47,.53,.08,1.82,1.39,1.34,2.44,1.33,3.74-.03,7.49-.07,11.23-.11,.47,0,.95-.05,1.42-.08Zm-9.19-7.76c-.89-.18-1.46-.3-2.35-.48,.14,.92,.18,1.69,.41,2.39,.05,.16,1.05,.26,1.15,.09,.36-.55,.5-1.23,.78-2Zm4.12-.48c-.08,.66-.14,1.09-.17,1.51-.06,1,1.32,1.63,1.73,.79,.28-.57,.33-1.43,.11-2.01-.1-.27-1.1-.21-1.68-.29Z"/>
  <path d="M259.96,323.37c-.19-.27-.36-.74-.58-.76-.27-.03-.67,.26-.85,.53-.64,.95-1.2,1.94-1.92,2.92,.21-.76,.43-1.52,.63-2.29,.1-.39,.17-.79,.26-1.19-.38,.1-.77,.2-1.15,.32-.17,.05-.33,.15-.81,.38,.78-.94,1.31-1.61,1.87-2.26,.42-.48,.75-.91-.48-1.31,1.7-1,3.11-1.79,4.48-2.65,.34-.22,.55-.65,.69-1.1,.6-.7,2.47,.5,2.23-1.36h6.27c-.54,1.88,1.33,.54,1.79,1.19-.82,.71-.26,1.02,.42,1.35,1.93,.93,3.53,2.23,4.55,4.16-1.24,.14-.7,.83-.49,1.48,.35,1.1,.64,2.23,.95,3.35-.17,.06-.34,.11-.51,.17-.22-.58-.38-1.19-.67-1.74-.13-.24-.49-.35-.75-.53-.06,.28-.22,.58-.16,.83,.31,1.2,.68,2.38,.8,3.63-.47-1.28-.91-2.58-1.43-3.84-.29-.71-.74-1.34-1.38-.69-1.23-1.4-2.33-2.81-3.6-4.04-1-.98-1.36-.83-2.11,.48-.14-.22-.29-.38-.37-.58-.55-1.33-.77-1.43-2.18-.89-2.74,1.04-4.01,2.06-5.51,4.45Z"/>
  <path d="M259.88,332.36v-3.82h13.95v3.82h-13.95Zm6.51-1.54c-.19-.23-.41-.44-.56-.69-.13-.23-.14-.69-.27-.72-.3-.06-.69,0-.95,.17-.37,.24-.26,1.71,.1,1.97,.98,.73,1.21-.28,1.68-.73,.09,.25,.19,.51,.28,.76,.09-.02,.18-.05,.27-.07,.07-.39,.15-.78,.19-.98,.24,.35,.42,.92,.72,.98,.89,.21,1.3-.3,1.15-1.23,.48,.12,.88,.22,1.3,.32-.13,.3-.26,.61-.39,.92,.05,.04,.09,.07,.14,.11,.21-.19,.43-.37,.41-.36,.53,.14,1.07,.41,1.2,.29,.92-.95-.14-.94-.66-1.12,.11-.37,.2-.67,.24-.81h-4.77c-.02,.3-.05,.75-.07,1.2Zm-2.21,.64c-.26-.72-.39-1.36-.73-1.85-.13-.19-1.02-.18-1.1-.02-.25,.49-.28,1.09-.39,1.65,.44,.09,.88,.2,1.32,.26,.23,.03,.47-.02,.9-.04Z"/>
  <path d="M257.82,327.1c2.24,.85,1.39,2.35,1.53,3.56l-.46,.14c-.33-1.15-.66-2.3-1.06-3.69Z"/>
  <path d="M275.45,327.5c.54,1.39-.21,2.27-.84,3.27-.6-2.15-.49-2.63,.84-3.27Z"/>
  <path d="M261,316.64c-.86,.5-1.58,.91-2.41,1.39,.16-1.15,.97-1.54,1.77-1.88,.12-.05,.4,.3,.63,.49Z"/>
  <path d="M272.69,316.47c1.26-.55,1.79-.25,2.49,1.43-.88-.51-1.66-.95-2.49-1.43Z"/>
  <path d="M262.94,405.34c-1.16,.03-1.76-.63-1.29-1.43,.13-.22,.58-.5,.67-.44,.64,.43,1.65-.59,2.08,.54,.29,.74-.33,1.3-1.46,1.32Z"/>
  <path d="M261.25,393.9c-.01,.91,.08,1.84-.08,2.72-.08,.44-.62,.8-.95,1.2-.36-.36-.9-.67-1.04-1.1-.2-.62-.22-1.35-.1-1.99,.27-1.48,1.05-1.72,2.21-.79,0,0-.04-.04-.04-.04Z"/>
  <path class="cls-1" d="M270.85,278.95c0,4.87-3.54,8.41-8.37,8.38-4.75-.03-8.33-3.64-8.3-8.37,.03-4.88,3.53-8.36,8.41-8.35,4.81,0,8.26,3.5,8.26,8.34Zm-14.93,.03c0,3.53,3.02,6.56,6.57,6.59,3.6,.02,6.66-3.04,6.65-6.64-.02-3.55-2.99-6.54-6.57-6.6-3.54-.06-6.65,3.05-6.65,6.65Z"/>
  <path class="cls-1" d="M271.64,272.86c0-1.21,.81-2.02,2.01-2.03,1.18,0,2,.81,2.01,2.02,0,1.21-.79,2.02-2,2.02-1.2,0-2.03-.83-2.03-2.01Z"/>
  <path class="cls-1" d="M265.06,324.95c-.28,.78-.43,1.46-.78,2-.11,.17-1.1,.06-1.15-.09-.23-.7-.27-1.47-.41-2.39,.89,.18,1.46,.3,2.35,.48Zm-1.97,.23c.28,.6,.48,1.02,.67,1.44,.19-.15,.51-.26,.56-.45,.19-.68-.12-1.03-1.23-.98Z"/>
  <path class="cls-1" d="M269.17,324.46c.58,.08,1.57,.02,1.68,.29,.22,.58,.18,1.44-.11,2.01-.42,.84-1.79,.21-1.73-.79,.03-.43,.09-.85,.17-1.51Zm-.18,.72c.56,.64,.91,1.05,1.26,1.46,.13-.53,.26-1.07,.43-1.79-.62,.12-.92,.18-1.69,.32Z"/>
  <path class="cls-1" d="M266.39,330.82c.03-.45,.06-.9,.08-1.2h4.77c-.04,.13-.13,.44-.24,.81,.52,.19,1.59,.17,.66,1.12-.12,.13-.67-.15-1.2-.29,.01-.01-.2,.17-.41,.36-.05-.04-.09-.07-.14-.11,.13-.31,.26-.62,.39-.92-.43-.11-.82-.21-1.3-.32,.15,.93-.26,1.44-1.15,1.23-.3-.07-.48-.63-.72-.98-.04,.21-.11,.6-.19,.98-.09,.02-.18,.05-.27,.07-.09-.25-.19-.51-.28-.76h0Z"/>
  <path class="cls-1" d="M266.39,330.81c-.47,.45-.7,1.46-1.68,.73-.35-.26-.46-1.73-.1-1.97,.26-.17,.65-.23,.95-.17,.13,.03,.14,.49,.27,.72,.15,.25,.37,.46,.56,.69,0,0,0,0,0,0Z"/>
  <path class="cls-1" d="M264.18,331.46c-.44,.02-.67,.07-.9,.04-.44-.06-.88-.17-1.32-.26,.11-.56,.14-1.16,.39-1.65,.08-.16,.97-.17,1.1,.02,.34,.49,.47,1.13,.73,1.85Z"/>
  <path d="M255.92,278.97c0-3.6,3.11-6.71,6.65-6.65,3.58,.06,6.56,3.05,6.57,6.6,.02,3.6-3.05,6.66-6.65,6.64-3.55-.02-6.57-3.06-6.57-6.59Zm12.05-.02c0-3.3-2.18-5.48-5.47-5.47-3.2,.01-5.41,2.21-5.45,5.42-.03,3.23,2.22,5.53,5.45,5.55,3.23,.02,5.47-2.23,5.47-5.5Z"/>
  <path d="M263.08,325.18c1.12-.05,1.42,.31,1.23,.98-.05,.19-.37,.3-.56,.45-.2-.42-.39-.84-.67-1.44Z"/>
  <path d="M269,325.18c.77-.15,1.07-.2,1.69-.32-.17,.72-.3,1.25-.43,1.79-.35-.41-.71-.82-1.26-1.46Z"/>
  <path class="cls-1" d="M267.97,278.95c0,3.27-2.24,5.52-5.47,5.5-3.23-.02-5.49-2.32-5.45-5.55,.03-3.2,2.24-5.4,5.45-5.42,3.29-.01,5.47,2.17,5.47,5.47Zm-1.71,.05c.03-2.01-1.68-3.75-3.71-3.79-1.99-.04-3.74,1.71-3.75,3.74-.02,2,1.74,3.74,3.77,3.72,1.97-.01,3.67-1.71,3.69-3.68Z"/>
  <path d="M266.26,279c-.03,1.97-1.72,3.66-3.69,3.68-2.03,.01-3.78-1.72-3.77-3.72,.02-2.04,1.76-3.78,3.75-3.74,2.03,.04,3.73,1.78,3.71,3.79Z"/>
</svg>