<?xml version="1.0" encoding="utf-8"?>
<!-- Generator: Adobe Illustrator 27.0.0, SVG Export Plug-In . SVG Version: 6.00 Build 0)  -->
<svg version="1.1" id="Camada_1" xmlns="http://www.w3.org/2000/svg" xmlns:xlink="http://www.w3.org/1999/xlink" x="0px" y="0px"
	 viewBox="0 0 480 480" style="enable-background:new 0 0 480 480;" xml:space="preserve">
<style type="text/css">
	.st0{fill:#FFFFFF;}
</style>
<path class="st0" d="M480,480H0C0,320,0,160,0,0c160,0,320,0,480,0V480z M48.8,120.1c-0.1,0.1-0.2,0.1-0.4,0.2
	c0.2,0.3,0.2,0.7,0.5,0.9c0.6,0.7,0.4,1.2-0.2,1.7c-0.1,0.1-0.3,0.1-0.3,0.1c-0.4,1.2-0.7,2.5-1.1,3.7c-0.1,0.3-0.4,0.6-0.6,0.8
	c-0.1-0.1-0.2-0.1-0.3-0.2c-0.1-0.4-0.1-0.9-0.2-1.5c-0.8,0.6-0.9,1.3-0.3,1.7c0.7,0.5,0.5,1,0.2,1.5c-0.4,1-0.8,2-1.2,2.9
	c-0.3,0.6-0.8,1.2-1.2,1.8c-0.3-0.3-0.5-0.6-0.8-0.9c-0.1,0.1-0.2,0.1-0.3,0.2c0.1,0.3,0.2,0.7,0.4,0.9c0.6,0.7,0.4,1.2-0.2,1.7
	c-0.1,0.1-0.3,0.1-0.3,0.2c-0.2,0.8-0.3,1.7-0.7,2.4c-0.3,0.7-0.8,1.3-1.3,2.1c-0.1-0.7-0.2-1.2-0.3-1.8c-0.7,0.7-0.8,1.5-0.3,1.9
	c0.8,0.6,0.4,1.1,0.1,1.6c-0.4,0.9-0.7,1.7-1.1,2.6c-0.4,0.8-0.8,1.5-1.2,2.2c-0.2-0.4-0.4-0.6-0.6-0.9c-0.1,0.1-0.2,0.1-0.3,0.2
	c0.9,1.1,0.7,2.2,0,3.4c-0.5,0.9-1,1.8-1.4,2.7c-0.5,1.1-0.9,2.2-1.4,3.2c-0.5,1-1.4,2.1-1.4,3.1c0.1,1.5-1.2,2.1-1.4,3.3
	c-0.1,0.5-0.5,1-0.8,1.7c-0.1-0.8-0.1-1.2-0.2-1.8c-0.7,0.5-0.8,0.8-0.3,1.5c0.3,0.4,0.3,1.2,0.1,1.7c-0.5,1.3-1.2,2.6-1.8,3.8
	c-0.4,0.9-0.7,1.9-1,2.8c0,0.1-0.1,0.1-0.2,0.1c-0.1-0.3-0.2-0.6-0.4-0.8c0.6,2.2-0.9,3.7-1.5,5.5c-0.1,0-0.3-0.1-0.4-0.1
	c-0.1-0.4-0.1-0.9-0.2-1.4c-0.8,0.5-0.8,1.1-0.4,1.7c0.2,0.4,0.3,1,0.2,1.4c-0.1,0.5-0.5,0.9-0.6,1.4c-0.4,1.1-0.8,2.2-1.3,3.3
	c-0.6,1.3-1.2,2.6-1.8,3.9c-0.3,0.7,0,1.4-0.9,2.1c-0.9,0.7-1.1,2.2-1.6,3.4c-0.6,1.3-1.1,2.6-1.7,3.8c-0.5-0.2-0.8-0.3-1.1-0.4
	c0.1,0.3,0.1,0.6,0.2,0.9c0.1,0.4,0.3,0.8,0.2,1.2c-0.6,2.1-1.4,4.3-0.9,6.4c0.6,0.5,1.2,0.9,1.8,1.5c1.3,1.2,2.4,2.7,3.9,3.8
	c1.9,1.4,4,2.5,6,3.7c1.3,0.8,2.7,1.6,4,2.4c1.5,0.9,3,1.9,4.5,2.9c2,1.2,4.1,2.1,6.2,3.3c1.7,1,3.6,1.5,5.5,2.3
	c1.3,0.5,2.7,1.1,4,1.6c0.3,0.1,0.7,0.6,1,0.5c1.3-0.3,2.2,0.8,3.3,1c1.2,0.1,2.2,0.8,3.4,1.2c0.8,0.3,1.7,0.5,2.5,0.7
	c1.3,0.3,2.7,0.6,4.1,0.9c1.7,0.4,3.5,0.6,5.2,1c0.8,0.2,1.7,0.4,2.5,0.6l0,0.4c0.4-0.3,0.8-0.8,1.3-0.9c0.6-0.1,1.7-0.2,1.9,0.1
	c0.9,1.2,1.9,1.5,3.3,1.5c1,0,2.1,0,3,0.3c2.3,0.8,4.3,0.3,6.1-0.3c0.4-1.1,0.7-1.8,0.9-2.5c0.6-1.6,1.4-3.1,1.7-4.8
	c0.4-2.3,2-3.9,3.1-5.9c0.3,0.4,0.5,0.6,0.7,0.8c0,0,0.3-0.2,0.3-0.2c0-0.3-0.1-0.7-0.2-0.8c-0.9-0.2-0.5-0.7-0.2-1.1
	c0.3-0.4,0.8-0.6,1.1-1c0.6-1.1,1.1-2.2,1.8-3.3c1.2-1.9,2.6-3.8,3.8-5.7c0.3-0.5,0.7-1.1,1-1.6c0.6-0.9,1.1-1.9,1.8-2.9
	c0.2,0.4,0.4,0.7,0.6,1c0.2-0.1,0.3-0.2,0.4-0.3c0.2-0.2,0.4-0.4,0.6-0.7c0.2,0.2,0.2,0.5,0.4,0.7c0.9,0.9,0.6,1.7,0,2.5
	c0,0.1,0.1,0.2,0.2,0.5c0.3-0.4,0.5-0.7,0.8-1c0.6,1.2,1.1,2.2,1.6,3.3c0.3,0.7,0.8,1.3,0.9,2c0.2,1.1,0.6,2.2,1.2,3.2
	c0.3,0.5,0.3,1.1,0.4,1.7c0.6,1.8,1.3,3.5,1.9,5.3c0.4,1.2,0.6,2.5,1,3.7c0.3,1.1,0.8,2.3,1.2,3.4c0.5,1.8,0.9,3.7,1.2,5.5
	c0.5,2.3,0.9,4.7,1.4,7c0.4,1.8-0.2,3.8,0.9,5.6c0.1,0.1,0,0.4,0,0.7c0,1-0.2,2.1,0.1,3c0.5,1.6,0.7,3.1,0.7,4.8
	c0,2.4,0.3,4.9,0.4,7.3c0.1,0.8,0,1.7,0,2.5c0.1,2.5,0.2,4.9,0.2,7.4c0,0.9,0.1,1.9-0.3,2.6c-0.7,1.3-0.4,2.5-0.2,3.7
	c0,0.4,0,0.8-0.1,1.1c-0.2,1.1-0.5,2.1-0.8,3.2c-0.1,0.6-0.2,1.2-0.3,1.7c-0.2,0.9-0.4,1.8-0.4,2.6c0,1.3,0.3,2.6-0.2,3.9
	c-0.3,0.6-0.5,1.3-0.5,1.9c0.1,1.7,0.3,3.5,0.4,5.2c0.1,1.4,0.2,2.8,0.2,4.1c0,1.1-0.3,2.4,0.1,3.4c0.5,1.4,0.4,2.7,0.2,4.1
	c-0.2,2-0.3,4.1-0.4,6.1c0,0.1,0,0.2-0.1,0.3c-1.1,1.5-1,3.2-0.4,4.9c0.2,0.5,0,1,0,1.6c-0.3-0.1-0.5-0.2-0.8-0.3v6.3
	c-1,0.6-1.4,1.7-0.7,3c0.4,0.8,0.2,1.3-0.2,1.9c-0.6,0.9-1.2,1.9-0.7,3.1c0.2,0.6,0.4,1.4-0.1,2.2c-0.5,0.8-0.3,2-0.4,3.1
	c0,0.6,0.2,1.1,0.3,1.7c0-0.1,0.1-0.2,0.1-0.3c-0.3-0.1-0.6-0.3-0.8-0.2c-0.2,0-0.4,0.4-0.4,0.6c0,1.5,0,3.1,0.2,4.6
	c0.1,0.6,0,1-0.4,1.6c-0.4,0.7-0.3,1.7-0.3,2.6c-0.1,0.8,0.2,1.9-0.2,2.3c-0.7,0.6-0.9,1.2-0.8,2c0.1,1,0.4,2,0.6,3.2
	c-0.4-0.4-0.7-0.6-1-0.9c-1.3,2,0.8,3.9,0.2,6c-0.3-0.5-0.6-0.9-0.8-1.3c-0.2,0-0.3,0.1-0.5,0.1c0.1,1.2,0.1,2.4,0.2,3.6
	c0,0.8,0.4,1.7,0.1,2.3c-0.9,1.4-1.1,2.6-0.4,4.2c0.3,0.7,0.5,1.4-0.4,2.1c-0.5,0.4-0.9,1.4-0.9,2.1c0,1.2,0.5,2.4,0.7,3.5
	c0.1,0.5,0,1.1,0,1.6h-1.3c-0.2,0.5-0.6,1-0.6,1.6c-0.1,1.7-0.2,3.3-0.6,4.9c-0.4,1.6-0.3,3.3-0.7,5c-0.4,1.6-0.1,3.4-0.7,5.1
	c-0.5,1.3-0.2,2.8-0.7,4.3c-0.7,1.9-0.6,4-0.8,6c-0.2,1.3-0.6,2.6-0.7,3.9c-0.1,1.9-0.3,3.7-0.7,5.5c-0.5,2.4-0.6,5-0.8,7.5
	c-0.2,1.6-0.4,3.1-0.7,4.7c-0.1,0.4-0.1,0.9-0.3,1.1c-1.4,1.9,0.1,3.6,0.4,5.2c0.3,1.3,1.5,2.4,2.5,3.4c1,0.9,2.1,1.6,3.3,2.3
	c0.8,0.5,1.8,0.6,2.8,1c1,0.4,2,0.9,3,1.2c1.1,0.4,2.3,0.6,3.5,1c1.4,0.4,2.8,1.3,4.4,1.2c0.2,0,0.5,0.1,0.8,0.2
	c1,0.4,2.1,0.9,3.1,1.1c2.5,0.6,5.1,1.1,7.6,1.7c1.8,0.4,3.6,0.8,5.4,1.2c1.1,0.2,2.1,0.7,3.2,0.7c1.6-0.1,3,0.9,4.7,0.7
	c1.5-0.1,3,1,4.7,0.8c0.4,0,0.8,0.2,1.2,0.3c0.4,0.1,0.8,0.3,1.2,0.4c1,0.1,2,0.1,3,0.2c0.9,0.1,1.9,0.3,2.8,0.5c0.3,0,0.7,0,1,0
	c1.5-0.2,2.8,0.7,4.4,0.6c2.3-0.1,4.6,0.5,6.9,0.8c1.7,0.2,3.3,0.5,5,0.7c2.6,0.3,5.1,0.5,7.7,0.7c0.9,0.1,1.9-0.1,2.8,0
	c1.5,0.2,2.9,0.6,4.4,0.7c1.4,0.1,2.9,0,4.3,0c0.9,0,1.9,0.1,2.8,0.1c1.6,0.1,3.1,0.2,4.7,0.2c2.1,0,4.1-0.1,6.2-0.1
	c1.9,0,3.9-0.6,5.7,0.6c0.1,0.1,0.2,0.1,0.3,0.1c1.2-0.1,2.4-0.2,3.6-0.2c2.4,0,4.7,0.2,7.1,0.2c2.3,0,4.6-0.4,6.9-0.4
	c2.4-0.1,4.7,0,7.1,0c1.4,0,2.9-0.4,4.2-0.1c2.2,0.5,4.3,0.5,6.5,0.4c2.6-0.1,5.2,0.1,7.8,0.2c0.4,0,0.9-0.1,1-0.4
	c0.1-0.2-0.1-0.7-0.3-1c1,0,2.1,0,3.3,0c3.5,0,6.9,1,10.4,0.2c0.2,0,0.5,0.1,0.7,0.1c0.6,0.1,1.1,0.3,1.7,0.3c0.3,0,0.5-0.2,0.8-0.4
	c-0.1-0.3-0.3-0.6-0.5-0.9c1.6-0.1,3.2-0.2,4.7-0.3c0.3,0,0.7-0.1,0.9,0.1c1.4,1,2.8,0.5,4.4,0.3c-0.2-1.1,0.5-1.3,1.3-1.2
	c2.3,0.2,4.5,0.5,6.8,0.7c0.4,0,0.8-0.3,1.2-0.5c0.4-0.2,0.8-0.8,1.2-0.8c1.1,0,2.2,0.3,3.3,0.5c0.5,0.1,0.9,0.2,1.4,0.2
	c1.1,0,1.3-0.4,0.7-1.5c2.3,0.2,4.6,0.5,6.8,0.7c0.1-0.6,0.1-1,0.2-1.3c0.8,0,1.6-0.1,2.3,0c1.1,0.1,2.1,0.4,3.4,0.7
	c-0.2-0.7-0.2-1-0.4-1.5c0.7,0,1.5,0,2.3,0.2c0.9,0.1,1.7,0.4,2.6,0.5c0.3-1.1,2.2-1.9,3.1-1.4c0.6,0.3,1.3,0.5,2,0.8
	c0-1.7,0.5-2,1.8-1.4c0.4,0.2,0.7,0.4,1.1,0.4c0.5,0,1.2-0.1,1.4-0.4c0.5-0.8,1.7-1.3,2.5-0.9c0.5,0.3,1.1,0.5,1.7,0.8
	c0.1-0.1,0.2-0.2,0.2-0.3c-0.1-0.4-0.2-0.8-0.3-1.5c0.8,0.2,1.5,0.4,2.1,0.7c1.1,0.5,1.8,0.2,1.8-0.8c1.3-1,2.4-0.1,3.6,0.4v-1.6
	c0.6,0.2,1.2,0.3,1.7,0.4c0.3,0.1,0.8,0.4,0.9,0.3c0.2-0.2,0.3-0.6,0.5-1c1-0.2,1-0.1,2.8,0.4c0.1,0,0.5-0.3,0.6-0.5
	c0.1-0.2-0.1-0.5-0.1-1c1,0.2,1.9,0.4,2.9,0.6c-0.1-0.5-0.1-0.8-0.2-1.2c0.8,0,2,0.2,2.3-0.2c0.5-0.8,1.1-0.5,1.7-0.6
	c0.5-0.1,1-0.3,1.5-0.4c0.4-0.1,0.8-0.2,1.2-0.3c1.2-0.4,2.3-0.9,3.5-0.3c0,0,0,0,0.3-0.3c-0.5-0.6-1-1.1-1.6-1.8
	c0.4-0.2,0.9-0.9,1.4-0.9c0.8,0,1.6-0.2,1.9-0.8c0.4-0.8,1-0.6,1.6-0.7c0.3,0,0.5-0.3,0.8-0.5c0.5-0.3,1.1-0.7,1.6-0.9
	c0.5-0.1,1,0,1.4-0.7c0.4-0.7,1.2-1,2-0.8c0.2,0,0.4-0.3,0.7-0.4c0.6-0.4,1-1.5,2.3-0.7c-0.9,0.9-1.6,2-2.7,2.5
	c-0.8,0.4-0.5,0.7-0.6,1.2c1.4,0.4,2.1-0.8,2.8-1.4c0.9-0.8,1.8-1.9,2-3c0.4-1.5,0.1-3.2,0.2-4.9c0-0.7,0-1.4,0.2-2.1
	c0.2-0.8,0.5-1.5,0.7-2.2c-0.1-0.1-0.2-0.1-0.3-0.2c-0.3,0.1-0.7,0.3-1.2,0.5c0-0.8,0-1.5,0.1-2.2c0.1-1,0.4-2.1,0.5-3.1
	c0.1-0.8,0.1-1.6-1.3-1.3c0.2-2,0.5-3.8,0.7-5.6c-0.1-0.1-0.2-0.1-0.3-0.2c-0.3,0.2-0.6,0.4-1,0.7c-0.1-2.9,1.6-5.5,0.3-8.4
	c-0.1,0.7-0.3,1.3-0.4,2c-0.2-0.9-0.7-1.7-0.1-2.7c0.6-0.9,0.8-2,0-3.1c-0.3,0.2-0.6,0.4-1.2,0.7c0.3-1.2,0.7-2.1,0.7-3
	c0-1.1-0.1-2.5-0.7-3.4c-0.5-0.8-0.6-1.3-0.3-2.1c0.4-1,0.8-2,0.1-3c-0.7-1-0.4-1.9-0.4-3c0.1-1.2-0.1-2.5-0.6-3.5
	c-0.2-0.4-0.6-0.8-0.5-1.3c0.1-0.7,0.3-1.4,0.3-2.1c0.1-1.8-0.9-3.5-0.2-5.2c0.1-0.2-0.1-0.5-0.1-0.8c-0.3-1.1-0.7-2.3-0.8-3.5
	c-0.1-1.6,0.4-3.4-0.1-4.8c-0.9-2.5,0.1-5.2-1-7.8c-0.5-1.2-0.2-2.8-0.2-4.2c0.1-2.1-1.1-3.9-0.8-6.1c0.2-1.3-0.1-2.7-0.4-4
	c-0.5-2.6,0-5.3-0.6-8c-0.5-2.3-0.5-4.7-0.8-7c-0.2-2.6-0.5-5.2-0.7-7.8c-0.3-3.8-0.8-7.5-0.9-11.2c-0.2-3.5-0.3-7-0.6-10.5
	c-0.4-3.5-0.4-7-0.8-10.4c-0.3-2.8,0.4-5.6-0.5-8.4c-0.5-1.5-0.6-3.2-0.7-4.8c-0.3-2.5-0.6-4.9-0.7-7.4c-0.1-1.7,0.4-3.4,0.4-5
	c0-1.6-0.1-3.3-0.1-4.9c-0.1-4.6-0.3-9.2-0.4-13.9c0-0.4,0-0.8,0.1-1.2c0.1,0,0.2,0,0.3,0c0.1,0.5,0.2,0.9,0.2,1.5
	c0.2-0.1,0.6-0.1,0.6-0.2c0.1-1.1,0.6-2.3,0.2-3.3c-0.4-1.1-0.1-2-0.1-3c0.1-1.3,0.1-2.7-0.3-3.9c-0.3-1-0.2-1.5,0.6-2.1
	c0.6-0.4,0.7-1,0.4-1.7c-0.1-0.3-0.2-0.6-0.3-1c1.2-0.4,1.2-0.4,1-1.6c0-0.3-0.2-0.7,0-0.9c0.5-1.1,1.2-2.2,0.6-3.6
	c-0.1-0.1,0.1-0.4,0.3-0.6c1-1.3,1-2.2,0.4-3.1c0.4-0.9,1.2-1.8,1-2.4c-0.3-1.1-0.3-1.8,0.8-2.2c-0.2-0.6-0.4-1.1-0.5-1.6
	c0.1,0,0.2-0.1,0.3-0.1c0.2,0.2,0.5,0.4,0.6,0.6c0.4-1.1,0.8-2.2,1.3-3.3c0.3,0.5,0.5,0.8,0.8,1.1l0.3-0.1c-0.3-0.9-0.9-1.8-0.9-2.6
	c0-0.9,0.6-1.9,0.9-2.8c0.2,0.2,0.4,0.4,0.5,0.4c0.6-1.5,1.1-2.9,1.7-4.4c0.2,0.1,0.4,0.1,0.5,0.1c0.4-0.6,0.7-1.3,1.1-1.6
	c0.8-0.6,1.7-1.2,2.7-1.4c0.9-0.2,0.9,0.7,0.9,1.3c0,0.1,0.1,0.1,0.2,0.1c0.9,1.2,1.7,2.4,2.5,3.6c0.9,1.4,1.5,3,2.6,4.1
	c1.4,1.5,1.9,3.7,3.5,5c0.4,0.3,0.2,1.1,0.6,1.5c1.2,1.2,1.9,2.6,2,4.4c0.1,1,0.8,2,1.3,2.9c0.6,1,1.9,1.7,1.5,3.2
	c0,0.1,0.1,0.2,0.2,0.3c0.3,0.6,0.5,1.2,0.8,1.7c0.3,0.5,0.8,1.3,1.1,1.3c1.9-0.1,3.7,0.4,5.6-0.3c1.6-0.6,3.4-0.4,5-0.8
	c1.8-0.5,3.9,0.5,5.4-1.1c0,0,0.1,0,0.2,0c0.8-0.1,1.6-0.2,2.4-0.3c2.5-0.3,4.9-1,7.4-1.7c1.1-0.3,2.4-0.5,3.5-0.9
	c1.2-0.4,2.3-0.9,3.5-1.3c1-0.3,2.1-0.5,3-0.9c1.6-0.6,3.2-1.3,4.9-2c0.8-0.4,1.6-0.7,2.4-1.1c1.8-0.9,3.8-1.3,5.2-2.8
	c0.4-0.4,1-0.7,1.4-1c0.7-0.2,1.4-0.2,2-0.6c1.8-1,3.5-2,5.2-3.1c1.8-1.1,3.7-2.2,5.5-3.4c2.4-1.6,4.2-3.9,6.2-5.9
	c2.8-2.8,3.5-6,2.2-9.7c-0.2-0.6-0.3-1.2-0.4-1.9c-0.1-0.1-0.5-0.1-0.6-0.3c-0.8-1.6-1.5-3.1-2.2-4.7c-0.1-0.3,0-0.8,0.3-1.1
	c0.5-0.7,0.5-1.2-0.3-1.7c-0.1,0.4-0.1,0.9-0.2,1.3c-0.1,0-0.2,0-0.3,0c-0.5-1.8-2.4-3.1-1.6-5.4c-0.1,0.3-0.2,0.5-0.4,0.9
	c-1-2.4-1.9-4.7-2.7-6.7c-0.3-0.3-0.7-0.4-0.8-0.7c-0.5-1.3-0.7-2.7-1.3-3.9c-0.3-0.7-0.6-1.4-0.8-2.2c-0.4-1.2-1.2-2.3-1.8-3.5
	c-1-2.2-1.8-4.5-3-6.6c-0.1-0.3,0.1-0.8,0.2-1.1c0.1-0.4,0.3-0.7,0.4-1l-0.3-0.2c-0.2,0.3-0.5,0.6-0.8,1
	c-4.5-10.3-9.1-20.6-13.6-30.8c-0.2-0.1-0.6-0.2-0.6-0.4c-0.5-1.3-0.8-2.6-1.3-3.9c-0.4-0.9-0.9-1.8-1.4-2.8c-0.2-0.5-0.5-1-0.7-1.6
	c-0.3-0.8-0.4-1.6-0.7-2.4c-0.4-0.9-1-1.7-1.5-2.6c-0.4-0.8-0.7-1.6-1.1-2.3c-0.4-0.8-1.2-1.7-1.2-2.5c0-1.1-0.9-1.8-1-2.7
	c-0.2-1.1-1.7-1.9-0.8-2.9c-0.4-0.3-0.7-0.5-0.9-0.8c-0.4-0.8-0.7-1.7-1.1-2.6c-0.8-1.8-1.7-3.7-2.5-5.6c-0.6-1.5-1.2-3-2-4.3
	c-1-1.8-2-3.7-3-5.5c-0.1-0.2-0.1-0.5,0-0.7c0.9-1.4,0.8-1.6-0.7-2.5c0,0.4-0.1,0.8-0.1,1.1c-1.2-1.3-2-2.7-3-4
	c-0.9-1.2-1.8-2.2-2.7-3.3c-1.1-1.3-2-2.7-3.2-3.9c-1.7-1.6-3.5-3-5.3-4.5c-3.1-2.7-6.5-4.8-10.3-6.4c-1.2-0.5-2.5-1-3.7-1.5
	c-1.5-0.6-2.9-1.4-4.4-1.9c-1.6-0.6-3.3-1-5-1.5c-0.8-0.2-1.5-0.6-2.3-0.9c-1-0.4-2-0.8-3-1.2c-1-0.4-1.9-0.6-2.9-1
	c-2.1-0.8-4.2-1.8-6.3-2.6c-1.7-0.6-3.4-1.1-5.1-1.7c-1.8-0.7-3.7-1.4-5.5-2c-0.9-0.3-1.9-0.6-2.8-1c-0.9-0.3-1.7-0.8-2.5-1.1
	c-1.1-0.4-2.2-0.7-3.4-1c-0.8-0.2-1.6-0.4-2.4-0.7c-1.7-0.6-3.4-1.3-5.1-1.9c-1-0.4-2.1-0.7-3.2-1.1c-0.9-0.3-1.6-0.9-2.5-1.1
	c-1.6-0.3-3-1.2-4.4-1.8c-1.2-0.5-2.4-1.2-3.6-1.9c-0.6-0.3-1.1-0.6-1.7-0.9c-1-0.6-1.9-1.3-2.8-1.9c-1.1-0.7-2.3-1.2-3.5-1.9
	c-1.9-1.1-3.7-2.3-5.6-3.5c-1-0.6-2-1.2-3.1-1.8c-1-0.5-1.9-1.2-3-1.6c-1.4-0.5-2.8-1-4.1-1.8c-0.2-0.2-0.5-0.3-0.8-0.4
	c-1.4-0.7-2.9-1.4-4.3-2.1c-0.8-0.4-2-0.3-2.2,0.2c-0.9,2.1-1.8,4.1-2.7,6.2c-0.4,0.9-1.1,1.6-1.5,2.5c-0.7,1.2-0.9,2.6-2.1,3.6
	c-1.2,1-1.9,2.5-3,3.7c-1.4,1.6-2.9,3.2-4.5,4.7c-1.2,1.1-2.5,2.1-3.9,3c-1.4,1-2.8,1.8-4.1,2.8c-0.8,0.6-1.6,1.3-2.4,1.9
	c-0.4,0.2-1.1,0.1-1.7,0.3c-1.4,0.4-2.8,0.9-4.1,1.5c-1.5,0.6-3,1.4-4.7,1.4c-0.1,0-0.2,0-0.4,0.1c-1.7,0.5-3.4,1-5.1,1.3
	c-1.2,0.3-2.5,0.4-3.8,0.5c-2.4,0.1-4.8,0.1-7.2,0c-1.4,0-2.9-0.3-4.3-0.5c-0.9-0.1-1.7-0.1-2.6-0.3c-0.5-0.1-1.1-0.3-1.6-0.4
	c-0.9-0.2-1.7-0.4-2.6-0.6c-0.9-0.2-1.8-0.5-2.7-0.8c-1.2-0.3-2.4-0.6-3.5-1c-1.4-0.5-2.7-1.2-3.9-1.9c-1.9-1-3.9-1.9-5.7-3.1
	c-2.3-1.6-4.4-3.3-6.4-5.3c-2-2-3.8-4.3-5.5-6.6c-0.3-0.4-1.9-0.8-0.9-1.7c-0.6-0.6-1.3-1.1-1.8-1.8c-0.6-0.9-0.8-1.9-1.3-2.9
	c-0.3-0.6-0.5-1.2-1-1.7c-0.5-0.5-0.6-0.8-0.1-1.3c0.3-0.4,0.8-1.2-0.2-1.6c-0.1,0.5-0.1,1-0.2,1.4c-0.1,0-0.2,0-0.3,0.1
	c-0.4-1-0.9-2-1.4-3.4c-0.7,0.3-1.6,0.5-2.4,0.9c-1.3,0.6-2.8,1-3.9,1.8c-0.7,0.5-1.4,0.5-2.1,0.7c-1.5,0.6-3,1.4-4.5,2.1
	c-0.8,0.4-1.6,0.7-2.3,1c-1.8,0.9-3.6,1.8-5.5,2.5c-1.4,0.6-2.8,1-4.2,1.6c-1.9,0.8-3.8,2-5.7,2.7c-2,0.6-3.7,1.9-5.8,2.4
	c-1.4,0.3-2.7,1.3-4,1.9c-1.9,0.8-3.9,1.5-5.8,2.3c-0.7,0.3-1.4,0.6-2,0.9c-1.8,0.9-3.6,1.8-5.5,2.6c-1.5,0.6-3,1.1-4.5,1.8
	c-1.9,0.8-3.6,1.7-5.5,2.5c-1.9,0.8-3.8,1.5-5.8,2.3c-1.4,0.6-2.7,1.4-4.1,2c-2.5,1.1-5.1,2-7.7,3c-1.6,0.7-3.1,1.4-4.7,2.1
	c-0.7,0.3-1.4,0.5-2.1,0.8c-2.4,1.1-4.8,2.3-7.1,3.4c-0.7,0.3-1.5,0.5-2.2,0.8c-0.9,0.3-2.1,0.2-2.7,0.8c-0.9,1-1.5,0.7-2.3,0
	c-0.1-0.1-0.4,0-0.6,0.1c0.1,0.2,0.2,0.4,0.3,0.5c0.2,0.1,0.4,0.1,0.8,0.2c-1.1,0.7-2,1.3-2.9,1.9c-1.6,1.1-3.3,2-4.7,3.2
	c-2.3,2-4.5,4.1-6.7,6.2c-1.5,1.6-2.9,3.3-4.2,5c-0.9,1.1-1.6,2.4-2.4,3.6c-0.6,0.9-1.3,1.7-1.8,2.6c-1.1,2-2,4.1-3,6.1
	c-0.2,0.3-0.3,0.6-0.5,0.8C62,93.1,61.6,94,61.2,95c-0.4-0.4-0.6-0.7-0.9-1c-0.6,1,1.5,1.9-0.1,2.8c-0.1-0.3-0.2-0.6-0.2-0.8
	c-0.1,0-0.2,0-0.4,0c0.4,1,0.7,1.9-0.2,2.8c-0.6,0.7-0.8,1.8-1.1,2.6c-0.1-0.1-0.2-0.1-0.3-0.1c-0.1-0.4-0.1-0.9-0.2-1.6
	c-0.7,0.8-0.9,1.4-0.3,1.9c0.7,0.6,0.4,1,0.2,1.6c-0.4,0.9-0.8,1.8-1.2,2.8c-0.3,0.7-0.8,1.3-1.1,2c-0.3-0.3-0.5-0.6-0.8-0.9
	l-0.3,0.2c0.1,0.3,0.2,0.7,0.4,1c0.7,0.7,0.4,1.2-0.1,1.7c-0.1,0.1-0.3,0.1-0.3,0.2c-0.5,1.4-1,2.8-1.4,4.1c0,0.1-0.3,0.2-0.5,0.3
	c-0.1-0.5-0.1-1-0.2-1.6c-0.8,0.6-0.9,1.3-0.3,1.8c0.7,0.6,0.4,1,0.2,1.6c-0.4,1-0.8,2-1.2,2.9c-0.3,0.7-0.8,1.2-1.2,1.8
	C49.3,120.6,49.1,120.3,48.8,120.1L48.8,120.1z"/>
<g>
	
		<image style="overflow:visible;" width="521" height="516" xlink:href="ED2D660DC7D3BBDD.png"  transform="matrix(1 0 0 1 -22 -18)">
	</image>
</g>
<path class="st0" d="M172.1,203.7c0.2-0.1,0.7-0.1,1.1-0.3c0.3-0.2,0.7-0.5,0.7-0.8c0.1-6.6,0.1-13.2,0.1-19.9c0,0-0.1-0.1-0.2-0.2
	c-3.2,1.9-6.5,3.8-9.7,5.6c-0.1,0.1-0.2,0.2-0.3,0.2c-1.5,1.2-1.4,1.2-2.4-0.5c-1.6-2.8-3.8-5-7.1-5.7c-0.3-0.1-0.5-0.2-0.8-0.3
	c2-3.1,1.1-6.6,1.3-9.9c0.2-2.3,0.1-4.7-0.1-7.1c-0.1-1.2-0.7-2.4-1.2-3.6c-0.5-1-0.4-1.2,0.7-1.4c4.5-0.7,9-1.6,13.1-3.5
	c1.8-0.8,3.4-1.9,5.1-2.9c0.8-0.5,1.3-0.4,2,0.1c2.5,1.9,5.2,3,8.3,3.3c1.6,0.1,1.6,0.2,1,1.8c-0.4,1.2-0.7,2.6-0.7,4
	c-0.1,11.3-0.1,22.6,0,33.8c0,1.6,0.5,3.1,0.8,4.7c0.1,0.6,0.5,1.1-0.5,1.4c-1.9,0.4-3.8,0.7-5.6,1.2c-2.9,0.9-5.8,1.9-8.6,2.8
	c-2.1,0.7-3.7,2-5.1,3.6c-0.2,0.2-0.5,0.4-0.8,0.6c-0.1-0.3-0.3-0.4-0.3-0.6c-0.4-4.1-3.2-6.2-6.5-7.9c-0.8-0.4-1.7-0.6-2.6-1
	c-0.3-0.1-0.7-0.4-0.7-0.7c0-0.2,0.3-0.6,0.5-0.8c2.1-1.2,3.9-2.8,6.4-3c2.6-0.1,5,0.8,7,2.3C168.7,200.5,170.3,202.1,172.1,203.7
	L172.1,203.7z M167.6,158.2c-1,0.4-1.9,0.6-2.8,1c-0.8,0.3-1.4,0.8-1.4,1.8c0,5.3-0.1,10.6-0.1,15.8c0,0.4,0.2,0.9,0.4,1.2
	c1.5,1.5,3.1,3,4.6,4.6c0.6,0.6,1,0.5,1.5,0.1c1-0.7,2.1-1.2,3.1-2c0.5-0.4,0.9-1.1,1-1.6c0.1-4.4,0.1-8.9,0.1-13.3
	c0-0.9-0.4-1.5-1.1-2c-0.9-0.7-1.8-1.4-2.6-2.3C169.4,160.5,168.5,159.3,167.6,158.2L167.6,158.2z"/>
<path class="st0" d="M214.6,344.2c-17,0.2-31.2-13.7-30.9-31.5c0.1-7.7,2.8-14.5,8.1-20.1c6.7-7.2,15.1-10.6,24.9-9.9
	c15.6,1,28.9,13.4,28.9,31.1C245.5,330.3,232.2,344.3,214.6,344.2L214.6,344.2z M225.2,340.8c15.3-6.3,22.1-22.3,17.4-36.4
	c-4.7-14.3-18.8-23.1-34.4-19.8c-13.6,2.9-24.9,16.1-22.7,32.7c1,8,5,14.4,11.4,19.4c1.8,1.4,3.6,2.6,5.9,3.3c-1.3-1.6-0.8-3,0-4.5
	c0.7-1.2,1.4-2.5,2.1-3.7c-0.5-0.3-0.9-0.6-1.3-0.8c-1.8-1.1-2.8-2.6-2.6-4.8c0.2-2.4,0.5-4.8,0.9-7.1c0.2-1.3,0.8-2.5,1.1-3.6
	c-1.6,0.8-3.1,1.6-4.8,2.2c-0.9,0.4-2,0.4-3,0.3c-1-0.1-1.2-0.7-0.6-1.5c3.1-4,6.1-8.1,9.2-12.1c0.4-0.6,0.7-1.3,0.8-2
	c0.6-2.5,0.9-5,1.6-7.5c0.9-3.2,2-6.3,4.5-8.7c1.7-1.6,3.4-1.6,5,0.1c0.6,0.7,1.1,1.4,1.6,2.2c1.7,3.1,2.6,6.4,3.2,9.9
	c0.4,2.4,0.8,4.5,2.6,6.6c2.8,3.2,4.9,7.1,7.3,10.8c0.1,0.1-0.3,0.7-0.4,0.7c-0.8,0-1.6-0.1-2.4-0.3c-1.3-0.4-2.6-1-4.1-1.5
	c1.6,2.8,2.6,5.6,2.8,8.6c0.3,3.3,0.6,6.7-2.2,9.3c0.6,1.4,1.2,2.8,1.8,4.1C226.5,338.1,226.5,339.4,225.2,340.8L225.2,340.8z
	 M228.9,315.6c-2.1-3.3-4.1-6.5-6.1-9.7c-0.4-0.7-1.1-1.2-1.6-1.9c-0.4-0.6-0.9-1.3-1-2c-0.5-3.9-1.2-7.8-2.8-11.4
	c-0.6-1.3-1.4-2.6-2.3-3.8c-1.1-1.4-2.4-1.5-3.7-0.2c-0.8,0.7-1.4,1.6-2,2.5c-2.1,3.7-3.2,7.8-3.8,12c-0.2,1-0.1,2.2-0.6,3
	c-1.2,1.9-2.6,3.6-4,5.4c-1.9,2.5-3.9,5-5.8,7.4c0.1,0.1,0.1,0.2,0.2,0.4c0.8-0.1,1.6-0.1,2.4-0.3c2.4-0.8,4.5-2.1,6.4-3.9
	c0.2-0.2,0.6-0.3,0.9-0.5c-0.1,0.4-0.1,0.8-0.2,1c-1.9,3.3-2.9,6.9-3.1,10.7c-0.2,4.3,0.5,5.2,4.4,7c4.4,2,9.1,2.4,13.8,1.8
	c3.4-0.4,5.3-2.3,5.6-5.2c0.6-6.7-1.4-12.4-6.1-17.2c-0.1-0.1-0.3-0.2-0.4-0.4c-0.1-0.2-0.1-0.4-0.1-0.6c0.2,0,0.6-0.1,0.7,0.1
	c0.7,0.7,1.4,1.4,2.1,2.1C223.6,314,226.1,315,228.9,315.6L228.9,315.6z M202.9,337.6c-0.2,1.5,0.8,2.1,1.8,2.4
	c2.1,0.7,4.3,1.3,6.4,1.9c1.1,0.3,1.9-0.1,2.1-1.3c0.2-2.1,0.4-4.2,0.6-6.1c-2.7-0.6-5.4-1.3-8.3-2c-0.6,1-1.2,2.1-1.9,3.2
	c-0.5,0.8-0.3,1.3,0.4,1.6c1.2,0.5,2.5,1,3.7,1.6c0.6,0.2,1.1,0.5,1.7,0.8c-0.1,0.1-0.1,0.3-0.2,0.5
	C207,339.7,204.9,338.9,202.9,337.6L202.9,337.6z M220.4,339.6c0.1,0.2,0.1,0.4,0.2,0.5c-0.6,0.2-1.2,0.3-1.8,0.5
	c-0.2,0.1-0.4,0.4-0.6,0.5c0.2,0.1,0.5,0.4,0.7,0.3c1.7-0.3,3.4-0.6,5-1.1c0.6-0.2,1.1-0.8,1.7-1.2c-0.1-0.1-0.1-0.2-0.2-0.3
	c-1.2,0.6-2.4,1.3-3.9,0.9c0.4-0.4,0.8-0.5,1.2-0.7c0.7-0.3,1.5-0.6,2.1-1c0.2-0.1,0.4-0.7,0.4-1c-0.5-1.4-1.1-2.7-1.6-3.8
	c-2.5,0.4-4.8,0.8-7,1.2c0.6,1.6,1.2,3.4,1.9,5.3C218.9,339.7,219.6,339.6,220.4,339.6L220.4,339.6z M212.7,342.6h4.9
	c-0.1-0.7-0.4-1.4-0.4-2.1c0-2.4-0.8-4.4-2.4-6.3c-0.4,1.6-0.6,3.3-0.8,4.9C214,340.5,214,341.7,212.7,342.6L212.7,342.6z"/>
<path class="st0" d="M231.5,166.9c-0.4-14.4,11.9-26.6,26.6-26.3c13.9,0.3,26.1,11.4,25.7,27.2c-0.3,12.9-11.2,26.2-28.4,25.2
	C243.4,192.3,231,181.5,231.5,166.9L231.5,166.9z M282.4,166.9c0-13.9-11.2-24.3-23.6-24.8c-15.1-0.6-26.2,11.4-26.1,24.6
	c0.1,14.2,10.8,24.9,25,25.1C271,191.9,282.5,180.9,282.4,166.9L282.4,166.9z"/>
<path class="st0" d="M343.5,254.8c0.3,14.2-11.6,26.8-27.3,26.1c-6.9-0.3-12.8-3-17.6-8.1c-4.8-5-7.1-11.1-7.2-17.9
	c-0.1-6.5,2.2-12.4,6.6-17.4c5.2-5.8,11.9-8.8,19.6-8.7C331.9,229,343.4,240.1,343.5,254.8L343.5,254.8z M342,254.8
	c0.3-13.6-11.3-24.3-23.6-24.6c-14.8-0.3-25.4,11.1-25.6,24.2c-0.2,14.2,11,24.2,22.9,25C330.9,280.5,342.5,268,342,254.8L342,254.8
	z"/>
<path class="st0" d="M262.9,414.7c-12.9,0.6-25.5-11-24.8-26c0.6-11.6,10.7-24.5,26.8-23.4c12.3,0.8,23,10.8,23,24.9
	C287.9,403.5,277,415.1,262.9,414.7L262.9,414.7z M286.5,390c0.3-13.2-10.8-23.1-22.2-23.6c-14.8-0.6-24.8,10.8-25,23
	c-0.2,13.7,10.5,23.6,22.7,24.1C275.7,414.2,286.9,402.7,286.5,390z"/>
<path class="st0" d="M267.9,202.2c12.3-0.6,24.4,10.4,23.5,25c-0.6,10.8-10.1,22.9-25.3,21.9c-11.8-0.8-21.8-10.3-21.9-23.4
	C244.2,213.1,254.2,201.9,267.9,202.2L267.9,202.2z M245.6,225.6c-0.1,12.6,10.1,22.1,21.7,22.4c13.1,0.3,22.9-10.1,22.9-22.2
	c0-12.6-9.7-22-21.5-22.4C255.6,203,245.5,213.5,245.6,225.6L245.6,225.6z"/>
<path class="st0" d="M141.2,411.1c-6.5,0-12.1-2.3-16.7-6.8c-4.6-4.5-6.9-10.2-6.9-16.7c0-6.5,2.3-12.2,7-16.8
	c5-4.9,11.2-7.1,18.2-6.7c11.6,0.7,22.2,10.2,21.9,24.2C164.4,400.4,154.7,411.1,141.2,411.1z M118.9,387.5
	c-0.5,12.3,10.4,22,21,22.4c13.8,0.5,23.4-10.2,23.5-21.9c0.2-13-9.8-22.1-21.2-22.8C129.3,364.4,118.3,375.8,118.9,387.5
	L118.9,387.5z"/>
<path class="st0" d="M160.9,309.6c-13.1,0.3-23.6-10.6-23.5-23.5c0.1-12.7,10.2-23.9,24.6-23.3c12.3,0.5,22.5,10.3,22.5,23.8
	C184.5,299.1,174.2,310,160.9,309.6L160.9,309.6z M160.9,308.5c12.9,0.1,22.5-10.3,22.4-22.3c-0.1-12.3-9.5-21.9-21.7-22.2
	c-13.4-0.4-23,10.1-23.1,22.2C138.5,298.2,148.1,308.6,160.9,308.5L160.9,308.5z"/>
<path class="st0" d="M307.5,207.7c-11.5,0.5-22.2-9.6-21.4-22.7c0.7-10.5,9.4-19.9,21.5-19.8c11.1,0,21.9,9.1,21.1,22.8
	C328.2,198.1,319.7,208,307.5,207.7z M307.5,206.6c11.3,0.2,19.9-9.2,20.2-19.2c0.3-12.4-9.2-21-20.1-21c-11.1,0-19.6,8.4-20.1,19.3
	C286.8,197.4,296.6,206.8,307.5,206.6z"/>
<path class="st0" d="M283.4,279.8c0.1,5.3-2.2,10.3-6.5,14.5c-4,4-9,5.7-14.5,5.7c-5.6,0-10.8-2-14.8-6.1c-4.2-4.3-6.3-9.6-6.1-15.7
	c0.2-4.6,1.8-8.7,4.7-12.3c4.2-5.2,9.8-7.7,16.3-7.7c5.5,0,10.6,1.9,14.6,6C281.2,268.3,283.4,273.2,283.4,279.8L283.4,279.8z
	 M262.5,298.7c11,0.2,19.1-9,19.6-18.2c0.7-12.5-8.9-21.1-19.5-21.1c-10.9,0-19.6,8.5-19.8,19.6
	C242.6,289.5,251.6,299.1,262.5,298.7L262.5,298.7z"/>
<path class="st0" d="M185.2,368.2c-0.2-12,9.6-21.4,21.3-21.3c11.9,0.1,21.3,9.2,21.2,21.7c-0.1,11.1-9.2,21.6-22.6,20.9
	C194.5,388.9,185.1,380.4,185.2,368.2L185.2,368.2z M206.4,388.3c11.2,0.3,19.8-9.3,20.1-19.2c0.4-12.2-9.3-20.8-19.6-21.1
	c-11.5-0.3-20.1,9.2-20.7,18.7C185.4,379.3,196.1,388.8,206.4,388.3z"/>
<path class="st0" d="M219.5,276.8c-11.2,0.2-20.5-9.2-20.3-20.6c0.2-10.4,8.7-20.7,22.1-19.7c9.9,0.7,18.6,9,18.5,20.5
	C239.7,267.7,231,276.9,219.5,276.8L219.5,276.8z M219.6,237.6c-10.8-0.2-18.9,8.8-19.1,18.4c-0.3,11.2,8.6,19.2,18.2,19.6
	c11.5,0.5,19.9-8.8,20-19C238.7,246.4,230.2,237.5,219.6,237.6L219.6,237.6z"/>
<path class="st0" d="M247.9,328.1c0-11,8.6-19.7,19.8-19.6c10.7,0.1,19.4,8.7,19.3,19.8c-0.1,10.6-8.3,19.7-20.7,19.3
	C256.8,347.3,247.9,339.4,247.9,328.1L247.9,328.1z M249,328.1c-0.1,10.4,8.3,18,17.3,18.5c11.6,0.5,19.4-8.5,19.5-18.1
	c0.1-10.4-8.2-18.5-18-18.7C257.5,309.4,248.9,318,249,328.1L249,328.1z"/>
<path class="st0" d="M155.6,363.2c-10.5,0-19.2-8.5-19.1-19.6c0.1-9.2,7.9-19.5,21-18.4c9.7,0.8,17.2,8.6,17.2,18.9
	C174.7,354.7,166.6,363.1,155.6,363.2L155.6,363.2z M155.6,362.1c10.1,0.3,17.7-8.3,18.1-16.7c0.6-11.3-8.4-19-17.4-19.3
	c-10.6-0.3-18.1,8.3-18.7,16.8C136.9,353.8,146.3,362.5,155.6,362.1L155.6,362.1z"/>
<path class="st0" d="M193,158.3c-0.3,0.5-0.5,1.1-0.9,1.6c-0.6,0.6-1.4,1.1-2.1,1.6c-0.9,0.6-1.7,0.6-2.5-0.1
	c-1.1-0.9-2.5-1.7-2.3-3.4c0.1-1.8,1.6-2.5,3-3.3c0.3-0.2,0.7-0.2,1-0.1c1.5,0.5,2.8,1.3,3.6,2.7C192.8,157.5,192.9,157.8,193,158.3
	L193,158.3z M189.9,160c0.2-0.2,0.8-0.5,0.8-0.9c0.1-1.2-2.1-3.1-3.3-2.9c-0.3,0.1-0.8,0.6-0.8,1C186.6,158.2,188.5,159.9,189.9,160
	L189.9,160z"/>
<path class="st0" d="M186.9,175.4c-0.1-0.1-0.4-0.5-0.8-0.9c0.3-1.3,1.2-1.2,2.1-1.1c0.7,0,1.5,0.3,1.7-1h-2.7c0,0.1,0,0.2-0.1,0.3
	c-0.4-0.4-0.7-0.8-1.1-1.2c0.3-0.4,0.5-0.9,0.7-1.2h3.9c0.5,0.3,0.7,0.8,0.2,1.6c-0.1,0.2-0.2,0.6-0.1,0.8c1,1.1-0.2,1.7-0.5,2.5
	c0,0.1-0.5,0.1-0.8,0.1C188.8,175.3,188,175.3,186.9,175.4L186.9,175.4z"/>
<path class="st0" d="M190.7,182.7c0.5,0.3,0.7,0.8,0.2,1.6c-0.1,0.2-0.2,0.6-0.2,0.6c1.1,1.2-0.2,1.9-0.5,2.8c-1.1,0.1-2,0.1-3,0.1
	c0,0.1,0,0.2-0.1,0.3c-0.3-0.4-0.7-0.8-1-1.1c0.3-1.3,1.2-1.2,2.2-1.1c0.7,0,1.5,0.3,1.7-1h-2.7c0,0.1,0,0.2-0.1,0.3
	c-0.4-0.4-0.7-0.8-1.1-1.2c0.3-0.4,0.5-0.9,0.7-1.2L190.7,182.7L190.7,182.7z"/>
<path class="st0" d="M187.2,189c0.9,0.1,1.8,0.2,2.8,0.2c0.3,0.6,0.8,1.4,1.1,2.1c0.4,1.3-0.6,1.9-1.4,2.5c-0.7,0.6-1.4,0.4-1.9-0.3
	c-0.1-0.1-0.1-0.1-0.1-0.2C185.9,191.4,185.9,191.3,187.2,189L187.2,189z M190.1,191.2c-0.1-0.1-0.1-0.2-0.2-0.4c-0.5,0-1-0.1-1.5,0
	c-0.3,0.1-0.7,0.4-0.8,0.7c-0.1,0.3,0,0.8,0.2,0.9s0.7,0.1,0.9-0.1C189.3,192.1,189.7,191.6,190.1,191.2L190.1,191.2z"/>
<path class="st0" d="M187.2,176.5c0.4,0.1,0.8,0.4,1.1,0.3c1.9-0.5,2.1,1.1,2.7,2.2c0.4,0.7-0.4,1.9-1.5,2.6
	c-0.8,0.5-1.2,0.1-1.9-0.4C185.9,179.8,186.1,178.3,187.2,176.5L187.2,176.5z M190.1,178.9c-0.1-0.1-0.1-0.2-0.2-0.4
	c-0.5,0-1-0.1-1.5,0c-0.3,0.1-0.6,0.4-0.7,0.6c-0.1,0.3,0,0.7,0.2,1c0.1,0.1,0.6,0.1,0.9,0C189.2,179.8,189.6,179.3,190.1,178.9z"/>
<path class="st0" d="M193.5,162.4c-1.1,0.9-2.2,1.7-3.8,1.6c-1.5-0.1-3.1,0-4.7,0c-0.3-1.2,0.1-1.6,1.3-1.6
	C188.7,162.5,191,162.4,193.5,162.4z"/>
<path d="M167.6,158.2c0.9,1.1,1.8,2.2,2.8,3.3c0.8,0.8,1.7,1.6,2.6,2.3c0.7,0.5,1.1,1.1,1.1,2c0,4.4,0,8.9-0.1,13.3
	c0,0.6-0.5,1.2-1,1.6c-1,0.8-2.1,1.3-3.1,2c-0.6,0.4-1,0.4-1.5-0.1c-1.5-1.6-3.1-3-4.6-4.6c-0.3-0.3-0.4-0.8-0.4-1.2
	c0-5.3,0.1-10.6,0.1-15.8c0-1.1,0.6-1.5,1.4-1.8C165.7,158.9,166.6,158.6,167.6,158.2L167.6,158.2z"/>
<path d="M225.3,340.8c1.3-1.4,1.2-2.8,0.6-4.1c-0.6-1.4-1.2-2.7-1.8-4.1c2.8-2.6,2.5-6,2.2-9.3c-0.3-3-1.3-5.8-2.8-8.6
	c1.5,0.5,2.8,1.1,4.1,1.5c0.8,0.2,1.6,0.3,2.4,0.3c0.1,0,0.5-0.6,0.4-0.7c-2.4-3.6-4.5-7.5-7.3-10.8c-1.8-2.1-2.2-4.2-2.6-6.6
	c-0.6-3.4-1.4-6.8-3.2-9.9c-0.4-0.8-1-1.6-1.6-2.2c-1.6-1.7-3.3-1.7-5-0.1c-2.5,2.4-3.6,5.5-4.5,8.7c-0.7,2.5-1,5-1.6,7.5
	c-0.2,0.7-0.4,1.5-0.8,2c-3,4.1-6.1,8.1-9.2,12.1c-0.6,0.8-0.5,1.4,0.6,1.5c1,0.1,2.1,0,3-0.3c1.6-0.6,3.2-1.5,4.8-2.2
	c-0.4,1.2-0.9,2.4-1.1,3.6c-0.4,2.4-0.6,4.7-0.9,7.1c-0.2,2.1,0.8,3.7,2.6,4.8c0.4,0.2,0.8,0.5,1.3,0.8c-0.7,1.2-1.4,2.5-2.1,3.7
	c-0.8,1.5-1.3,3,0,4.5c-2.2-0.7-4.1-1.9-5.9-3.3c-6.4-4.9-10.4-11.4-11.4-19.4c-2.1-16.7,9.1-29.8,22.7-32.7
	c15.6-3.4,29.7,5.5,34.4,19.8C247.3,318.5,240.6,334.5,225.3,340.8L225.3,340.8z"/>
<path d="M228.9,315.6c-2.7-0.6-5.3-1.6-7.2-3.6c-0.7-0.7-1.4-1.5-2.1-2.1c-0.1-0.1-0.5,0-0.7-0.1c0.1,0.2,0.1,0.5,0.1,0.6
	c0.1,0.2,0.3,0.3,0.4,0.4c4.7,4.8,6.7,10.6,6.1,17.2c-0.3,2.9-2.1,4.8-5.6,5.2c-4.7,0.6-9.4,0.2-13.8-1.8c-3.9-1.7-4.5-2.7-4.4-7
	c0.1-3.8,1.2-7.4,3.1-10.7c0.2-0.3,0.2-0.7,0.2-1c-0.3,0.1-0.7,0.2-0.9,0.5c-1.9,1.8-3.9,3.1-6.4,3.9c-0.8,0.2-1.6,0.2-2.4,0.3
	c-0.1-0.1-0.1-0.2-0.2-0.4c1.9-2.5,3.9-4.9,5.8-7.4c1.4-1.8,2.8-3.5,4-5.4c0.5-0.8,0.5-2,0.6-3c0.7-4.2,1.7-8.3,3.8-12
	c0.5-0.9,1.2-1.8,2-2.5c1.4-1.2,2.6-1.2,3.7,0.2c0.9,1.1,1.7,2.4,2.3,3.8c1.6,3.6,2.3,7.5,2.8,11.4c0.1,0.7,0.6,1.4,1,2
	c0.5,0.7,1.2,1.2,1.6,1.9C224.9,309.1,226.9,312.4,228.9,315.6L228.9,315.6z M213.3,299.1c0,0-0.1,0-0.1,0c0-0.3,0-0.6-0.1-0.9
	c-0.1-0.8-0.1-1.6-0.3-2.4c-0.2-0.7-0.5-1.5-1.5-1.4c-1,0.1-1.4,0.8-1.6,1.7c-0.1,0.3-0.1,0.6,0,1c0.1,1.5,0.4,3.1-1,4.3
	c-0.1,0.1-0.2,0.4-0.3,0.5c-0.7,1.5-0.6,1.8,0.9,2.6c1.4,0.7,1.5,1,0.8,2.4c-2.2,4.3-3.8,8.8-4.9,13.5c-0.7,3.2,0.4,7,2.8,8.4
	c2.7,1.5,5.6,2.5,8.8,2.2c3.4-0.3,5.3-2.2,5.1-5.5c-0.1-2.7-0.5-5.4-1.3-8c-1.1-3.6-2.8-7.1-4.2-10.7c-0.4-1-0.1-2,0.7-2.6
	c1.7-1.1,1.7-2.4,0.1-3.6c-0.3-0.2-0.4-0.7-0.4-1c0-1,0.1-2.1,0.1-3.1c-0.1-0.9-0.5-1.6-1.5-1.8c-1-0.1-1.4,0.6-1.6,1.3
	C213.5,297,213.4,298,213.3,299.1L213.3,299.1z"/>
<path d="M202.9,337.6c2.1,1.2,4.1,2.1,6.4,2.5c0.1-0.1,0.1-0.3,0.2-0.5c-0.6-0.3-1.1-0.5-1.7-0.8c-1.2-0.5-2.5-1-3.7-1.6
	c-0.8-0.3-0.9-0.8-0.4-1.6c0.7-1.1,1.3-2.3,1.9-3.2c2.9,0.7,5.6,1.3,8.3,2c-0.2,2-0.3,4-0.6,6.1c-0.1,1.2-0.9,1.6-2.1,1.3
	c-2.1-0.6-4.3-1.2-6.4-1.9C203.7,339.7,202.7,339.1,202.9,337.6L202.9,337.6z M212.3,340.8l0.2-0.6c-0.6-0.2-1.3-0.4-2-0.6
	c-0.2,0-0.4,0.2-0.6,0.2c0.1,0.2,0.2,0.5,0.4,0.5C210.9,340.6,211.6,340.7,212.3,340.8L212.3,340.8z"/>
<path d="M220.4,339.6c-0.7,0.1-1.4,0.2-2,0.2c-0.7-1.9-1.3-3.7-1.9-5.3c2.2-0.4,4.5-0.8,7-1.2c0.5,1.1,1.1,2.4,1.6,3.8
	c0.1,0.3-0.1,0.8-0.4,1c-0.7,0.4-1.4,0.7-2.1,1c-0.4,0.2-0.8,0.3-1.2,0.7c1.4,0.4,2.6-0.3,3.9-0.9c0.1,0.1,0.1,0.2,0.2,0.3
	c-0.6,0.4-1.1,1-1.7,1.2c-1.6,0.5-3.3,0.8-5,1.1c-0.2,0-0.5-0.2-0.7-0.3c0.2-0.2,0.4-0.5,0.6-0.5c0.6-0.2,1.2-0.4,1.8-0.5
	C220.5,339.9,220.4,339.7,220.4,339.6L220.4,339.6z"/>
<path d="M212.8,342.7c1.3-1,1.3-2.2,1.4-3.4c0.1-1.6,0.4-3.3,0.8-4.9c1.6,1.8,2.4,3.9,2.4,6.3c0,0.7,0.2,1.3,0.4,2.1H212.8
	L212.8,342.7z"/>
<path d="M282.4,166.9c0.1,14-11.5,25-24.7,24.9c-14.1-0.1-24.9-10.9-25-25.1c-0.1-13.2,11-25.2,26.1-24.6
	C271.3,142.6,282.4,153,282.4,166.9L282.4,166.9z"/>
<path d="M342,254.8c0.5,13.2-11.2,25.7-26.3,24.6c-11.9-0.8-23-10.9-22.9-25c0.2-13.1,10.8-24.5,25.6-24.2
	C330.7,230.5,342.3,241.2,342,254.8L342,254.8z"/>
<path d="M286.5,390c0.4,12.7-10.7,24.2-24.4,23.6c-12.2-0.5-22.9-10.4-22.7-24.1c0.2-12.2,10.2-23.6,25-23
	C275.7,366.9,286.8,376.9,286.5,390L286.5,390z M272.5,386.9c-0.3,0.2-0.9,0.6-0.9,0.6c-0.5-0.7-1.4-1.5-1.4-2.2
	c0-1.2,0.5-2.4,0.7-3.6c1.3,0.3,2.5,0.6,3.8,0.9c-0.6-0.9-1.1-1.6-1.6-2.3c0,0-0.1,0.1-0.2,0.1c0.3,0.5,0.6,1,0.9,1.4
	c-0.1,0.1-0.1,0.2-0.2,0.3c-0.6-0.2-1.2-0.4-1.9-0.5c-0.4-0.1-1.2,0.1-1.2,0.2c0,1.7-1.7,3.5,0,5.2c-1-0.1-2.1-0.3-3.1-0.4
	c-0.2,0-0.6,0-0.6,0.1c-0.1,0.2,0,0.5,0,0.8c0.1,0.2,0.3,0.4,0.6,0.7c-0.5,0.3-1,0.7-1.5,0.7c-2,0.1-4,0.1-6,0c-0.5,0-1-0.5-1.5-0.7
	c0.4-0.3,0.8-0.7,1.2-1c-0.4-0.2-0.9-0.4-1.3-0.5c-0.2-0.1-0.5,0-0.7,0.1c-1,0.2-2.1,0.4-2.9,0.5c1.3,1.3,3-0.9,4.9,0.1
	c-0.5,0.4-0.9,0.6-1.2,0.9c-0.2,0.2-0.5,0.4-0.7,0.5c-0.7,0.3-1.4,0.6-2.1,0.9c-0.3-0.3-0.7-0.7-1-1c-0.9-0.9-1.3-0.9-2.3,0
	c0.4,0.7,0.9,1.4,1.4,2.2c-0.9,0.3-1.6,0.5-2.5,0.8c0.6,0.5,1.1,0.9,1.6,1.3c-0.4,0.8-0.9,1.5-1.3,2.3l0,0c-1.2,1.9-0.3,6.3,2.4,7.7
	l0,0c0.6,0.3,1.2,0.7,1.8,1c2,0.9,3.9,1.9,6,2.7c0.7,0.3,1.7,0.3,2.5,0c2-0.8,3.9-1.7,5.8-2.6c2.2-0.9,3.7-2.4,4.4-4.7
	c0.8-2.4,0.1-4.5-1.6-6.2c0.7-0.6,1.2-1.1,1.6-1.4c-0.8-0.5-1.6-0.9-2.2-1.4c-0.4-0.3-0.5-0.8-0.9-1c-0.5-0.3-1.1-0.5-1.7-0.7
	l-0.9,0c-0.6-0.5-1.1-1-1.7-1.5c0.7-0.1,1.3,0.2,1.9,0.2c0.6,0,1.2-0.3,1.8-0.4c0.4,0.3,0.8,0.6,1.3,1
	C272.1,387.5,272.3,387.2,272.5,386.9c1-0.1,1.8-0.4,2.5-1.5c-0.5,0.3-0.8,0.5-1.3,0.9c0.3-0.9,0.5-1.5,0.7-2.2
	C273.8,385,273.1,385.9,272.5,386.9L272.5,386.9z M272.2,374.5c-0.1-0.2-0.2-0.4-0.3-0.6c-0.6,0.1-1.2,0.3-1.7,0.4
	c0.3,0.6,0.5,1.2,0.8,1.8C271.4,375.5,271.8,375,272.2,374.5L272.2,374.5z M275.6,384.2c0.1,0,0.1,0.1,0.2,0.1
	c0.1-0.4,0.2-0.8,0.5-1.2c0.2-0.3,0.5-0.4,0.7-0.6c0.2,0.3,0.5,0.5,0.5,0.8c0.1,0.5,0.2,1.1,0.3,1.7c0.1-0.5,0.1-1-0.1-1.4
	c-0.2-0.5-0.4-1.1-0.7-1.2c-0.8-0.3-1,0.5-1.2,1.1C275.8,383.7,275.7,384,275.6,384.2L275.6,384.2z M248.9,379.3
	c0.2,0.2,0.5,0.6,0.6,0.5c0.7-0.2,1.5-0.4,2-0.8c0.2-0.2-0.1-1-0.2-1.6c-0.1,0-0.2,0-0.4,0c0.1,0.5,0.3,0.9,0.5,1.4
	C250.6,379.1,250,380,248.9,379.3L248.9,379.3z M248,384.6c0.6,1.1,1.1,2.1,1.6,3.1c-0.1-0.7-0.4-1.4-0.7-2
	c-0.4-0.7-0.6-1.3,0.3-1.7C248.8,384.2,248.4,384.3,248,384.6L248,384.6z M272.8,387.8c1.7,0.9,2.2,0.9,4-0.6
	C275.5,387.7,274.3,388.8,272.8,387.8z"/>
<path d="M245.6,225.6c-0.1-12.1,10-22.6,23-22.2c11.8,0.4,21.6,9.8,21.5,22.4c0,12-9.8,22.4-22.9,22.2
	C255.8,247.7,245.5,238.2,245.6,225.6L245.6,225.6z"/>
<path d="M118.9,387.5c-0.6-11.7,10.4-23.1,23.4-22.3c11.3,0.7,21.3,9.8,21.2,22.8c-0.1,11.6-9.8,22.3-23.5,21.9
	C129.3,409.5,118.4,399.9,118.9,387.5L118.9,387.5z M140.2,401.4c1.1-0.2,2.3-0.2,3.4-0.5c3.5-1,7-2.2,10.5-3.3
	c0.3-0.1,0.5-0.6,0.8-0.9c-0.4-0.1-0.9-0.3-1.2-0.2c-2.9,0.9-5.7,1.9-8.5,2.8c-4.2,1.4-8.3,1.1-12.1-1.2c-1.7-1-3.3-2.1-4.9-3.2
	c-0.3-0.2-0.8-0.1-1.2-0.2c0.2,0.4,0.2,0.9,0.5,1.1c1.4,1,2.9,2.1,4.5,3C134.5,400.3,137.2,401.3,140.2,401.4L140.2,401.4z
	 M148.2,383.6c0.6,1,1.1,2,1.8,2.9c0.2,0.3,0.7,0.3,1.1,0.5c0-0.4,0.1-0.8-0.1-1.1c-0.6-1.1-1.2-2.2-2-3.5c1.7-1.2,3.2-2.3,4.7-3.5
	c0.3-0.2,0.5-0.7,0.7-1.1c-0.5,0-1-0.1-1.4,0.1c-1.5,1-2.9,2-4.4,3.1c-0.4-1.2-0.8-2.4-1.3-3.6c-0.1-0.4-0.6-0.6-0.9-0.9
	c-0.1,0.4-0.3,0.9-0.2,1.3c0.3,1.1,0.7,2.2,1.2,3.3c0.3,0.6,0.2,1.1-0.3,1.6c-0.9,0.9-1.8,1.8-2.6,2.8c-0.2,0.2-0.1,0.7-0.2,1.1
	c0.4-0.1,0.8-0.1,1.1-0.3C146.3,385.5,147.2,384.6,148.2,383.6L148.2,383.6z M134.8,382c0.6,1,1.2,2,1.9,3c0.2,0.2,0.7,0.2,1.1,0.4
	c0-0.4,0.1-0.8-0.1-1c-0.4-0.9-1-1.8-1.5-2.6c-0.4-0.6-0.3-1.1,0.3-1.5c1.3-1,2.6-1.9,3.9-2.9c0.3-0.2,0.5-0.7,0.7-1
	c-0.4,0-0.9-0.1-1.3,0c-0.5,0.2-0.9,0.5-1.3,0.8c-1,0.8-2.1,1.6-3.1,2.4c-0.5-1.3-0.8-2.5-1.3-3.6c-0.2-0.4-0.7-0.6-1-0.9
	c-0.1,0.4-0.2,0.9-0.1,1.3c0.3,1.1,0.7,2.1,1.1,3.2c0.3,0.8,0.3,1.3-0.4,1.9c-0.9,0.8-1.7,1.6-2.4,2.5c-0.2,0.3-0.2,0.8-0.4,1.2
	c0.4-0.1,0.9-0.1,1.3-0.4C133,383.8,133.9,382.9,134.8,382L134.8,382z"/>
<path d="M160.9,308.5c-12.8,0.1-22.4-10.3-22.4-22.4c0.1-12.1,9.6-22.5,23.1-22.2c12.2,0.3,21.6,9.9,21.7,22.2
	C183.4,298.2,173.8,308.6,160.9,308.5z"/>
<path d="M307.5,206.6c-10.9,0.2-20.6-9.2-20.1-20.9c0.5-10.9,9-19.3,20.1-19.3c10.9,0,20.4,8.6,20.1,21
	C327.4,197.3,318.8,206.7,307.5,206.6z"/>
<path d="M262.5,298.7c-10.9,0.3-19.9-9.2-19.8-19.8c0.2-11,8.9-19.6,19.8-19.6c10.7,0,20.2,8.7,19.5,21.1
	C281.6,289.7,273.5,299,262.5,298.7z"/>
<path d="M206.4,388.3c-10.3,0.5-21-9-20.2-21.6c0.6-9.4,9.2-19,20.7-18.7c10.3,0.3,20,8.9,19.6,21.1
	C226.3,379,217.6,388.6,206.4,388.3z"/>
<path d="M219.6,237.6c10.6-0.1,19.1,8.7,19.1,19.1c0,10.2-8.5,19.5-20,19c-9.6-0.4-18.5-8.4-18.2-19.6
	C200.7,246.4,208.7,237.4,219.6,237.6L219.6,237.6z M218.6,262.2c0.7,0.4,1.5,0.5,1.6,0.9c0.9,2.2,1.7,4.5,2.6,6.8
	c0.2,0.4,0.8,1,1.1,1c0.7-0.1,1.6-0.4,2-1c0.4-0.5,0.6-1.4,0.4-2c-0.7-2-1.6-4-2.3-6c-0.4-1.1-0.9-2.1-1.4-3.1
	c-1.3-2.6-2.3-5.4-2.3-8.4c0-1.8,0-3.6,0-5.8c-0.8,0.4-1.6,0.5-1.9,1c-0.6,0.9-1.1,2.1-1.2,3.1c-0.2,2.2-0.3,4.4-1.1,6.6
	c-0.4,0.9-0.6,1.8-0.9,2.7c-0.2,0.8-0.5,1.4-1.4,1.8c-0.7,0.3-1.2,1.2-1.6,2c-0.1,0.2,0.6,0.7,0.9,1.2c0,0-0.1,0.3-0.1,0.5
	c-0.3,0.8-0.6,1.6-0.8,2.5c-0.1,0.4,0.1,0.9,0.4,1.1c0.1,0.1,0.8,0,1-0.2c0.8-0.6,1.6-1.2,1.7-2.3c0.1-0.7,0.5-1.3,0.7-1.9
	c1.1,0,1.4,0.4,1.3,1.3c-0.1,1.2,0,2.4,0,3.6c0.1,0,0.2,0,0.3,0C218,265.9,218.3,264.3,218.6,262.2L218.6,262.2z"/>
<path d="M249,328.1c-0.1-10.1,8.5-18.7,18.8-18.4c9.8,0.3,18.1,8.3,18,18.7c-0.1,9.6-8,18.6-19.5,18.1
	C257.4,346.1,249,338.4,249,328.1z M259.3,336c0.8,1.2,1.6,2.2,2.5,3.5c0.5-0.7,0.9-1.1,1.3-1.8c2,1.8,4.2,2.7,6.7,0.7
	c0.3,0.9,0.7,0.8,1.2,0.3c0.8-0.7,1.6-1.3,2.3-2c0.5,0.4,1,0.8,1.5,1.2c0.9-2.3,1.8-4.3,2.6-6.4c0.3,0,0.6,0.1,0.9,0.2
	c0.2-0.9,0.4-1.6,0.5-2.3c0.6-3.1,0.1-6.1-1.5-8.9c-0.4-0.7-0.6-1.6-1-2.3c-0.2-0.5-0.5-1.1-0.8-1.6c-0.8-1.2-2-1.8-3.4-2.1
	c-0.1-0.3-0.3-0.5-0.5-0.5c-1.4,0.1-2.8,0.2-4.2,0.3c-0.4,0-0.8,0-1.3-0.1c-1.2-0.1-2.4-0.2-3.5-0.3c0,0.1,0,0.2,0,0.3l0.9,0.7
	c-0.5,0.2-0.9,0.2-1.2,0.1c-2.6-0.7-4.8,0.8-5.2,3.5c0,0.3-0.3,0.6-0.5,0.9c-0.4,0.5-0.9,1,0.1,1.4c-1.5,1.5-2,2.2-2.3,4.1
	c-0.3,2-0.4,4.1-0.6,6.5c0.7-0.5,1.1-0.8,1.6-1.2c-0.3,2.9,1.5,4.8,2.6,7.3C258.8,336.8,259.1,336.4,259.3,336L259.3,336z"/>
<path d="M155.6,362.1c-9.3,0.4-18.7-8.3-17.9-19.2c0.6-8.5,8.1-17.1,18.7-16.8c9,0.3,17.9,8,17.4,19.3
	C173.2,353.8,165.6,362.4,155.6,362.1L155.6,362.1z"/>
<path d="M189.9,160c-1.4-0.1-3.2-1.8-3.3-2.8c0-0.3,0.5-0.9,0.8-1c1.1-0.3,3.4,1.7,3.3,2.9C190.7,159.5,190.1,159.8,189.9,160
	L189.9,160z"/>
<path d="M190.1,191.2c-0.4,0.4-0.8,0.9-1.3,1.2c-0.2,0.2-0.8,0.2-0.9,0.1c-0.2-0.1-0.3-0.7-0.2-0.9c0.1-0.3,0.5-0.6,0.8-0.7
	c0.5-0.1,1,0,1.5,0C190,191,190,191.1,190.1,191.2L190.1,191.2z"/>
<path d="M190.1,178.9c-0.5,0.4-0.9,0.9-1.4,1.2c-0.2,0.1-0.8,0.2-0.9,0c-0.2-0.2-0.2-0.7-0.2-1c0.1-0.3,0.4-0.6,0.7-0.6
	c0.5-0.1,1,0,1.5,0C190,178.7,190,178.8,190.1,178.9z"/>
<path class="st0" d="M213.3,299.1c0.1-1,0.2-2.1,0.5-3.1c0.2-0.8,0.6-1.5,1.6-1.3c1,0.1,1.4,0.9,1.5,1.8c0.1,1-0.1,2.1-0.1,3.1
	c0,0.4,0.1,0.8,0.4,1c1.6,1.3,1.6,2.5-0.1,3.6c-0.9,0.6-1.2,1.5-0.7,2.6c1.4,3.5,3.1,7,4.2,10.7c0.8,2.5,1.2,5.3,1.3,8
	c0.2,3.4-1.8,5.2-5.1,5.5c-3.2,0.3-6.1-0.7-8.8-2.2c-2.4-1.4-3.5-5.1-2.8-8.4c1-4.7,2.7-9.2,4.9-13.5c0.7-1.4,0.6-1.7-0.8-2.4
	c-1.5-0.8-1.6-1-0.9-2.6c0.1-0.2,0.1-0.4,0.3-0.5c1.5-1.2,1.1-2.8,1-4.3c0-0.3,0-0.6,0-1c0.2-0.9,0.6-1.6,1.6-1.7
	c1-0.1,1.3,0.6,1.5,1.4c0.2,0.8,0.2,1.6,0.3,2.4c0,0.3,0.1,0.6,0.1,0.9C213.2,299.1,213.2,299.1,213.3,299.1L213.3,299.1z
	 M211.4,306.1c-2.4,4.6-4.4,9.5-5.4,14.8c-0.5,2.7,0,5.5,2.4,7c2.8,1.8,5.9,3,9.4,1.6c0.1,0,0.2-0.1,0.3-0.1c1.3,0.4,2-0.6,2.3-1.4
	c0.4-1.2,0.8-2.5,0.7-3.8c-0.4-6.6-3.7-12.3-5.9-18.2L211.4,306.1L211.4,306.1z M208.8,303.7c0.9-1,1.1-0.3,1.4,0.2
	c0.8,1.2,1.9,1.6,3.3,1.5c1.3-0.1,2.4-0.5,2.9-1.9c0.2-0.5,0.7-0.8,1.2-1.4c-0.4-0.4-0.9-1-1.5-1.1c-1.2-0.3-2.6-0.5-3.9-0.6
	C210.2,300.4,209.3,301.2,208.8,303.7L208.8,303.7z M216.3,296.8c-0.4-0.5-0.7-0.9-1-1.3c-0.4,0.4-0.7,0.9-1.2,1.5
	C214.9,296.9,215.4,296.9,216.3,296.8L216.3,296.8z M212.3,296.4c-0.4-0.5-0.7-0.8-1.1-1.2c-0.3,0.4-0.6,0.9-1,1.4
	C211,296.6,211.5,296.5,212.3,296.4L212.3,296.4z"/>
<path class="st0" d="M212.3,340.8c-0.7-0.1-1.3-0.2-2-0.4c-0.2,0-0.2-0.3-0.4-0.5c0.2-0.1,0.4-0.3,0.6-0.2c0.7,0.1,1.3,0.4,2,0.6
	L212.3,340.8L212.3,340.8z"/>
<path d="M270.1,403.8c-1.9,0.9-3.9,1.8-5.8,2.6c-0.7,0.3-1.7,0.2-2.5,0c-2-0.8-4-1.8-6-2.7c0.1-0.3,0.1-0.9,0.3-1
	c1.2-0.9,2.4-1.6,3.7-2.4c-0.3-1.1-1-1.6-2.1-1.4c-1.8,0.4-3.6,0.8-5.5,1.3c-0.9-1.5-0.9-3.3-0.5-5.1l0,0c0.6-0.7,1.2-1.5,1.8-2.2
	c-0.6-0.5-0.9-0.8-1.3-1.2c0.1-0.1,0.1-0.3,0.2-0.4c0.6,0.2,1.3,0.4,2.1,0.6c0.3-0.2,0.7-0.6,1.2-1c0.3,0.2,0.5,0.4,0.7,0.6
	c0.9-0.5,1-2,2.4-1.6c0.4,0.3,0.8,0.8,1.1,0.8c1,0,1.4,0.5,1.9,1.2c1.3-0.1,2.6,0.2,3.7-0.5c1.8-1.2,3.5-1.2,5.3,0
	c0.5,0.4,1,0.6,1.6,0.2c0.3-0.2,0.9,0,1.4,0.1c0,0.1,0,0.2,0,0.3c-0.4,0.3-0.8,0.6-1.3,1c2.1,2.2,2.9,4.7,1.2,7.4
	c-1.5-0.4-2.9-0.9-4.3-1.2c-1.8-0.4-2.7,0-3.3,1.4c0.3,0.1,0.5,0.3,0.8,0.4c1,0.6,2,1.2,3,2C270.1,403,270,403.5,270.1,403.8
	L270.1,403.8z M261.2,393.9L261.2,393.9c-0.5-1-1.8-1.2-2.1-0.1c-0.3,1.1-0.2,2.3-0.1,3.5c0,0.3,0.8,0.8,1.1,0.8
	c0.4,0,1-0.6,1.1-0.9C261.4,396,261.3,394.9,261.2,393.9L261.2,393.9z M261.2,399.3c-0.6,1.1,0.2,1.8,1,2.3c1,0.6,1.7,0.2,2.3-0.7
	c0.8-0.4,0.8-1.1,0.4-1.7C264.3,398.3,261.9,398.5,261.2,399.3L261.2,399.3z M266.8,397.1c0.1-0.6,0.2-1.1,0.2-1.7
	c0-1.5-0.3-1.9-1.8-2c-1,0.7-1.2,3.1-0.3,4.1c0.3,0.3,0.8,0.6,1.1,0.5C266.3,397.9,266.5,397.4,266.8,397.1L266.8,397.1z
	 M262.7,406.1c1.2,0.1,2-0.2,2.2-1.2c0.1-1-0.9-2.1-1.8-2.1c-1.1,0-1.9,0.8-1.9,1.9C261.2,405.8,261.5,406.1,262.7,406.1z"/>
<path class="st0" d="M270.1,403.8c-0.1-0.4,0-0.9-0.2-1c-0.9-0.7-2-1.3-3-2c-0.3-0.2-0.5-0.3-0.8-0.4c0.6-1.5,1.5-1.9,3.3-1.4
	c1.4,0.4,2.8,0.8,4.3,1.2c1.6-2.7,0.9-5.1-1.2-7.4c0.5-0.4,0.9-0.7,1.3-1c0-0.1,0-0.2,0-0.3c-0.5,0-1.1-0.3-1.4-0.1
	c-0.7,0.4-1.1,0.2-1.6-0.2c-1.8-1.2-3.5-1.2-5.3,0c-1.1,0.8-2.5,0.5-3.7,0.5c0.5-0.1,0.9-0.2,1.4-0.3c0.8-0.2,1.6-0.2,2.2-0.6
	c2-1.2,3.5-1.3,5.5,0c0.3,0.2,0.9,0.1,1.3,0.1c-0.2-0.5-0.3-1.1-0.7-1.4c-0.5-0.5-1.2-0.7-1.8-1c0.6,0.2,1.2,0.4,1.7,0.7
	c0.4,0.2,0.6,0.7,0.9,1c0.7,0.5,1.4,0.9,2.2,1.4c-0.4,0.3-0.9,0.8-1.6,1.4c1.8,1.7,2.4,3.8,1.6,6.2
	C273.8,401.4,272.3,402.9,270.1,403.8L270.1,403.8z M273.3,401.2c-1.7-1.3-3.4-1.6-5.3-1.7c1.5,0.7,2.9,1.4,4.3,2
	C272.5,401.6,272.9,401.3,273.3,401.2L273.3,401.2z M268.3,400.3c2.1,2.2,2.9,2.6,3.6,1.8C270.7,401.5,269.5,400.9,268.3,400.3z"/>
<path d="M269.6,388.5c0.6,0.3,1.3,0.6,1.8,1c0.4,0.3,0.5,0.9,0.7,1.4c-0.4,0-1,0.1-1.3-0.1c-2-1.3-3.5-1.2-5.5,0
	c-0.6,0.4-1.5,0.4-2.2,0.6c-0.5,0.1-0.9,0.2-1.4,0.3c-0.5-0.6-0.9-1.2-1.9-1.2c-0.4,0-0.8-0.5-1.1-0.8c-1.6-1.2-1.5,1-2.5,1.1
	c-1-1.6-1.3,1-2.4,0.4c0.6-0.6,1.1-1.1,1.6-1.6c0.1-0.1,0.2-0.1,0.2-0.2l2.2-0.9c0.9,0.2,1.8,0.6,2.7,0.6c1.4,0,2.7,1.6,4.1,0.2
	c0,0,0.1,0,0.1,0c0.6-0.1,1.3,0,1.8-0.3c0.7-0.4,1.3-0.8,2.1-0.5L269.6,388.5L269.6,388.5z"/>
<path class="st0" d="M251.6,395c-0.4,1.8-0.4,3.6,0.5,5.1c1.9-0.4,3.7-0.9,5.5-1.3c1.1-0.2,1.8,0.3,2.1,1.4
	c-1.2,0.8-2.5,1.5-3.7,2.4c-0.2,0.2-0.2,0.7-0.3,1c-0.6-0.3-1.2-0.7-1.8-1c1.1-0.6,2.3-1.2,3.5-1.8c-0.1-0.1-0.1-0.3-0.2-0.4
	c-0.7,0.4-1.5,0.7-2.2,1.1c-0.4,0.3-0.7,0.8-1,1.1C251.4,401.3,250.4,396.9,251.6,395L251.6,395z M257.4,399.9
	c0-0.1-0.1-0.3-0.1-0.5c-1.5,0.5-3,1-4.4,1.5c0.1,0.2,0.1,0.4,0.2,0.6C254.6,401.3,255.8,400,257.4,399.9L257.4,399.9z"/>
<path class="st0" d="M268.7,388.5c-0.8-0.3-1.5,0.1-2.1,0.5c-0.5,0.3-1.2,0.2-1.8,0.3c0,0-0.1,0-0.1,0c-1.4,1.4-2.8-0.2-4.1-0.2
	c-0.9,0-1.8-0.4-2.7-0.6c0.2-0.2,0.5-0.4,0.7-0.5l0,0c0.5,0.2,1,0.7,1.5,0.7c2,0.1,4,0.1,6,0c0.5,0,0.9-0.4,1.5-0.7
	c-0.3-0.3-0.5-0.5-0.6-0.7c-0.1-0.2-0.1-0.5,0-0.8c0-0.1,0.4-0.1,0.6-0.1c1,0.1,2.1,0.2,3.1,0.4l0,0c-0.6,0.1-1.2,0.4-1.8,0.4
	c-0.6,0-1.1-0.3-1.9-0.2C267.5,387.5,268.1,388,268.7,388.5L268.7,388.5z"/>
<path class="st0" d="M255.4,389.7c-0.5,0.5-1.1,1.1-1.6,1.6c1,0.6,1.4-2,2.4-0.4c1-0.1,0.9-2.3,2.5-1.1c-1.4-0.3-1.5,1.2-2.4,1.6
	c-0.2-0.2-0.4-0.4-0.7-0.6c-0.4,0.4-0.9,0.8-1.2,1c-0.8-0.2-1.4-0.4-2.1-0.6c-0.1,0.1-0.1,0.3-0.2,0.4c0.4,0.3,0.8,0.7,1.3,1.2
	c-0.6,0.8-1.2,1.5-1.8,2.2c0.4-0.7,0.8-1.5,1.3-2.3c-0.5-0.4-1.1-0.8-1.6-1.3c0.9-0.3,1.6-0.5,2.5-0.8c-0.5-0.8-0.9-1.5-1.4-2.2
	c0.3,0.2,0.6,0.5,0.8,0.8C254,390.6,254.1,390.6,255.4,389.7L255.4,389.7z"/>
<path class="st0" d="M270.6,386.9c-1.7-1.7,0-3.5,0-5.2c0-0.1,0.8-0.3,1.2-0.2c0.6,0.1,1.2,0.3,1.9,0.5c0.1-0.1,0.1-0.2,0.2-0.3
	c-0.3-0.5-0.6-1-0.9-1.4c0,0,0.1-0.1,0.2-0.1c0.5,0.7,1,1.4,1.6,2.3c-1.4-0.3-2.5-0.6-3.8-0.9c-0.3,1.2-0.8,2.4-0.7,3.6
	c0,0.8,0.9,1.5,1.4,2.2c0,0,0.6-0.4,0.9-0.6l0,0c-0.2,0.3-0.4,0.6-0.7,0.9C271.4,387.5,271,387.2,270.6,386.9L270.6,386.9
	L270.6,386.9z"/>
<path d="M255.4,389.7c-1.3,1-1.4,0.9-2.2-0.5c-0.2-0.3-0.6-0.5-0.8-0.8c1-0.9,1.4-0.9,2.3,0c0.3,0.3,0.7,0.7,1,1
	C255.6,389.5,255.5,389.6,255.4,389.7L255.4,389.7z"/>
<path class="st0" d="M272.2,374.5c-0.4,0.5-0.8,1-1.3,1.6c-0.3-0.6-0.5-1.2-0.8-1.8c0.6-0.1,1.2-0.3,1.7-0.4
	C272,374.1,272.1,374.3,272.2,374.5L272.2,374.5z"/>
<path class="st0" d="M258.5,388c0.4-0.2,0.7-0.5,1.2-0.9c-2-1-3.6,1.2-4.9-0.1c0.9-0.1,1.9-0.3,2.9-0.5c0.2,0,0.5-0.1,0.7-0.1
	c0.4,0.1,0.9,0.3,1.3,0.5C259.3,387.3,258.9,387.6,258.5,388L258.5,388z"/>
<path class="st0" d="M272.5,386.9c0.6-0.9,1.3-1.8,1.9-2.7c-0.2,0.6-0.4,1.3-0.7,2.2c0.5-0.3,0.8-0.5,1.3-0.9
	C274.3,386.5,273.5,386.8,272.5,386.9L272.5,386.9L272.5,386.9z"/>
<path class="st0" d="M275.6,384.2c0.1-0.3,0.1-0.5,0.2-0.8c0.2-0.6,0.4-1.4,1.2-1.1c0.3,0.1,0.5,0.8,0.7,1.2
	c0.2,0.4,0.2,0.9,0.1,1.4c-0.1-0.6-0.1-1.1-0.3-1.7c-0.1-0.3-0.4-0.5-0.5-0.8c-0.2,0.2-0.6,0.4-0.7,0.6c-0.2,0.4-0.3,0.8-0.5,1.2
	C275.8,384.3,275.7,384.2,275.6,384.2L275.6,384.2z"/>
<path class="st0" d="M248.9,379.3c1.1,0.7,1.7-0.2,2.6-0.4c-0.2-0.5-0.3-1-0.5-1.4c0.1,0,0.2,0,0.4,0c0.1,0.5,0.4,1.4,0.2,1.6
	c-0.5,0.5-1.3,0.6-2,0.8C249.4,379.8,249.1,379.5,248.9,379.3L248.9,379.3z"/>
<path class="st0" d="M247.9,384.6c0.5-0.2,0.9-0.4,1.2-0.5c-0.9,0.5-0.6,1-0.3,1.7c0.3,0.6,0.6,1.2,0.7,2
	C249,386.7,248.5,385.7,247.9,384.6L247.9,384.6z"/>
<path class="st0" d="M272.8,387.8c1.5,1,2.7-0.1,4-0.6C274.9,388.6,274.5,388.7,272.8,387.8z"/>
<path class="st0" d="M140.2,401.4c-3-0.1-5.7-1.1-8.3-2.6c-1.6-0.9-3-1.9-4.5-3c-0.3-0.2-0.3-0.8-0.5-1.1c0.4,0.1,0.8,0,1.2,0.2
	c1.7,1,3.2,2.2,4.9,3.2c3.8,2.2,7.9,2.6,12.1,1.2c2.8-0.9,5.7-1.9,8.5-2.8c0.3-0.1,0.8,0.1,1.2,0.2c-0.3,0.3-0.5,0.8-0.8,0.9
	c-3.5,1.1-7,2.3-10.5,3.3C142.5,401.2,141.4,401.2,140.2,401.4L140.2,401.4z"/>
<path class="st0" d="M148.2,383.6c-1,0.9-1.9,1.9-2.9,2.7c-0.3,0.2-0.7,0.2-1.1,0.3c0.1-0.4,0-0.8,0.2-1.1c0.8-1,1.7-1.9,2.6-2.8
	c0.5-0.5,0.6-0.9,0.3-1.6c-0.4-1.1-0.9-2.2-1.2-3.3c-0.1-0.4,0.1-0.9,0.2-1.3c0.3,0.3,0.8,0.5,0.9,0.9c0.5,1.2,0.9,2.4,1.3,3.6
	c1.5-1.1,2.9-2.1,4.4-3.1c0.3-0.2,0.9-0.1,1.4-0.1c-0.2,0.4-0.4,0.9-0.7,1.1c-1.5,1.2-3.1,2.3-4.7,3.5c0.7,1.3,1.4,2.4,2,3.5
	c0.2,0.3,0.1,0.7,0.1,1.1c-0.4-0.1-0.9-0.2-1.1-0.5C149.3,385.6,148.8,384.6,148.2,383.6L148.2,383.6z"/>
<path class="st0" d="M134.8,382c-0.9,0.9-1.8,1.8-2.8,2.6c-0.3,0.3-0.8,0.3-1.3,0.4c0.1-0.4,0.1-0.9,0.4-1.2
	c0.8-0.9,1.5-1.7,2.4-2.5c0.7-0.6,0.7-1.1,0.4-1.9c-0.4-1-0.8-2.1-1.1-3.2c-0.1-0.4,0.1-0.8,0.1-1.3c0.3,0.3,0.8,0.5,1,0.9
	c0.5,1.1,0.9,2.3,1.3,3.6c1.1-0.8,2.1-1.6,3.1-2.4c0.4-0.3,0.8-0.6,1.3-0.8c0.4-0.1,0.9,0,1.3,0c-0.2,0.4-0.4,0.8-0.7,1
	c-1.3,1-2.6,2-3.9,2.9c-0.6,0.4-0.7,0.9-0.3,1.5c0.5,0.9,1,1.7,1.5,2.6c0.1,0.3,0.1,0.7,0.1,1c-0.4-0.1-0.9-0.1-1.1-0.4
	C135.9,384,135.4,382.9,134.8,382L134.8,382z"/>
<path class="st0" d="M218.6,262.2c-0.3,2-0.5,3.7-0.8,5.3c-0.1,0-0.2,0-0.3,0c0-1.2-0.1-2.4,0-3.6c0.1-0.9-0.3-1.3-1.3-1.3
	c-0.2,0.6-0.7,1.2-0.7,1.9c-0.1,1.1-0.9,1.7-1.7,2.3c-0.3,0.2-0.9,0.4-1,0.2c-0.3-0.2-0.4-0.8-0.4-1.1c0.2-0.9,0.5-1.7,0.8-2.5
	c0.1-0.2,0.1-0.5,0.1-0.5c-0.4-0.5-1.1-1.1-0.9-1.2c0.4-0.7,0.9-1.6,1.6-2c0.9-0.4,1.1-1,1.4-1.8c0.3-0.9,0.5-1.8,0.9-2.7
	c0.8-2.1,0.9-4.3,1.1-6.6c0.1-1.1,0.6-2.2,1.2-3.1c0.3-0.5,1.1-0.6,1.9-1c0,2.2,0,4,0,5.8c0,3,1,5.8,2.3,8.3c0.5,1,1,2,1.4,3.1
	c0.7,2,1.6,4,2.3,6c0.2,0.6,0,1.5-0.4,2c-0.4,0.5-1.3,0.9-2,1c-0.3,0-0.9-0.5-1.1-1c-0.9-2.2-1.7-4.5-2.6-6.8
	C220.1,262.7,219.3,262.6,218.6,262.2L218.6,262.2z"/>
<path class="st0" d="M259.3,336c-0.3,0.4-0.6,0.9-1,1.5c-1.1-2.5-2.9-4.4-2.6-7.3c-0.5,0.4-0.9,0.7-1.6,1.2c0.2-2.4,0.3-4.5,0.6-6.5
	c0.3-1.9,0.8-2.6,2.3-4.1c-1-0.4-0.5-0.9-0.1-1.4c0.2-0.3,0.4-0.6,0.5-0.9c0.4-2.6,2.5-4.1,5.2-3.5c0.4,0.1,0.7,0.1,1.2-0.1
	l-0.9-0.7c0-0.1,0-0.2,0-0.3c1.2,0.1,2.4,0.2,3.5,0.3c0.4,0,0.8,0.1,1.3,0.1c1.4-0.1,2.8-0.2,4.2-0.3c0.2,0,0.4,0.2,0.5,0.5
	c1.4,0.2,2.6,0.9,3.4,2.1c0.3,0.5,0.6,1,0.8,1.6c0.3,0.8,0.5,1.6,1,2.3c1.5,2.8,2.1,5.8,1.5,8.9c-0.1,0.7-0.3,1.5-0.5,2.3
	c-0.3,0-0.6-0.1-0.9-0.2c-0.8,2.1-1.7,4.1-2.6,6.4c-0.5-0.4-1.1-0.9-1.5-1.2c-0.8,0.6-1.6,1.3-2.3,2c-0.5,0.5-1,0.6-1.2-0.3
	c-2.5,2-4.7,1.2-6.7-0.7c-0.5,0.6-0.8,1.1-1.3,1.8C260.9,338.2,260.1,337.2,259.3,336L259.3,336z M274.2,332.7c-1.4,0-2.8,0-4.3,0
	c-3.1,0-6.3,0.1-9.4,0.2c-0.3,0-0.8-0.2-1-0.4c-0.4-0.5-0.6-1.1-1-1.7c-0.8-1.5-1.1-3.1-0.7-4.9c0.3,0.3,0.5,0.4,0.6,0.5
	c1,1.5,4.8,2.4,6.4,1.5c0.1-0.1,0.2-0.1,0.3-0.2c0.9-0.9,2.1-0.7,3-0.3c2.6,1.1,5.1,1,7.5-0.6c-0.5-0.9-0.9-1.6-1.4-2.5
	c-0.3,0.5-0.5,0.8-0.9,1.3c-0.8-2.6-2.3-4.4-4.4-5.8c-0.3,0.6-0.6,1-1,1.8c-0.5-0.9-0.9-1.6-1.4-2.5c-1.2,0.6-2.5,1-3.6,1.8
	c-1.8,1.1-2.9,2.8-3.2,5c-0.2,0-0.3,0-0.5-0.1c-0.1-0.8-0.1-1.6-0.2-2.4c-0.1,0-0.2-0.1-0.3-0.1c-0.7,1.7-1.5,3.4-2.2,5l-0.3-0.1
	c-0.1-1.6-0.1-3.3,0.7-5c-2.2,1.2-2.9,3.7-2,6.7c0.3-0.2,0.5-0.5,0.8-0.7c0.1,0,0.2,0,0.3,0c-0.5,2.9,0.9,5.1,2.3,7.4
	c0.9-1.3,1-1.3,1.8,0c0.5,0.7,1,1.4,1.6,2.1c1.2-1.4,1.3-1.5,2.8-0.4c1.7,1.3,3.2,0.9,4.8-0.1c0.3-0.2,0.7-0.4,1-0.6
	c0.1,0.3,0.2,0.5,0.4,0.9c0.9-1,1.7-1.8,2.5-2.6c0.4,0.5,0.9,0.9,1.4,1.5c0.9-2.4,1.8-4.6,2.8-7.2c0.2,0.4,0.3,0.8,0.5,1.1
	c1.1-5.2,0.8-8.1-0.4-8.8c0.2,1.1,0.4,2.5,0.5,3.8c0,0.4-0.4,0.8-0.6,1.3c-0.1,0-0.2-0.1-0.3-0.1c-0.1,0.5-0.1,1-0.2,1.5
	c-0.1,0.3-0.2,0.8-0.4,0.9C275,330.1,274.8,331.3,274.2,332.7L274.2,332.7z M262.1,315.7c0,0.1,0.1,0.2,0.1,0.3
	c-0.3,0.3-0.5,0.8-0.8,1c-1.4,0.9-2.8,1.6-4.2,2.5c0.1,0.1,0.3,0.2,0.4,0.3c-0.1,0.4-0.1,0.9-0.3,1.2c-0.5,0.7-1,1.3-1.8,2.2
	c0.5-0.2,0.7-0.4,0.9-0.4c0.3-0.1,0.7-0.2,1-0.3c-0.1,0.4-0.1,0.7-0.2,1.1c-0.2,0.8-0.5,1.6-0.7,2.4c0.7-1,1.3-2,1.9-2.9
	c0.2-0.3,0.6-0.4,1-0.6c0.1,0.3,0.3,0.5,0.5,0.9c1.1-2.3,3.1-3.6,5.4-4.5c1.5-0.6,1.7-0.5,2.3,0.9c0.1,0.2,0.2,0.3,0.3,0.5
	c0.8-1.3,1.1-1.5,2.1-0.5c1.3,1.3,2.4,2.7,3.6,4.1c1.5-0.6,1.5,0.9,1.9,1.6c0.5,0.9,0.6,2,0.9,2.9l0.3-0.1c-0.3-1.1-0.7-2.3-1-3.5
	c-0.1-0.3,0-0.6,0.1-0.9c0.3,0.2,0.7,0.4,0.8,0.6c0.3,0.5,0.4,1.1,0.6,1.6c0.2,0,0.3-0.1,0.5-0.2c-0.3-1.1-0.6-2.2-0.9-3.4
	c-0.2-0.6-0.8-1.3,0.5-1.5c-1-1.9-2.6-3.2-4.5-4.2c-0.7-0.3-1.2-0.6-0.4-1.4c-0.5-0.6-2.3,0.7-1.8-1.2h-6.3
	C264.4,316.2,262.8,315.3,262.1,315.7L262.1,315.7z M273.8,332.3v-3.8h-14v3.8H273.8z M258.1,327.2c-0.1,1.6,0.3,2.9,1.2,3.4
	C259.5,328.9,259.1,327.7,258.1,327.2z M274.3,330.7c1.3-1.2,1.6-2.2,0.9-3.2C273.4,328.1,274.6,329.6,274.3,330.7z M261,316.5
	c-0.3-0.2-0.6-0.5-0.7-0.5c-0.7,0.5-1.3,1-1.9,1.5c0.1,0.1,0.2,0.2,0.2,0.3C259.4,317.5,260.1,317.1,261,316.5L261,316.5z
	 M272.7,316.4c0.8,0.5,1.6,0.9,2.5,1.4C274.5,316.1,273.9,315.8,272.7,316.4z"/>
<path d="M211.4,306.1h3.8c2.2,5.9,5.5,11.6,5.9,18.2c0.1,1.3-0.2,2.6-0.7,3.8c-0.3,0.8-1,1.8-2.3,1.4c-0.1,0-0.2,0-0.3,0.1
	c-3.5,1.4-6.6,0.1-9.4-1.6c-2.4-1.5-2.9-4.3-2.4-7C207,315.7,208.9,310.8,211.4,306.1L211.4,306.1z"/>
<path d="M208.8,303.7c0.5-2.5,1.4-3.3,3.4-3.2c1.3,0.1,2.6,0.3,3.9,0.6c0.6,0.2,1.1,0.8,1.5,1.1c-0.6,0.6-1,0.9-1.2,1.4
	c-0.6,1.3-1.6,1.8-2.9,1.9c-1.4,0.1-2.5-0.3-3.3-1.5C209.8,303.4,209.7,302.7,208.8,303.7L208.8,303.7z"/>
<path d="M216.3,296.8c-0.9,0.1-1.4,0.1-2.2,0.2c0.5-0.6,0.8-1,1.2-1.5C215.6,295.9,215.9,296.3,216.3,296.8L216.3,296.8z"/>
<path d="M212.3,296.5c-0.8,0.1-1.3,0.1-2.1,0.2c0.4-0.6,0.7-1,1-1.4C211.6,295.6,211.9,296,212.3,296.5L212.3,296.5z"/>
<path d="M265.2,393.3c1.5,0.1,1.8,0.5,1.8,2c0,0.6-0.1,1.1-0.2,1.7c-0.4,0.2-0.9,0.8-1.1,0.6c-0.4-0.2-0.8-0.7-1-1.2
	C264.4,395.4,264.5,394.3,265.2,393.3L265.2,393.3z"/>
<path d="M264.5,400.8c-0.5,0.9-1.3,1.3-2.3,0.7c-0.8-0.5-1.6-1.1-1-2.3c0.6-0.1,1.3-0.3,2-0.3C264.9,398.9,265.1,399.3,264.5,400.8z
	"/>
<path class="st0" d="M262.7,406.1c-1.2,0-1.5-0.3-1.5-1.5c0-1.1,0.8-1.9,1.9-1.9c0.9,0,2,1.1,1.8,2.1
	C264.7,405.9,263.9,406.2,262.7,406.1z M262.6,405.3c1.5,0,2.1-0.6,1.8-1.4c-0.3-0.6-2.3-0.7-2.6-0.2c-0.1,0.3-0.3,0.8-0.1,1
	C261.9,405,262.4,405.2,262.6,405.3L262.6,405.3z"/>
<path class="st0" d="M261.2,393.9c0,1.1,0.2,2.2,0,3.2c0,0.4-0.7,0.9-1.1,0.9c-0.4,0-1.1-0.5-1.1-0.8c-0.1-1.1-0.2-2.4,0.1-3.5
	C259.5,392.7,260.7,392.8,261.2,393.9c-1.1-0.9-1.9-0.6-2.2,0.8c-0.1,0.6-0.1,1.4,0.1,2c0.1,0.4,0.7,0.7,1,1.1
	c0.3-0.4,0.9-0.8,1-1.2C261.3,395.7,261.2,394.8,261.2,393.9L261.2,393.9z"/>
<path class="st0" d="M265.2,393.3c-0.7,1-0.8,2.1-0.5,3.2c0.1,0.5,0.5,1,1,1.2c0.2,0.1,0.7-0.4,1.1-0.6c-0.3,0.3-0.5,0.9-0.8,1
	c-0.3,0.1-0.8-0.2-1.1-0.5C263.9,396.5,264.2,394,265.2,393.3z"/>
<path class="st0" d="M264.5,400.8c0.7-1.5,0.4-1.9-1.3-1.8c-0.6,0-1.3,0.2-2,0.3c0.7-0.8,3.1-0.9,3.6-0.1
	C265.2,399.7,265.3,400.4,264.5,400.8L264.5,400.8z"/>
<path d="M273.3,401.2c-0.4,0.2-0.8,0.4-1,0.3c-1.4-0.6-2.8-1.3-4.3-2C269.9,399.6,271.6,399.9,273.3,401.2L273.3,401.2z"/>
<path d="M268.3,400.3c1.2,0.6,2.4,1.2,3.6,1.8C271.2,402.9,270.4,402.5,268.3,400.3z"/>
<path d="M257.4,399.9c-1.6,0.2-2.8,1.5-4.4,1.7c-0.1-0.2-0.1-0.4-0.2-0.6c1.5-0.5,3-1,4.4-1.5C257.3,399.6,257.3,399.7,257.4,399.9
	L257.4,399.9z"/>
<path d="M254,402.7c0.3-0.4,0.6-0.9,1-1.1c0.7-0.4,1.5-0.7,2.2-1.1c0.1,0.1,0.1,0.3,0.2,0.4C256.3,401.5,255.2,402.1,254,402.7
	L254,402.7L254,402.7z"/>
<path d="M274.2,332.7c0.6-1.3,0.9-2.5,2.3-3c0.2-0.1,0.4-0.6,0.4-0.9c0.1-0.5,0.1-1,0.2-1.5c0.1,0,0.2,0.1,0.3,0.1
	c0.2-0.4,0.6-0.9,0.6-1.3c-0.1-1.4-0.3-2.7-0.5-3.8c1.2,0.7,1.5,3.6,0.4,8.8c-0.1-0.4-0.3-0.7-0.5-1.1c-1,2.6-1.8,4.8-2.8,7.2
	c-0.5-0.5-1-1-1.4-1.5c-0.8,0.8-1.6,1.7-2.5,2.6c-0.2-0.5-0.3-0.7-0.4-0.9c-0.4,0.2-0.7,0.5-1,0.6c-1.6,0.9-3.1,1.4-4.8,0.1
	c-1.5-1.1-1.6-1-2.8,0.4c-0.5-0.7-1.1-1.4-1.6-2.1c-0.8-1.4-0.9-1.4-1.8,0c-1.4-2.3-2.8-4.5-2.3-7.4c-0.1,0-0.2,0-0.3,0
	c-0.3,0.2-0.5,0.5-0.8,0.7c-0.9-3-0.2-5.5,2-6.7c-0.8,1.7-0.8,3.3-0.7,5l0.3,0.1c0.7-1.7,1.5-3.4,2.2-5c0.1,0,0.2,0.1,0.3,0.1
	c0.1,0.8,0.1,1.6,0.2,2.4c0.2,0,0.3,0,0.5,0.1c0.3-2.2,1.4-3.9,3.2-5c1.1-0.7,2.5-1.2,3.6-1.8c0.5,0.9,0.9,1.6,1.4,2.5
	c0.4-0.7,0.6-1.2,1-1.8c2.1,1.4,3.6,3.2,4.4,5.8c0.3-0.5,0.5-0.8,0.9-1.3c0.5,0.9,0.9,1.6,1.4,2.5c-2.4,1.6-4.9,1.7-7.5,0.6
	c-0.9-0.4-2.1-0.5-3,0.3c-0.1,0.1-0.2,0.2-0.3,0.2c-1.6,0.9-5.4,0-6.4-1.5c-0.1-0.2-0.3-0.3-0.6-0.5c-0.4,1.9-0.1,3.4,0.7,4.9
	c0.3,0.6,0.6,1.2,1,1.7c0.2,0.2,0.7,0.4,1,0.4c3.1,0,6.3-0.1,9.4-0.2C271.3,332.7,272.8,332.7,274.2,332.7L274.2,332.7z
	 M262.7,324.4c0.1,0.9,0.2,1.7,0.4,2.4c0,0.2,1.1,0.2,1.1,0.1c0.3-0.6,0.5-1.3,0.7-2C264.2,324.7,263.6,324.6,262.7,324.4
	L262.7,324.4z M269.2,324.4c-0.1,0.7-0.1,1.1-0.2,1.5c-0.1,1,1.3,1.7,1.7,0.8c0.3-0.6,0.4-1.4,0.1-2
	C270.8,324.4,269.8,324.5,269.2,324.4L269.2,324.4z"/>
<path d="M262.1,315.7c0.7-0.4,2.3,0.5,2.2-1.2h6.3c-0.5,1.9,1.3,0.5,1.8,1.2c-0.8,0.7-0.2,1,0.4,1.4c1.9,0.9,3.5,2.2,4.5,4.2
	c-1.2,0.2-0.7,0.8-0.5,1.5c0.4,1.1,0.6,2.2,0.9,3.4c-0.2,0-0.3,0.1-0.5,0.2c-0.2-0.5-0.4-1.1-0.6-1.6c-0.1-0.3-0.5-0.4-0.8-0.6
	c0,0.3-0.2,0.6-0.1,0.9c0.3,1.2,0.6,2.3,1,3.5l-0.3,0.1c-0.3-1-0.4-2-0.9-2.9c-0.4-0.7-0.4-2.3-1.9-1.6c-1.2-1.4-2.3-2.8-3.6-4.1
	c-1-1-1.4-0.8-2.1,0.5c-0.1-0.2-0.2-0.3-0.3-0.5c-0.6-1.5-0.8-1.5-2.3-0.9c-2.3,0.9-4.2,2.2-5.4,4.5c-0.2-0.3-0.3-0.6-0.5-0.9
	c-0.3,0.2-0.8,0.3-1,0.6c-0.6,0.9-1.2,1.9-1.9,2.9c0.2-0.8,0.5-1.6,0.7-2.4c0.1-0.4,0.1-0.7,0.2-1.1c-0.4,0.1-0.7,0.2-1,0.3
	c-0.2,0.1-0.4,0.2-0.9,0.4c0.8-0.9,1.3-1.5,1.8-2.2c0.2-0.3,0.2-0.8,0.3-1.2c-0.1-0.1-0.3-0.2-0.4-0.3c1.4-0.8,2.8-1.6,4.2-2.5
	c0.3-0.2,0.5-0.7,0.8-1C262.2,315.9,262.2,315.8,262.1,315.7L262.1,315.7z"/>
<path d="M273.8,332.3h-14v-3.8h14V332.3z M266.4,330.8c-0.2-0.2-0.4-0.4-0.6-0.7c-0.1-0.2-0.1-0.7-0.3-0.7c-0.3-0.1-0.7,0-1,0.2
	c-0.4,0.2-0.3,1.7,0.1,2C265.7,332.2,265.9,331.2,266.4,330.8c0.1,0.2,0.2,0.5,0.3,0.8c0.1,0,0.2,0,0.3-0.1c0.1-0.4,0.1-0.8,0.2-1
	c0.2,0.4,0.4,0.9,0.7,1c0.9,0.2,1.3-0.3,1.1-1.2c0.5,0.1,0.9,0.2,1.3,0.3c-0.1,0.3-0.3,0.6-0.4,0.9l0.1,0.1c0.2-0.2,0.4-0.4,0.4-0.4
	c0.5,0.1,1.1,0.4,1.2,0.3c0.9-1-0.1-0.9-0.7-1.1c0.1-0.4,0.2-0.7,0.2-0.8h-4.8C266.4,329.9,266.4,330.3,266.4,330.8L266.4,330.8z
	 M264.2,331.4c-0.2-0.7-0.3-1.3-0.7-1.8c-0.2-0.2-1.1-0.2-1.2,0c-0.3,0.4-0.4,1-0.3,1.5c0,0.2,0.9,0.2,1.3,0.3
	C263.6,331.5,263.8,331.4,264.2,331.4L264.2,331.4z"/>
<path d="M258.1,327.2c0.9,0.6,1.3,1.7,1.2,3.4C258.5,330,258,328.8,258.1,327.2z"/>
<path d="M274.4,330.7c0.3-1.2-0.9-2.6,0.9-3.2C275.9,328.5,275.6,329.5,274.4,330.7z"/>
<path d="M261,316.5c-0.9,0.5-1.6,0.9-2.4,1.4c-0.1-0.1-0.2-0.2-0.2-0.3c0.6-0.5,1.3-1,1.9-1.5C260.4,316,260.8,316.4,261,316.5
	L261,316.5z"/>
<path d="M272.7,316.4c1.2-0.6,1.8-0.3,2.5,1.4C274.3,317.3,273.5,316.9,272.7,316.4z"/>
<path d="M262.6,405.3c-0.2-0.1-0.7-0.3-1-0.6c-0.1-0.1,0-0.7,0.1-1c0.3-0.6,2.4-0.4,2.6,0.2C264.7,404.7,264.1,405.3,262.6,405.3
	L262.6,405.3z"/>
<path d="M261.2,393.9c0,0.9,0.1,1.8-0.1,2.7c-0.1,0.4-0.6,0.8-1,1.2c-0.4-0.4-0.9-0.7-1-1.1c-0.2-0.6-0.2-1.4-0.1-2
	C259.3,393.2,260.1,393,261.2,393.9L261.2,393.9L261.2,393.9z"/>
<path class="st0" d="M262.7,324.4c0.9,0.2,1.5,0.3,2.3,0.5c-0.2,0.7-0.4,1.4-0.7,2c-0.1,0.2-1.1,0.1-1.1-0.1
	C262.9,326.1,262.9,325.3,262.7,324.4L262.7,324.4z M263.1,325.1c0.3,0.6,0.5,1,0.6,1.5c0.2-0.1,0.5-0.2,0.6-0.4
	C264.5,325.4,264.2,325.1,263.1,325.1L263.1,325.1z"/>
<path class="st0" d="M269.2,324.4c0.6,0.1,1.6,0.1,1.7,0.4c0.2,0.6,0.2,1.4-0.1,2c-0.4,0.8-1.8,0.1-1.7-0.8
	C269,325.5,269.1,325,269.2,324.4L269.2,324.4z M270.8,324.8c-0.7,0.1-1.1,0.2-1.8,0.4c0.5,0.6,0.8,1,1.2,1.5
	C270.4,326.1,270.5,325.6,270.8,324.8L270.8,324.8z"/>
<path class="st0" d="M266.4,330.7c0-0.5,0.1-0.9,0.1-1.2h4.8c0,0.1-0.1,0.4-0.2,0.8c0.5,0.2,1.6,0.2,0.7,1.1
	c-0.1,0.1-0.7-0.1-1.2-0.3c0,0-0.2,0.2-0.4,0.4l-0.1-0.1c0.1-0.3,0.3-0.6,0.4-0.9c-0.4-0.1-0.8-0.2-1.3-0.3c0.1,0.9-0.3,1.4-1.1,1.2
	c-0.3-0.1-0.5-0.6-0.7-1c0,0.2-0.1,0.6-0.2,1c-0.1,0-0.2,0-0.3,0.1C266.6,331.2,266.5,331,266.4,330.7L266.4,330.7L266.4,330.7z"/>
<path class="st0" d="M266.4,330.7c-0.5,0.5-0.7,1.5-1.7,0.7c-0.4-0.3-0.5-1.7-0.1-2c0.3-0.2,0.6-0.2,1-0.2c0.1,0,0.1,0.5,0.3,0.7
	C266,330.3,266.2,330.5,266.4,330.7L266.4,330.7z"/>
<path class="st0" d="M264.2,331.4c-0.4,0-0.6,0.1-0.8,0c-0.5-0.1-1.3-0.1-1.3-0.3c-0.1-0.5,0-1.1,0.3-1.5c0.1-0.2,1-0.2,1.2,0
	C263.8,330,263.9,330.7,264.2,331.4L264.2,331.4z"/>
<path d="M263.1,325.1c1.1,0,1.4,0.3,1.2,1c0,0.2-0.4,0.3-0.6,0.4C263.6,326.1,263.4,325.7,263.1,325.1L263.1,325.1z"/>
<path d="M270.8,324.8c-0.3,0.8-0.4,1.3-0.6,1.8c-0.3-0.4-0.7-0.9-1.2-1.5C269.8,325,270.1,324.9,270.8,324.8L270.8,324.8z"/>
</svg>
