<?xml version="1.0" encoding="utf-8"?>
<!-- Generator: Adobe Illustrator 27.0.0, SVG Export Plug-In . SVG Version: 6.00 Build 0)  -->
<svg version="1.1" id="Camada_1" xmlns="http://www.w3.org/2000/svg" xmlns:xlink="http://www.w3.org/1999/xlink" x="0px" y="0px"
	 viewBox="0 0 480 480" style="enable-background:new 0 0 480 480;" xml:space="preserve">
<style type="text/css">
	.st0{fill:#FFFFFF;}
</style>
<path d="M359.1,248.8c-0.1-0.6-0.1-1.1-0.2-1.5c-0.1,0-0.2,0-0.2,0c0,0.3-0.1,0.6-0.1,0.9c0.1,3.9,0.3,7.8,0.4,11.7
	c0.1,3,0.1,6,0.1,9c0,0.8-0.5,1.6-0.4,2.4c0.2,2.8,0.4,5.6,0.7,8.4c0.2,1.7,0.3,3.4,0.8,5c0.8,2.5,0.2,5,0.4,7.5
	c0.2,1.6,0.5,3.3,0.7,4.9c0,0.3,0,0.6,0,0.8c0.1,2.5-0.2,5.1,0.3,7.5c0.6,2.8,0.1,5.5,0.4,8.1c0.2,2,0.5,4.1,0.7,6.1
	c0.1,0.9,0,1.8,0,2.6c0.1,1.2,0.4,2.5,0.6,3.7c0,0.3,0.1,0.6,0.1,1c0.2,3.8,0.5,7.7,0.7,11.5c0.1,1.2,0.8,2.3,0.6,3.7
	c-0.2,1.5,0.2,3,0.4,4.6c0.2,1.7,0.6,3.4,0.4,5.1c-0.2,2.3,1,4.3,0.8,6.5c-0.1,1.2-0.3,2.7,0.2,3.7c1,2.2,0.1,4.5,0.7,6.7
	c0.5,1.9,0.1,4,0.4,6c0.1,1.1,0.6,2.2,0.9,3.3c0.1,0.3,0.2,0.8,0,1.1c-0.4,1.1-0.1,2.1,0,3.2c0.2,1.3,0.6,2.6-0.2,3.9
	c-0.1,0.2-0.1,0.6,0,0.7c1.4,1.5,1.2,3.3,0.9,5.1c-0.1,0.5,0,1,0.4,1.5c0.8,1.1,0.5,2.3,0,3.5c-0.2,0.5-0.2,1.3,0.1,1.6
	c1.2,1.3,1.1,2.7,0.8,4.2c-0.1,0.8-0.4,1.5-0.6,2.6c0.6-0.4,0.8-0.6,1.1-0.8c0.1,0.1,0.2,0.1,0.2,0.2c0.6,1.1,0.1,2-0.2,3.1
	c-0.2,0.8-0.2,1.7-0.3,2.5c0.1,0,0.2,0,0.4,0c0.1-0.7,0.2-1.3,0.4-2c0.1,0,0.2,0,0.3,0.1c1,2.8-0.6,5.5-0.6,8.3
	c0.4-0.2,0.8-0.4,1.1-0.6c0.1,0.1,0.3,0.1,0.4,0.2c-0.2,1-0.5,2.1-0.6,3.1c-0.1,0.7,0,1.4,0,2.1c1.2,0.5,1.6,1.8,1,3.6
	c-0.3,1.1-1,2.1-0.2,3.2c0.3-0.1,0.6-0.3,0.9-0.4l0.4,0.2c-0.2,0.7-0.5,1.4-0.6,2.2c-0.1,0.8-0.2,1.6-0.2,2.4c0,1.6,0.2,3.2-0.2,4.7
	c-0.3,1.1-1.2,2.1-2,3c-0.7,0.7-1.6,1.2-2.7,1.9c-0.1-1-0.4-1.3,0.5-1.7c1-0.5,1.7-1.6,2.6-2.6c-1.3-0.6-1.7,0.3-2.3,0.8
	c-0.2,0.2-0.5,0.4-0.7,0.4c-1.1-0.2-1.6,0.5-2.2,1.1c-0.1,0.2-0.4,0.3-0.6,0.3c-1.1-0.1-1.7,0.4-2.3,1.2c-0.1,0.2-0.5,0.2-0.7,0.2
	c-0.7,0-1.3-0.1-1.7,0.7c-0.4,0.7-1.1,0.8-1.9,0.8c-0.5,0-0.9,0.6-1.3,0.9c0,0,0.2,0.4,0.2,0.4c1.2,0,0.9,1,1.1,1.7
	c-0.3-0.1-0.7-0.1-0.9-0.3c-0.6-0.4-1.1-0.5-1.6,0.2c-0.1,0.1-0.2,0.2-0.3,0.2c-0.8,0.2-1.7,0.5-2.5,0.7c-1.6,0.3-3.2,0.6-4.9,0.9
	c0,0.3,0.1,0.6,0.1,1.1c-1-0.2-1.9-0.4-2.9-0.6c0.1,0.5,0.3,0.8,0.2,1c-0.1,0.2-0.5,0.5-0.6,0.5c-1.5-0.5-1.5-0.6-2.8-0.3
	c-0.2,0.4-0.3,0.8-0.5,1c-0.1,0.1-0.6-0.2-0.9-0.3c-0.5-0.1-1-0.3-1.7-0.4v1.7c-1.2-0.7-2.4-1.3-3.5-0.5c-0.2,0.4-0.2,1-0.4,1
	c-0.5,0.1-1,0-1.5-0.1c-0.6-0.1-1.3-0.4-2.1-0.6c0.1,0.7,0.2,1.1,0.3,1.4c-0.1,0.1-0.1,0.2-0.2,0.4c-0.6-0.2-1.2-0.4-1.7-0.7
	c-0.8-0.5-2.2-0.1-2.5,0.7c-0.1,0.2-0.5,0.5-0.8,0.5c-0.5,0-1.1-0.1-1.6-0.3c-1.5-0.7-1.9-0.5-2,1.3c-0.7-0.2-1.4-0.4-1.9-0.7
	c-0.9-0.5-2.9,0.1-3.2,1.4c-0.9-0.2-1.7-0.4-2.6-0.6c-0.8-0.1-1.6-0.1-2.3-0.1c0.1,0.5,0.2,0.8,0.4,1.4c-2-0.2-3.9-0.5-5.8-0.7
	c0,0.5-0.1,0.9-0.1,1.4c-2.3-0.2-4.5-0.5-6.8-0.7c0.5,1.1,0.3,1.5-0.8,1.5c-0.5,0-1,0-1.4-0.2c-1.1-0.8-2.3-0.4-3.5-0.4
	c-0.3,0-0.8,0.2-0.9,0.4c-0.3,1.1-0.9,0.9-1.8,0.8c-2.1-0.3-4.2-0.4-6.4-0.5c-0.6,0-1.4-0.2-1.3,0.9c0,0.1-0.2,0.3-0.4,0.3
	c-1.3,0.3-2.5,0.4-3.7-0.1c-0.6-0.3-1.3-0.3-1.9-0.3c-1.3,0-2.6,0.2-4,0.3c0.2,0.3,0.3,0.6,0.5,0.8c-0.3,0.2-0.6,0.4-0.9,0.4
	c-0.5,0-0.9-0.2-1.4-0.2c-0.6,0-1.2,0-1.8,0c-1.2,0-2.5,0.1-3.7,0c-3.1-0.2-6.2-0.4-9.2-0.6c0.2,0.5,0.5,1,0.4,1.1
	c-0.1,0.2-0.6,0.4-1,0.4c-2.6,0-5.1-0.3-7.6-0.2c-2.3,0.1-4.6-0.2-6.9-0.4c-2.7-0.3-5.4,0-8.1,0.2c-3.1,0.1-6.1,0.4-9.1,0.5
	c-2.6,0-5.3-0.2-7.9-0.2c-1.2,0-2.4,0.1-3.6,0.2c-0.2,0-0.5-0.1-0.7-0.2c-1-0.5-2-0.6-3.1-0.5c-2.4,0.2-4.9,0-7.3,0
	c-3.2,0-6.4-0.1-9.5-0.2c-1.2,0-2.3,0.1-3.5,0c-1.4-0.1-2.7-0.5-4.1-0.7c-0.9-0.1-1.9,0.1-2.9,0c-2.5-0.2-5-0.4-7.5-0.7
	c-1.7-0.2-3.4-0.5-5.1-0.7c-2.3-0.3-4.6-0.9-6.9-0.8c-1.6,0.1-2.9-0.9-4.4-0.6c0,0-0.1,0-0.1,0c-2.3-0.2-4.6-0.3-6.9-0.7
	c-2.3-0.4-4.5-1-6.8-1.5c-0.3-0.1-0.7,0-1-0.1c-0.5,0-0.9-0.1-1.4-0.2c-0.1,0-0.3-0.1-0.4-0.1c-2-0.3-4-0.6-5.9-1
	c-0.8-0.1-1.6-0.5-2.4-0.7c-1.4-0.3-2.8-0.4-4.1-0.8c-1.4-0.3-2.7-0.9-4.1-1.3c-1.3-0.4-2.6-0.5-3.9-0.9c-1.3-0.4-2.5-0.9-3.8-1.3
	c-0.9-0.3-1.8-0.5-2.8-0.9c-1.2-0.4-2.4-0.8-3.7-1.3c-0.8-0.3-1.7-0.6-2.6-0.9c-2.8-0.7-5.2-2.2-6.9-4.4c-0.6-0.8-1.6-1.8-1.5-3.1
	c0-0.3-0.4-0.7-0.4-1.1c0-0.9,0-1.8,0.1-2.8c0-0.2,0.1-0.4,0.2-0.7c0.3-1.8,0.7-3.6,0.9-5.5c0.3-2.5,0.3-5,0.8-7.5
	c0.4-1.8,0.6-3.6,0.7-5.5c0.1-1.3,0.5-2.5,0.7-3.8c0.3-2,0.2-4.2,0.8-6.1c0.5-1.4,0.2-2.9,0.7-4.2c0.7-1.8,0.3-3.7,0.7-5.4
	c0.4-1.6,0.3-3.2,0.7-4.7c0.5-1.7,0.5-3.4,0.7-5c0.1-0.8,0.3-2,1.9-1.4c0-0.7,0.1-1.2,0-1.8c-0.2-1.2-0.6-2.4-0.7-3.5
	c0-0.7,0.3-1.7,0.8-2c1.1-0.7,0.7-1.5,0.4-2.1c-0.6-1.5-0.5-2.8,0.4-4c0.1-0.2,0.1-0.5,0.1-0.8c-0.1-1.7-0.3-3.5-0.4-5.2
	c0.2-0.1,0.3-0.1,0.5-0.2c0.2,0.4,0.5,0.7,0.7,1.1c0.1,0,0.2,0,0.3,0c-0.1-0.7,0-1.4-0.2-2c-0.5-1.3-0.7-2.5-0.1-3.9
	c0.3,0.3,0.6,0.6,1.1,1.1c-0.2-0.9-0.3-1.5-0.6-2c-0.4-1-0.4-2.5,0.2-2.9c0.8-0.5,0.8-1.1,0.9-1.8c0-0.3,0-0.6-0.2-0.9
	c-0.6-1.1-0.2-2,0.5-2.9c0.2-0.2,0.3-0.6,0.3-0.8c-0.1-1.3-0.4-2.6-0.5-3.8c-0.1-0.5,0.1-1.1,0.2-1.6c0-0.1,0.3-0.3,0.4-0.3
	c0.3,0,0.5,0.1,0.8,0.2c-0.1,0.1-0.2,0.2-0.2,0.4c0-0.4,0.2-0.9,0-1.2c-0.6-1.4-0.3-2.7,0.3-4c0.2-0.5,0.2-1.2-0.1-1.7
	c-0.6-1.3,0.1-2.2,0.6-3.1c0.4-0.7,0.6-1.2,0.2-2c-0.5-1.1-0.6-2.5,0.7-3V323c0.4,0.1,0.6,0.2,1,0.4c-0.2-1.3-0.4-2.4-0.5-3.5
	c-0.1-1.1,0.1-2.1,0.7-3.2c0.5-0.8,0.1-2,0.2-3c0.1-1.2,0.2-2.4,0.3-3.5c0.2-1.3,0.3-2.6-0.2-3.9c-0.4-1-0.1-2.3-0.1-3.5
	c-0.1-1.3-0.1-2.5-0.2-3.8c-0.1-1.3-0.1-2.6-0.3-3.8c-0.3-1.7,0.3-3.3,0.6-4.9c0.2-0.9-0.1-2-0.1-2.9c0-0.8,0.3-1.5,0.4-2.3
	c0.1-0.6,0.3-1.2,0.2-1.7c-0.1-1.2,0.2-2.3,0.8-3.3c0.1-0.2,0.2-0.4,0.1-0.6c-0.3-1.6-0.1-3.2,0.2-4.8c0.4-2.7,0.3-5.4,0.3-8.1
	c0-1.7,0.2-3.4-0.3-5c-0.7-2.2-0.3-4.4-0.4-6.6c-0.1-1.5-0.2-2.9-0.7-4.3c-0.3-0.9,0-1.9-0.1-2.9c-0.1-0.6-0.3-1.3-0.5-1.9
	c-0.1-0.4-0.2-0.7-0.2-1.1c-0.3-2.3-0.6-4.6-1-6.8c-0.2-1.2-0.4-2.4-0.7-3.6c-0.4-1.8-0.7-3.7-1.2-5.5c-0.6-2.1-1.4-4.1-2.1-6.2
	c-0.3-1.1-0.5-2.2-0.8-3.3c-0.2-0.7-0.3-1.6-0.8-2c-0.9-0.8-0.2-2.3-1.4-3c-0.4-0.2-0.5-1.2-0.6-1.9c-0.3-1.8-1.2-3.4-2.1-4.9
	c-0.2-0.3-0.2-0.8-0.3-1.4c-0.4,0.5-0.7,0.8-1,1.2c-0.1-0.4-0.2-0.6-0.1-0.7c1.2-0.9,0.1-1.8-0.1-2.6c0-0.2-0.2-0.4-0.3-0.4
	c-0.2,0-0.4,0.2-0.6,0.3c-0.1,0.1-0.2,0.4-0.4,0.7c-0.2-0.4-0.4-0.7-0.6-1.1c-0.6,0.8-1.1,1.6-1.6,2.4c-0.7,1-1.3,2.1-2,3.2
	c-1.1,1.8-2.2,3.7-3.4,5.5c-0.5,0.8-1.5,1.3-1.5,2.4c0,0.2-0.7,0.3-0.8,0.6c-0.3,0.5-1.1,1.1,0.1,1.5c0.1,0,0,0.6-0.1,0.8
	c-0.3-0.2-0.5-0.4-0.9-0.7c-1,2-2.7,3.6-3.1,6.1c-0.3,1.7-1.2,3.2-1.9,4.8c-0.1,0.4-0.4,0.8-0.3,1.1c0.1,1.1-0.6,1.3-1.3,1.4
	c-1.4,0.2-2.9,0.5-4.2,0.2c-1.8-0.5-3.5-0.6-5.3-0.7c-0.5,0-0.9-0.4-1.3-0.8c-1.7-1.4-1.7-1.4-3.5,0c-0.1,0.1-0.2,0.1-0.4,0.1
	c-0.4-1.1-1.3-0.9-2.2-1c-1.8-0.2-3.5-0.6-5.2-0.9c-1.4-0.3-2.8-0.6-4.2-0.9c-1-0.2-1.9-0.6-2.8-0.9c-0.6-0.2-1.3-0.3-1.9-0.6
	c-1-0.4-2-0.8-3-1.2c-0.2-0.1-0.3-0.4-0.5-0.3c-1.5,0.3-2.5-0.7-3.7-1.2c-1.8-0.7-3.7-1.3-5.3-2.1c-1-0.5-2-1-3-1.5
	c-1-0.5-2.1-0.9-3.1-1.5c-2.3-1.4-4.7-2.8-7-4.1c-1.3-0.8-2.7-1.5-4-2.3c-2-1.2-4-2.3-5.9-3.7c-1.6-1.2-3-2.9-4.5-4.3
	c-0.4-0.3-0.8-0.6-1.2-0.9c-0.5-2.2,0.2-4.3,0.9-6.4c0.2-0.5,0.4-1-0.3-1.4c-0.1-0.1,0-0.5-0.1-0.8c0.3,0.1,0.5,0.2,1,0.4
	c0.5-1.1,1.1-2.4,1.7-3.7c0.5-1.2,0.7-2.7,1.6-3.5c0.7-0.6,0.6-1.2,0.9-1.9c0.5-1.4,1.2-2.7,1.8-4c0.5-1.1,0.9-2.3,1.3-3.4
	c0.2-0.5,0.6-1,0.7-1.5c0.1-0.4,0-0.9-0.2-1.2c-0.5-0.7-0.5-1.1,0.3-1.8c0.1,0.5,0.1,1,0.2,1.4c0.5-0.1,0.3-0.2,1.5-2.5
	c0.5-1,0.5-1.8,0.1-2.8c0.1,0,0.2,0,0.4,0c0.1,0.3,0.2,0.6,0.4,1.1c0.5-1.2,0.8-2.1,1.2-3c0.6-1.3,1.2-2.6,1.8-4
	c0.2-0.5,0.3-1.3,0-1.8c-0.3-0.8-0.5-0.7,0.2-1.4c0.1,0.5,0.1,1,0.2,1.5c0.1,0,0.1,0,0.2,0c0.4-0.9,0.7-1.8,1.1-2.6
	c0.2-0.4,0.7-0.8,0.8-1.2c0.4-2.3,1.7-4.1,2.6-6.2c0.7-1.6,1.5-3.2,2.1-4.9c0.2-0.7-0.1-1.6-0.2-2.6c0.2,0.4,0.4,0.6,0.7,1
	c0.4-0.6,0.8-1.3,1.2-2.1c0.4-0.9,0.8-1.9,1.2-2.8c0.2-0.5,0.5-0.9-0.2-1.4c-0.6-0.5-0.5-1.2,0.3-1.9c0.1,0.6,0.1,1.1,0.2,1.6
	c0.2-0.2,0.5-0.3,0.6-0.4c0.4-0.9,0.9-1.8,1.2-2.7c0.2-0.7,0.4-1.5,0.9-2.1c0.2-0.2-0.1-0.7-0.2-1.1s-0.3-0.7-0.5-1
	c0.1-0.1,0.2-0.1,0.3-0.2c0.2,0.3,0.5,0.6,0.8,1c0.4-0.8,0.8-1.5,1.1-2.3c0.4-0.8,0.7-1.6,1.1-2.4c0.3-0.6,0.7-1.1-0.2-1.7
	c-0.5-0.4-0.4-1.2,0.4-1.7c0.1,0.6,0.1,1,0.2,1.7c0.4-0.3,0.8-0.4,0.8-0.7c0.4-1.3,0.7-2.6,1.1-3.8c0-0.1,0.2-0.1,0.3-0.2
	c0.5-0.5,0.8-1,0.1-1.7c-0.2-0.2-0.3-0.6-0.4-1c0.1-0.1,0.2-0.1,0.3-0.1c0.2,0.3,0.5,0.6,0.8,0.9c0.4-0.6,0.8-1.2,1.2-1.9
	c0.3-0.6,0.5-1.3,0.7-2c0.3-0.9,1.3-1.7,0.1-2.7c-0.2-0.1,0.1-0.9,0.2-1.3c0.1,0,0.2,0,0.4,0.1c0,0.4,0.1,0.9,0.2,1.6
	c0.3-0.3,0.5-0.5,0.6-0.7c0.4-0.8,0.8-1.6,1.1-2.5c0.3-0.7,0.3-1.6,1-2.2c0.1-0.1-0.1-0.7-0.2-1c-0.1-0.3-0.3-0.6-0.5-0.9
	c0.1-0.1,0.2-0.1,0.3-0.2c0.2,0.3,0.5,0.5,0.8,0.8c0.4-0.6,0.8-1.3,1.1-2c0.4-0.8,0.7-1.7,1.1-2.5c0.3-0.6,0.7-1.1-0.1-1.7
	c-0.5-0.4-0.5-1.2,0.4-1.7c0.1,0.6,0.1,1,0.2,1.5l0.3,0.1c0.3-1.9,2.5-3.1,1.2-5.5c0.1,0,0.2,0,0.4,0c0.1,0.3,0.2,0.5,0.4,0.8
	c1.5-1-0.6-1.8,0-2.8c0.3,0.3,0.5,0.6,0.9,1.1c5.6-13.8,14.2-24.9,27.6-32.3c-0.6-0.1-0.8-0.1-0.9-0.2c-0.2-0.1-0.2-0.4-0.4-0.5
	c0.2,0,0.5-0.1,0.6,0c0.7,0.7,1.3,1,2.2,0c0.4-0.5,1.4-0.5,2.1-0.8c2.1-0.8,4.2-1.6,6.3-2.4c1.3-0.5,2.5-1.3,3.8-1.8
	c1.4-0.6,2.8-1,4.2-1.6c1.4-0.6,2.7-1.4,4.1-2c1.9-0.8,3.9-1.5,5.9-2.3c0.5-0.2,1-0.5,1.5-0.7c1.4-0.7,2.9-1.4,4.3-2
	c1.4-0.6,2.8-1,4.2-1.6c1.8-0.8,3.5-1.6,5.3-2.4c1.5-0.7,3.1-1.2,4.7-1.9c1.8-0.8,3.6-1.7,5.4-2.5c0.7-0.3,1.4-0.7,2.1-1
	c1.9-0.8,3.9-1.5,5.8-2.3c1.4-0.6,2.6-1.6,4-1.9c2.1-0.5,3.8-1.8,5.8-2.4c2-0.6,3.8-1.8,5.7-2.6c1.4-0.6,2.8-1,4.2-1.5
	c1.8-0.8,3.5-1.6,5.3-2.4c1.5-0.6,3-1.2,4.5-1.9c0.8-0.4,1.6-0.8,2.4-1.2c0.2-0.1,0.4-0.1,0.6-0.2c0.9-0.4,1.8-0.9,2.7-1.1
	c1.8-0.6,3.2-2.4,5.2-1.9c0.5,1.1,0.9,2.1,1.4,3.1c0.1,0,0.2-0.1,0.3-0.1c0.1-0.5,0.1-0.9,0.2-1.4c1.1,0.5,0.5,1.3,0.2,1.6
	c-0.5,0.6-0.3,0.8,0.1,1.3c0.4,0.5,0.7,1.1,1,1.6c0.5,0.9,0.8,2,1.3,2.9c0.4,0.7,1.1,1.2,1.7,1.9c-0.5,0.5,0.1,0.7,0.6,1.2
	c1.9,2.2,3.5,4.7,5.5,6.7c2.1,2.1,4.4,4,6.8,5.7c1.7,1.2,3.8,2.1,5.7,3.1c2,1,4,1.9,6,2.7c0.9,0.4,1.9,0.6,2.9,0.8
	c1.5,0.3,3.1,0.3,4.4,0.8c1.6,0.6,3.2,0.3,4.7,0.7c2.2,0.6,4.5,0.7,6.8,0.6c2.5-0.1,5.1-0.3,7.5-0.7c1.7-0.3,3.3-0.9,4.9-1.4
	c1.2-0.3,2.5-0.4,3.7-0.8c1-0.3,2-0.9,3.1-1.3c1.3-0.4,2.7-0.8,3.9-1.1c0.9-0.7,1.6-1.4,2.4-1.9c1.4-1,2.8-2,4.3-2.8
	c2.4-1.4,4.4-3.4,6.2-5.3c1.5-1.6,2.8-3.3,4.2-5c0.4-0.5,1-0.9,1.5-1.3c0.1-0.1,0.2-0.4,0.2-0.6c0.1-0.4,0.3-0.7,0.4-1
	c1.2-2.1,2.5-4.2,3.5-6.4c0.6-1.2,1-2.6,1.5-3.9c0.2-0.5,1.4-0.6,2.1-0.2c1.3,0.7,2.7,1.4,4.1,2c0.4,0.2,0.9,0.3,1.3,0.6
	c1.2,0.9,2.6,1.2,3.9,1.7c1,0.4,2,1.1,3,1.6c1.5,0.9,3,1.7,4.5,2.6c1.4,0.8,2.8,1.7,4.2,2.5c1.1,0.6,2.3,1.2,3.4,1.9
	c1,0.6,1.9,1.2,2.9,1.8c0.5,0.3,1.1,0.6,1.6,0.9c1.3,0.7,2.5,1.3,3.8,2c0.6,0.3,1.2,0.6,2.1,1c0.1,0,0.5,0.2,0.9,0.4
	c0.7,0.3,1.5,0.6,2.2,0.8c1,0.3,2,0.6,3,0.9c0.7,0.2,1.3,0.5,1.9,0.7c1.6,0.6,3.2,1.3,4.9,1.9c0.9,0.3,1.8,0.5,2.7,0.8
	c1.1,0.3,2.3,0.6,3.4,1c0.6,0.2,1.3,0.5,1.9,0.7c1.5,0.6,3,1.3,4.5,1.9c1.8,0.6,3.6,1.1,5.4,1.7c0.8,0.3,1.5,0.7,2.2,1.1
	c0.2,0.1,0.4,0.3,0.6,0.3c2.6,0.6,5.1,1.6,7.5,2.6c1,0.4,2,0.6,3,1c0.9,0.3,1.8,0.8,2.7,1.2c0.7,0.3,1.4,0.6,2.1,0.8
	c1.7,0.5,3.4,1,5.1,1.6c1.5,0.5,2.8,1.3,4.2,1.9c1.2,0.5,2.4,1,3.6,1.5c3.8,1.7,7.4,3.8,10.6,6.6c2,1.8,4.2,3.3,6,5.2
	c1.8,1.8,3.2,3.9,4.7,5.9c1.1,1.5,2.1,3,3.3,4.9c0.1-0.7,0.1-1.1,0.2-1.5c1.5,1,1.5,1,0.7,2.6c-0.1,0.2-0.1,0.5,0,0.7
	c1,1.8,1.9,3.6,2.9,5.3c0.9,1.5,1.5,3.1,2.1,4.7c0.8,1.9,1.9,3.7,2.8,5.6c0.4,0.8,0.5,1.6,0.8,2.4c0.1,0.3,0.5,0.5,0.9,0.8
	c-0.9,1.1,0.7,1.9,0.8,3.1c0.1,0.9,0.9,1.5,1,2.5c0,0.9,0.8,1.7,1.3,2.6c0.4,0.7,0.6,1.5,1,2.2c0.5,0.9,1,1.7,1.4,2.6
	c0.3,0.7,0.6,1.4,0.7,2.1c0.1,0.7,1.2,1.2,0.5,2.1c1.4,0.9,1.3,2.7,2,4c0.4,0.7,0.5,1.6,0.8,2.3c0.1,0.3,0.4,0.6,0.8,1.1
	c4.4,10,8.9,20.2,13.4,30.5c0.3-0.4,0.6-0.7,0.9-1c0.1,0.1,0.2,0.1,0.3,0.2c-0.2,0.3-0.4,0.7-0.5,1c-0.1,0.3-0.3,0.9-0.2,1.1
	c1.1,1.1,0.9,2.7,1.9,3.9c0.9,1.1,1.1,2.7,1.6,4c0.4,0.8,1.2,1.6,1.2,2.4c0.2,2.2,2.1,3.7,2.1,5.9c0,0.3,0.5,0.6,0.8,1
	c0.8,2,1.7,4.2,2.7,6.7c0.2-0.5,0.3-0.7,0.4-1c0.1,0,0.2,0,0.4-0.1c-1.2,2.4,0.8,3.6,1.5,5.4c0-0.4,0.1-0.9,0.2-1.5
	c0.8,0.5,0.8,1.1,0.4,1.8c-0.2,0.4-0.4,0.9-0.2,1.3c0.6,1.5,1.3,3,2.1,4.5c0.1,0.2,0.5,0.3,0.6,0.4c0.1,0.6,0.2,1.2,0.4,1.8
	c1.3,3.7,0.6,7-2.3,9.8c-2,2-3.9,4.3-6.2,5.9c-1.7,1.2-3.6,2.2-5.4,3.3c-1.8,1.1-3.5,2.2-5.3,3.1c-0.6,0.3-1.4,0.4-1.9,0.5
	c-0.5,0.4-1.1,0.6-1.4,1c-1.5,1.5-3.5,2-5.3,2.9c-0.8,0.4-1.7,0.7-2.5,1.1c-1.5,0.7-3.1,1.4-4.6,2c-1,0.4-2,0.6-3,0.9
	c-0.9,0.3-1.9,0.6-2.8,0.9c-1.7,0.5-3.4,1-5,1.5c-2.1,0.7-4.2,1.1-6.3,1.4c-0.9,0.1-1.8,0.2-2.7,0.3c-0.1,0-0.2,0-0.2,0.1
	c-1.4,1.6-3.3,0.6-4.9,1c-1.7,0.5-3.7,0.3-5.4,0.9c-1.9,0.7-3.7,0.2-5.5,0.4c-1,0.1-1.1-0.7-1.3-1.4c-0.2-0.6-0.5-1.1-0.7-1.6
	c-0.1-0.1-0.2-0.3-0.2-0.4c0.4-1.4-0.6-2.1-1.3-2.9c-1-1.2-1.4-2.6-1.6-4.2c-0.2-1.1-1-2.2-1.6-3.2c-0.1-0.1-0.2-0.2-0.3-0.3
	c-1.1-1.8-2.1-3.7-3.3-5.5c-1.5-2.2-3.1-4.3-4.5-6.6c-0.6-0.9-1-2.1-1.6-3c-0.2-0.3-0.7-0.5-1-0.4c-1.5,0.3-2.5,1.3-3.4,2.4
	c-0.1,0.1,0,0.4,0,0.7c-0.3-0.1-0.5-0.2-0.8-0.3c-0.5,1.5-1.1,3-1.7,4.5c-0.1-0.1-0.4-0.3-0.5-0.5c-0.3,0.9-0.9,1.9-0.9,2.8
	c0,0.9,0.6,1.7,0.9,2.6c-0.1,0.1-0.2,0.1-0.3,0.2c-0.2-0.3-0.4-0.6-0.7-1.1c-0.4,1.1-0.9,2.2-1.3,3.3c-0.1-0.1-0.4-0.3-0.6-0.5
	c-0.1,0-0.2,0.1-0.2,0.1c0.1,0.5,0.3,1,0.5,1.6c-0.9,0.4-1.1,0.9-0.8,2.1c0.2,0.6-0.6,1.5-1,2.5c0.6,1,0.5,1.7-0.5,3.1
	c-0.1,0.2-0.3,0.5-0.2,0.6c0.6,1.3-0.2,2.3-0.6,3.4c-0.1,0.3-0.1,0.6,0,0.9c0.4,1,0,1.5-1,1.6c0.1,0.4,0.4,0.8,0.3,1.2
	c0,0.5-0.1,1.1-0.4,1.4c-0.7,0.7-0.9,1.2-0.6,2.2c0.4,1.3,0.2,2.7,0.2,4c0,0.9,0.2,1.9,0.1,2.8c0,1.1-0.2,2.3-0.3,3.4
	C359.7,248.6,359.4,248.6,359.1,248.8L359.1,248.8z M172.1,203.7c-1.8-1.5-3.3-3.1-5-4.3c-2.1-1.6-4.5-2.5-7.2-2.4
	c-2.5,0.1-4.3,1.8-6.3,2.9c-0.3,0.1-0.6,0.6-0.6,0.8c0.1,0.3,0.5,0.6,0.8,0.7c1.3,0.6,2.6,1,3.8,1.7c2.7,1.6,4.9,3.7,5.2,7.1
	c0,0.2,0.2,0.4,0.4,0.6c0.3-0.2,0.6-0.3,0.7-0.5c1.3-1.7,3-3,5.1-3.7c2.8-0.9,5.6-1.9,8.5-2.8c1.7-0.5,3.5-0.9,5.3-1.2
	c1-0.1,1.2-0.4,0.9-1.4c-0.4-1.5-0.8-3-0.8-4.6c-0.1-11.4-0.1-22.7,0-34.1c0-1.4,0.4-2.8,0.8-4.1c0.5-1.3,0.5-1.5-1-1.6
	c-3.2-0.2-6-1.4-8.6-3.4c-0.7-0.5-1.2-0.5-1.9-0.1c-1.6,1-3.3,2.1-5.1,2.9c-4.2,1.9-8.6,2.8-13.1,3.5c-1.1,0.2-1.2,0.4-0.7,1.4
	c0.5,1.1,1.1,2.3,1.2,3.6c0.2,2.4,0.2,4.8,0.1,7.2c-0.2,3.3,0.7,6.7-1.4,9.9c0.4,0.1,0.7,0.2,1.1,0.3c3.1,0.7,5.1,2.7,6.8,5.3
	c0.4,0.6,0.7,1.2,1,1.8c0.6-0.4,1.2-0.8,1.8-1.2c0.2-0.1,0.3-0.2,0.5-0.3c1.7-1,3.4-2,5.2-3c1.4-0.8,2.8-1.5,4.3-2.3
	c0,6.8,0,13.3,0,19.9c0,0.3-0.4,0.7-0.7,0.9C172.8,203.6,172.4,203.6,172.1,203.7L172.1,203.7z M214.6,344.2
	c17.7,0.1,30.9-13.9,31-30.4c0.1-17.8-13.3-30.2-28.9-31.2c-9.8-0.6-18.2,2.8-24.8,10c-5.2,5.6-7.9,12.5-8,20.1
	C183.4,330.5,197.6,344.4,214.6,344.2z M231.5,166.9c-0.5,14.6,11.9,25.4,23.9,26.2c17.2,1.1,28.1-12.3,28.4-25.3
	c0.3-15.7-11.8-26.8-25.7-27.1C243.4,140.3,231,152.5,231.5,166.9z M343.5,254.8c-0.1-14.7-11.6-25.9-26-26
	c-7.7-0.1-14.3,2.9-19.5,8.7c-4.4,4.9-6.7,10.8-6.6,17.4c0.1,6.8,2.4,12.9,7.2,17.9s10.7,7.8,17.6,8.1
	C331.9,281.6,343.7,268.9,343.5,254.8L343.5,254.8z M262.8,414.7c14.2,0.4,25-11.2,25-24.6c0-14-10.7-24-23-24.9
	c-16.1-1.1-26.3,11.8-26.8,23.5C237.4,403.7,249.9,415.3,262.8,414.7L262.8,414.7z M267.9,249.2c13.2,0.3,22.9-10.7,23.5-21.8
	c0.9-15-11-24.4-21.4-25.1c-15.9-1.1-25.8,11.1-25.7,23.5C244.3,238.5,254.4,249.4,267.9,249.2z M142.2,364.1
	c-7.5-0.1-13.1,2.3-17.7,6.8c-4.6,4.5-6.9,10.2-6.9,16.7c0,6.5,2.3,12.2,6.9,16.8c4.2,4.1,9.4,6.5,15.3,6.7
	c15,0.6,24.6-10.9,24.9-22.8C165,374.6,154.3,364,142.2,364.1L142.2,364.1z M160.9,309.6c13.3,0.4,23.6-10.6,23.6-23.1
	c0-13.5-10.2-23.3-22.5-23.8c-14.4-0.6-24.5,10.7-24.6,23.4C137.3,299.1,147.8,310,160.9,309.6L160.9,309.6z M307.5,207.7
	c12.2,0.3,20.7-9.6,21.2-19.8c0.7-13.6-10-22.7-21.1-22.8c-12.1,0-20.8,9.4-21.5,19.9C285.3,198.1,296,208.2,307.5,207.7
	L307.5,207.7z M283.3,278.8c0.4-5.1-2.6-11.3-6.2-14.8c-4.1-3.9-9-5.8-14.5-5.9c-5.5-0.1-10.5,1.9-14.6,5.8c-4,3.9-6.2,8.7-6.4,14.3
	c-0.3,6.1,1.9,11.4,6.1,15.7c4,4.1,9.1,6.1,14.8,6.1c5.5,0,10.5-1.8,14.5-5.8C281.2,290.1,283.5,285.1,283.3,278.8L283.3,278.8z
	 M206.4,389.5c12,0.1,21.2-9.6,21.3-20.8c0.1-12.5-9.3-21.6-21.1-21.7c-12-0.1-20.8,9.2-21.4,19.9
	C184.4,380.2,194.9,389.5,206.4,389.5L206.4,389.5z M219.6,236.5c-11.5-0.3-20.1,9.1-20.4,19.6c-0.2,11.8,9,20.3,19.2,20.7
	c12.6,0.5,21.2-9.4,21.3-20C239.9,245.8,231,236.2,219.6,236.5z M247.9,328c-0.1,11.4,8.9,19.3,18.5,19.6
	c12.3,0.4,20.5-8.7,20.6-19.4c0.1-11.1-8.6-19.6-19.2-19.8C256.5,308.4,247.9,317.1,247.9,328L247.9,328z M155.6,363.2
	c11-0.1,19.2-8.5,19.1-19.1c0-10.3-7.5-18.1-17.2-18.9c-13.1-1.1-20.8,9.2-21,18.4C136.3,354.7,145.1,363.2,155.6,363.2z
	 M188.8,154.5c-1.5,0-3.8,2.3-3.8,3.7c0,1.4,2.3,3.8,3.7,3.7c1.6-0.1,4.1-2.4,4.1-3.9C192.9,156.7,190.3,154.5,188.8,154.5
	L188.8,154.5z M187,184.9h3.1c-0.1,1.2-0.8,1-1.5,1c-0.9,0-2-0.2-2.3,1.1c0.3,0.4,0.7,0.8,0.8,0.9h3.3c0.1-1,1.5-1.7,0.4-2.9
	c-0.1-0.1,0-0.5,0.1-0.6c0.5-0.8,0.3-1.3-0.2-1.6h-3.9c-0.2,0.3-0.4,0.7-0.7,1.2C186.5,184.3,186.8,184.7,187,184.9L187,184.9z
	 M187,172.4h3.1c-0.2,1.3-1,1-1.7,1c-0.9,0-1.9-0.1-2.1,1.2c0.3,0.4,0.7,0.8,1,1.1c0-0.1,0.1-0.2,0.1-0.3h2.9c0.3-1,1.5-1.8,0.5-2.9
	c-0.1-0.1,0.1-0.4,0.1-0.5c0.5-0.7,0.4-1.3-0.2-1.6h-3.9c-0.2,0.3-0.4,0.8-0.7,1.2C186.5,171.9,186.9,172.3,187,172.4L187,172.4z
	 M187.2,188.9c-1.2,2.6-1.2,2.6,0.5,4.6c0.5,0.6,1.1,1,1.8,0.5c0.9-0.6,1.9-1.2,1.6-2.4c-0.1-0.8-0.6-1.6-1.2-2.2
	c-0.3-0.3-1-0.1-1.6-0.2C188,189.1,187.6,189,187.2,188.9L187.2,188.9z M187.2,176.5c-1.1,1.8-1.3,3.3,0.5,4.7
	c0.6,0.5,1.1,0.9,1.8,0.4c0.8-0.6,1.9-1.3,1.6-2.4c-0.4-1.2-0.8-2.8-2.7-2.3C188,176.9,187.6,176.6,187.2,176.5z M185,163.9
	c1.7,0,3.3-0.1,5,0c1.5,0.1,2.5-0.8,3.5-1.5c-2.3,0-4.7,0.1-7,0C185.2,162.4,184.8,162.7,185,163.9L185,163.9z"/>
<path class="st0" d="M172.1,203.7c0.3-0.1,0.7-0.1,1.1-0.4c0.3-0.2,0.7-0.6,0.7-0.9c0-6.6,0-13.1,0-19.9c-1.5,0.8-2.9,1.6-4.3,2.3
	c-1.7,1-3.4,2-5.2,3c-0.2,0.1-0.3,0.2-0.5,0.3c-0.6,0.4-1.2,0.8-1.8,1.2c-0.4-0.6-0.7-1.2-1-1.8c-1.6-2.6-3.7-4.6-6.8-5.3
	c-0.3-0.1-0.6-0.2-1.1-0.3c2-3.2,1.1-6.6,1.4-9.9c0.2-2.4,0.1-4.8-0.1-7.2c-0.1-1.2-0.7-2.4-1.2-3.6c-0.5-1-0.4-1.2,0.7-1.4
	c4.5-0.7,9-1.6,13.1-3.5c1.8-0.8,3.4-1.9,5.1-2.9c0.7-0.4,1.2-0.5,1.9,0.1c2.5,1.9,5.4,3.1,8.6,3.4c1.4,0.1,1.4,0.3,1,1.6
	c-0.5,1.3-0.8,2.7-0.8,4.1c-0.1,11.4-0.1,22.7,0,34.1c0,1.5,0.4,3.1,0.8,4.6c0.2,0.9,0.1,1.2-0.9,1.4c-1.8,0.3-3.6,0.7-5.3,1.2
	c-2.9,0.9-5.7,1.8-8.5,2.8c-2.1,0.7-3.7,2-5.1,3.7c-0.2,0.2-0.4,0.3-0.7,0.5c-0.2-0.2-0.4-0.4-0.4-0.6c-0.2-3.5-2.5-5.5-5.2-7.1
	c-1.2-0.7-2.5-1.1-3.8-1.7c-0.3-0.1-0.7-0.4-0.8-0.7c-0.1-0.2,0.3-0.6,0.6-0.8c2-1.2,3.8-2.8,6.3-2.9c2.7-0.1,5.1,0.8,7.2,2.4
	C168.7,200.6,170.3,202.1,172.1,203.7L172.1,203.7z M167.6,158.2c-1,0.4-1.9,0.6-2.8,1c-0.8,0.3-1.4,0.8-1.4,1.8
	c0,5.3-0.1,10.6-0.1,15.8c0,0.4,0.2,0.9,0.4,1.2c1.5,1.5,3.1,3,4.6,4.6c0.6,0.6,1,0.5,1.5,0.1c1-0.7,2.1-1.2,3.1-2
	c0.5-0.4,0.9-1.1,1-1.6c0.1-4.4,0.1-8.9,0.1-13.3c0-0.9-0.4-1.5-1.1-2c-0.9-0.7-1.8-1.4-2.6-2.3
	C169.4,160.5,168.5,159.3,167.6,158.2z"/>
<path class="st0" d="M214.6,344.2c-16.9,0.2-31.1-13.7-30.8-31.5c0.1-7.7,2.8-14.5,8-20.1c6.7-7.2,15-10.6,24.8-10
	c15.6,1,29,13.4,28.9,31.2C245.4,330.3,232.2,344.3,214.6,344.2L214.6,344.2z M202.8,315.6c-1.5,0.7-3,1.6-4.6,2.2
	c-1,0.4-2.1,0.4-3.1,0.3c-0.8-0.1-1.2-0.5-0.5-1.4c3.1-4,6.1-8,9.1-12c0.5-0.7,0.8-1.6,1-2.5c0.6-3.8,1.3-7.6,3-11.1
	c0.9-1.8,1.9-3.5,3.2-5c1.5-1.7,3.2-1.5,4.8,0.1c0.6,0.6,1.2,1.4,1.6,2.2c1.8,3.1,2.6,6.5,3.2,10c0.4,2.1,0,4.5,2.2,6
	c0.6,0.4,0.9,1.2,1.3,1.8c2.1,3.1,4.2,6.2,6.3,9.3c0.1,0.2,0.2,0.5,0.4,1.1c-1.5-0.3-2.6-0.4-3.7-0.7c-1.1-0.3-2.2-0.9-3.2-1.3
	c0.7,2,1.6,3.9,2.1,6c0.9,4.1,1.6,8.3-1.7,11.9c0.5,1.1,0.9,2.2,1.4,3.3c0.8,1.6,1.2,3.2-0.2,4.9c15.2-6.2,22.9-23.2,16.4-38.7
	c-5.2-12.6-19.4-21.5-35.6-16.9c-12.3,3.5-23.5,16.8-20.4,33.6c0.9,4.7,2.8,9,5.8,12.7c3,3.8,6.6,6.8,11.1,8.6c-1.2-1.5-0.8-3,0-4.5
	c0.7-1.3,1.4-2.5,2.1-3.8c-0.8-0.5-1.5-1-2.2-1.5c-1-0.8-1.7-1.8-1.6-3c0-1.8-0.1-3.7,0.2-5.5C201.6,319.7,202.2,317.6,202.8,315.6
	L202.8,315.6z M195.1,317c0.1,0.1,0.1,0.2,0.2,0.4c0.8-0.1,1.6-0.1,2.4-0.3c2.4-0.8,4.5-2.1,6.3-3.8c0.3-0.3,0.7-0.4,1-0.5
	c-0.1,0.4-0.1,0.8-0.3,1.1c-1.8,3.3-2.9,6.8-3,10.6c-0.1,4.3,0.5,5.2,4.4,7c4.4,2,9.1,2.4,13.8,1.8c3.4-0.4,5.2-2.3,5.6-5.2
	c0.3-2.7,0.1-5.3-0.6-8c-1-3.6-2.9-6.8-5.5-9.4c-0.2-0.2-0.3-0.6-0.5-1c0.4,0.1,0.8,0.2,1.1,0.4c0.8,0.7,1.4,1.5,2.2,2.2
	c1.9,1.8,4.3,2.7,6.8,3.2c-2-3.3-4-6.5-6.1-9.7c-0.4-0.7-1.1-1.2-1.6-1.9c-0.4-0.6-0.9-1.3-1-2c-0.5-3.9-1.2-7.8-2.8-11.4
	c-0.6-1.3-1.4-2.6-2.3-3.8c-1.1-1.4-2.4-1.5-3.7-0.2c-0.8,0.7-1.4,1.6-2,2.5c-2.1,3.7-3.2,7.8-3.8,12c-0.2,1-0.1,2.2-0.6,3
	c-1.2,1.9-2.6,3.6-4,5.4C199,312.1,197,314.6,195.1,317L195.1,317z M205.5,332.5c-0.6,1-1.1,2.1-1.8,3.2c-0.6,0.9-0.3,1.4,0.5,1.8
	c1.2,0.5,2.4,1,3.6,1.5c0.6,0.2,1.1,0.5,1.7,0.8c-0.1,0.1-0.1,0.3-0.2,0.5c-2.3-0.4-4.4-1.2-6.4-2.5c-0.2,1.6,0.8,2.1,1.8,2.4
	c2.1,0.7,4.3,1.3,6.4,1.9c1.1,0.3,1.9-0.1,2-1.2c0.3-2.1,0.4-4.2,0.6-6.2C211.1,333.8,208.4,333.1,205.5,332.5L205.5,332.5z
	 M220.4,339.6c0,0.2,0.1,0.3,0.1,0.5c-0.6,0.2-1.2,0.3-1.8,0.6c-0.2,0.1-0.4,0.3-0.6,0.5c0.2,0.1,0.5,0.4,0.7,0.4
	c1.7-0.3,3.4-0.6,5.1-1.1c0.6-0.2,1.1-0.8,1.6-1.2c-0.1-0.1-0.1-0.2-0.2-0.2c-1.2,0.6-2.4,1.4-3.8,0.9c0.4-0.3,0.8-0.5,1.2-0.6
	c0.7-0.3,1.5-0.6,2.1-1c0.2-0.1,0.5-0.7,0.4-1c-0.5-1.4-1.2-2.8-1.6-3.8c-2.6,0.4-4.9,0.8-7,1.2c0.6,1.7,1.2,3.5,1.9,5.3
	C218.9,339.8,219.7,339.7,220.4,339.6L220.4,339.6z M217.6,342.7c-0.1-0.8-0.3-1.5-0.3-2.3c-0.1-2.3-0.8-4.3-2.5-6.4
	c-0.3,1.5-0.5,2.6-0.7,3.8c-0.2,1.6,0.3,3.5-1.4,4.8L217.6,342.7L217.6,342.7z"/>
<path class="st0" d="M231.5,166.9c-0.4-14.4,11.9-26.6,26.7-26.2c13.9,0.3,26,11.4,25.7,27.1c-0.3,13-11.3,26.3-28.4,25.3
	C243.4,192.3,231,181.5,231.5,166.9L231.5,166.9z M282.4,166.8c0-13.8-11.1-24.2-23.5-24.7c-15.2-0.6-26.3,11.5-26.2,24.7
	c0.1,14.1,10.8,24.9,24.9,25C270.9,191.9,282.6,180.9,282.4,166.8L282.4,166.8z"/>
<path class="st0" d="M343.5,254.8c0.2,14.1-11.6,26.8-27.3,26c-6.9-0.3-12.8-3-17.6-8.1c-4.8-5-7.1-11.1-7.2-17.9
	c0-6.5,2.2-12.4,6.6-17.4c5.2-5.8,11.8-8.7,19.5-8.7C331.9,228.9,343.4,240.1,343.5,254.8L343.5,254.8z M342,254.9
	c0.3-13.7-11.3-24.4-23.6-24.7c-14.7-0.3-25.4,11.1-25.6,24.2c-0.2,14.1,11,24.2,22.9,25C330.9,280.4,342.5,267.9,342,254.9
	L342,254.9z"/>
<path class="st0" d="M262.9,414.7c-13,0.6-25.4-11-24.8-25.9c0.5-11.7,10.7-24.6,26.8-23.5c12.3,0.9,23,10.8,23,24.9
	C287.9,403.5,277,415.1,262.9,414.7L262.9,414.7z M286.5,390c0.3-13.1-10.8-23.1-22.2-23.6c-14.7-0.6-24.8,10.8-25,23.1
	c-0.2,13.7,10.5,23.6,22.7,24.1C275.7,414.2,286.9,402.7,286.5,390z"/>
<path class="st0" d="M267.9,249.2c-13.5,0.2-23.6-10.6-23.6-23.4c0-12.4,9.8-24.6,25.7-23.5c10.4,0.7,22.3,10.1,21.4,25.1
	C290.7,238.5,281.1,249.4,267.9,249.2L267.9,249.2z M245.6,225.7c-0.1,12.6,10.1,22.1,21.7,22.3c13,0.2,22.8-10.1,22.8-22.1
	c0-12.6-9.7-22-21.5-22.4C255.6,202.9,245.5,213.5,245.6,225.7z"/>
<path class="st0" d="M142.2,364.1c12.1-0.1,22.8,10.5,22.5,24.1c-0.3,11.9-9.9,23.5-24.9,22.8c-5.9-0.3-11.1-2.6-15.3-6.7
	c-4.6-4.6-6.9-10.3-6.9-16.8c0-6.4,2.3-12.1,6.9-16.7C129.1,366.3,134.7,364,142.2,364.1L142.2,364.1z M119,387.5
	c-0.5,12.4,10.4,22,21,22.4c13.8,0.5,23.4-10.2,23.6-21.8c0.2-13-9.8-22.1-21.1-22.8C129.3,364.4,118.4,375.8,119,387.5z"/>
<path class="st0" d="M160.9,309.6c-13.1,0.3-23.6-10.6-23.5-23.5c0.1-12.7,10.2-24,24.6-23.4c12.3,0.5,22.5,10.3,22.5,23.8
	C184.5,299,174.2,310,160.9,309.6L160.9,309.6z M160.9,308.5c12.9,0.1,22.5-10.3,22.5-22.2c-0.1-12.4-9.5-22-21.7-22.3
	c-13.4-0.3-22.9,10.1-23,22.2C138.5,298.2,148.1,308.5,160.9,308.5L160.9,308.5z"/>
<path class="st0" d="M307.5,207.7c-11.5,0.5-22.2-9.6-21.4-22.7c0.7-10.5,9.4-19.9,21.5-19.9c11.1,0,21.9,9.1,21.1,22.8
	C328.3,198.1,319.7,208,307.5,207.7L307.5,207.7z M307.5,206.6c11.3,0.2,19.9-9.2,20.2-19.3c0.3-12.3-9.2-20.9-20.1-20.9
	c-11.1,0-19.6,8.4-20.2,19.3C286.8,197.4,296.6,206.8,307.5,206.6L307.5,206.6z"/>
<path class="st0" d="M283.3,278.8c0.2,6.2-2.1,11.2-6.4,15.4c-4,4-9.1,5.8-14.5,5.8c-5.6,0-10.8-2-14.8-6.1
	c-4.2-4.3-6.3-9.6-6.1-15.7c0.2-5.6,2.4-10.4,6.4-14.3c4-3.9,9-5.8,14.6-5.8c5.5,0.1,10.4,2,14.5,5.9
	C280.7,267.5,283.7,273.8,283.3,278.8L283.3,278.8z M262.5,298.7c11.1,0.2,19.1-9,19.6-18.2c0.7-12.2-8.5-21.1-19.5-21.2
	c-10.7-0.1-19.6,8.3-19.9,19.5C242.6,289.5,251.6,299,262.5,298.7L262.5,298.7z"/>
<path class="st0" d="M206.4,389.5c-11.5,0.1-21.9-9.3-21.2-22.7c0.6-10.7,9.4-20,21.4-19.9c11.9,0.1,21.3,9.2,21.1,21.7
	C227.6,379.8,218.4,389.6,206.4,389.5L206.4,389.5z M186.3,368.2c-0.3,11.2,9.2,19.5,18.4,20.1c13,0.9,21.6-9.5,21.9-19.3
	c0.4-12.1-9.3-20.8-19.7-21C195.8,347.7,185.8,357.2,186.3,368.2L186.3,368.2z"/>
<path class="st0" d="M219.6,236.5c11.4-0.2,20.3,9.3,20.2,20.4c-0.1,10.6-8.7,20.5-21.3,20c-10.2-0.4-19.4-9-19.2-20.7
	C199.5,245.6,208.2,236.2,219.6,236.5L219.6,236.5z M219.6,237.6c-10.9-0.2-18.9,8.8-19.1,18.4c-0.3,11.2,8.6,19.3,18.2,19.7
	c11.6,0.5,20-8.8,20-19C238.7,246.4,230.2,237.5,219.6,237.6z"/>
<path class="st0" d="M247.9,328c0-11,8.6-19.6,19.9-19.5c10.6,0.1,19.3,8.7,19.2,19.8c-0.1,10.6-8.3,19.8-20.6,19.4
	C256.8,347.3,247.8,339.4,247.9,328L247.9,328z M249,328.1c-0.1,10.3,8.3,18,17.3,18.4c11.5,0.5,19.4-8.5,19.5-18.2
	c0.1-10.4-8.2-18.4-18.1-18.7C257.5,309.4,248.9,317.9,249,328.1L249,328.1z"/>
<path class="st0" d="M155.6,363.2c-10.5,0-19.2-8.5-19-19.6c0.1-9.2,7.9-19.5,21-18.4c9.7,0.8,17.2,8.6,17.2,18.9
	C174.7,354.7,166.6,363.1,155.6,363.2L155.6,363.2z M155.6,362.1c10,0.3,17.6-8.2,18-16.6c0.6-11.3-8.4-19.1-17.4-19.4
	c-10.5-0.3-18,8.3-18.6,16.8C136.8,353.8,146.3,362.5,155.6,362.1z"/>
<path class="st0" d="M188.8,154.5c1.5,0,4.1,2.2,4.1,3.6c0,1.4-2.5,3.8-4.1,3.9c-1.4,0.1-3.7-2.3-3.7-3.7
	C185.1,156.8,187.3,154.5,188.8,154.5L188.8,154.5z M187.6,156.2c-0.5,0.1-1.1,0.1-1,1c0.1,0.9,1.9,2.7,2.9,2.8
	c0.7,0.1,1.3,0,1.3-0.9C190.7,157.9,188.7,156.2,187.6,156.2L187.6,156.2z"/>
<path class="st0" d="M186.9,184.9c-0.1-0.2-0.5-0.6-0.8-1c0.3-0.5,0.5-0.9,0.7-1.2h3.9c0.5,0.3,0.7,0.8,0.2,1.6
	c-0.1,0.2-0.2,0.6-0.1,0.6c1.1,1.2-0.4,1.9-0.4,2.9H187c-0.1-0.1-0.4-0.5-0.8-0.9c0.3-1.3,1.4-1.1,2.3-1.1c0.7,0,1.4,0.2,1.5-1
	L186.9,184.9L186.9,184.9z"/>
<path class="st0" d="M187,172.4c-0.1-0.1-0.4-0.5-0.8-0.9c0.3-0.4,0.5-0.8,0.7-1.2h3.9c0.5,0.3,0.6,0.9,0.2,1.6
	c-0.1,0.1-0.2,0.5-0.1,0.5c1.1,1.2-0.2,1.9-0.5,2.9h-2.9c0,0.1-0.1,0.2-0.1,0.3c-0.3-0.4-0.7-0.8-1-1.1c0.2-1.3,1.2-1.2,2.1-1.2
	c0.7,0,1.5,0.3,1.7-1L187,172.4L187,172.4z"/>
<path class="st0" d="M187.2,188.9c0.5,0.1,0.8,0.2,1.2,0.3c0.5,0.1,1.3-0.1,1.6,0.2c0.5,0.6,1,1.4,1.2,2.2c0.2,1.2-0.8,1.8-1.6,2.4
	c-0.8,0.5-1.3,0.1-1.8-0.5C186,191.5,185.9,191.5,187.2,188.9L187.2,188.9z M190.1,191.2c-0.1-0.1-0.1-0.2-0.2-0.4
	c-0.5,0-1.2-0.2-1.6,0.1c-0.4,0.2-0.5,0.8-0.7,1.3c0.4,0.1,0.9,0.4,1.1,0.3C189.2,192.2,189.6,191.7,190.1,191.2L190.1,191.2z"/>
<path class="st0" d="M187.2,176.5c0.4,0.1,0.8,0.4,1.2,0.3c2-0.4,2.4,1.2,2.7,2.3c0.4,1.1-0.7,1.8-1.6,2.4c-0.7,0.6-1.2,0.1-1.8-0.4
	C185.9,179.8,186.2,178.2,187.2,176.5z M190.1,178.9c-0.1-0.1-0.1-0.3-0.2-0.4c-0.5,0-1-0.1-1.5,0c-0.3,0.1-0.6,0.3-0.8,0.6
	c-0.1,0.3-0.1,0.8,0.1,1c0.2,0.2,0.7,0.1,1,0C189.2,179.8,189.7,179.3,190.1,178.9L190.1,178.9z"/>
<path class="st0" d="M185,164c-0.2-1.3,0.2-1.6,1.5-1.5c2.3,0.1,4.7,0,7,0c-1,0.8-1.9,1.7-3.5,1.5C188.3,163.9,186.6,164,185,164
	L185,164z"/>
<path d="M167.6,158.2c0.9,1.1,1.8,2.2,2.8,3.3c0.8,0.8,1.7,1.6,2.6,2.3c0.7,0.5,1.1,1.1,1.1,2c0,4.4,0,8.9-0.1,13.3
	c0,0.6-0.5,1.2-1,1.6c-1,0.8-2.1,1.3-3.1,2c-0.6,0.4-1,0.4-1.5-0.1c-1.5-1.6-3.1-3-4.6-4.6c-0.3-0.3-0.4-0.8-0.4-1.2
	c0-5.3,0.1-10.6,0.1-15.8c0-1.1,0.6-1.5,1.4-1.8C165.7,158.9,166.6,158.6,167.6,158.2z"/>
<path d="M202.8,315.6c-0.5,2-1.2,4.1-1.5,6.2c-0.3,1.8-0.2,3.7-0.2,5.5c0,1.3,0.6,2.3,1.6,3c0.7,0.5,1.4,1,2.2,1.5
	c-0.7,1.3-1.4,2.5-2.1,3.8c-0.8,1.5-1.2,2.9,0,4.5c-4.5-1.8-8.1-4.8-11.1-8.6s-5-8-5.8-12.7c-3-16.8,8.1-30.1,20.4-33.6
	c16.3-4.7,30.4,4.3,35.6,16.9c6.5,15.5-1.2,32.5-16.4,38.7c1.4-1.7,1-3.3,0.2-4.9c-0.5-1.1-1-2.2-1.4-3.3c3.2-3.6,2.5-7.8,1.7-11.9
	c-0.4-2-1.4-4-2.1-6c1,0.4,2.1,0.9,3.2,1.3c1.1,0.3,2.3,0.4,3.7,0.7c-0.2-0.6-0.3-0.9-0.4-1.1c-2.1-3.1-4.2-6.2-6.3-9.3
	c-0.4-0.6-0.8-1.4-1.3-1.8c-2.2-1.5-1.8-3.9-2.2-6c-0.7-3.5-1.5-6.9-3.2-10c-0.4-0.8-1-1.6-1.6-2.2c-1.6-1.6-3.3-1.8-4.8-0.1
	c-1.3,1.5-2.4,3.2-3.2,5c-1.7,3.5-2.4,7.2-3,11.1c-0.1,0.9-0.5,1.8-1,2.5c-3,4-6,8-9.1,12c-0.7,0.9-0.3,1.4,0.5,1.4
	c1,0.1,2.2,0.1,3.1-0.3C199.8,317.2,201.3,316.3,202.8,315.6L202.8,315.6z"/>
<path d="M195.1,317c1.9-2.5,3.9-4.9,5.8-7.4c1.4-1.8,2.8-3.5,4-5.4c0.5-0.8,0.5-2,0.6-3c0.7-4.2,1.7-8.3,3.8-12
	c0.5-0.9,1.2-1.8,2-2.5c1.4-1.2,2.6-1.2,3.7,0.2c0.9,1.1,1.7,2.4,2.3,3.8c1.6,3.6,2.3,7.5,2.8,11.4c0.1,0.7,0.6,1.4,1,2
	c0.5,0.7,1.2,1.2,1.6,1.9c2,3.2,4,6.4,6.1,9.7c-2.5-0.5-4.9-1.4-6.8-3.2c-0.8-0.7-1.4-1.5-2.2-2.2c-0.3-0.2-0.7-0.3-1.1-0.4
	c0.2,0.3,0.2,0.7,0.5,1c2.7,2.6,4.5,5.8,5.5,9.4c0.8,2.6,0.9,5.3,0.6,8c-0.3,2.9-2.1,4.8-5.6,5.2c-4.7,0.6-9.4,0.2-13.8-1.8
	c-3.9-1.7-4.5-2.7-4.4-7c0.1-3.8,1.2-7.3,3-10.6c0.2-0.3,0.2-0.8,0.3-1.1c-0.4,0.2-0.8,0.3-1,0.5c-1.8,1.7-3.9,3.1-6.3,3.8
	c-0.8,0.2-1.6,0.2-2.4,0.3C195.3,317.3,195.2,317.2,195.1,317L195.1,317z M213.3,299.1c-0.2-1.2-0.3-2.4-0.6-3.6
	c-0.1-0.5-0.9-1.1-1.2-1c-0.6,0.1-1.2,0.6-1.5,1.1c-0.3,0.5-0.2,1.2-0.2,1.9c0,1.4,0.2,2.6-0.9,3.9c-1.4,1.6-1.1,2.2,0.8,3.3
	c0.9,0.5,1.1,1.1,0.6,2.1c-2.3,4.3-3.9,8.9-5,13.7c-0.7,3.2,0.5,7,2.9,8.3c2.7,1.5,5.6,2.5,8.8,2.2c3.3-0.3,5.2-2.2,5-5.5
	c-0.1-2.7-0.5-5.5-1.4-8.1c-1.1-3.6-2.7-7-4.2-10.4c-0.4-1-0.4-1.7,0.4-2.4c0.2-0.1,0.3-0.3,0.5-0.4c1.1-0.6,1.6-2.2,0.6-2.9
	c-1.4-0.9-1.1-2.1-1-3.3c0-0.6,0.2-1.2-0.1-1.7c-0.3-0.6-0.9-1.4-1.5-1.6c-0.9-0.4-1.4,0.5-1.6,1.3
	C213.5,297,213.4,298.1,213.3,299.1L213.3,299.1z"/>
<path d="M205.5,332.5c2.9,0.7,5.6,1.3,8.3,2c-0.2,2-0.3,4.1-0.6,6.2c-0.1,1.1-0.9,1.5-2,1.2c-2.1-0.6-4.3-1.2-6.4-1.9
	c-1.1-0.3-2-0.8-1.8-2.4c2,1.3,4.1,2.1,6.4,2.5c0.1-0.1,0.1-0.3,0.2-0.5c-0.6-0.3-1.1-0.5-1.7-0.8c-1.2-0.5-2.4-1-3.6-1.5
	c-0.8-0.4-1.1-0.9-0.5-1.8C204.3,334.6,204.9,333.4,205.5,332.5L205.5,332.5z M211.8,340.9c0.2-0.2,0.4-0.3,0.6-0.5
	c-0.2-0.2-0.4-0.4-0.6-0.5c-0.6-0.1-1.2-0.2-1.8-0.2c0,0.1-0.1,0.4,0,0.4C210.5,340.4,211.1,340.6,211.8,340.9z"/>
<path d="M220.4,339.6c-0.7,0.1-1.4,0.2-2,0.2c-0.6-1.8-1.3-3.6-1.9-5.3c2.1-0.4,4.5-0.8,7-1.2c0.5,1.1,1.1,2.4,1.6,3.8
	c0.1,0.3-0.1,0.8-0.4,1c-0.7,0.4-1.4,0.7-2.1,1c-0.4,0.2-0.8,0.3-1.2,0.6c1.5,0.5,2.6-0.3,3.8-0.9c0.1,0.1,0.1,0.2,0.2,0.2
	c-0.5,0.4-1,1.1-1.6,1.2c-1.7,0.5-3.4,0.8-5.1,1.1c-0.2,0-0.4-0.2-0.7-0.4c0.2-0.2,0.4-0.4,0.6-0.5c0.6-0.2,1.2-0.4,1.8-0.6
	C220.5,339.9,220.5,339.8,220.4,339.6L220.4,339.6z"/>
<path d="M217.6,342.7h-4.8c1.6-1.4,1.1-3.2,1.4-4.8c0.2-1.2,0.4-2.3,0.7-3.8c1.6,2,2.4,4,2.5,6.4
	C217.3,341.2,217.5,341.9,217.6,342.7L217.6,342.7z"/>
<path d="M282.4,166.8c0.1,14.1-11.5,25.1-24.8,25c-14.1-0.1-24.8-10.8-24.9-25c-0.1-13.2,11-25.3,26.2-24.7
	C271.3,142.6,282.4,153,282.4,166.8L282.4,166.8z"/>
<path d="M342,254.9c0.4,13.1-11.2,25.6-26.3,24.5c-11.9-0.8-23-10.9-22.9-25c0.2-13.1,10.8-24.6,25.6-24.2
	C330.7,230.5,342.4,241.2,342,254.9L342,254.9z M338.6,250.9c0-0.1-0.1-0.3-0.1-0.4c-12.7-2.8-25.5-5.5-38.5-8.4
	c2.8,9.6,5.5,18.9,8.3,28.6c3.8-2.9,7.4-5.7,11-8.4c2,1.5,3.5,3.7,5.8,5.2c0-2.9,0-5.4,0-7.9c0-0.8,0.3-1.2,0.9-1.6
	c3-1.6,5.9-3.2,8.8-4.9C336,252.3,337.3,251.6,338.6,250.9L338.6,250.9z"/>
<path d="M286.5,390c0.5,12.7-10.7,24.2-24.4,23.6c-12.2-0.5-22.9-10.4-22.7-24.1c0.2-12.2,10.2-23.6,25-23.1
	C275.7,366.9,286.8,376.9,286.5,390z M272.5,386.9c-0.3,0.2-0.9,0.6-0.9,0.6c-0.5-0.7-1.4-1.5-1.4-2.2c0-1.2,0.5-2.4,0.7-3.6
	c1.3,0.3,2.5,0.6,3.8,0.9c-0.6-0.9-1.1-1.6-1.6-2.4c0,0-0.1,0.1-0.2,0.1c0.3,0.5,0.6,0.9,0.9,1.4c-0.1,0.1-0.1,0.2-0.2,0.3
	c-0.6-0.2-1.2-0.4-1.9-0.5c-0.4-0.1-1.2,0.1-1.2,0.2c0,1.7-1.7,3.5,0,5.2c-1-0.1-2-0.2-3-0.3c-0.3,0-0.5,0-0.8,0
	c0,0.3,0.1,0.6,0.2,0.9c0.1,0.2,0.2,0.3,0.5,0.6c-0.6,0.3-1,0.7-1.5,0.7c-2,0.1-4,0.1-6,0c-0.5,0-1-0.5-1.5-0.7
	c0.4-0.3,0.8-0.7,1.2-1c-0.4-0.2-0.9-0.4-1.3-0.5c-0.2-0.1-0.5,0-0.7,0.1c-1,0.2-2.1,0.4-2.9,0.5c1.3,1.3,3-0.9,4.9,0.1
	c-0.5,0.4-0.9,0.6-1.2,0.9c-0.2,0.2-0.5,0.4-0.7,0.5c-0.7,0.3-1.4,0.6-2.1,0.9c-0.3-0.3-0.7-0.7-1-1c-0.9-0.9-1.3-0.9-2.3,0
	c0.4,0.7,0.9,1.4,1.4,2.2c-0.9,0.3-1.6,0.5-2.5,0.8c0.6,0.5,1.1,0.9,1.6,1.3c-0.4,0.8-0.9,1.5-1.3,2.3l0,0c-1.2,1.9-0.3,6.3,2.4,7.7
	l0,0c0.6,0.3,1.2,0.7,1.8,1c2,0.9,3.9,1.9,6,2.7c0.7,0.3,1.7,0.3,2.5,0c2-0.8,3.9-1.7,5.8-2.6c2.2-0.9,3.7-2.4,4.4-4.7
	c0.8-2.4,0.1-4.5-1.6-6.2c0.7-0.6,1.2-1.1,1.6-1.4c-0.8-0.5-1.6-0.9-2.2-1.4c-0.4-0.3-0.5-0.8-0.9-1c-0.5-0.3-1.1-0.5-1.7-0.7
	l-0.9,0L267,387c1.3-0.1,2.5,0.9,3.6-0.2c0.4,0.3,0.9,0.6,1.3,1C272.1,387.5,272.3,387.2,272.5,386.9c1-0.1,1.8-0.4,2.5-1.5
	c-0.5,0.3-0.8,0.5-1.3,0.9c0.3-0.9,0.5-1.5,0.7-2.2C273.8,385,273.1,385.9,272.5,386.9L272.5,386.9z M272.2,374.5
	c-0.1-0.2-0.2-0.4-0.3-0.6c-0.6,0.1-1.2,0.3-1.7,0.4c0.3,0.6,0.5,1.2,0.8,1.8C271.4,375.5,271.8,375,272.2,374.5L272.2,374.5z
	 M275.6,384.2c0.1,0,0.1,0.1,0.2,0.1c0.1-0.4,0.2-0.8,0.5-1.2c0.2-0.3,0.5-0.4,0.8-0.6c0.2,0.3,0.4,0.5,0.5,0.8
	c0.1,0.5,0.2,1.1,0.3,1.7c0.1-0.5,0.1-1-0.1-1.4c-0.2-0.5-0.4-1.1-0.7-1.2c-0.8-0.3-1,0.5-1.2,1.1
	C275.8,383.7,275.7,384,275.6,384.2L275.6,384.2z M251.4,377.4c-0.1,0-0.2,0-0.4,0c0.1,0.5,0.3,1,0.5,1.6c-0.9,0.1-1.7,0.3-2.5,0.4
	c0.1,0.1,0.4,0.4,0.6,0.4c0.7-0.2,1.4-0.3,1.9-0.8C251.8,378.8,251.5,377.9,251.4,377.4L251.4,377.4z M249.4,383.9
	c-0.6,0.3-1,0.5-1.4,0.7c0.6,1.1,1.1,2.1,1.6,3.2C249.8,386.4,247.6,385.5,249.4,383.9L249.4,383.9z M272.8,387.8
	c1.5,1.2,2.8,0.3,4-0.5C275.5,387.5,274.3,388.9,272.8,387.8z"/>
<path d="M245.6,225.7c-0.1-12.2,10-22.7,23.1-22.2c11.8,0.4,21.5,9.8,21.5,22.4c0,12-9.8,22.4-22.8,22.1
	C255.8,247.8,245.5,238.2,245.6,225.7z"/>
<path d="M118.9,387.5c-0.6-11.7,10.4-23.1,23.4-22.2c11.3,0.7,21.3,9.8,21.1,22.8c-0.2,11.6-9.8,22.3-23.6,21.8
	C129.3,409.5,118.4,399.9,118.9,387.5L118.9,387.5z M140.2,401.4c1.1-0.2,2.3-0.2,3.4-0.5c3.5-1,7-2.2,10.5-3.3
	c0.3-0.1,0.5-0.6,0.8-0.9c-0.4-0.1-0.9-0.3-1.2-0.2c-2.9,0.9-5.7,1.9-8.5,2.8c-4.4,1.4-8.5,1-12.4-1.4c-1.6-1-3.1-2.1-4.7-3.1
	c-0.3-0.2-0.7-0.1-1.1-0.1c0.1,0.4,0.1,0.9,0.4,1.1c1.6,1.1,3.2,2.3,4.9,3.2C134.7,400.4,137.3,401.3,140.2,401.4L140.2,401.4z
	 M148.6,381.1c-0.4-1.1-0.7-2.2-1.2-3.2c-0.2-0.5-0.9-1.2-1.1-1.1c-0.9,0.3-0.3,1-0.1,1.5c0.4,1.1,0.8,2.1,1.1,3.2
	c0.1,0.4,0,1-0.3,1.3c-0.8,1-1.8,1.8-2.6,2.8c-0.2,0.3-0.2,0.8-0.3,1.2c0.4-0.1,0.9-0.1,1.2-0.4c1-0.9,1.8-1.8,2.8-2.7
	c0.6,1.1,1.2,2.1,1.9,3c0.2,0.3,0.7,0.3,1.1,0.4c0-0.4,0.1-0.8-0.1-1.1c-0.6-1.1-1.2-2.2-2-3.5c1.7-1.2,3.3-2.3,4.8-3.5
	c0.3-0.2,0.4-0.7,0.6-1.1c-0.4,0-0.9-0.1-1.2,0C151.7,378.9,150.2,379.9,148.6,381.1L148.6,381.1z M134.8,382c0.6,0.9,1.1,2,1.9,3
	c0.2,0.2,0.7,0.2,1,0.3c0-0.3,0.1-0.7,0-1c-0.4-0.9-0.9-1.8-1.5-2.6c-0.4-0.7-0.3-1.1,0.4-1.6c1.4-1,2.8-2,4.2-3
	c0.2-0.2,0.3-0.5,0.4-0.8c-0.3-0.1-0.7-0.3-1-0.2c-0.4,0.1-0.7,0.4-1,0.6c-1.2,0.9-2.5,1.8-3.8,2.8c-0.5-1.3-0.9-2.5-1.4-3.8
	c-0.1-0.3-0.6-0.5-0.9-0.7c-0.1,0.4-0.3,0.8-0.2,1.1c0.4,1.2,0.9,2.4,1.2,3.6c0.1,0.4,0,1-0.3,1.3c-0.8,1-1.8,1.8-2.6,2.8
	c-0.2,0.3-0.2,0.8-0.3,1.2c0.4-0.1,0.8-0.1,1.1-0.3C132.9,383.8,133.9,382.9,134.8,382L134.8,382z"/>
<path d="M160.9,308.5c-12.7,0.1-22.3-10.3-22.3-22.3c0.1-12.1,9.6-22.6,23-22.2c12.2,0.3,21.7,10,21.7,22.3
	C183.4,298.2,173.8,308.7,160.9,308.5L160.9,308.5z"/>
<path d="M307.5,206.6c-10.9,0.2-20.6-9.2-20.1-21c0.5-10.9,9-19.3,20.2-19.3c10.9,0,20.4,8.6,20.1,20.9
	C327.4,197.3,318.8,206.8,307.5,206.6L307.5,206.6z"/>
<path d="M262.5,298.7c-10.9,0.3-19.9-9.2-19.7-19.8c0.2-11.2,9.2-19.6,19.9-19.5c11,0.1,20.2,9,19.5,21.2
	C281.6,289.7,273.6,299,262.5,298.7L262.5,298.7z"/>
<path d="M186.3,368.2c-0.5-11,9.5-20.5,20.6-20.2c10.4,0.3,20,8.9,19.7,21c-0.3,9.8-8.9,20.2-21.9,19.3
	C195.5,387.6,186,379.4,186.3,368.2L186.3,368.2z"/>
<path d="M219.6,237.6c10.6-0.1,19.1,8.7,19.1,19.1c-0.1,10.2-8.4,19.4-20,19c-9.6-0.4-18.5-8.4-18.2-19.7
	C200.7,246.4,208.7,237.4,219.6,237.6L219.6,237.6z M220.4,244.9c-1.6-0.2-3.2,1.3-3.1,3.3c0.1,3.4-0.8,6.5-1.9,9.6
	c-0.3,0.9-0.6,1.6-1.6,2.1c-0.7,0.3-1.1,1.3-1.5,2c-0.1,0.2,0.6,0.7,1,1.1c0,0-0.1,0.2-0.1,0.4c-0.3,1-0.6,1.9-0.9,2.9
	c-0.1,0.3,0.1,0.8,0.3,0.9c0.2,0.1,0.7,0,0.9-0.1c0.9-0.6,1.7-1.2,1.8-2.4c0.1-0.7,0.5-1.4,0.8-2c1,0,1.3,0.5,1.3,1.3
	c-0.1,1.2,0,2.4,0,3.6c0.1,0,0.2,0,0.3,0c0.2-1.7,0.5-3.3,0.8-5.3c0.7,0.3,1.5,0.4,1.6,0.8c0.9,2.2,1.7,4.5,2.6,6.8
	c0.2,0.4,0.7,0.9,1.1,1c0.9,0.3,1.6-0.2,2-0.9c0.3-0.6,0.6-1.4,0.4-2.1c-0.2-1.1-0.8-2.1-1.1-3.1c-0.5-1.6-1-3.1-1.5-4.7
	c-0.1-0.2-0.3-0.3-0.5-0.5c-0.2-0.2-0.6-0.5-0.7-0.8c-1-2.7-2.2-5.4-2.2-8.4C220.5,248.6,220.4,246.7,220.4,244.9L220.4,244.9z"/>
<path d="M249,328.1c-0.1-10.2,8.5-18.7,18.8-18.4c9.8,0.2,18.2,8.3,18.1,18.7c-0.1,9.6-8,18.7-19.5,18.2
	C257.4,346.1,249,338.4,249,328.1L249,328.1z M263.7,314.8c0,0.1,0,0.2-0.1,0.3c-0.4,0-0.7,0-1.1-0.1c-2.2-0.5-4.4,0.5-5,2.5
	c-0.2,0.8-0.2,1.7-1,2.3c-0.1,0.1,0.2,0.6,0.3,1.1c0,0-0.3,0.1-0.3,0.3c-0.3,1.4-2.4,1.5-2,3.6c0.4,2-0.2,4.1-0.5,6.5
	c0.7-0.5,1.1-0.8,1.6-1.2c-0.3,2.9,1.6,4.8,2.6,7.3c0.5-0.6,0.8-1,1.1-1.4c0.5,0.7,0.9,1.3,1.4,1.9c0.7,1,1.5,1,2.2,0
	c1.1-1.5,0.1,0,0.3-0.1c1.7,1.4,3.5,2.4,5.8,1.1c0.4-0.2,0.9-0.1,1.4-0.1c0,0.1,0.1,0.2,0.1,0.4c1-0.8,1.9-1.6,2.9-2.4
	c0.4,0.4,1,0.8,1.5,1.2c0.9-2.2,1.8-4.3,2.6-6.4c0.3,0,0.6,0.1,1,0.2c0.2-1,0.4-2,0.6-2.9c0.5-3-0.2-5.8-1.6-8.4
	c-0.4-0.7-0.6-1.5-0.9-2.2c-0.2-0.5-0.5-1.1-0.8-1.6c-0.8-1.2-2-1.9-3.5-1.9c0.1-0.3,0.1-0.5,0.2-0.9c-1.8,0.2-3.3,0.4-4.9,0.5
	c-0.4,0-0.8-0.1-1.1-0.1c-1.2-0.1-2.4-0.2-3.6-0.3c0,0.1,0,0.2-0.1,0.4C263.1,314.4,263.4,314.6,263.7,314.8L263.7,314.8z"/>
<path d="M155.6,362.1c-9.3,0.5-18.8-8.3-18-19.2c0.6-8.5,8.1-17.1,18.6-16.8c9,0.2,18.1,8.1,17.4,19.4
	C173.2,353.8,165.6,362.4,155.6,362.1z"/>
<path d="M187.6,156.2c1.2,0,3.1,1.8,3.2,2.8c0.1,0.9-0.6,1-1.3,0.9c-0.9-0.1-2.8-1.8-2.9-2.8C186.4,156.3,187,156.2,187.6,156.2
	L187.6,156.2z"/>
<path d="M190.1,191.2c-0.5,0.4-0.9,0.9-1.4,1.2c-0.3,0.1-0.7-0.2-1.1-0.3c0.2-0.4,0.4-1.1,0.7-1.3c0.4-0.2,1.1-0.1,1.6-0.1
	C190,191,190,191.1,190.1,191.2L190.1,191.2z"/>
<path d="M190.1,178.9c-0.4,0.4-0.9,0.9-1.4,1.2c-0.2,0.1-0.8,0.2-1,0c-0.2-0.2-0.2-0.7-0.1-1c0.1-0.3,0.5-0.5,0.8-0.6
	c0.5-0.1,1,0,1.5,0C190,178.6,190,178.8,190.1,178.9L190.1,178.9z"/>
<path class="st0" d="M213.3,299.1c0.1-1,0.2-2.1,0.5-3.1c0.2-0.8,0.6-1.6,1.6-1.3c0.6,0.2,1.1,1,1.5,1.6c0.2,0.4,0.1,1.1,0.1,1.7
	c0,1.2-0.4,2.4,1,3.3c1,0.6,0.5,2.2-0.6,2.9c-0.2,0.1-0.4,0.3-0.5,0.4c-0.8,0.7-0.8,1.4-0.4,2.4c1.5,3.4,3.1,6.9,4.2,10.4
	c0.8,2.6,1.2,5.4,1.4,8.1c0.2,3.3-1.8,5.2-5,5.5c-3.2,0.3-6.1-0.7-8.8-2.2c-2.4-1.3-3.6-5.1-2.9-8.3c1-4.8,2.7-9.4,5-13.7
	c0.5-1,0.3-1.6-0.6-2.1c-1.9-1.1-2.2-1.7-0.8-3.3c1.1-1.3,0.9-2.5,0.9-3.9c0-0.6-0.1-1.4,0.2-1.9c0.3-0.5,0.9-1,1.5-1.1
	c0.4,0,1.1,0.6,1.2,1C213,296.7,213.1,297.9,213.3,299.1L213.3,299.1z M211.4,306.1c-2.5,4.7-4.4,9.6-5.5,14.8
	c-0.6,3.1,0.8,6.6,3.5,7.7c1.8,0.7,3.8,1.3,5.8,1.5c1.4,0.1,2.9-0.2,4.1-0.8c1.5-0.7,1.9-2.3,1.8-3.8c-0.1-2-0.3-4-0.9-5.9
	c-1-3.2-2.3-6.4-3.5-9.5c-0.5-1.4-1.1-2.7-1.6-3.9H211.4L211.4,306.1z M217.6,302.2c-0.4-0.3-0.9-1-1.5-1.1c-1.3-0.3-2.6-0.5-4-0.6
	c-1.9-0.1-2.9,0.9-3.1,2.5c0.5,0.4,1,0.5,1.2,0.8c0.8,1.2,1.9,1.6,3.3,1.6c1.4,0,2.4-0.5,3-1.9C216.6,303.1,217,302.8,217.6,302.2
	L217.6,302.2z M216.3,296.8c-0.4-0.5-0.8-0.9-1.1-1.3c-0.3,0.5-0.6,0.9-1,1.4C214.9,296.9,215.5,296.9,216.3,296.8L216.3,296.8z
	 M212.2,296.4c-0.2-0.4-0.5-0.8-0.8-1.2c-0.4,0.4-0.7,0.8-1.3,1.5C211,296.6,211.5,296.5,212.2,296.4z"/>
<path class="st0" d="M211.8,340.9c-0.7-0.3-1.2-0.5-1.8-0.7c-0.1,0,0-0.3,0-0.4c0.6,0.1,1.2,0.1,1.8,0.2c0.2,0,0.4,0.3,0.6,0.5
	C212.2,340.6,212,340.7,211.8,340.9z"/>
<path class="st0" d="M338.6,250.9c-1.3,0.7-2.5,1.4-3.8,2.1c-2.9,1.6-5.9,3.3-8.8,4.9c-0.7,0.4-1,0.8-0.9,1.6c0,2.5,0,5,0,7.9
	c-2.3-1.5-3.8-3.6-5.8-5.2c-3.6,2.8-7.2,5.5-11,8.4c-2.8-9.7-5.5-19-8.3-28.6c13,2.8,25.8,5.6,38.5,8.4
	C338.5,250.6,338.5,250.7,338.6,250.9L338.6,250.9z M320.7,260.1c-6.5-5.5-12.9-10.9-19.5-16.4c2.5,8.7,5,17.1,7.4,25.7
	C312.7,266.2,316.6,263.2,320.7,260.1z M302.8,243.3c0.2,0.2,0.2,0.4,0.3,0.4c7,4.5,14,9,21.1,13.5c0.4,0.2,1.1,0.1,1.5-0.1
	c3.3-1.8,6.6-3.6,9.9-5.4c0.5-0.3,0.9-0.5,1.6-0.9C325.5,248.3,314.2,245.8,302.8,243.3L302.8,243.3z M306.8,247
	c0,0-0.1,0.1-0.1,0.1c0.1,0.1,0.2,0.3,0.4,0.4c2.5,2.1,5.1,4.2,7.6,6.4c3.6,3.2,7.9,5.8,9.5,10.8c0,0,0.1,0,0.2,0c0-1.7,0-3.4,0-5.1
	c0-0.9-0.2-1.5-1.1-2c-3.6-2.3-7.2-4.6-10.8-6.9C310.6,249.4,308.7,248.2,306.8,247L306.8,247z M322.9,264.2
	c-0.7-1.3-1.2-2.4-1.8-3.5c-0.4,0.3-0.7,0.6-1,0.8C321,262.4,321.8,263.2,322.9,264.2L322.9,264.2z"/>
<path d="M270.1,403.8c-1.9,0.9-3.9,1.8-5.8,2.6c-0.7,0.3-1.7,0.2-2.5,0c-2-0.8-4-1.8-6-2.7c0.1-0.3,0.1-0.9,0.3-1
	c1.2-0.9,2.4-1.6,3.7-2.4c-0.3-1.1-1-1.6-2.1-1.4c-1.8,0.4-3.6,0.8-5.5,1.3c-0.9-1.5-0.9-3.3-0.5-5.1l0,0c0.6-0.7,1.2-1.5,1.8-2.2
	c-0.6-0.5-0.9-0.8-1.3-1.2c0.1-0.1,0.1-0.3,0.2-0.4c0.6,0.2,1.3,0.4,2.1,0.6c0.3-0.2,0.7-0.6,1.2-1c0.3,0.2,0.5,0.4,0.7,0.6
	c0.9-0.5,1-2,2.4-1.6c0.4,0.3,0.8,0.8,1.1,0.8c1,0,1.4,0.5,1.9,1.2c1.3-0.1,2.6,0.2,3.7-0.5c1.8-1.2,3.5-1.2,5.3,0
	c0.5,0.4,1,0.6,1.6,0.2c0.3-0.2,0.9,0,1.4,0.1c0,0.1,0,0.2,0,0.3c-0.4,0.3-0.8,0.6-1.3,1c2.1,2.2,2.9,4.7,1.2,7.4
	c-1.5-0.4-2.9-0.9-4.3-1.2c-1.8-0.4-2.7,0-3.3,1.4c0.3,0.1,0.5,0.3,0.8,0.4c1,0.6,2,1.2,3,2C270.1,403,270,403.5,270.1,403.8
	L270.1,403.8z M261.2,393.9L261.2,393.9c-0.5-1-1.8-1.2-2.1-0.1c-0.3,1.1-0.2,2.3-0.1,3.5c0,0.3,0.8,0.8,1.1,0.8
	c0.4,0,1-0.6,1.1-0.9C261.4,396,261.3,394.9,261.2,393.9L261.2,393.9z M264.5,400.8c0.8-0.4,0.8-1.1,0.4-1.7
	c-0.5-0.8-2.9-0.7-3.6,0.1c-0.6,1.1,0.2,1.8,1,2.3C263.2,402.1,263.9,401.7,264.5,400.8L264.5,400.8z M265.2,393.4
	c-1,0.7-1.2,3.1-0.3,4.1c0.3,0.3,0.8,0.6,1.1,0.5c0.3-0.1,0.6-0.6,0.8-1c0.1-0.6,0.2-1.1,0.2-1.7C267,393.8,266.6,393.5,265.2,393.4
	L265.2,393.4z M262.9,406.1c1.1,0,2-0.5,2-1.2c0.1-1-0.9-2.1-1.8-2.2c-1,0-1.9,0.8-1.9,1.8C261.1,405.8,261.5,406.1,262.9,406.1
	L262.9,406.1z"/>
<path class="st0" d="M270.1,403.8c-0.1-0.4,0-0.9-0.2-1c-0.9-0.7-2-1.3-3-2c-0.3-0.2-0.5-0.3-0.8-0.4c0.6-1.5,1.5-1.9,3.3-1.4
	c1.4,0.4,2.8,0.8,4.3,1.2c1.6-2.7,0.9-5.1-1.2-7.4c0.5-0.4,0.9-0.7,1.3-1c0-0.1,0-0.2,0-0.3c-0.5,0-1.1-0.3-1.4-0.1
	c-0.7,0.4-1.1,0.2-1.6-0.2c-1.8-1.2-3.5-1.2-5.3,0c-1.1,0.8-2.5,0.5-3.7,0.5c0.5-0.1,0.9-0.2,1.4-0.3c0.8-0.2,1.6-0.2,2.2-0.6
	c2-1.2,3.5-1.3,5.5,0c0.3,0.2,0.9,0.1,1.3,0.1c-0.2-0.5-0.3-1.1-0.7-1.4c-0.5-0.5-1.2-0.7-1.8-1c0.6,0.2,1.2,0.4,1.7,0.7
	c0.4,0.2,0.6,0.7,0.9,1c0.7,0.5,1.4,0.9,2.2,1.4c-0.4,0.3-0.9,0.8-1.6,1.4c1.8,1.7,2.4,3.8,1.6,6.2
	C273.8,401.4,272.3,402.9,270.1,403.8L270.1,403.8z M268.3,399.2c0,0.1-0.1,0.2-0.1,0.3c1.4,0.7,2.8,1.3,4.1,1.9
	c0.2,0.1,0.5-0.1,0.8-0.2c0-0.2,0-0.4,0-0.5C271.5,400.2,269.9,399.7,268.3,399.2L268.3,399.2z M271.6,402.7
	c0.1-0.2,0.1-0.4,0.2-0.6c-1.2-0.6-2.4-1.2-3.6-1.8c-0.1,0.1-0.1,0.3-0.2,0.4C269.4,401,270.2,402.5,271.6,402.7L271.6,402.7z"/>
<path d="M269.6,388.5c0.6,0.3,1.3,0.6,1.8,1c0.4,0.3,0.5,0.9,0.7,1.4c-0.4,0-1,0.1-1.3-0.1c-2-1.3-3.5-1.2-5.5,0
	c-0.6,0.4-1.5,0.4-2.2,0.6c-0.5,0.1-0.9,0.2-1.4,0.3c-0.5-0.6-0.9-1.2-1.9-1.2c-0.4,0-0.8-0.5-1.1-0.8c-1.6-1.2-1.5,1-2.5,1.1
	c-1-1.6-1.3,1-2.4,0.4c0.6-0.6,1.1-1.1,1.6-1.6c0.1-0.1,0.2-0.1,0.2-0.2l2.2-0.9c0.9,0.2,1.8,0.6,2.7,0.6c1.4,0,2.7,1.6,4.1,0.2
	c0,0,0.1,0,0.1,0c0.6-0.1,1.3,0,1.8-0.3c0.7-0.4,1.3-0.8,2.1-0.5L269.6,388.5L269.6,388.5z"/>
<path class="st0" d="M251.6,395c-0.4,1.8-0.4,3.6,0.5,5.1c1.9-0.4,3.7-0.9,5.5-1.3c1.1-0.2,1.8,0.3,2.1,1.4
	c-1.2,0.8-2.5,1.5-3.7,2.4c-0.2,0.2-0.2,0.7-0.3,1c-0.6-0.3-1.2-0.7-1.8-1c1.1-0.6,2.3-1.2,3.5-1.8c-0.1-0.1-0.1-0.3-0.2-0.4
	c-0.7,0.4-1.5,0.7-2.2,1.1c-0.4,0.3-0.7,0.8-1,1.1C251.4,401.3,250.4,396.9,251.6,395L251.6,395z M252.8,400.9
	c0.1,0.2,0.1,0.5,0.2,0.7c1.5-0.4,2.8-1.5,4.3-1.8c0-0.1-0.1-0.2-0.1-0.4C255.8,399.9,254.3,400.4,252.8,400.9z"/>
<path class="st0" d="M268.7,388.5c-0.8-0.3-1.5,0.1-2.1,0.5c-0.5,0.3-1.2,0.2-1.8,0.3c0,0-0.1,0-0.1,0c-1.4,1.4-2.8-0.2-4.1-0.2
	c-0.9,0-1.8-0.4-2.7-0.6c0.2-0.2,0.5-0.4,0.7-0.5l0,0c0.5,0.2,1,0.7,1.5,0.7c2,0.1,4,0.1,6,0c0.5,0,0.9-0.4,1.5-0.7
	c-0.3-0.3-0.5-0.4-0.5-0.6c-0.1-0.3-0.1-0.6-0.2-0.9c0.3,0,0.5-0.1,0.8,0c1,0.1,2,0.2,3,0.3l0,0c-1.1,1.1-2.3,0.1-3.6,0.2
	L268.7,388.5L268.7,388.5z"/>
<path class="st0" d="M255.4,389.7c-0.5,0.5-1.1,1.1-1.6,1.6c1,0.6,1.4-2,2.4-0.4c1-0.1,0.9-2.3,2.5-1.1c-1.4-0.3-1.5,1.2-2.4,1.6
	c-0.2-0.2-0.4-0.4-0.7-0.6c-0.4,0.4-0.9,0.8-1.2,1c-0.8-0.2-1.4-0.4-2.1-0.6c-0.1,0.1-0.1,0.3-0.2,0.4c0.4,0.3,0.8,0.7,1.3,1.2
	c-0.6,0.8-1.2,1.5-1.8,2.2c0.4-0.7,0.8-1.5,1.3-2.3c-0.5-0.4-1.1-0.8-1.6-1.3c0.9-0.3,1.6-0.5,2.5-0.8c-0.5-0.8-0.9-1.5-1.4-2.2
	c0.3,0.2,0.6,0.5,0.8,0.8C254,390.6,254.1,390.6,255.4,389.7L255.4,389.7z"/>
<path class="st0" d="M272.5,386.9c-0.2,0.3-0.5,0.6-0.7,0.9c-0.4-0.3-0.9-0.6-1.3-1l0,0c-1.7-1.7,0-3.5,0-5.2c0-0.1,0.8-0.2,1.2-0.2
	c0.6,0.1,1.2,0.3,1.9,0.5c0.1-0.1,0.1-0.2,0.2-0.3c-0.3-0.5-0.6-0.9-0.9-1.4c0,0,0.1-0.1,0.2-0.1c0.5,0.7,1,1.5,1.6,2.4
	c-1.4-0.3-2.5-0.6-3.8-0.9c-0.3,1.2-0.8,2.4-0.7,3.6c0,0.8,0.9,1.5,1.4,2.2C271.6,387.4,272.2,387.1,272.5,386.9L272.5,386.9
	L272.5,386.9z"/>
<path d="M255.4,389.7c-1.3,1-1.4,0.9-2.2-0.5c-0.2-0.3-0.6-0.5-0.8-0.8c1-0.9,1.4-0.9,2.3,0c0.3,0.3,0.7,0.7,1,1
	C255.6,389.5,255.5,389.6,255.4,389.7L255.4,389.7z"/>
<path class="st0" d="M272.2,374.5c-0.4,0.5-0.8,1.1-1.3,1.6c-0.3-0.6-0.5-1.2-0.8-1.8c0.6-0.1,1.2-0.3,1.7-0.4
	C272,374.1,272.1,374.3,272.2,374.5L272.2,374.5z"/>
<path class="st0" d="M258.5,388c0.4-0.2,0.7-0.5,1.2-0.9c-2-1-3.6,1.2-4.9-0.1c0.9-0.1,1.9-0.3,2.9-0.5c0.2,0,0.5-0.1,0.7-0.1
	c0.4,0.1,0.9,0.3,1.3,0.5C259.3,387.3,258.9,387.6,258.5,388L258.5,388z"/>
<path class="st0" d="M272.5,386.9c0.6-0.9,1.3-1.8,1.9-2.7c-0.2,0.6-0.4,1.3-0.7,2.2c0.5-0.3,0.8-0.5,1.3-0.9
	C274.3,386.5,273.5,386.8,272.5,386.9L272.5,386.9L272.5,386.9z"/>
<path class="st0" d="M275.6,384.2c0.1-0.3,0.1-0.5,0.2-0.8c0.2-0.6,0.4-1.4,1.2-1.1c0.3,0.1,0.5,0.8,0.7,1.2
	c0.2,0.4,0.2,0.9,0.1,1.4c-0.1-0.6-0.1-1.1-0.3-1.7c-0.1-0.3-0.3-0.5-0.5-0.8c-0.2,0.2-0.6,0.3-0.8,0.6c-0.2,0.4-0.3,0.8-0.5,1.2
	C275.8,384.3,275.7,384.3,275.6,384.2L275.6,384.2z"/>
<path class="st0" d="M251.4,377.4c0.1,0.6,0.4,1.4,0.1,1.7c-0.4,0.5-1.2,0.6-1.9,0.8c-0.2,0-0.5-0.3-0.6-0.4
	c0.8-0.1,1.6-0.2,2.5-0.4c-0.2-0.7-0.3-1.2-0.5-1.6C251.1,377.4,251.3,377.4,251.4,377.4L251.4,377.4z"/>
<path class="st0" d="M249.4,383.9c-1.8,1.6,0.4,2.5,0.2,3.9c-0.6-1.1-1.1-2.1-1.6-3.2C248.4,384.4,248.8,384.2,249.4,383.9
	L249.4,383.9z"/>
<path class="st0" d="M272.8,387.8c1.5,1.1,2.7-0.2,4-0.5C275.5,388,274.3,389,272.8,387.8z"/>
<path class="st0" d="M140.2,401.4c-2.9-0.1-5.5-1-8-2.4c-1.7-1-3.3-2.1-4.9-3.2c-0.2-0.2-0.2-0.7-0.4-1.1c0.4,0,0.8,0,1.1,0.1
	c1.6,1,3.1,2.1,4.7,3.1c3.9,2.4,8.1,2.8,12.4,1.4c2.8-0.9,5.7-1.9,8.5-2.8c0.4-0.1,0.8,0.1,1.2,0.2c-0.3,0.3-0.5,0.8-0.8,0.9
	c-3.5,1.1-7,2.3-10.5,3.3C142.6,401.2,141.4,401.2,140.2,401.4L140.2,401.4z"/>
<path class="st0" d="M148.6,381.1c1.6-1.1,3.1-2.2,4.6-3.2c0.3-0.2,0.8,0,1.2,0c-0.2,0.4-0.3,0.8-0.6,1.1c-1.6,1.2-3.1,2.3-4.8,3.5
	c0.7,1.3,1.4,2.4,2,3.5c0.2,0.3,0.1,0.7,0.1,1.1c-0.4-0.1-0.9-0.2-1.1-0.4c-0.7-0.9-1.2-2-1.9-3c-0.9,0.9-1.8,1.9-2.8,2.7
	c-0.3,0.2-0.8,0.3-1.2,0.4c0.1-0.4,0-0.9,0.3-1.2c0.8-1,1.8-1.8,2.6-2.8c0.3-0.3,0.4-0.9,0.3-1.3c-0.3-1.1-0.7-2.1-1.1-3.2
	c-0.2-0.5-0.8-1.2,0.1-1.5c0.2-0.1,0.8,0.6,1.1,1.1C147.9,378.9,148.2,380,148.6,381.1L148.6,381.1z"/>
<path class="st0" d="M134.8,382c-0.9,0.9-1.9,1.8-2.9,2.6c-0.3,0.2-0.7,0.2-1.1,0.3c0.1-0.4,0-0.9,0.3-1.2c0.8-1,1.8-1.8,2.6-2.8
	c0.3-0.3,0.4-0.9,0.3-1.3c-0.3-1.2-0.9-2.4-1.2-3.6c-0.1-0.3,0.1-0.8,0.2-1.1c0.3,0.2,0.8,0.4,0.9,0.7c0.5,1.2,0.9,2.5,1.4,3.8
	c1.3-1,2.5-1.9,3.8-2.8c0.3-0.2,0.7-0.5,1-0.6c0.3-0.1,0.7,0.1,1,0.2c-0.1,0.3-0.2,0.7-0.4,0.8c-1.4,1-2.8,2-4.2,3
	c-0.6,0.4-0.8,0.9-0.4,1.6c0.5,0.8,1,1.7,1.5,2.6c0.1,0.3,0,0.7,0,1c-0.3-0.1-0.8-0.1-1-0.3C136,384,135.3,383,134.8,382L134.8,382z
	"/>
<path class="st0" d="M220.4,244.9c0,1.8,0,3.6,0,5.5c0,3,1.2,5.7,2.2,8.4c0.1,0.3,0.5,0.5,0.7,0.8c0.2,0.2,0.4,0.3,0.5,0.5
	c0.5,1.6,1,3.1,1.5,4.7c0.4,1.1,0.9,2.1,1.1,3.1c0.1,0.6-0.1,1.5-0.4,2.1c-0.4,0.7-1.1,1.2-2,0.9c-0.4-0.1-1-0.6-1.1-1
	c-0.9-2.2-1.7-4.5-2.6-6.8c-0.1-0.4-0.9-0.5-1.6-0.8c-0.3,2-0.5,3.6-0.8,5.3c-0.1,0-0.2,0-0.3,0c0-1.2-0.1-2.4,0-3.6
	c0.1-0.8-0.2-1.3-1.3-1.3c-0.2,0.6-0.7,1.3-0.8,2c-0.1,1.2-1,1.8-1.8,2.4c-0.2,0.2-0.7,0.3-0.9,0.1c-0.2-0.1-0.4-0.6-0.3-0.9
	c0.2-1,0.6-1.9,0.9-2.9c0.1-0.2,0.1-0.4,0.1-0.4c-0.4-0.5-1-1-1-1.1c0.4-0.8,0.8-1.7,1.5-2c1-0.5,1.3-1.2,1.6-2.1
	c1.1-3.1,2-6.2,1.9-9.6C217.2,246.3,218.9,244.7,220.4,244.9L220.4,244.9z"/>
<path class="st0" d="M263.7,314.8c-0.3-0.2-0.6-0.4-0.9-0.6c0-0.1,0-0.2,0.1-0.4c1.2,0.1,2.4,0.2,3.6,0.3c0.4,0,0.8,0.1,1.1,0.1
	c1.6-0.1,3.1-0.3,4.9-0.5c-0.1,0.5-0.1,0.6-0.2,0.9c1.5,0,2.7,0.6,3.5,1.9c0.3,0.5,0.6,1,0.8,1.6c0.3,0.7,0.5,1.5,0.9,2.2
	c1.4,2.6,2.1,5.4,1.6,8.4c-0.1,0.9-0.4,1.9-0.6,2.9c-0.3-0.1-0.6-0.1-1-0.2c-0.9,2.1-1.7,4.1-2.6,6.4c-0.6-0.5-1.1-0.9-1.5-1.2
	c-1,0.8-1.9,1.6-2.9,2.4c0-0.1-0.1-0.2-0.1-0.4c-0.5,0-1-0.1-1.4,0.1c-2.3,1.3-4.1,0.3-5.8-1.1c-0.1,0-0.2,0.1-0.3,0.1
	c-0.7,1-1.5,1-2.2,0c-0.5-0.6-0.9-1.2-1.4-1.9c-0.3,0.4-0.6,0.8-1.1,1.4c-1-2.5-2.9-4.4-2.6-7.3c-0.5,0.4-0.9,0.7-1.6,1.2
	c0.2-2.4,0.8-4.5,0.5-6.5c-0.4-2.1,1.6-2.3,2-3.6c0-0.1,0.3-0.3,0.3-0.3c-0.1-0.4-0.4-1-0.3-1.1c0.8-0.6,0.8-1.5,1-2.3
	c0.6-2,2.8-3.1,5-2.5c0.4,0.1,0.7,0.1,1.1,0.1C263.7,315,263.7,314.9,263.7,314.8L263.7,314.8z M257.7,325.6
	c0.4,0.5,0.6,0.7,0.8,0.9c0.4,0.4,0.8,0.9,1.2,1.1c1.9,0.5,3.8,1.1,5.6-0.3c0.2-0.2,0.6-0.2,0.9-0.2c1,0.2,2,0.7,3,0.7
	c2.1,0,4.4,0.6,6.2-1.3c-0.4-0.7-0.8-1.5-1.3-2.4c-0.3,0.5-0.5,0.8-0.9,1.3c-0.8-2.6-2.3-4.4-4.4-5.8c-0.3,0.5-0.5,1-0.9,1.8
	c-0.5-0.9-0.9-1.7-1.4-2.4c-3.5,1-6.2,2.8-7,6.8c-0.1,0-0.3-0.1-0.5-0.1c-0.1-0.8-0.1-1.6-0.2-2.4c-1.5,1.2-1.7,3.2-2.6,4.9
	c-0.2-0.9-0.3-1.7-0.2-2.5c0.1-0.8,0.3-1.6,0.5-2.5c-2,1.2-2.6,3.1-1.8,7c0.3-0.6,0.4-0.9,0.6-1.3c0.2,0,0.3,0.1,0.5,0.1
	c-0.4,2.9,0.9,5.1,2.3,7.4c1-1.3,1-1.3,1.9,0.1c0.5,0.7,1,1.4,1.6,2.1c1.3-1.7,1-1.6,2.6-0.5c0.3,0.2,0.6,0.3,0.8,0.5
	c0.8,0.8,1.6,0.7,2.5,0.3c0.9-0.4,1.8-0.8,2.7-1.3c0.1,0.2,0.2,0.4,0.3,0.6c0.2,0.2,0.4,0.4,0.6,0.6c0.8-0.9,1.6-1.7,2.4-2.5
	c-0.1-0.1-0.3-0.3-0.5-0.4c0.4,0.5,0.9,1,1.4,1.7c1-2.6,1.9-4.9,2.7-7.2c0.2,0.2,0.4,0.5,0.7,0.8c1.1-4.4,0.7-8.2-0.7-8.8
	c0.2,0.8,0.6,1.8,0.7,2.7c0,0.9,0.5,2-1,2.3c0,0-0.1,0.1-0.1,0.2c-0.1,1,0,1.9-1.3,2.5c-0.8,0.3-1.1,1.6-1.6,2.6
	c-0.2,0-0.5,0-0.9,0.1c-3.7,0-7.5,0.1-11.2,0.1c-1.2,0-2.2,0.3-3-1.4C258.1,329.6,257.5,328,257.7,325.6L257.7,325.6z M255.8,322.9
	c0.1,0,0.1,0.1,0.1,0.1c0.2-0.1,0.3-0.2,0.5-0.3c0.3-0.1,0.7-0.2,1-0.3c0,0.4-0.1,0.7-0.2,1.1c-0.2,0.8-0.5,1.6-0.7,2.4
	c0.7-1,1.3-2,1.9-2.9c0.2-0.3,0.6-0.4,1-0.6c0.2,0.3,0.3,0.5,0.5,0.9c1.1-2.3,3.1-3.6,5.4-4.5c1.5-0.6,1.7-0.5,2.4,0.9
	c0.1,0.2,0.2,0.3,0.3,0.5c0.8-1.3,1.1-1.5,2.1-0.5c1.3,1.3,2.4,2.7,3.6,4.1c1.5-0.7,1.5,0.9,1.8,1.6c0.5,0.9,0.6,2,0.9,2.9
	c0.1,0,0.2,0,0.3-0.1c-0.3-1-0.6-2-0.8-3c-0.1-0.5,0-1,0-1.5c0.3,0.4,0.6,0.7,0.8,1.1c0.2,0.4,0.3,0.8,0.5,1.2
	c0.2,0,0.3-0.1,0.5-0.2c-0.3-1.1-0.6-2.2-0.9-3.4c-0.2-0.6-0.8-1.3,0.5-1.5c-1-1.9-2.6-3.2-4.5-4.2c-0.7-0.3-1.3-0.6-0.4-1.4
	c-0.4-0.7-2.3,0.7-1.8-1.2h-6.3c0,1.7-1.6,0.8-2.2,1.4c-0.2,0.5-0.4,0.9-0.8,1.1c-1.4,0.9-2.8,1.7-4.1,2.5c0.1,0.1,0.3,0.2,0.4,0.3
	c0,0.4,0.1,0.8-0.1,1C257,321.6,256.3,322.2,255.8,322.9L255.8,322.9z M273.8,332.3v-3.8h-13.9v3.8H273.8z M259.2,330.6
	c0.4-2.6,0.4-2.7-1.1-3.4C258.1,328.9,258.4,330,259.2,330.6z M274.5,330.6c1.3-1.5,1.4-2.1,0.8-3.1
	C273.5,328.1,274.7,329.6,274.5,330.6z M261,316.6c-0.3-0.2-0.6-0.5-0.7-0.5c-0.7,0.5-1.3,1-1.9,1.5c0.1,0.1,0.2,0.2,0.2,0.3
	C259.4,317.5,260.1,317.1,261,316.6L261,316.6z M275.2,317.9c-0.7-1.7-1.3-2-2.5-1.5C273.5,316.9,274.3,317.3,275.2,317.9z"/>
<path d="M211.4,306.1h3.7c0.5,1.2,1.1,2.6,1.6,3.9c1.2,3.2,2.5,6.3,3.5,9.5c0.6,1.9,0.7,3.9,0.9,5.9c0.1,1.5-0.3,3.1-1.8,3.8
	c-1.3,0.6-2.8,1-4.1,0.8c-1.9-0.2-3.9-0.8-5.8-1.5c-2.7-1.1-4.1-4.6-3.5-7.7C207,315.7,208.9,310.8,211.4,306.1L211.4,306.1z"/>
<path d="M217.6,302.2c-0.6,0.6-1,0.9-1.2,1.3c-0.6,1.4-1.6,1.9-3,1.9c-1.4,0-2.5-0.4-3.3-1.6c-0.2-0.3-0.6-0.5-1.2-0.8
	c0.2-1.7,1.2-2.6,3.1-2.5c1.3,0,2.7,0.2,4,0.6C216.7,301.2,217.2,301.9,217.6,302.2L217.6,302.2z"/>
<path d="M216.3,296.8c-0.9,0.1-1.4,0.1-2.1,0.1c0.4-0.5,0.7-1,1-1.4C215.5,295.9,215.9,296.3,216.3,296.8L216.3,296.8z"/>
<path d="M212.2,296.4c-0.7,0.1-1.2,0.2-2.1,0.3c0.6-0.6,0.9-1,1.3-1.5C211.6,295.7,211.9,296.1,212.2,296.4z"/>
<path d="M320.6,260.1c-4,3.1-7.9,6.1-12,9.3c-2.5-8.6-4.9-17-7.4-25.7C307.8,249.2,314.2,254.6,320.6,260.1z"/>
<path d="M302.8,243.3c11.5,2.5,22.8,4.9,34.4,7.5c-0.7,0.4-1.2,0.7-1.6,0.9c-3.3,1.8-6.5,3.7-9.9,5.4c-0.4,0.2-1.1,0.3-1.5,0.1
	c-7-4.5-14.1-9-21.1-13.5C303,243.7,303,243.6,302.8,243.3z"/>
<path d="M306.8,247c1.9,1.2,3.8,2.4,5.7,3.6c3.6,2.3,7.2,4.7,10.8,6.9c0.8,0.5,1.1,1.1,1.1,2c-0.1,1.7,0,3.4,0,5.1
	c-0.1,0-0.2,0-0.2,0c-1.6-5-5.8-7.6-9.5-10.8c-2.5-2.2-5.1-4.3-7.6-6.4c-0.1-0.1-0.2-0.2-0.4-0.4C306.7,247.1,306.8,247.1,306.8,247
	L306.8,247z"/>
<path d="M322.9,264.2c-1.1-1-1.9-1.8-2.8-2.6c0.3-0.2,0.6-0.5,1-0.8C321.6,261.9,322.2,262.9,322.9,264.2L322.9,264.2z"/>
<path d="M265.2,393.3c1.5,0.1,1.8,0.5,1.8,2c0,0.6-0.1,1.1-0.2,1.7c-0.4,0.2-0.9,0.8-1.1,0.6c-0.4-0.2-0.8-0.7-1-1.2
	C264.4,395.4,264.5,394.3,265.2,393.3L265.2,393.3z"/>
<path d="M264.5,400.8c-0.5,0.9-1.3,1.3-2.3,0.7c-0.8-0.5-1.6-1.1-1-2.3c0.6-0.1,1.3-0.3,2-0.3C264.9,398.9,265.1,399.3,264.5,400.8z
	"/>
<path class="st0" d="M262.9,406.1c-1.4,0-1.7-0.3-1.7-1.5c0-1.1,0.9-1.9,1.9-1.8c0.9,0,1.9,1.2,1.8,2.2
	C264.9,405.6,264,406.1,262.9,406.1L262.9,406.1z M262.6,405.3c1.5,0,2.1-0.6,1.8-1.4c-0.3-0.6-2.3-0.7-2.6-0.2
	c-0.2,0.3-0.3,0.8-0.2,1C261.9,405,262.4,405.2,262.6,405.3L262.6,405.3z"/>
<path class="st0" d="M261.2,393.9c0,1.1,0.2,2.2,0,3.2c0,0.4-0.7,0.9-1.1,0.9c-0.4,0-1.1-0.5-1.1-0.8c-0.1-1.1-0.2-2.4,0.1-3.5
	C259.5,392.7,260.7,392.8,261.2,393.9c-1.1-0.9-1.9-0.6-2.2,0.8c-0.1,0.6-0.1,1.4,0.1,2c0.1,0.4,0.7,0.7,1,1.1
	c0.3-0.4,0.9-0.8,1-1.2C261.3,395.7,261.2,394.8,261.2,393.9L261.2,393.9z"/>
<path class="st0" d="M265.2,393.3c-0.7,1-0.8,2.1-0.5,3.2c0.1,0.5,0.5,1,1,1.2c0.2,0.1,0.7-0.4,1.1-0.6c-0.3,0.3-0.5,0.9-0.8,1
	c-0.3,0.1-0.8-0.2-1.1-0.5C263.9,396.5,264.2,394,265.2,393.3z"/>
<path class="st0" d="M264.5,400.8c0.7-1.5,0.4-1.9-1.3-1.8c-0.6,0-1.3,0.2-2,0.3c0.7-0.8,3.1-0.9,3.6-0.1
	C265.2,399.7,265.3,400.4,264.5,400.8L264.5,400.8z"/>
<path d="M268.3,399.2c1.6,0.5,3.2,1,4.9,1.5c0,0.2,0,0.4,0,0.5c-0.3,0.1-0.6,0.3-0.8,0.2c-1.4-0.6-2.8-1.3-4.1-1.9
	C268.2,399.4,268.2,399.3,268.3,399.2L268.3,399.2z"/>
<path d="M271.6,402.7c-1.4-0.2-2.2-1.7-3.5-2c0.1-0.1,0.1-0.3,0.2-0.4c1.2,0.6,2.4,1.2,3.6,1.8C271.8,402.3,271.7,402.5,271.6,402.7
	L271.6,402.7z"/>
<path d="M252.8,400.9c1.5-0.5,2.9-1,4.4-1.5c0,0.1,0.1,0.2,0.1,0.4c-1.5,0.3-2.8,1.4-4.3,1.8C252.9,401.4,252.9,401.1,252.8,400.9z"
	/>
<path d="M254,402.7c0.3-0.4,0.6-0.9,1-1.1c0.7-0.4,1.5-0.7,2.2-1.1c0.1,0.1,0.1,0.3,0.2,0.4C256.3,401.5,255.2,402.1,254,402.7
	L254,402.7L254,402.7z"/>
<path d="M257.7,325.6c-0.2,2.4,0.3,4,1.2,5.8c0.8,1.7,1.8,1.4,3,1.4c3.7,0,7.5-0.1,11.2-0.1c0.4,0,0.7,0,0.9-0.1
	c0.6-1,0.9-2.3,1.6-2.6c1.3-0.6,1.2-1.5,1.3-2.5c0-0.1,0-0.2,0.1-0.2c1.4-0.3,1-1.5,1-2.3c-0.1-1-0.5-1.9-0.7-2.7
	c1.4,0.6,1.8,4.4,0.7,8.8c-0.2-0.3-0.5-0.5-0.7-0.8c-0.9,2.3-1.7,4.5-2.7,7.2c-0.5-0.6-1-1.2-1.4-1.7c0.1,0.1,0.3,0.3,0.5,0.4
	c-0.8,0.9-1.6,1.7-2.4,2.5c-0.2-0.2-0.4-0.4-0.6-0.6c-0.1-0.2-0.2-0.4-0.3-0.6c-0.9,0.4-1.8,0.9-2.7,1.3s-1.8,0.5-2.5-0.3
	c-0.2-0.2-0.6-0.3-0.8-0.5c-1.6-1.1-1.3-1.2-2.6,0.5c-0.5-0.7-1.1-1.4-1.6-2.1c-0.9-1.4-0.8-1.4-1.9-0.1c-1.4-2.2-2.7-4.5-2.3-7.4
	c-0.2,0-0.3-0.1-0.5-0.1c-0.2,0.4-0.3,0.7-0.6,1.3c-0.8-3.9-0.2-5.9,1.8-7c-0.2,0.9-0.4,1.7-0.5,2.5c-0.1,0.8,0,1.6,0.2,2.5
	c0.9-1.7,1.1-3.7,2.6-4.9c0.1,0.8,0.1,1.6,0.2,2.4c0.1,0,0.3,0.1,0.5,0.1c0.8-4,3.5-5.8,7-6.8c0.4,0.8,0.8,1.5,1.4,2.4
	c0.4-0.8,0.6-1.2,0.9-1.8c2.2,1.4,3.6,3.2,4.4,5.8c0.3-0.5,0.6-0.8,0.9-1.3c0.5,0.9,0.9,1.7,1.3,2.4c-1.8,1.9-4.1,1.3-6.2,1.3
	c-1,0-2-0.5-3-0.7c-0.3-0.1-0.7,0-0.9,0.2c-1.8,1.4-3.8,0.8-5.6,0.3c-0.5-0.1-0.8-0.7-1.2-1.1C258.3,326.3,258.1,326.1,257.7,325.6
	L257.7,325.6z M265,324.9c-0.8-0.2-1.4-0.3-2.4-0.5c0.2,1,0.3,1.7,0.5,2.4c0.1,0.1,1.1,0.2,1.2,0C264.7,326.3,264.8,325.6,265,324.9
	L265,324.9z M269,324.5c0.2,1-0.6,2.5,1,2.5c1.1,0,1-1,1-1.8C270.9,323.6,269.9,324.6,269,324.5z"/>
<path d="M255.8,322.9c0.6-0.7,1.2-1.4,1.7-2.1c0.2-0.2,0.1-0.7,0.1-1c-0.1-0.1-0.3-0.2-0.4-0.3c1.4-0.8,2.8-1.6,4.1-2.5
	c0.4-0.2,0.6-0.7,0.8-1.1c0.6-0.6,2.3,0.3,2.2-1.4h6.3c-0.6,1.9,1.4,0.5,1.8,1.2c-0.9,0.7-0.2,1,0.4,1.4c1.9,0.9,3.5,2.2,4.5,4.2
	c-1.3,0.2-0.7,0.9-0.5,1.5c0.3,1.1,0.6,2.2,0.9,3.4c-0.2,0-0.3,0.1-0.5,0.2c-0.2-0.4-0.3-0.8-0.5-1.2c-0.2-0.4-0.5-0.7-0.8-1.1
	c0,0.5-0.1,1,0,1.5c0.2,1,0.5,2,0.8,3c-0.1,0-0.2,0-0.3,0.1c-0.3-1-0.4-2-0.9-2.9c-0.4-0.7-0.4-2.3-1.8-1.6
	c-1.2-1.4-2.3-2.8-3.6-4.1c-1-1-1.3-0.8-2.1,0.5c-0.1-0.2-0.2-0.3-0.3-0.5c-0.6-1.5-0.8-1.5-2.4-0.9c-2.3,0.9-4.2,2.2-5.4,4.5
	c-0.2-0.3-0.3-0.6-0.5-0.9c-0.3,0.2-0.8,0.3-1,0.6c-0.6,0.9-1.2,1.9-1.9,2.9c0.2-0.8,0.5-1.6,0.7-2.4c0.1-0.4,0.1-0.7,0.2-1.1
	c-0.4,0.1-0.7,0.2-1,0.3c-0.2,0.1-0.3,0.2-0.5,0.3C255.9,323,255.8,323,255.8,322.9L255.8,322.9z"/>
<path d="M273.8,332.3h-13.9v-3.8h13.9V332.3z M266.4,330.8c-0.2-0.2-0.4-0.4-0.6-0.7c-0.1-0.2-0.1-0.7-0.3-0.7c-0.3-0.1-0.7,0-1,0.2
	c-0.4,0.2-0.3,1.7,0.1,2C265.7,332.2,265.9,331.2,266.4,330.8c0.1,0.2,0.2,0.5,0.3,0.8c0.1,0,0.2,0,0.3-0.1c0.1-0.4,0.1-0.8,0.2-1
	c0.2,0.4,0.4,0.9,0.7,1c0.9,0.2,1.3-0.3,1.1-1.2c0.5,0.1,0.9,0.2,1.3,0.3c-0.1,0.3-0.3,0.6-0.4,0.9l0.1,0.1c0.2-0.2,0.4-0.4,0.4-0.4
	c0.5,0.1,1.1,0.4,1.2,0.3c0.9-1-0.1-0.9-0.7-1.1c0.1-0.4,0.2-0.7,0.2-0.8h-4.8C266.4,329.9,266.4,330.3,266.4,330.8L266.4,330.8z
	 M264.2,331.4c-0.2-0.7-0.3-1.3-0.7-1.8c-0.2-0.2-1.1-0.2-1.2,0c-0.3,0.4-0.4,1.1-0.3,1.5c0,0.2,0.9,0.2,1.3,0.3
	C263.6,331.4,263.8,331.4,264.2,331.4z"/>
<path d="M259.2,330.6c-0.8-0.6-1.2-1.8-1.1-3.4C259.6,327.9,259.7,328,259.2,330.6z"/>
<path d="M274.5,330.6c0.2-1-1-2.5,0.8-3.1C275.9,328.6,275.8,329.1,274.5,330.6z"/>
<path d="M261,316.5c-0.9,0.5-1.6,0.9-2.4,1.4c-0.1-0.1-0.2-0.2-0.2-0.3c0.6-0.5,1.3-1,1.9-1.5C260.4,316,260.8,316.4,261,316.5
	L261,316.5z"/>
<path d="M275.2,317.9c-0.9-0.5-1.7-1-2.5-1.5C274,315.8,274.5,316.1,275.2,317.9z"/>
<path d="M262.6,405.3c-0.2-0.1-0.7-0.3-1-0.6c-0.1-0.1,0-0.7,0.2-1c0.3-0.5,2.4-0.4,2.6,0.2C264.7,404.7,264.1,405.3,262.6,405.3
	L262.6,405.3z"/>
<path d="M261.2,393.9c0,0.9,0.1,1.8-0.1,2.7c-0.1,0.4-0.6,0.8-1,1.2c-0.4-0.4-0.9-0.7-1-1.1c-0.2-0.6-0.2-1.4-0.1-2
	C259.3,393.2,260.1,393,261.2,393.9L261.2,393.9L261.2,393.9z"/>
<path class="st0" d="M265,324.9c-0.2,0.7-0.3,1.4-0.6,2c-0.1,0.2-1.1,0.1-1.2,0c-0.3-0.7-0.4-1.5-0.5-2.4
	C263.6,324.6,264.2,324.7,265,324.9L265,324.9z M263.7,324.9c-0.2,0.1-0.3,0.2-0.5,0.3c0.2,0.4,0.3,0.8,0.5,1.3
	c0.2-0.2,0.7-0.5,0.6-0.6C264.2,325.6,263.9,325.3,263.7,324.9L263.7,324.9z"/>
<path class="st0" d="M269,324.5c0.8,0.1,1.9-0.9,2,0.7c0,0.8,0.1,1.9-1,1.8C268.4,326.9,269.3,325.5,269,324.5z M269.1,325.1
	c0.5,0.6,0.8,1,1.2,1.4c0.1-0.5,0.3-1.1,0.5-1.8C270,324.9,269.7,325,269.1,325.1L269.1,325.1z"/>
<path class="st0" d="M266.4,330.7c0-0.5,0.1-0.9,0.1-1.2h4.8c0,0.1-0.1,0.4-0.2,0.8c0.5,0.2,1.6,0.2,0.7,1.1
	c-0.1,0.1-0.7-0.1-1.2-0.3c0,0-0.2,0.2-0.4,0.4l-0.1-0.1c0.1-0.3,0.3-0.6,0.4-0.9c-0.4-0.1-0.8-0.2-1.3-0.3c0.1,0.9-0.3,1.4-1.1,1.2
	c-0.3-0.1-0.5-0.6-0.7-1c0,0.2-0.1,0.6-0.2,1c-0.1,0-0.2,0-0.3,0.1C266.6,331.2,266.5,331,266.4,330.7L266.4,330.7L266.4,330.7z"/>
<path class="st0" d="M266.4,330.7c-0.5,0.5-0.7,1.5-1.7,0.7c-0.4-0.3-0.5-1.7-0.1-2c0.3-0.2,0.6-0.2,1-0.2c0.1,0,0.1,0.5,0.3,0.7
	C266,330.3,266.2,330.5,266.4,330.7L266.4,330.7z"/>
<path class="st0" d="M264.2,331.4c-0.4,0-0.6,0.1-0.8,0c-0.5-0.1-1.3-0.1-1.3-0.3c-0.1-0.5,0-1.1,0.3-1.5c0.1-0.2,1-0.2,1.2,0
	C263.8,330,263.9,330.7,264.2,331.4z"/>
<path d="M263.7,324.9c0.2,0.3,0.5,0.6,0.6,1c0,0.1-0.4,0.4-0.6,0.6c-0.2-0.4-0.3-0.8-0.5-1.3C263.4,325.2,263.5,325,263.7,324.9
	L263.7,324.9z"/>
<path d="M269.1,325.1c0.7-0.1,1-0.2,1.7-0.4c-0.2,0.8-0.4,1.3-0.5,1.8C269.9,326.1,269.6,325.7,269.1,325.1L269.1,325.1z"/>
</svg>
